<?xml version="1.0" encoding="UTF-8" standalone="no"?>
<!DOCTYPE svg PUBLIC "-//W3C//DTD SVG 1.1//EN" "http://www.w3.org/Graphics/SVG/1.1/DTD/svg11.dtd">
<svg width="100%" height="100%" viewBox="0 0 582 189" version="1.1" xmlns="http://www.w3.org/2000/svg" xmlns:xlink="http://www.w3.org/1999/xlink" xml:space="preserve" xmlns:serif="http://www.serif.com/" style="fill-rule:evenodd;clip-rule:evenodd;stroke-linejoin:round;stroke-miterlimit:2;">
    <g transform="matrix(1.89484,0,0,1.89484,-3877.65,-297.781)">
        <g transform="matrix(1,0,0,1,2283.91,180.639)">
            <path d="M0,0.028C0,-2.618 -0.954,-4.886 -2.862,-6.776C-4.77,-8.684 -7.047,-9.638 -9.692,-9.638C-12.32,-9.638 -14.588,-8.684 -16.496,-6.776C-18.404,-4.886 -19.358,-2.618 -19.358,0.028C-19.358,2.674 -18.404,4.951 -16.496,6.859C-14.588,8.748 -12.32,9.693 -9.692,9.693C-7.065,9.693 -4.788,8.748 -2.862,6.859C-0.954,4.951 0,2.674 0,0.028M4.59,13.851L0,13.851L0,9.693C-2.718,12.735 -6.102,14.256 -10.151,14.256C-13.985,14.256 -17.252,12.852 -19.952,10.044C-22.634,7.218 -23.975,3.88 -23.975,0.028C-23.975,-3.896 -22.58,-7.253 -19.79,-10.043C-16.982,-12.85 -13.616,-14.254 -9.692,-14.254C-5.751,-14.254 -2.385,-12.85 0.405,-10.043C3.195,-7.253 4.59,-3.896 4.59,0.028L4.59,13.851ZM35.362,13.851L30.773,13.851L30.773,-2.267C30.773,-4.301 30.044,-6.038 28.586,-7.478C27.146,-8.918 25.418,-9.638 23.402,-9.638C21.368,-9.638 19.631,-8.918 18.192,-7.478C16.751,-6.038 16.032,-4.301 16.032,-2.267L16.032,13.851L11.415,13.851L11.415,-2.267C11.415,-5.435 12.621,-8.225 15.033,-10.637C17.444,-13.048 20.234,-14.254 23.402,-14.254C26.552,-14.254 29.333,-13.048 31.745,-10.637C34.156,-8.225 35.362,-5.435 35.362,-2.267L35.362,13.851ZM65.001,0.028C65.001,-2.618 64.047,-4.886 62.139,-6.776C60.231,-8.684 57.955,-9.638 55.309,-9.638C52.681,-9.638 50.413,-8.684 48.505,-6.776C46.597,-4.886 45.643,-2.618 45.643,0.028C45.643,2.674 46.597,4.951 48.505,6.859C50.413,8.748 52.681,9.693 55.309,9.693C57.937,9.693 60.214,8.748 62.139,6.859C64.047,4.951 65.001,2.674 65.001,0.028M69.591,0.028C69.591,3.952 68.196,7.309 65.406,10.098C62.634,12.87 59.268,14.256 55.309,14.256C51.367,14.256 48.001,12.87 45.211,10.098C42.422,7.309 41.027,3.952 41.027,0.028C41.027,-3.824 42.368,-7.172 45.049,-10.015C47.749,-12.841 51.016,-14.254 54.85,-14.254C58.882,-14.254 62.265,-12.715 65.001,-9.638L65.001,-23.002L69.591,-23.002L69.591,0.028ZM-74.796,0.028C-74.796,-2.618 -75.75,-4.886 -77.658,-6.776C-79.548,-8.684 -81.816,-9.638 -84.462,-9.638C-87.108,-9.638 -89.384,-8.684 -91.292,-6.776C-93.182,-4.886 -94.127,-2.618 -94.127,0.028C-94.127,2.674 -93.182,4.951 -91.292,6.859C-89.384,8.748 -87.108,9.693 -84.462,9.693C-81.816,9.693 -79.548,8.748 -77.658,6.859C-75.75,4.951 -74.796,2.674 -74.796,0.028M-70.18,0.028C-70.18,3.97 -71.583,7.326 -74.391,10.098C-77.181,12.87 -80.538,14.256 -84.462,14.256C-88.403,14.256 -91.769,12.87 -94.559,10.098C-97.349,7.309 -98.744,3.952 -98.744,0.028L-98.744,-23.002L-94.127,-23.002L-94.127,-9.638C-91.409,-12.715 -88.034,-14.254 -84.003,-14.254C-80.151,-14.254 -76.893,-12.841 -74.229,-10.015C-71.529,-7.172 -70.18,-3.824 -70.18,0.028M-39.92,-13.795L-63.867,23.03L-69.294,23.03L-63.354,13.851L-63.354,-13.795L-58.765,-13.795L-58.765,6.75L-45.4,-13.795L-39.92,-13.795ZM-208.87,-4.589C-208.87,-8.368 -210.229,-11.617 -212.947,-14.335C-215.665,-17.053 -218.913,-18.412 -222.693,-18.412L-231.927,-18.412L-231.927,9.234L-222.693,9.234C-218.913,9.234 -215.665,7.875 -212.947,5.158C-210.229,2.44 -208.87,-0.809 -208.87,-4.589M-204.28,-4.589C-204.28,0.487 -206.089,4.834 -209.707,8.451C-213.307,12.051 -217.635,13.851 -222.693,13.851L-236.516,13.851L-236.516,-23.002L-222.693,-23.002C-217.635,-23.002 -213.307,-21.193 -209.707,-17.575C-206.089,-13.975 -204.28,-9.647 -204.28,-4.589M-186.602,-9.638C-188.636,-9.638 -190.373,-8.918 -191.812,-7.478C-193.252,-6.038 -193.972,-4.301 -193.972,-2.267L-193.972,13.851L-198.589,13.851L-198.589,-2.267C-198.589,-5.435 -197.383,-8.225 -194.971,-10.637C-192.559,-13.048 -189.77,-14.254 -186.602,-14.254L-186.602,-9.638ZM-159.285,0.028C-159.285,-2.618 -160.239,-4.886 -162.147,-6.776C-164.055,-8.684 -166.331,-9.638 -168.977,-9.638C-171.605,-9.638 -173.873,-8.684 -175.781,-6.776C-177.689,-4.886 -178.643,-2.618 -178.643,0.028C-178.643,2.674 -177.689,4.951 -175.781,6.859C-173.873,8.748 -171.605,9.693 -168.977,9.693C-166.349,9.693 -164.073,8.748 -162.147,6.859C-160.239,4.951 -159.285,2.674 -159.285,0.028M-154.695,0.028C-154.695,3.952 -156.09,7.309 -158.88,10.098C-161.652,12.87 -165.017,14.256 -168.977,14.256C-172.919,14.256 -176.285,12.87 -179.075,10.098C-181.864,7.309 -183.259,3.952 -183.259,0.028C-183.259,-3.896 -181.864,-7.253 -179.075,-10.043C-176.267,-12.85 -172.901,-14.254 -168.977,-14.254C-165.036,-14.254 -161.67,-12.85 -158.88,-10.043C-156.09,-7.253 -154.695,-3.896 -154.695,0.028M-125.056,0.028C-125.056,-2.618 -126.01,-4.886 -127.918,-6.776C-129.808,-8.684 -132.076,-9.638 -134.722,-9.638C-137.368,-9.638 -139.644,-8.684 -141.552,-6.776C-143.442,-4.886 -144.387,-2.618 -144.387,0.028C-144.387,2.674 -143.442,4.951 -141.552,6.859C-139.644,8.748 -137.368,9.693 -134.722,9.693C-132.076,9.693 -129.808,8.748 -127.918,6.859C-126.01,4.951 -125.056,2.674 -125.056,0.028M-120.44,0.028C-120.44,3.898 -121.79,7.236 -124.489,10.044C-127.171,12.852 -130.429,14.256 -134.263,14.256C-138.295,14.256 -141.669,12.735 -144.387,9.693L-144.387,23.03L-149.004,23.03L-149.004,0.028C-149.004,-3.896 -147.609,-7.253 -144.819,-10.043C-142.011,-12.85 -138.646,-14.254 -134.722,-14.254C-130.816,-14.254 -127.459,-12.85 -124.651,-10.043C-121.844,-7.253 -120.44,-3.896 -120.44,0.028" style="fill:rgb(196,34,48);"/>
        </g>
        <g transform="matrix(1,0,0,1,2172.53,220.008)">
            <path d="M0,27.674L-4.617,27.674L-4.617,11.556C-4.617,9.522 -5.337,7.785 -6.777,6.345C-8.216,4.905 -9.953,4.186 -11.987,4.186C-13.985,4.186 -15.722,4.905 -17.198,6.345C-18.638,7.785 -19.358,9.522 -19.358,11.556L-19.358,27.674L-23.948,27.674L-23.948,-9.179L-19.358,-9.179L-19.358,3.403C-17.126,0.847 -14.354,-0.431 -11.042,-0.431C-7.892,-0.431 -5.238,0.793 -3.078,3.241C-1.026,5.599 0,8.37 0,11.556L0,27.674ZM27.749,6.804C25.895,5.059 23.672,4.186 21.08,4.186C18.38,4.186 16.104,5.14 14.25,7.047C12.378,8.955 11.442,11.241 11.442,13.905C11.442,14.877 11.622,15.921 11.982,17.037L27.749,6.804ZM35.389,13.932C35.353,17.874 33.95,21.222 31.178,23.975C28.388,26.711 25.049,28.079 21.161,28.079C17.22,28.079 13.836,26.711 11.01,23.975C8.22,21.222 6.825,17.865 6.825,13.905C6.825,9.927 8.211,6.552 10.983,3.781C13.755,0.973 17.121,-0.431 21.08,-0.431C23.906,-0.431 26.516,0.343 28.91,1.891C31.304,3.421 33.068,5.49 34.202,8.1L14.493,20.898C16.347,22.643 18.57,23.517 21.161,23.517C23.843,23.517 26.102,22.59 27.938,20.736C29.792,18.864 30.728,16.596 30.746,13.932L35.389,13.932ZM46.831,27.674L42.241,27.674L42.241,-9.179L46.831,-9.179L46.831,27.674ZM60.568,27.674L55.978,27.674L55.978,-9.179L60.568,-9.179L60.568,27.674ZM91.368,13.851C91.368,11.205 90.414,8.937 88.506,7.047C86.598,5.14 84.321,4.186 81.675,4.186C79.048,4.186 76.78,5.14 74.872,7.047C72.964,8.937 72.01,11.205 72.01,13.851C72.01,16.497 72.964,18.774 74.872,20.682C76.78,22.571 79.048,23.517 81.675,23.517C84.303,23.517 86.58,22.571 88.506,20.682C90.414,18.774 91.368,16.497 91.368,13.851M95.958,13.851C95.958,17.775 94.563,21.132 91.773,23.921C89.001,26.693 85.635,28.079 81.675,28.079C77.734,28.079 74.368,26.693 71.578,23.921C68.788,21.132 67.393,17.775 67.393,13.851C67.393,9.927 68.788,6.57 71.578,3.781C74.386,0.973 77.752,-0.431 81.675,-0.431C85.617,-0.431 88.983,0.973 91.773,3.781C94.563,6.57 95.958,9.927 95.958,13.851M107.399,27.674L102.809,27.674L102.809,23.057L107.399,23.057L107.399,27.674ZM107.399,-9.179L106.482,18.468L103.728,18.468L102.81,-9.179L107.399,-9.179ZM-109.025,20.115C-109.025,22.328 -109.826,24.209 -111.427,25.757C-113.029,27.305 -114.928,28.079 -117.124,28.079C-118.996,28.079 -120.67,27.503 -122.146,26.351C-123.64,25.181 -124.585,23.705 -124.981,21.924L-120.553,20.708C-120.481,21.122 -120.337,21.5 -120.121,21.842C-119.905,22.184 -119.644,22.477 -119.338,22.72C-119.032,22.963 -118.69,23.156 -118.312,23.3C-117.934,23.445 -117.538,23.517 -117.124,23.517C-116.152,23.517 -115.324,23.184 -114.64,22.518C-113.938,21.851 -113.587,21.05 -113.587,20.115C-113.587,18.639 -114.586,17.442 -116.584,16.524C-118.33,15.714 -119.666,15.093 -120.593,14.661C-121.52,14.229 -122.038,13.977 -122.146,13.905C-124.144,12.483 -125.143,10.404 -125.143,7.668C-125.143,5.455 -124.351,3.556 -122.767,1.972C-121.165,0.37 -119.257,-0.431 -117.043,-0.431C-115.225,-0.431 -113.578,0.154 -112.102,1.324C-110.627,2.476 -109.682,3.952 -109.268,5.751L-113.722,6.939C-114.136,5.103 -115.243,4.186 -117.043,4.186C-117.979,4.186 -118.807,4.528 -119.527,5.212C-120.211,5.895 -120.553,6.715 -120.553,7.668C-120.553,9.126 -119.554,10.314 -117.556,11.232C-115.828,12.042 -114.505,12.667 -113.587,13.109C-112.669,13.549 -112.147,13.815 -112.021,13.905C-110.024,15.345 -109.025,17.415 -109.025,20.115M-78.225,13.851C-78.225,11.205 -79.179,8.937 -81.087,7.047C-82.995,5.14 -85.271,4.186 -87.917,4.186C-90.545,4.186 -92.813,5.14 -94.721,7.047C-96.629,8.937 -97.583,11.205 -97.583,13.851C-97.583,16.497 -96.629,18.774 -94.721,20.682C-92.813,22.571 -90.545,23.517 -87.917,23.517C-85.289,23.517 -83.013,22.571 -81.087,20.682C-79.179,18.774 -78.225,16.497 -78.225,13.851M-73.635,27.674L-78.225,27.674L-78.225,23.517C-80.943,26.558 -84.327,28.079 -88.376,28.079C-92.21,28.079 -95.477,26.675 -98.177,23.867C-100.859,21.041 -102.199,17.703 -102.199,13.851C-102.199,9.927 -100.805,6.57 -98.015,3.781C-95.207,0.973 -91.841,-0.431 -87.917,-0.431C-83.976,-0.431 -80.61,0.973 -77.82,3.781C-75.03,6.57 -73.635,9.927 -73.635,13.851L-73.635,27.674ZM-42.215,0.028L-66.162,36.853L-71.589,36.853L-65.649,27.674L-65.649,0.028L-61.059,0.028L-61.059,20.573L-47.695,0.028L-42.215,0.028Z" style="fill:rgb(196,34,48);"/>
        </g>
    </g>
    <g transform="matrix(1.89484,0,0,1.89484,-3879.48,-298.698)">
        <g transform="matrix(1,0,0,1,2283.91,180.639)">
            <path d="M0,0.028C0,-2.618 -0.954,-4.886 -2.862,-6.776C-4.77,-8.684 -7.047,-9.638 -9.692,-9.638C-12.32,-9.638 -14.588,-8.684 -16.496,-6.776C-18.404,-4.886 -19.358,-2.618 -19.358,0.028C-19.358,2.674 -18.404,4.951 -16.496,6.859C-14.588,8.748 -12.32,9.693 -9.692,9.693C-7.065,9.693 -4.788,8.748 -2.862,6.859C-0.954,4.951 0,2.674 0,0.028M4.59,13.851L0,13.851L0,9.693C-2.718,12.735 -6.102,14.256 -10.151,14.256C-13.985,14.256 -17.252,12.852 -19.952,10.044C-22.634,7.218 -23.975,3.88 -23.975,0.028C-23.975,-3.896 -22.58,-7.253 -19.79,-10.043C-16.982,-12.85 -13.616,-14.254 -9.692,-14.254C-5.751,-14.254 -2.385,-12.85 0.405,-10.043C3.195,-7.253 4.59,-3.896 4.59,0.028L4.59,13.851ZM35.362,13.851L30.773,13.851L30.773,-2.267C30.773,-4.301 30.044,-6.038 28.586,-7.478C27.146,-8.918 25.418,-9.638 23.402,-9.638C21.368,-9.638 19.631,-8.918 18.192,-7.478C16.751,-6.038 16.032,-4.301 16.032,-2.267L16.032,13.851L11.415,13.851L11.415,-2.267C11.415,-5.435 12.621,-8.225 15.033,-10.637C17.444,-13.048 20.234,-14.254 23.402,-14.254C26.552,-14.254 29.333,-13.048 31.745,-10.637C34.156,-8.225 35.362,-5.435 35.362,-2.267L35.362,13.851ZM65.001,0.028C65.001,-2.618 64.047,-4.886 62.139,-6.776C60.231,-8.684 57.955,-9.638 55.309,-9.638C52.681,-9.638 50.413,-8.684 48.505,-6.776C46.597,-4.886 45.643,-2.618 45.643,0.028C45.643,2.674 46.597,4.951 48.505,6.859C50.413,8.748 52.681,9.693 55.309,9.693C57.937,9.693 60.214,8.748 62.139,6.859C64.047,4.951 65.001,2.674 65.001,0.028M69.591,0.028C69.591,3.952 68.196,7.309 65.406,10.098C62.634,12.87 59.268,14.256 55.309,14.256C51.367,14.256 48.001,12.87 45.211,10.098C42.422,7.309 41.027,3.952 41.027,0.028C41.027,-3.824 42.368,-7.172 45.049,-10.015C47.749,-12.841 51.016,-14.254 54.85,-14.254C58.882,-14.254 62.265,-12.715 65.001,-9.638L65.001,-23.002L69.591,-23.002L69.591,0.028ZM-74.796,0.028C-74.796,-2.618 -75.75,-4.886 -77.658,-6.776C-79.548,-8.684 -81.816,-9.638 -84.462,-9.638C-87.108,-9.638 -89.384,-8.684 -91.292,-6.776C-93.182,-4.886 -94.127,-2.618 -94.127,0.028C-94.127,2.674 -93.182,4.951 -91.292,6.859C-89.384,8.748 -87.108,9.693 -84.462,9.693C-81.816,9.693 -79.548,8.748 -77.658,6.859C-75.75,4.951 -74.796,2.674 -74.796,0.028M-70.18,0.028C-70.18,3.97 -71.583,7.326 -74.391,10.098C-77.181,12.87 -80.538,14.256 -84.462,14.256C-88.403,14.256 -91.769,12.87 -94.559,10.098C-97.349,7.309 -98.744,3.952 -98.744,0.028L-98.744,-23.002L-94.127,-23.002L-94.127,-9.638C-91.409,-12.715 -88.034,-14.254 -84.003,-14.254C-80.151,-14.254 -76.893,-12.841 -74.229,-10.015C-71.529,-7.172 -70.18,-3.824 -70.18,0.028M-39.92,-13.795L-63.867,23.03L-69.294,23.03L-63.354,13.851L-63.354,-13.795L-58.765,-13.795L-58.765,6.75L-45.4,-13.795L-39.92,-13.795ZM-208.87,-4.589C-208.87,-8.368 -210.229,-11.617 -212.947,-14.335C-215.665,-17.053 -218.913,-18.412 -222.693,-18.412L-231.927,-18.412L-231.927,9.234L-222.693,9.234C-218.913,9.234 -215.665,7.875 -212.947,5.158C-210.229,2.44 -208.87,-0.809 -208.87,-4.589M-204.28,-4.589C-204.28,0.487 -206.089,4.834 -209.707,8.451C-213.307,12.051 -217.635,13.851 -222.693,13.851L-236.516,13.851L-236.516,-23.002L-222.693,-23.002C-217.635,-23.002 -213.307,-21.193 -209.707,-17.575C-206.089,-13.975 -204.28,-9.647 -204.28,-4.589M-186.602,-9.638C-188.636,-9.638 -190.373,-8.918 -191.812,-7.478C-193.252,-6.038 -193.972,-4.301 -193.972,-2.267L-193.972,13.851L-198.589,13.851L-198.589,-2.267C-198.589,-5.435 -197.383,-8.225 -194.971,-10.637C-192.559,-13.048 -189.77,-14.254 -186.602,-14.254L-186.602,-9.638ZM-159.285,0.028C-159.285,-2.618 -160.239,-4.886 -162.147,-6.776C-164.055,-8.684 -166.331,-9.638 -168.977,-9.638C-171.605,-9.638 -173.873,-8.684 -175.781,-6.776C-177.689,-4.886 -178.643,-2.618 -178.643,0.028C-178.643,2.674 -177.689,4.951 -175.781,6.859C-173.873,8.748 -171.605,9.693 -168.977,9.693C-166.349,9.693 -164.073,8.748 -162.147,6.859C-160.239,4.951 -159.285,2.674 -159.285,0.028M-154.695,0.028C-154.695,3.952 -156.09,7.309 -158.88,10.098C-161.652,12.87 -165.017,14.256 -168.977,14.256C-172.919,14.256 -176.285,12.87 -179.075,10.098C-181.864,7.309 -183.259,3.952 -183.259,0.028C-183.259,-3.896 -181.864,-7.253 -179.075,-10.043C-176.267,-12.85 -172.901,-14.254 -168.977,-14.254C-165.036,-14.254 -161.67,-12.85 -158.88,-10.043C-156.09,-7.253 -154.695,-3.896 -154.695,0.028M-125.056,0.028C-125.056,-2.618 -126.01,-4.886 -127.918,-6.776C-129.808,-8.684 -132.076,-9.638 -134.722,-9.638C-137.368,-9.638 -139.644,-8.684 -141.552,-6.776C-143.442,-4.886 -144.387,-2.618 -144.387,0.028C-144.387,2.674 -143.442,4.951 -141.552,6.859C-139.644,8.748 -137.368,9.693 -134.722,9.693C-132.076,9.693 -129.808,8.748 -127.918,6.859C-126.01,4.951 -125.056,2.674 -125.056,0.028M-120.44,0.028C-120.44,3.898 -121.79,7.236 -124.489,10.044C-127.171,12.852 -130.429,14.256 -134.263,14.256C-138.295,14.256 -141.669,12.735 -144.387,9.693L-144.387,23.03L-149.004,23.03L-149.004,0.028C-149.004,-3.896 -147.609,-7.253 -144.819,-10.043C-142.011,-12.85 -138.646,-14.254 -134.722,-14.254C-130.816,-14.254 -127.459,-12.85 -124.651,-10.043C-121.844,-7.253 -120.44,-3.896 -120.44,0.028" style="fill:white;"/>
        </g>
        <g transform="matrix(1,0,0,1,2172.53,220.008)">
            <path d="M0,27.674L-4.617,27.674L-4.617,11.556C-4.617,9.522 -5.337,7.785 -6.777,6.345C-8.216,4.905 -9.953,4.186 -11.987,4.186C-13.985,4.186 -15.722,4.905 -17.198,6.345C-18.638,7.785 -19.358,9.522 -19.358,11.556L-19.358,27.674L-23.948,27.674L-23.948,-9.179L-19.358,-9.179L-19.358,3.403C-17.126,0.847 -14.354,-0.431 -11.042,-0.431C-7.892,-0.431 -5.238,0.793 -3.078,3.241C-1.026,5.599 0,8.37 0,11.556L0,27.674ZM27.749,6.804C25.895,5.059 23.672,4.186 21.08,4.186C18.38,4.186 16.104,5.14 14.25,7.047C12.378,8.955 11.442,11.241 11.442,13.905C11.442,14.877 11.622,15.921 11.982,17.037L27.749,6.804ZM35.389,13.932C35.353,17.874 33.95,21.222 31.178,23.975C28.388,26.711 25.049,28.079 21.161,28.079C17.22,28.079 13.836,26.711 11.01,23.975C8.22,21.222 6.825,17.865 6.825,13.905C6.825,9.927 8.211,6.552 10.983,3.781C13.755,0.973 17.121,-0.431 21.08,-0.431C23.906,-0.431 26.516,0.343 28.91,1.891C31.304,3.421 33.068,5.49 34.202,8.1L14.493,20.898C16.347,22.643 18.57,23.517 21.161,23.517C23.843,23.517 26.102,22.59 27.938,20.736C29.792,18.864 30.728,16.596 30.746,13.932L35.389,13.932ZM46.831,27.674L42.241,27.674L42.241,-9.179L46.831,-9.179L46.831,27.674ZM60.568,27.674L55.978,27.674L55.978,-9.179L60.568,-9.179L60.568,27.674ZM91.368,13.851C91.368,11.205 90.414,8.937 88.506,7.047C86.598,5.14 84.321,4.186 81.675,4.186C79.048,4.186 76.78,5.14 74.872,7.047C72.964,8.937 72.01,11.205 72.01,13.851C72.01,16.497 72.964,18.774 74.872,20.682C76.78,22.571 79.048,23.517 81.675,23.517C84.303,23.517 86.58,22.571 88.506,20.682C90.414,18.774 91.368,16.497 91.368,13.851M95.958,13.851C95.958,17.775 94.563,21.132 91.773,23.921C89.001,26.693 85.635,28.079 81.675,28.079C77.734,28.079 74.368,26.693 71.578,23.921C68.788,21.132 67.393,17.775 67.393,13.851C67.393,9.927 68.788,6.57 71.578,3.781C74.386,0.973 77.752,-0.431 81.675,-0.431C85.617,-0.431 88.983,0.973 91.773,3.781C94.563,6.57 95.958,9.927 95.958,13.851M107.399,27.674L102.809,27.674L102.809,23.057L107.399,23.057L107.399,27.674ZM107.399,-9.179L106.482,18.468L103.728,18.468L102.81,-9.179L107.399,-9.179ZM-109.025,20.115C-109.025,22.328 -109.826,24.209 -111.427,25.757C-113.029,27.305 -114.928,28.079 -117.124,28.079C-118.996,28.079 -120.67,27.503 -122.146,26.351C-123.64,25.181 -124.585,23.705 -124.981,21.924L-120.553,20.708C-120.481,21.122 -120.337,21.5 -120.121,21.842C-119.905,22.184 -119.644,22.477 -119.338,22.72C-119.032,22.963 -118.69,23.156 -118.312,23.3C-117.934,23.445 -117.538,23.517 -117.124,23.517C-116.152,23.517 -115.324,23.184 -114.64,22.518C-113.938,21.851 -113.587,21.05 -113.587,20.115C-113.587,18.639 -114.586,17.442 -116.584,16.524C-118.33,15.714 -119.666,15.093 -120.593,14.661C-121.52,14.229 -122.038,13.977 -122.146,13.905C-124.144,12.483 -125.143,10.404 -125.143,7.668C-125.143,5.455 -124.351,3.556 -122.767,1.972C-121.165,0.37 -119.257,-0.431 -117.043,-0.431C-115.225,-0.431 -113.578,0.154 -112.102,1.324C-110.627,2.476 -109.682,3.952 -109.268,5.751L-113.722,6.939C-114.136,5.103 -115.243,4.186 -117.043,4.186C-117.979,4.186 -118.807,4.528 -119.527,5.212C-120.211,5.895 -120.553,6.715 -120.553,7.668C-120.553,9.126 -119.554,10.314 -117.556,11.232C-115.828,12.042 -114.505,12.667 -113.587,13.109C-112.669,13.549 -112.147,13.815 -112.021,13.905C-110.024,15.345 -109.025,17.415 -109.025,20.115M-78.225,13.851C-78.225,11.205 -79.179,8.937 -81.087,7.047C-82.995,5.14 -85.271,4.186 -87.917,4.186C-90.545,4.186 -92.813,5.14 -94.721,7.047C-96.629,8.937 -97.583,11.205 -97.583,13.851C-97.583,16.497 -96.629,18.774 -94.721,20.682C-92.813,22.571 -90.545,23.517 -87.917,23.517C-85.289,23.517 -83.013,22.571 -81.087,20.682C-79.179,18.774 -78.225,16.497 -78.225,13.851M-73.635,27.674L-78.225,27.674L-78.225,23.517C-80.943,26.558 -84.327,28.079 -88.376,28.079C-92.21,28.079 -95.477,26.675 -98.177,23.867C-100.859,21.041 -102.199,17.703 -102.199,13.851C-102.199,9.927 -100.805,6.57 -98.015,3.781C-95.207,0.973 -91.841,-0.431 -87.917,-0.431C-83.976,-0.431 -80.61,0.973 -77.82,3.781C-75.03,6.57 -73.635,9.927 -73.635,13.851L-73.635,27.674ZM-42.215,0.028L-66.162,36.853L-71.589,36.853L-65.649,27.674L-65.649,0.028L-61.059,0.028L-61.059,20.573L-47.695,0.028L-42.215,0.028Z" style="fill:white;"/>
        </g>
    </g>
</svg>
