<?xml version="1.0" encoding="UTF-8" standalone="no"?>
<!DOCTYPE svg PUBLIC "-//W3C//DTD SVG 1.1//EN" "http://www.w3.org/Graphics/SVG/1.1/DTD/svg11.dtd">
<svg width="100%" height="100%" viewBox="0 0 620 362" version="1.1" xmlns="http://www.w3.org/2000/svg" xmlns:xlink="http://www.w3.org/1999/xlink" xml:space="preserve" xmlns:serif="http://www.serif.com/" style="fill-rule:evenodd;clip-rule:evenodd;stroke-linejoin:round;stroke-miterlimit:2;">
    <g id="Artboard1" transform="matrix(0.647182,0,0,1.83756,0,0)">
        <rect x="0" y="0" width="958" height="197" style="fill:none;"/>
        <g transform="matrix(1.49221,0,0,0.754458,50.7352,-42.9175)">
            <path d="M608,-5.84C608,-21.382 589.886,-34 567.575,-34L6.425,-34C-15.886,-34 -34,-21.382 -34,-5.84L-34,289.84C-34,305.382 -15.886,318 6.425,318L567.575,318C589.886,318 608,305.382 608,289.84L608,-5.84Z" style="fill:rgb(196,34,48);"/>
        </g>
        <g transform="matrix(1.20782,0,0,0.474104,-8270.72,-483.862)">
            <g transform="matrix(1,0,0,1,0,172.853)">
                <g transform="matrix(1,0,0,1,6882,1054)">
                    <text x="0px" y="0px" style="font-family:'Roboto-Regular', 'Roboto';font-size:31.429px;fill:white;">Plot 42, L</text>
                </g>
                <g transform="matrix(1,0,0,1,7011.17,1054)">
                    <text x="0px" y="0px" style="font-family:'Roboto-Regular', 'Roboto';font-size:31.429px;fill:white;">uthuli Rise, Naigaga Complex Unit B06</text>
                </g>
            </g>
            <g transform="matrix(1,0,0,1,7110.91,1271.6)">
                <text x="0px" y="0px" style="font-family:'Roboto-Regular', 'Roboto';font-size:31.429px;fill:white;">Bugolobi. Kampala</text>
            </g>
            <g transform="matrix(1,0,0,1,187.051,172.853)">
                <g transform="matrix(1,0,0,1,6882,1143.5)">
                    <text x="0px" y="0px" style="font-family:'Roboto-Regular', 'Roboto';font-size:31.429px;fill:white;">info@cr</text>
                </g>
                <g transform="matrix(1,0,0,1,6991.68,1143.5)">
                    <text x="0px" y="0px" style="font-family:'Roboto-Regular', 'Roboto';font-size:31.429px;fill:white;">eativ</text>
                </g>
                <g transform="matrix(1,0,0,1,7058.8,1143.5)">
                    <g>
                        <text x="0px" y="0px" style="font-family:'Roboto-Regular', 'Roboto';font-size:31.429px;fill:white;">er</text>
                        <g transform="matrix(1,0,0,1,27.224,0)">
                            <text x="0px" y="0px" style="font-family:'Roboto-Regular', 'Roboto';font-size:31.429px;fill:white;">epublic.ug</text>
                        </g>
                    </g>
                </g>
            </g>
            <g transform="matrix(1,0,0,1,6882,1361.1)">
                <text x="0px" y="0px" style="font-family:'Roboto-Regular', 'Roboto';font-size:31.429px;fill:white;">Mobile: +256 (0) 782 699 870, +256 (0) 752 998 277</text>
            </g>
        </g>
    </g>
</svg>
