<?xml version="1.0" encoding="UTF-8" standalone="no"?>
<!DOCTYPE svg PUBLIC "-//W3C//DTD SVG 1.1//EN" "http://www.w3.org/Graphics/SVG/1.1/DTD/svg11.dtd">
<svg width="100%" height="100%" viewBox="0 0 958 197" version="1.1" xmlns="http://www.w3.org/2000/svg" xmlns:xlink="http://www.w3.org/1999/xlink" xml:space="preserve" xmlns:serif="http://www.serif.com/" style="fill-rule:evenodd;clip-rule:evenodd;stroke-linejoin:round;stroke-miterlimit:2;">
    <g transform="matrix(0.916733,0,0,0.916733,-4235.31,-341.941)">
        <path d="M5665,394.642C5665,388.903 5662.72,383.398 5658.66,379.339C5654.6,375.28 5649.1,373 5643.36,373L4620,373L4620,587L5643.36,587C5649.1,587 5654.6,584.72 5658.66,580.661C5662.72,576.602 5665,571.097 5665,565.358L5665,394.642Z" style="fill:rgb(196,34,48);"/>
    </g>
    <g transform="matrix(0.823412,0,0,0.917707,-5345.97,-922.922)">
        <g>
            <g transform="matrix(1,0,0,1,6882,1054)">
                <text x="0px" y="0px" style="font-family:'Roboto-Regular', 'Roboto';font-size:31.429px;fill:white;">Plot 42, L</text>
            </g>
            <g transform="matrix(1,0,0,1,7011.17,1054)">
                <text x="0px" y="0px" style="font-family:'Roboto-Regular', 'Roboto';font-size:31.429px;fill:white;">uthuli Rise, Naigaga Complex Unit B06</text>
            </g>
        </g>
        <g transform="matrix(1,0,0,1,6882,1098.75)">
            <text x="0px" y="0px" style="font-family:'Roboto-Regular', 'Roboto';font-size:31.429px;fill:white;">Bugolobi. Kampala</text>
        </g>
        <g>
            <g transform="matrix(1,0,0,1,6882,1143.5)">
                <text x="0px" y="0px" style="font-family:'Roboto-Regular', 'Roboto';font-size:31.429px;fill:white;">info@cr</text>
            </g>
            <g transform="matrix(1,0,0,1,6991.68,1143.5)">
                <text x="0px" y="0px" style="font-family:'Roboto-Regular', 'Roboto';font-size:31.429px;fill:white;">eativ</text>
            </g>
            <g transform="matrix(1,0,0,1,7058.8,1143.5)">
                <text x="0px" y="0px" style="font-family:'Roboto-Regular', 'Roboto';font-size:31.429px;fill:white;">er<tspan x="27.224px " y="0px ">e</tspan>public.ug</text>
            </g>
        </g>
        <g transform="matrix(1,0,0,1,6882,1188.25)">
            <text x="0px" y="0px" style="font-family:'Roboto-Regular', 'Roboto';font-size:31.429px;fill:white;">Mobile: +256 (0) 782 699 870, +256 (0) 752 998 277</text>
        </g>
    </g>
</svg>
