<?xml version="1.0" encoding="UTF-8" standalone="no"?>
<!DOCTYPE svg PUBLIC "-//W3C//DTD SVG 1.1//EN" "http://www.w3.org/Graphics/SVG/1.1/DTD/svg11.dtd">
<svg width="100%" height="100%" viewBox="0 0 360 270" version="1.1" xmlns="http://www.w3.org/2000/svg" xmlns:xlink="http://www.w3.org/1999/xlink" xml:space="preserve" xmlns:serif="http://www.serif.com/" style="fill-rule:evenodd;clip-rule:evenodd;stroke-linejoin:round;stroke-miterlimit:2;">
    <g transform="matrix(0.1875,0,0,0.1875,180,135)">
        <g id="CR-logo.afdesign" serif:id="CR logo.afdesign" transform="matrix(1,0,0,1,-960,-720)">
            <rect id="Artboard1" x="0" y="0" width="1920" height="1440" style="fill:none;"/>
            <g id="Artboard11" serif:id="Artboard1">
                <g id="Red-BG" serif:id="Red BG" transform="matrix(0,-6.21769,-6.21769,0,430.818,467.447)">
                    <path d="M-40.617,-40.62C-18.183,-40.62 0,-22.435 0,-0.002C0,22.431 -18.183,40.617 -40.617,40.617C-63.051,40.617 -81.237,22.431 -81.237,-0.002C-81.237,-22.435 -63.051,-40.62 -40.617,-40.62" style="fill:rgb(196,34,48);"/>
                </g>
                <g id="Hand-White-Stroke" serif:id="Hand White Stroke" transform="matrix(1,0,0,1,6.82121e-13,40.0754)">
                    <path d="M470.025,929.455C469.988,900.583 469.963,871.717 469.985,842.854C469.985,827.347 470.352,811.84 470.607,796.339C470.625,795.294 470.936,794.169 471.421,793.243C486.885,764.343 502.36,735.437 517.88,706.556C519.552,703.459 521.436,700.468 523.351,697.527C525.273,694.58 525.372,691.726 524.153,688.425C515.542,665.003 507.048,641.55 498.536,618.09C497.15,614.285 495.813,610.461 494.358,606.37C490.783,607.564 487.314,608.677 483.869,609.883C463.873,616.903 443.889,623.954 423.893,630.998C421.866,631.707 419.553,635.002 420.113,636.998C421.785,642.855 423.041,648.942 425.634,654.37C431.155,665.873 441.85,670.052 454.211,666.004C458.557,664.568 462.611,662.248 466.783,660.246C468.461,659.444 470.059,658.449 471.496,657.647C473.044,660.98 474.113,664.599 476.221,667.44C478.335,670.282 481.512,672.352 483.825,674.41C477.987,677.637 471.434,680.808 465.353,684.7C448.024,695.787 435.408,711.126 426.038,729.275C418.888,743.128 414.026,757.814 410.475,772.936C410.289,773.75 410.09,774.571 409.816,775.69C408.877,771.232 413.522,746.616 418.695,733.118C423.924,719.482 430.894,706.916 441.303,695.755C420.237,699.038 400.428,703.795 384.087,717.611C381.955,719.42 380.021,721.515 378.162,723.629C371.975,730.705 365.714,730.91 358.819,724.4C353.708,719.569 348.392,714.981 343.113,710.218C336.087,715.658 329.446,720.875 322.713,725.998C310.744,735.089 298.719,744.135 286.694,753.157C286.047,753.636 285.22,753.866 284.461,754.208C283.672,753.089 282.876,751.976 282.092,750.863C282.839,749.967 283.448,748.892 284.337,748.208C298.6,737.19 312.907,726.247 327.189,715.267C330.845,712.45 334.464,709.608 338.387,706.556C336.217,704.908 334.209,703.465 332.3,701.905C328.004,698.373 323.397,695.165 319.591,691.142C312.559,683.768 312,674.13 317.944,665.83C322.178,659.904 326.959,654.37 331.523,648.706C336.162,642.961 340.433,636.998 343.262,630.109C344.574,626.938 346.862,624.774 349.747,622.934C357.874,617.779 365.894,612.457 373.922,607.122C374.711,606.606 375.408,605.748 375.818,604.878C377.708,601.01 379.43,597.074 381.302,593.195C381.681,592.405 382.371,591.659 383.099,591.168C400.9,579.211 418.732,567.292 436.565,555.36C441.346,552.158 446.277,549.41 452.14,548.601C458.967,547.675 464.327,549.994 468.163,555.615C475.065,565.694 481.997,575.76 488.613,586.032C491.523,590.552 494.781,594.469 499.712,596.801C502.827,598.287 504.592,600.662 505.78,604.038C515.349,631.191 525.136,658.238 534.761,685.359C535.152,686.448 535.096,688.014 534.611,689.04C523.78,711.617 512.881,734.162 501.975,756.683C495.975,769.081 489.962,781.466 483.825,793.79C481.749,797.98 481.015,802.376 480.996,806.953C480.816,839.937 480.567,872.922 480.474,905.907C480.451,913.138 480.448,920.369 480.459,927.603C477.006,928.291 473.528,928.909 470.025,929.455ZM360.721,922.619C360.751,900.968 360.806,879.325 360.871,857.664C360.914,837.842 360.995,818.008 361.132,798.192C361.144,796.476 360.715,795.612 359.055,794.903C353.639,792.565 349.641,788.486 346.439,783.642C339.948,773.806 336.721,762.701 334.023,751.416C333.544,749.445 334.365,747.797 335.944,746.691C337.983,745.298 340.178,744.11 342.186,742.892C344.151,750.079 345.768,757.087 348.006,763.895C351.407,774.235 356.475,783.742 365.795,789.972C369.01,792.123 369.725,794.368 369.718,797.931C369.566,840.262 369.547,882.625 369.498,924.979C366.554,924.244 363.631,923.459 360.721,922.619ZM282.091,750.86C282.874,751.98 283.67,753.086 284.46,754.205C288.209,759.59 291.952,764.987 295.707,770.384C296.596,771.646 297.51,772.908 298.599,774.444C296.945,775.731 295.334,777.006 293.606,778.374C289.347,772.753 285.274,767.418 281.239,762.058C275.68,754.672 270.233,747.217 264.575,739.93C263.015,737.909 263.307,736.696 265.197,735.391C265.9,734.9 266.54,734.327 267.572,733.488C271.794,738.618 276.003,743.729 280.213,748.827C280.797,749.53 281.463,750.189 282.091,750.86ZM341.459,647.282C335.645,654.849 329.9,662.174 324.36,669.66C323.092,671.357 322.29,673.527 321.674,675.598C320.282,680.379 321.164,682.53 325.169,685.515C328.433,687.94 331.803,690.265 334.881,692.914C343.548,700.363 352.023,708.054 360.715,715.453C362.947,717.362 365.59,718.916 368.282,720.091C371.453,721.447 373.238,720.483 375.352,717.847C376.738,716.112 378.498,714.626 380.245,713.227C381.83,711.971 383.683,711.051 385.337,709.857C387.625,708.209 388.601,705.797 387.47,703.266C386.301,700.587 384.796,697.963 382.925,695.712C375.998,687.424 368.848,679.322 361.816,671.127C355.088,663.293 348.392,655.403 341.459,647.282ZM425.062,689.681C409.735,663.542 394.521,637.639 379.213,611.537C372.734,615.659 366.311,619.52 360.895,624.818C354.672,630.886 350.972,638.18 350.064,646.884C349.909,648.47 350.301,649.527 351.277,650.677C361.505,662.733 371.832,674.715 381.843,686.951C386.587,692.746 393.389,695.078 399.495,698.609C400.44,699.157 401.777,699.125 402.933,699.169C411.682,699.455 418.44,695.127 425.062,689.681ZM444.368,615.802C443.404,614.459 442.646,613.371 441.831,612.326C434.432,602.695 426.977,593.132 419.665,583.452C418.459,581.847 417.526,581.25 415.723,582.32C407.23,587.3 398.699,592.218 390.199,597.168C389.864,597.373 389.584,597.665 389.285,597.92C384.908,601.769 383.609,606.513 385.872,611.885C387.221,615.037 389.012,618.003 390.796,620.932C404.624,643.583 418.496,666.19 432.355,688.81C432.871,689.668 433.462,690.477 434.071,691.384C447.439,685.857 460.609,680.404 473.877,674.914C472.615,671.929 471.552,669.442 470.47,666.88C469.257,667.254 468.294,667.552 467.317,667.857C458.395,670.642 449.305,671.991 439.997,670.449C431.889,669.106 425.106,665.656 421.624,657.616C419.69,653.183 417.7,648.75 415.928,644.242C414.082,639.597 413.534,634.797 415.636,630.09C416.133,628.959 417.253,627.784 418.384,627.274C426.921,623.406 435.533,619.676 444.368,615.802ZM488.501,601.265C488.451,600.954 488.489,600.774 488.402,600.643C480.381,588.233 472.372,575.81 464.327,563.418C462.548,560.67 459.831,559.688 456.679,559.619C452.731,559.526 449.187,560.919 445.68,562.517C442.559,563.965 439.487,565.669 436.21,566.533C430.31,568.112 427.816,572.235 426.467,577.669C425.671,580.853 426.436,583.414 428.575,585.852C431.41,589.097 434.053,592.486 436.689,595.887C441.091,601.576 445.456,607.315 449.771,613.073C450.623,614.217 451.413,614.322 452.718,613.831C459.303,611.369 465.918,608.975 472.553,606.65C477.863,604.784 483.197,603.05 488.501,601.265ZM499.112,585.921C505.186,581.152 511.143,576.358 517.23,571.689C527.558,563.799 537.954,555.983 548.343,548.174C549.593,547.241 550.153,546.259 550.072,544.642C549.836,539.724 549.773,534.793 549.543,529.863C549.487,528.333 549.966,527.742 551.527,527.375C556.482,526.225 561.376,524.851 566.294,523.558C566.947,523.377 567.624,523.328 568.65,523.123C567.917,526.816 567.233,530.204 566.48,534.022C570.696,533.357 574.594,532.723 578.978,532.026C576.758,540.203 574.625,548.155 572.344,556.561C568.097,555.747 563.738,555.436 559.778,554C554.58,552.116 550.625,553.173 546.403,556.518C533.545,566.746 520.444,576.7 507.406,586.754C503.358,589.882 503.358,589.869 499.112,585.921Z" style="fill:white;"/>
                </g>
                <g id="Hand-Black-Fill" serif:id="Hand Black Fill" transform="matrix(1,0,0,1,6.82121e-13,40.0754)">
                    <path d="M592.758,510.92C591.225,513.963 589.56,516.943 588.205,520.051C582.808,532.455 579.662,545.544 576.348,558.582C576.012,559.888 575.148,561.324 574.103,562.151C555.32,576.893 536.48,591.573 517.591,606.216C516.272,607.229 515.986,608.062 516.583,609.698C525.736,634.892 534.782,660.148 543.91,685.361C544.501,686.977 544.42,688.264 543.668,689.813C539.352,698.654 535.187,707.577 530.872,716.449C518.038,742.905 505.093,769.318 492.378,795.818C490.836,799.064 489.829,802.8 489.592,806.351C489.051,814.005 489.101,821.69 489.095,829.35C489.014,853.885 488.958,878.401 489.014,902.924C489.028,910.527 489.045,918.131 489.065,925.73C486.214,926.403 483.345,927.028 480.459,927.603C480.448,920.372 480.45,913.14 480.471,905.908C480.57,872.924 480.813,839.939 480.993,806.954C481.018,802.378 481.752,797.975 483.829,793.791C489.965,781.468 495.972,769.082 501.972,756.684C512.878,734.163 523.783,711.618 534.608,689.042C535.093,688.016 535.149,686.449 534.764,685.361C525.133,658.239 515.352,631.192 505.783,604.04C504.589,600.663 502.83,598.282 499.708,596.802C494.778,594.471 491.526,590.553 488.61,586.033C482.001,575.761 475.062,565.695 468.166,555.616C464.33,549.995 458.97,547.676 452.137,548.603C446.28,549.411 441.343,552.153 436.562,555.361C418.729,567.293 400.903,579.212 383.096,591.169C382.368,591.66 381.684,592.406 381.305,593.196C379.427,597.076 377.705,601.012 375.815,604.879C375.404,605.743 374.708,606.607 373.925,607.124C365.891,612.458 357.877,617.781 349.744,622.935C346.859,624.776 344.571,626.939 343.265,630.104C340.43,637 336.158,642.962 331.526,648.707C326.956,654.372 322.181,659.899 317.947,665.831C311.996,674.132 312.556,683.763 319.594,691.143C323.393,695.16 328.001,698.374 332.297,701.9C334.212,703.467 336.214,704.909 338.391,706.551C334.467,709.61 330.848,712.451 327.192,715.268C312.904,726.242 298.597,737.191 284.34,748.209C283.445,748.893 282.835,749.969 282.089,750.858C281.461,750.186 280.802,749.527 280.212,748.825C276.008,743.726 271.793,738.621 267.571,733.486C266.539,734.325 265.905,734.897 265.196,735.388C263.306,736.694 263.013,737.906 264.574,739.933C270.232,747.214 275.679,754.676 281.238,762.056C285.273,767.416 289.345,772.75 293.605,778.371C295.333,777.003 296.943,775.729 298.597,774.442C297.509,772.906 296.601,771.644 295.706,770.381C294.769,769.034 293.831,767.686 292.894,766.337L287.27,758.247C286.333,756.899 285.396,755.551 284.458,754.203C285.223,753.867 286.05,753.637 286.697,753.152C298.715,744.13 310.74,735.09 322.716,725.993C329.45,720.876 336.084,715.66 343.116,710.219C348.395,714.982 353.711,719.57 358.822,724.395C365.711,730.905 371.972,730.706 378.159,723.624C380.018,721.517 381.952,719.421 384.084,717.612C400.424,703.796 420.234,699.033 441.306,695.757C430.891,706.917 423.927,719.477 418.698,733.119C413.525,746.617 408.88,771.233 409.819,775.691C410.087,774.572 410.286,773.751 410.478,772.937C414.029,757.815 418.885,743.129 426.035,729.276C435.411,711.127 448.027,695.788 465.35,684.702C471.437,680.809 477.99,677.638 483.829,674.405C481.509,672.347 478.332,670.277 476.224,667.435C474.11,664.594 473.047,660.975 471.499,657.648C470.063,658.451 468.458,659.445 466.78,660.247C462.614,662.243 458.56,664.563 454.207,666.005C441.853,670.053 431.152,665.868 425.637,654.372C423.038,648.944 421.782,642.857 420.116,637C419.55,635.004 421.869,631.708 423.896,630.999C443.886,623.955 463.876,616.898 483.866,609.884C487.317,608.678 490.786,607.559 494.355,606.371C495.816,610.456 497.147,614.286 498.533,618.092C507.052,641.551 515.539,665.004 524.15,688.42C525.369,691.728 525.276,694.582 523.348,697.529C521.433,700.47 519.549,703.454 517.883,706.551C502.357,735.438 486.881,764.338 471.418,793.244C470.933,794.17 470.622,795.296 470.603,796.34C470.355,811.841 469.988,827.348 469.988,842.855C469.966,871.718 469.989,900.584 470.024,929.455C457.258,931.444 444.165,932.478 430.83,932.478C409.685,932.478 389.146,929.879 369.5,924.979C369.545,882.625 369.569,840.258 369.715,797.932C369.728,794.363 369.013,792.125 365.798,789.967C356.472,783.737 351.41,774.236 348.003,763.896C345.765,757.082 344.154,750.074 342.183,742.893C340.175,744.105 337.98,745.299 335.941,746.686C334.368,747.799 333.547,749.446 334.02,751.417C336.718,762.703 339.951,773.807 346.442,783.644C349.638,788.487 353.636,792.56 359.058,794.898C360.718,795.613 361.147,796.477 361.129,798.193C360.998,818.009 360.917,837.843 360.867,857.665C360.808,879.326 360.754,900.969 360.72,922.619C357.959,921.823 355.218,920.981 352.505,920.096C352.52,905.813 352.537,891.529 352.554,877.245C352.579,857.815 352.579,838.384 352.654,818.954C352.679,814.098 352.959,809.248 353.095,804.405C353.164,802.347 352.138,800.979 350.472,799.754C348.028,797.938 345.572,796.073 343.533,793.853C337.079,786.846 333.466,778.265 330.575,769.368C329.076,764.792 327.839,760.147 326.266,754.812C316.927,762.093 307.8,768.945 299.008,776.195C295.824,778.806 292.678,780.653 288.55,780.765C282.531,780.927 276.686,780.056 271.047,777.948C264.904,775.654 260.924,771.314 259.084,765.016C258.798,764.058 258.443,763.125 258.12,762.193L258.12,751.368C258.742,748.184 259.469,745.019 259.967,741.799C260.52,738.292 262.037,735.513 265.028,733.455C267.472,731.77 269.71,729.792 272.098,728.014C284.558,718.793 297.043,709.61 309.503,700.376C310.995,699.288 312.338,698.014 313.843,696.758C312.276,694.799 310.666,693.232 309.603,691.348C304.492,682.37 303.951,673.162 309.385,664.165C312.289,659.365 315.684,654.826 319.072,650.343C326.26,640.854 333.852,631.665 339.099,620.865C339.485,620.106 340.362,619.509 341.114,618.999C349.844,613.049 358.617,607.13 367.321,601.161C368.167,600.57 368.938,599.681 369.386,598.755C371.239,594.875 372.917,590.92 374.752,587.034C375.05,586.394 375.684,585.803 376.3,585.393C392.043,575.009 407.774,564.601 423.598,554.31C429.679,550.331 435.704,546.128 442.189,542.932C453.747,537.224 464.641,539.158 472.817,548.149C476.622,552.339 479.582,557.32 482.908,561.964C484.245,563.848 485.52,565.77 486.931,567.822C488.852,566.354 490.537,565.086 492.21,563.811C507.928,551.904 523.69,540.016 539.371,528.066C542.673,525.541 546.298,523.918 550.302,522.892C559.243,520.598 568.165,518.254 577.013,515.661C581.77,514.287 586.364,512.329 591.028,510.625L592.905,510.625L592.758,510.92ZM341.459,647.285C348.392,655.405 355.088,663.289 361.809,671.13C368.848,679.318 375.998,687.426 382.925,695.714C384.796,697.959 386.301,700.583 387.47,703.269C388.601,705.799 387.625,708.212 385.337,709.853C383.683,711.053 381.83,711.967 380.245,713.223C378.498,714.629 376.738,716.108 375.352,717.849C373.238,720.479 371.453,721.449 368.276,720.094C365.59,718.919 362.947,717.364 360.715,715.456C352.023,708.05 343.548,700.365 334.881,692.916C331.803,690.268 328.433,687.942 325.169,685.511C321.164,682.533 320.282,680.375 321.674,675.6C322.29,673.53 323.092,671.36 324.36,669.662C329.9,662.176 335.639,654.852 341.459,647.285ZM425.061,689.679C418.439,695.126 411.68,699.453 402.932,699.167C401.776,699.13 400.439,699.155 399.494,698.614C393.388,695.076 386.592,692.744 381.842,686.956C371.831,674.719 361.504,662.731 351.275,650.682C350.299,649.525 349.908,648.468 350.063,646.883C350.971,638.178 354.67,630.884 360.894,624.816C366.31,619.518 372.733,615.664 379.212,611.541C394.519,637.637 409.734,663.54 425.061,689.679ZM444.37,615.802C435.534,619.675 426.923,623.406 418.38,627.273C417.254,627.783 416.135,628.958 415.632,630.09C413.536,634.797 414.083,639.597 415.924,644.241C417.696,648.749 419.692,653.182 421.619,657.622C425.107,665.661 431.891,669.106 439.993,670.449C449.3,671.991 458.397,670.642 467.319,667.856C468.289,667.551 469.253,667.253 470.472,666.88C471.554,669.442 472.617,671.929 473.879,674.913C460.604,680.403 447.441,685.862 434.073,691.384C433.464,690.476 432.867,689.668 432.351,688.81C418.492,666.19 404.62,643.582 390.798,620.931C389.008,618.003 387.223,615.037 385.874,611.884C383.611,606.512 384.91,601.768 389.287,597.919C389.586,597.665 389.866,597.372 390.201,597.167C398.701,592.218 407.232,587.3 415.725,582.319C417.528,581.25 418.461,581.847 419.661,583.451C426.979,593.132 434.434,602.701 441.833,612.326C442.648,613.37 443.4,614.459 444.37,615.802ZM488.501,601.265C483.197,603.05 477.863,604.784 472.553,606.65C465.918,608.975 459.303,611.369 452.718,613.831C451.413,614.322 450.623,614.217 449.771,613.073C445.456,607.315 441.091,601.576 436.689,595.887C434.053,592.486 431.41,589.097 428.575,585.852C426.436,583.414 425.671,580.853 426.467,577.669C427.816,572.235 430.31,568.112 436.21,566.533C439.487,565.669 442.559,563.965 445.68,562.517C449.187,560.919 452.731,559.526 456.679,559.619C459.831,559.688 462.548,560.67 464.327,563.418C472.372,575.81 480.381,588.233 488.402,600.643C488.489,600.774 488.451,600.954 488.501,601.265ZM499.112,585.921C503.358,589.869 503.358,589.882 507.406,586.754C520.444,576.7 533.545,566.746 546.403,556.518C550.625,553.173 554.58,552.116 559.778,554C563.738,555.436 568.097,555.747 572.344,556.561C574.625,548.155 576.758,540.203 578.978,532.026C574.594,532.723 570.696,533.357 566.48,534.022C567.233,530.204 567.917,526.816 568.65,523.123C567.624,523.328 566.947,523.377 566.294,523.558C561.376,524.851 556.482,526.225 551.527,527.375C549.966,527.742 549.487,528.333 549.543,529.863C549.773,534.793 549.836,539.724 550.072,544.642C550.153,546.259 549.593,547.241 548.343,548.174C537.954,555.983 527.558,563.799 517.23,571.689C511.143,576.358 505.186,581.152 499.112,585.921Z" style="fill:rgb(35,31,32);"/>
                </g>
                <g id="CR-text" serif:id="CR text" transform="matrix(1,0,0,1,6.82121e-13,40.0754)">
                    <g transform="matrix(6.21769,0,0,6.21769,857.324,575.345)">
                        <path d="M0,17.037C-2.319,19.459 -5.195,20.673 -8.63,20.673C-12.02,20.673 -14.904,19.505 -17.282,17.171C-19.662,14.836 -20.852,11.981 -20.852,8.606C-20.852,5.233 -19.669,2.346 -17.305,-0.047C-14.911,-2.441 -12.035,-3.636 -8.674,-3.636C-6.994,-3.636 -5.241,-3.243 -3.412,-2.455L-5.285,1.737C-6.475,1.201 -7.612,0.935 -8.697,0.935C-10.808,0.935 -12.6,1.685 -14.071,3.186C-15.543,4.69 -16.278,6.486 -16.278,8.584C-16.278,10.679 -15.536,12.465 -14.049,13.935C-12.562,15.408 -10.756,16.144 -8.63,16.144C-6.475,16.144 -4.69,15.372 -3.277,13.825C-1.836,12.278 -1.107,10.412 -1.093,8.227L3.524,8.227C3.509,11.663 2.333,14.599 0,17.037" style="fill:rgb(35,31,32);fill-rule:nonzero;"/>
                    </g>
                    <g transform="matrix(6.21769,0,0,6.21769,926.535,662.973)">
                        <path d="M0,-11.53C-1.19,-10.461 -1.784,-9.098 -1.784,-7.451L-1.784,6.199L-6.356,6.199L-6.356,-7.451C-6.356,-10.274 -5.293,-12.683 -3.167,-14.676C-1.012,-16.696 1.479,-17.717 4.303,-17.729L4.303,-13.158C2.609,-13.158 1.175,-12.614 0,-11.53" style="fill:rgb(35,31,32);fill-rule:nonzero;"/>
                    </g>
                    <g transform="matrix(6.21769,0,0,6.21769,1024.73,675.458)">
                        <path d="M0,-15.166C-2.111,-15.166 -3.904,-14.416 -5.375,-12.915C-6.847,-11.411 -7.583,-9.615 -7.583,-7.518C-7.583,-6.925 -7.479,-6.269 -7.271,-5.555L4.861,-13.425C3.403,-14.586 1.783,-15.166 0,-15.166M8.697,0.936C6.377,3.357 3.5,4.571 0.066,4.571C-3.324,4.571 -6.208,3.403 -8.586,1.069C-10.965,-1.266 -12.154,-4.127 -12.154,-7.518C-12.154,-10.877 -10.972,-13.756 -8.609,-16.148C-6.245,-18.542 -3.376,-19.737 0,-19.737C2.468,-19.737 4.719,-19.053 6.756,-17.686C8.793,-16.32 10.317,-14.481 11.328,-12.178L-4.795,-1.696C-3.353,-0.538 -1.733,0.043 0.066,0.043C2.236,0.043 4.028,-0.729 5.44,-2.276C6.868,-3.838 7.588,-5.703 7.604,-7.874L12.22,-7.874C12.205,-4.438 11.031,-1.503 8.697,0.936" style="fill:rgb(35,31,32);fill-rule:nonzero;"/>
                    </g>
                    <g transform="matrix(6.21769,0,0,6.21769,1225.65,628.182)">
                        <path d="M0,0.041C0,-2.024 -0.751,-3.808 -2.252,-5.312C-3.754,-6.813 -5.545,-7.563 -7.625,-7.563C-9.708,-7.563 -11.5,-6.813 -13,-5.312C-14.488,-3.824 -15.23,-2.041 -15.23,0.041C-15.23,2.139 -14.488,3.931 -13,5.417C-11.515,6.902 -9.723,7.646 -7.625,7.646C-5.53,7.646 -3.739,6.902 -2.252,5.417C-0.751,3.915 0,2.122 0,0.041M0,11.795L0,8.985C-2.26,11.11 -4.928,12.175 -8.005,12.175C-11.276,12.175 -14.064,10.978 -16.368,8.583C-18.658,6.204 -19.803,3.355 -19.803,0.041C-19.803,-3.303 -18.613,-6.164 -16.234,-8.545C-13.841,-10.938 -10.972,-12.134 -7.625,-12.134C-4.281,-12.134 -1.412,-10.938 0.982,-8.545C3.375,-6.152 4.572,-3.289 4.572,0.041L4.572,11.795L0,11.795Z" style="fill:rgb(35,31,32);fill-rule:nonzero;"/>
                    </g>
                    <g transform="matrix(6.21769,0,0,6.21769,1307.9,625.816)">
                        <path d="M0,-6.805L0,12.175L-4.572,12.175L-4.572,-6.805L-8.363,-6.805L-8.363,-11.376L-4.572,-11.376L-4.572,-18.98L0,-18.98L0,-11.376L3.813,-11.376L3.813,-6.805L0,-6.805Z" style="fill:rgb(35,31,32);fill-rule:nonzero;"/>
                    </g>
                    <g transform="matrix(6.21769,0,0,6.21769,-44.2591,118.31)">
                        <path d="M222.534,70.247L227.083,70.247L227.083,93.799L222.534,93.799L222.534,70.247ZM222.534,62.643L227.083,62.643L227.083,67.193L222.534,67.193L222.534,62.643Z" style="fill:rgb(35,31,32);fill-rule:nonzero;"/>
                    </g>
                    <g transform="matrix(6.21769,0,0,6.21769,1459.35,555.08)">
                        <path d="M0,23.552L-6.021,23.552L-14.541,0L-9.746,0L-3.011,18.466L3.724,0L8.563,0L0,23.552Z" style="fill:rgb(35,31,32);fill-rule:nonzero;"/>
                    </g>
                    <g transform="matrix(6.21769,0,0,6.21769,1577.22,675.458)">
                        <path d="M0,-15.166C-2.112,-15.166 -3.904,-14.416 -5.375,-12.915C-6.848,-11.411 -7.583,-9.615 -7.583,-7.518C-7.583,-6.925 -7.479,-6.269 -7.27,-5.555L4.861,-13.425C3.404,-14.586 1.784,-15.166 0,-15.166M8.697,0.936C6.377,3.357 3.5,4.571 0.067,4.571C-3.323,4.571 -6.208,3.403 -8.586,1.069C-10.965,-1.266 -12.154,-4.127 -12.154,-7.518C-12.154,-10.877 -10.972,-13.756 -8.609,-16.148C-6.245,-18.542 -3.375,-19.737 0,-19.737C2.467,-19.737 4.719,-19.053 6.757,-17.686C8.793,-16.32 10.317,-14.481 11.329,-12.178L-4.796,-1.696C-3.354,-0.538 -1.733,0.043 0.067,0.043C2.237,0.043 4.029,-0.729 5.441,-2.276C6.868,-3.838 7.589,-5.703 7.604,-7.874L12.221,-7.874C12.205,-4.438 11.031,-1.503 8.697,0.936" style="fill:rgb(35,31,32);fill-rule:nonzero;"/>
                    </g>
                    <g transform="matrix(6.21769,0,0,6.21769,747.197,806.077)">
                        <path d="M0,-6.741C-0.667,-6.073 -1,-5.271 -1,-4.327L-1,3.14L-3.14,3.14L-3.14,-4.327C-3.14,-5.793 -2.58,-7.087 -1.463,-8.204C-0.345,-9.32 0.946,-9.881 2.415,-9.881L2.415,-7.742C1.472,-7.742 0.668,-7.409 0,-6.741" style="fill:rgb(35,31,32);fill-rule:nonzero;"/>
                    </g>
                    <g transform="matrix(6.21769,0,0,6.21769,803.593,813.471)">
                        <path d="M0,-8.931C-1.251,-8.931 -2.306,-8.49 -3.165,-7.604C-4.032,-6.721 -4.465,-5.662 -4.465,-4.428C-4.465,-3.978 -4.382,-3.494 -4.215,-2.978L3.089,-7.717C2.23,-8.526 1.201,-8.931 0,-8.931M4.678,0.237C3.385,1.504 1.838,2.139 0.038,2.139C-1.789,2.139 -3.356,1.504 -4.666,0.237C-5.958,-1.038 -6.604,-2.593 -6.604,-4.428C-6.604,-6.271 -5.963,-7.836 -4.678,-9.118C-3.394,-10.419 -1.835,-11.07 0,-11.07C1.309,-11.07 2.518,-10.711 3.627,-9.993C4.736,-9.285 5.554,-8.326 6.078,-7.119L-3.052,-1.189C-2.193,-0.38 -1.164,0.024 0.038,0.024C1.28,0.024 2.327,-0.405 3.177,-1.265C4.035,-2.13 4.469,-3.181 4.478,-4.414L6.629,-4.414C6.612,-2.591 5.961,-1.038 4.678,0.237" style="fill:rgb(35,31,32);fill-rule:nonzero;"/>
                    </g>
                    <g transform="matrix(6.21769,0,0,6.21769,920.873,810.881)">
                        <path d="M0,-4.035C0,-5.264 -0.442,-6.312 -1.325,-7.187C-2.202,-8.073 -3.251,-8.514 -4.477,-8.514C-5.703,-8.514 -6.758,-8.073 -7.642,-7.187C-8.517,-6.312 -8.955,-5.264 -8.955,-4.035C-8.955,-2.811 -8.517,-1.756 -7.642,-0.871C-6.758,0.004 -5.703,0.441 -4.477,0.441C-3.251,0.441 -2.202,0.004 -1.325,-0.871C-0.442,-1.756 0,-2.811 0,-4.035M2.139,-4.035C2.139,-2.244 1.514,-0.697 0.264,0.606C-0.979,1.905 -2.488,2.556 -4.265,2.556C-6.132,2.556 -7.696,1.85 -8.955,0.441L-8.955,6.618L-11.093,6.618L-11.093,-4.035C-11.093,-5.854 -10.447,-7.409 -9.155,-8.702C-7.855,-10.003 -6.295,-10.653 -4.477,-10.653C-2.668,-10.653 -1.112,-10.003 0.188,-8.702C1.489,-7.409 2.139,-5.854 2.139,-4.035" style="fill:rgb(35,31,32);fill-rule:nonzero;"/>
                    </g>
                    <g transform="matrix(6.21769,0,0,6.21769,999.745,756.313)">
                        <path d="M0,9.667C-1.11,10.776 -2.398,11.332 -3.866,11.332C-5.341,11.332 -6.634,10.776 -7.743,9.667C-8.86,8.55 -9.418,7.262 -9.418,5.804L-9.418,-1.665L-7.28,-1.665L-7.28,5.804C-7.28,6.745 -6.947,7.55 -6.279,8.217C-5.612,8.883 -4.808,9.217 -3.866,9.217C-2.931,9.217 -2.131,8.883 -1.464,8.217C-0.788,7.558 -0.45,6.753 -0.45,5.804L-0.45,-1.665L1.676,-1.665L1.676,5.804C1.676,7.262 1.117,8.55 0,9.667" style="fill:rgb(35,31,32);fill-rule:nonzero;"/>
                    </g>
                    <g transform="matrix(6.21769,0,0,6.21769,1089.5,760.424)">
                        <path d="M0,4.08C0,2.851 -0.442,1.803 -1.327,0.928C-2.203,0.042 -3.252,-0.399 -4.478,-0.399C-5.705,-0.399 -6.76,0.042 -7.643,0.928C-8.519,1.803 -8.956,2.851 -8.956,4.08C-8.956,5.304 -8.519,6.359 -7.643,7.244C-6.76,8.119 -5.705,8.556 -4.478,8.556C-3.252,8.556 -2.203,8.119 -1.327,7.244C-0.442,6.359 0,5.304 0,4.08M2.138,4.08C2.138,5.905 1.488,7.46 0.187,8.745C-1.105,10.027 -2.661,10.671 -4.478,10.671C-6.304,10.671 -7.863,10.027 -9.156,8.745C-10.449,7.453 -11.095,5.895 -11.095,4.08L-11.095,-6.591L-8.956,-6.591L-8.956,-0.399C-7.697,-1.825 -6.134,-2.538 -4.266,-2.538C-2.481,-2.538 -0.972,-1.884 0.262,-0.575C1.513,0.744 2.138,2.294 2.138,4.08" style="fill:rgb(35,31,32);fill-rule:nonzero;"/>
                    </g>
                    <g transform="matrix(6.21769,0,0,6.21769,-44.2591,454.022)">
                        <rect x="186.147" y="42.688" width="2.126" height="17.073" style="fill:rgb(35,31,32);"/>
                    </g>
                    <g transform="matrix(6.21769,0,0,6.21769,-44.2591,454.028)">
                        <path d="M191.015,46.952L193.141,46.952L193.141,59.761L191.015,59.761L191.015,46.952ZM191.015,42.687L193.141,42.687L193.141,44.812L191.015,44.812L191.015,42.687Z" style="fill:rgb(35,31,32);fill-rule:nonzero;"/>
                    </g>
                    <g transform="matrix(6.21769,0,0,6.21769,1237.13,756.466)">
                        <path d="M0,9.405C-1.292,10.672 -2.839,11.307 -4.641,11.307C-6.466,11.307 -8.035,10.672 -9.343,9.405C-10.635,8.13 -11.282,6.577 -11.282,4.754C-11.282,2.91 -10.64,1.342 -9.356,0.05C-8.071,-1.251 -6.508,-1.902 -4.666,-1.902C-3.756,-1.902 -2.864,-1.719 -1.989,-1.351L-2.864,0.613C-3.464,0.361 -4.069,0.237 -4.678,0.237C-5.928,0.237 -6.984,0.676 -7.842,1.55C-8.71,2.433 -9.143,3.498 -9.143,4.74C-9.143,5.984 -8.701,7.034 -7.817,7.892C-6.925,8.759 -5.866,9.192 -4.641,9.192C-3.414,9.192 -2.372,8.763 -1.514,7.903C-0.654,7.046 -0.216,5.994 -0.201,4.754L1.952,4.754C1.934,6.577 1.284,8.13 0,9.405" style="fill:rgb(35,31,32);fill-rule:nonzero;"/>
                    </g>
                    <g transform="matrix(6.21769,0,0,6.21769,1676.37,564.03)">
                        <path d="M0,-5.609L0,1.157L-1.163,1.157L-1.163,-5.609L-3.579,-5.609L-3.579,-6.766L2.421,-6.766L2.421,-5.609L0,-5.609Z" style="fill:rgb(35,31,32);fill-rule:nonzero;"/>
                    </g>
                    <g transform="matrix(6.21769,0,0,6.21769,1734.49,533.393)">
                        <path d="M0,6.084L0,2.421C0,2.091 -0.111,1.798 -0.334,1.541C-0.554,1.288 -0.829,1.161 -1.162,1.161C-1.521,1.161 -1.807,1.279 -2.019,1.514C-2.223,1.749 -2.325,2.05 -2.325,2.421L-2.325,6.084L-3.488,6.084L-3.488,2.421C-3.488,2.047 -3.591,1.743 -3.799,1.514C-4.003,1.279 -4.286,1.161 -4.644,1.161C-4.981,1.161 -5.258,1.288 -5.479,1.541C-5.697,1.795 -5.807,2.088 -5.807,2.421L-5.807,6.084L-6.97,6.084L-6.97,2.421C-6.97,1.768 -6.747,1.2 -6.3,0.719C-5.854,0.239 -5.303,0 -4.644,0C-3.938,0 -3.357,0.257 -2.903,0.77C-2.457,0.257 -1.877,0 -1.162,0C-0.509,0 0.042,0.239 0.488,0.719C0.937,1.204 1.163,1.772 1.163,2.421L1.163,6.084L0,6.084Z" style="fill:rgb(35,31,32);fill-rule:nonzero;"/>
                    </g>
                </g>
            </g>
        </g>
        <g id="CR-logo.afdesign1" serif:id="CR logo.afdesign">
        </g>
    </g>
</svg>
