<?xml version="1.0" encoding="UTF-8" standalone="no"?>
<!DOCTYPE svg PUBLIC "-//W3C//DTD SVG 1.1//EN" "http://www.w3.org/Graphics/SVG/1.1/DTD/svg11.dtd">
<svg width="100%" height="100%" viewBox="0 0 861 457" version="1.1" xmlns="http://www.w3.org/2000/svg" xmlns:xlink="http://www.w3.org/1999/xlink" xml:space="preserve" xmlns:serif="http://www.serif.com/" style="fill-rule:evenodd;clip-rule:evenodd;stroke-linejoin:round;stroke-miterlimit:2;">
    <g transform="matrix(2.49918,0,0,2.49918,-705.507,-272.81)">
        <g transform="matrix(2.83822,0,0,2.83822,-518.921,-355.11)">
            <g transform="matrix(1,0,0,1,292.376,177.547)">
                <path d="M0,-4.01L-0.294,-0.035L3.67,-0.035L3.991,-4.01L0,-4.01ZM8.217,4.961L7.752,9.959L2.8,9.959L3.232,4.961L-0.756,4.961L-1.194,9.959L-6.179,9.959L-5.711,4.961L-10.08,4.961L-10.08,-0.035L-5.273,-0.035L-4.982,-4.01L-10.08,-4.01L-10.08,-9.003L-4.516,-9.003L-4.082,-13.969L0.904,-13.969L0.438,-9.003L4.427,-9.003L4.864,-13.969L9.851,-13.969L9.413,-9.003L13.782,-9.003L13.782,-4.01L8.944,-4.01L8.652,-0.035L13.782,-0.035L13.782,4.961L8.217,4.961Z" style="fill:white;fill-rule:nonzero;"/>
            </g>
            <g transform="matrix(1,0,0,1,0,-43.648)">
                <rect x="315.105" y="207.226" width="5.945" height="40.813" style="fill:white;"/>
            </g>
            <g transform="matrix(1,0,0,1,0,-43.648)">
                <path d="M330.025,217.185L335.967,217.185L335.967,248.039L330.025,248.039L330.025,217.185ZM330.025,207.226L335.967,207.226L335.967,213.187L330.025,213.187L330.025,207.226Z" style="fill:white;fill-rule:nonzero;"/>
            </g>
            <g transform="matrix(1,0,0,1,358.813,173.536)">
                <path d="M0,30.854L-7.868,30.854L-19,0L-12.735,0L-3.934,24.192L4.864,0L11.189,0L0,30.854Z" style="fill:white;fill-rule:nonzero;"/>
            </g>
            <g transform="matrix(1,0,0,1,387.165,198.898)">
                <path d="M0,-19.866C-2.758,-19.866 -5.1,-18.883 -7.022,-16.913C-8.948,-14.949 -9.909,-12.59 -9.909,-9.845C-9.909,-9.068 -9.773,-8.205 -9.498,-7.274L6.351,-17.588C4.449,-19.105 2.33,-19.866 0,-19.866M11.364,1.225C8.33,4.398 4.575,5.987 0.087,5.987C-4.343,5.987 -8.11,4.463 -11.219,1.405C-14.327,-1.654 -15.883,-5.405 -15.883,-9.845C-15.883,-14.242 -14.336,-18.019 -11.248,-21.154C-8.162,-24.288 -4.41,-25.853 0,-25.853C3.223,-25.853 6.165,-24.961 8.829,-23.166C11.489,-21.375 13.481,-18.973 14.805,-15.956L-6.266,-2.218C-4.381,-0.7 -2.264,0.055 0.087,0.055C2.924,0.055 5.265,-0.956 7.107,-2.98C8.975,-5.028 9.913,-7.466 9.934,-10.31L15.97,-10.31C15.95,-5.817 14.412,-1.97 11.364,1.225" style="fill:white;fill-rule:nonzero;"/>
            </g>
        </g>
        <g transform="matrix(1.5684,0,0,1.5684,-356.193,-29.3565)">
            <g transform="matrix(1,0,0,1,434.343,177.807)">
                <path d="M0,22.316C-3.034,25.489 -6.791,27.078 -11.278,27.078C-15.705,27.078 -19.476,25.554 -22.585,22.495C-25.692,19.436 -27.247,15.697 -27.247,11.272C-27.247,6.851 -25.703,3.072 -22.615,-0.063C-19.489,-3.198 -15.726,-4.762 -11.338,-4.762C-9.144,-4.762 -6.848,-4.249 -4.459,-3.215L-6.907,2.274C-8.463,1.573 -9.949,1.225 -11.364,1.225C-14.124,1.225 -16.466,2.207 -18.39,4.178C-20.31,6.141 -21.271,8.501 -21.271,11.245C-21.271,13.99 -20.307,16.328 -18.361,18.257C-16.42,20.187 -14.056,21.145 -11.278,21.145C-8.463,21.145 -6.131,20.134 -4.283,18.111C-2.398,16.082 -1.447,13.638 -1.431,10.781L4.603,10.781C4.58,15.273 3.05,19.121 0,22.316" style="fill:rgb(200,33,39);fill-rule:nonzero;"/>
            </g>
            <g transform="matrix(1,0,0,1,452.465,196.271)">
                <path d="M0,-15.107C-1.553,-13.704 -2.328,-11.925 -2.328,-9.759L-2.328,8.119L-8.302,8.119L-8.302,-9.759C-8.302,-13.46 -6.912,-16.616 -4.139,-19.224C-1.319,-21.871 1.936,-23.211 5.624,-23.226L5.624,-17.239C3.411,-17.239 1.534,-16.532 0,-15.107" style="fill:rgb(200,33,39);fill-rule:nonzero;"/>
            </g>
            <g transform="matrix(1,0,0,1,476.685,198.898)">
                <path d="M0,-19.866C-2.76,-19.866 -5.102,-18.883 -7.026,-16.913C-8.947,-14.949 -9.907,-12.59 -9.907,-9.845C-9.907,-9.068 -9.773,-8.205 -9.504,-7.274L6.349,-17.588C4.443,-19.105 2.328,-19.866 0,-19.866M11.364,1.225C8.33,4.398 4.572,5.987 0.085,5.987C-4.342,5.987 -8.112,4.463 -11.22,1.405C-14.329,-1.654 -15.883,-5.405 -15.883,-9.845C-15.883,-14.242 -14.34,-18.019 -11.252,-21.154C-8.163,-24.288 -4.413,-25.853 0,-25.853C3.221,-25.853 6.165,-24.961 8.825,-23.166C11.489,-21.375 13.475,-18.973 14.799,-15.956L-6.266,-2.218C-4.381,-0.7 -2.266,0.055 0.085,0.055C2.921,0.055 5.261,-0.956 7.109,-2.98C8.973,-5.028 9.911,-7.466 9.934,-10.31L15.966,-10.31C15.944,-5.817 14.408,-1.97 11.364,1.225" style="fill:rgb(200,33,39);fill-rule:nonzero;"/>
            </g>
            <g transform="matrix(1,0,0,1,522.49,188.936)">
                <path d="M0,0.058C0,-2.651 -0.979,-4.987 -2.946,-6.95C-4.906,-8.921 -7.246,-9.904 -9.968,-9.904C-12.687,-9.904 -15.03,-8.921 -16.993,-6.95C-18.934,-5.006 -19.905,-2.668 -19.905,0.058C-19.905,2.804 -18.934,5.152 -16.993,7.098C-15.048,9.047 -12.708,10.017 -9.968,10.017C-7.229,10.017 -4.887,9.047 -2.946,7.098C-0.979,5.136 0,2.786 0,0.058M0,15.455L0,11.772C-2.952,14.557 -6.442,15.949 -10.462,15.949C-14.732,15.949 -18.377,14.384 -21.389,11.247C-24.38,8.131 -25.876,4.403 -25.876,0.058C-25.876,-4.329 -24.324,-8.073 -21.213,-11.191C-18.087,-14.326 -14.339,-15.891 -9.968,-15.891C-5.595,-15.891 -1.847,-14.326 1.279,-11.191C4.411,-8.057 5.972,-4.307 5.972,0.058L5.972,15.455L0,15.455Z" style="fill:rgb(200,33,39);fill-rule:nonzero;"/>
            </g>
            <g transform="matrix(1,0,0,1,543.352,188.443)">
                <path d="M0,-8.917L0,15.948L-5.972,15.948L-5.972,-8.917L-10.924,-8.917L-10.924,-14.906L-5.972,-14.906L-5.972,-24.865L0,-24.865L0,-14.906L4.986,-14.906L4.986,-8.917L0,-8.917Z" style="fill:rgb(200,33,39);fill-rule:nonzero;"/>
            </g>
            <g transform="matrix(1,0,0,1,0,-43.648)">
                <path d="M553.553,217.185L559.496,217.185L559.496,248.039L553.553,248.039L553.553,217.185ZM553.553,207.226L559.496,207.226L559.496,213.187L553.553,213.187L553.553,207.226Z" style="fill:rgb(200,33,39);fill-rule:nonzero;"/>
            </g>
            <g transform="matrix(1,0,0,1,582.339,173.536)">
                <path d="M0,30.854L-7.864,30.854L-19,0L-12.734,0L-3.934,24.192L4.869,0L11.189,0L0,30.854Z" style="fill:rgb(200,33,39);fill-rule:nonzero;"/>
            </g>
            <g transform="matrix(1,0,0,1,610.693,198.898)">
                <path d="M0,-19.866C-2.761,-19.866 -5.098,-18.883 -7.024,-16.913C-8.946,-14.949 -9.906,-12.59 -9.906,-9.845C-9.906,-9.068 -9.769,-8.205 -9.5,-7.274L6.351,-17.588C4.446,-19.105 2.33,-19.866 0,-19.866M11.363,1.225C8.332,4.398 4.575,5.987 0.086,5.987C-4.341,5.987 -8.111,4.463 -11.217,1.405C-14.323,-1.654 -15.881,-5.405 -15.881,-9.845C-15.881,-14.242 -14.336,-18.019 -11.25,-21.154C-8.158,-24.288 -4.412,-25.853 0,-25.853C3.225,-25.853 6.167,-24.961 8.827,-23.166C11.492,-21.375 13.481,-18.973 14.803,-15.956L-6.264,-2.218C-4.379,-0.7 -2.261,0.055 0.086,0.055C2.922,0.055 5.263,-0.956 7.111,-2.98C8.975,-5.028 9.917,-7.466 9.936,-10.31L15.968,-10.31C15.948,-5.817 14.414,-1.97 11.363,1.225" style="fill:rgb(200,33,39);fill-rule:nonzero;"/>
            </g>
        </g>
    </g>
</svg>
