<?xml version="1.0" encoding="UTF-8" standalone="no"?>
<!DOCTYPE svg PUBLIC "-//W3C//DTD SVG 1.1//EN" "http://www.w3.org/Graphics/SVG/1.1/DTD/svg11.dtd">
<svg width="100%" height="100%" viewBox="0 0 608 102" version="1.1" xmlns="http://www.w3.org/2000/svg" xmlns:xlink="http://www.w3.org/1999/xlink" xml:space="preserve" xmlns:serif="http://www.serif.com/" style="fill-rule:evenodd;clip-rule:evenodd;stroke-linejoin:round;stroke-miterlimit:2;">
    <g transform="matrix(1.40282,0,0,1.40282,-349.194,-199.673)">
        <g transform="matrix(48.5873,0,0,48.5873,249.445,175.124)">
            <path d="M0.638,0.007L0.512,0.007L0.438,-0.196L0.363,0.007L0.237,0.007L-0.011,-0.675L0.094,-0.675L0.3,-0.111L0.384,-0.342L0.263,-0.675L0.369,-0.675L0.438,-0.488L0.505,-0.675L0.612,-0.675L0.491,-0.342L0.575,-0.111L0.78,-0.675L0.887,-0.675L0.638,0.007Z" style="fill:white;fill-rule:nonzero;"/>
        </g>
        <g transform="matrix(48.5873,0,0,48.5873,290.744,175.124)">
            <path d="M0.406,-0.378C0.374,-0.404 0.338,-0.417 0.299,-0.417C0.253,-0.417 0.214,-0.4 0.182,-0.367C0.149,-0.334 0.133,-0.295 0.133,-0.249C0.133,-0.236 0.136,-0.222 0.14,-0.206L0.406,-0.378ZM0.567,-0.257C0.567,-0.182 0.541,-0.117 0.49,-0.064C0.439,-0.011 0.376,0.016 0.301,0.016C0.227,0.016 0.163,-0.01 0.111,-0.061C0.059,-0.112 0.033,-0.175 0.033,-0.249C0.033,-0.323 0.059,-0.386 0.111,-0.438C0.163,-0.49 0.225,-0.517 0.299,-0.517C0.353,-0.517 0.403,-0.502 0.447,-0.472C0.492,-0.442 0.525,-0.402 0.547,-0.351L0.194,-0.122C0.226,-0.096 0.261,-0.083 0.301,-0.083C0.348,-0.083 0.388,-0.1 0.418,-0.134C0.45,-0.168 0.465,-0.209 0.466,-0.257L0.567,-0.257Z" style="fill:white;fill-rule:nonzero;"/>
        </g>
        <g transform="matrix(48.5873,0,0,48.5873,331.636,175.124)">
            <path d="M0.308,-0.575C0.271,-0.575 0.24,-0.563 0.214,-0.54C0.188,-0.516 0.175,-0.486 0.175,-0.45L0.175,-0.425L0.258,-0.425L0.258,-0.325L0.175,-0.325L0.175,0.007L0.075,0.007L0.075,-0.325L0.033,-0.325L0.033,-0.425L0.075,-0.425L0.075,-0.45C0.075,-0.512 0.098,-0.564 0.145,-0.608C0.191,-0.652 0.246,-0.674 0.308,-0.675L0.308,-0.575Z" style="fill:white;fill-rule:nonzero;"/>
        </g>
        <g transform="matrix(48.5873,0,0,48.5873,344.988,175.124)">
            <path d="M0.467,-0.25C0.467,-0.295 0.45,-0.334 0.417,-0.367C0.385,-0.4 0.345,-0.417 0.3,-0.417C0.254,-0.417 0.215,-0.4 0.182,-0.367C0.15,-0.335 0.133,-0.296 0.133,-0.25C0.133,-0.204 0.15,-0.165 0.182,-0.132C0.215,-0.1 0.254,-0.083 0.3,-0.083C0.346,-0.083 0.385,-0.1 0.417,-0.132C0.45,-0.165 0.467,-0.204 0.467,-0.25ZM0.567,-0.25C0.567,-0.177 0.541,-0.114 0.488,-0.062C0.436,-0.01 0.373,0.016 0.3,0.016C0.226,0.016 0.163,-0.01 0.111,-0.062C0.059,-0.114 0.033,-0.177 0.033,-0.25C0.033,-0.323 0.059,-0.386 0.111,-0.438C0.164,-0.49 0.227,-0.517 0.3,-0.517C0.373,-0.517 0.436,-0.49 0.488,-0.438C0.541,-0.386 0.567,-0.323 0.567,-0.25Z" style="fill:white;fill-rule:nonzero;"/>
        </g>
        <g transform="matrix(48.5873,0,0,48.5873,372.93,175.124)">
            <path d="M0.567,-0.257C0.567,-0.182 0.541,-0.117 0.49,-0.064C0.439,-0.011 0.376,0.016 0.301,0.016C0.227,0.016 0.163,-0.01 0.111,-0.061C0.059,-0.112 0.033,-0.175 0.033,-0.249C0.033,-0.322 0.059,-0.386 0.111,-0.438C0.163,-0.49 0.226,-0.517 0.3,-0.517C0.337,-0.517 0.375,-0.508 0.415,-0.491L0.374,-0.399C0.348,-0.411 0.323,-0.417 0.299,-0.417C0.253,-0.417 0.214,-0.4 0.182,-0.367C0.149,-0.334 0.133,-0.295 0.133,-0.249C0.133,-0.203 0.15,-0.164 0.182,-0.132C0.215,-0.1 0.254,-0.083 0.301,-0.083C0.348,-0.083 0.387,-0.1 0.418,-0.134C0.45,-0.168 0.465,-0.209 0.466,-0.257L0.567,-0.257Z" style="fill:white;fill-rule:nonzero;"/>
        </g>
        <g transform="matrix(48.5873,0,0,48.5873,400.872,175.124)">
            <path d="M0.504,-0.208C0.504,-0.149 0.482,-0.097 0.436,-0.052C0.39,-0.007 0.338,0.016 0.279,0.016C0.22,0.016 0.167,-0.007 0.122,-0.052C0.077,-0.097 0.054,-0.149 0.054,-0.208L0.054,-0.508L0.154,-0.508L0.154,-0.208C0.154,-0.175 0.167,-0.145 0.191,-0.121C0.216,-0.096 0.245,-0.083 0.279,-0.083C0.313,-0.083 0.342,-0.096 0.367,-0.121C0.392,-0.145 0.404,-0.175 0.404,-0.208L0.404,-0.508L0.504,-0.508L0.504,-0.208Z" style="fill:white;fill-rule:nonzero;"/>
        </g>
        <g transform="matrix(48.5873,0,0,48.5873,426.775,175.124)">
            <path d="M0.383,-0.137C0.383,-0.094 0.368,-0.058 0.337,-0.029C0.307,0.001 0.271,0.016 0.229,0.016C0.191,0.016 0.159,0.004 0.131,-0.019C0.103,-0.042 0.085,-0.073 0.077,-0.11L0.173,-0.136C0.18,-0.101 0.198,-0.083 0.229,-0.083C0.243,-0.083 0.256,-0.089 0.267,-0.099C0.278,-0.11 0.284,-0.122 0.284,-0.137C0.284,-0.16 0.266,-0.18 0.23,-0.196C0.201,-0.209 0.178,-0.219 0.161,-0.228C0.145,-0.236 0.134,-0.242 0.129,-0.245C0.093,-0.272 0.075,-0.311 0.075,-0.362C0.075,-0.403 0.09,-0.44 0.121,-0.471C0.151,-0.501 0.188,-0.517 0.23,-0.517C0.267,-0.517 0.3,-0.505 0.328,-0.481C0.354,-0.458 0.372,-0.428 0.381,-0.391L0.283,-0.365C0.276,-0.399 0.258,-0.417 0.23,-0.417C0.215,-0.417 0.202,-0.411 0.191,-0.4C0.18,-0.389 0.175,-0.376 0.175,-0.362C0.175,-0.338 0.193,-0.319 0.229,-0.303C0.258,-0.29 0.28,-0.28 0.297,-0.272C0.313,-0.263 0.324,-0.257 0.329,-0.253C0.365,-0.226 0.383,-0.187 0.383,-0.137Z" style="fill:white;fill-rule:nonzero;"/>
        </g>
        <g transform="matrix(48.5873,0,0,48.5873,460.786,175.124)">
            <path d="M0.467,-0.25C0.467,-0.295 0.45,-0.334 0.417,-0.367C0.385,-0.4 0.345,-0.417 0.3,-0.417C0.254,-0.417 0.215,-0.4 0.182,-0.367C0.15,-0.335 0.133,-0.296 0.133,-0.25C0.133,-0.204 0.15,-0.165 0.182,-0.132C0.215,-0.1 0.254,-0.083 0.3,-0.083C0.346,-0.083 0.385,-0.1 0.417,-0.132C0.45,-0.165 0.467,-0.204 0.467,-0.25ZM0.567,-0.25C0.567,-0.177 0.541,-0.114 0.488,-0.062C0.436,-0.01 0.373,0.016 0.3,0.016C0.226,0.016 0.163,-0.01 0.111,-0.062C0.059,-0.114 0.033,-0.177 0.033,-0.25C0.033,-0.323 0.059,-0.386 0.111,-0.438C0.164,-0.49 0.227,-0.517 0.3,-0.517C0.373,-0.517 0.436,-0.49 0.488,-0.438C0.541,-0.386 0.567,-0.323 0.567,-0.25Z" style="fill:white;fill-rule:nonzero;"/>
        </g>
        <g transform="matrix(48.5873,0,0,48.5873,488.728,175.124)">
            <path d="M0.404,0.007L0.404,-0.292C0.404,-0.325 0.392,-0.355 0.367,-0.379C0.342,-0.404 0.313,-0.417 0.279,-0.417C0.245,-0.417 0.216,-0.404 0.191,-0.379C0.167,-0.355 0.154,-0.325 0.154,-0.292L0.154,0.007L0.054,0.007L0.054,-0.292C0.054,-0.351 0.077,-0.403 0.122,-0.449C0.167,-0.494 0.22,-0.517 0.279,-0.517C0.339,-0.517 0.391,-0.494 0.436,-0.449C0.482,-0.403 0.504,-0.351 0.504,-0.292L0.504,0.007L0.404,0.007Z" style="fill:white;fill-rule:nonzero;"/>
        </g>
        <g transform="matrix(48.5873,0,0,48.5873,527.579,175.124)">
            <path d="M0.487,-0.25C0.487,-0.295 0.471,-0.334 0.438,-0.367C0.405,-0.4 0.366,-0.417 0.321,-0.417C0.275,-0.417 0.236,-0.4 0.203,-0.367C0.171,-0.335 0.154,-0.296 0.154,-0.25C0.154,-0.204 0.171,-0.165 0.203,-0.132C0.236,-0.1 0.275,-0.083 0.321,-0.083C0.366,-0.083 0.405,-0.1 0.438,-0.132C0.471,-0.165 0.487,-0.204 0.487,-0.25ZM0.587,-0.25C0.587,-0.178 0.562,-0.115 0.512,-0.063C0.461,-0.011 0.4,0.016 0.329,0.016C0.262,0.016 0.204,-0.008 0.154,-0.054L0.154,0.174L0.054,0.174L0.054,-0.25C0.054,-0.323 0.08,-0.386 0.132,-0.438C0.185,-0.49 0.248,-0.517 0.321,-0.517C0.394,-0.517 0.456,-0.49 0.509,-0.438C0.561,-0.386 0.587,-0.323 0.587,-0.25Z" style="fill:white;fill-rule:nonzero;"/>
        </g>
        <g transform="matrix(48.5873,0,0,48.5873,556.518,175.124)">
            <path d="M0.406,-0.378C0.374,-0.404 0.338,-0.417 0.299,-0.417C0.253,-0.417 0.214,-0.4 0.182,-0.367C0.149,-0.334 0.133,-0.295 0.133,-0.249C0.133,-0.236 0.136,-0.222 0.14,-0.206L0.406,-0.378ZM0.567,-0.257C0.567,-0.182 0.541,-0.117 0.49,-0.064C0.439,-0.011 0.376,0.016 0.301,0.016C0.227,0.016 0.163,-0.01 0.111,-0.061C0.059,-0.112 0.033,-0.175 0.033,-0.249C0.033,-0.323 0.059,-0.386 0.111,-0.438C0.163,-0.49 0.225,-0.517 0.299,-0.517C0.353,-0.517 0.403,-0.502 0.447,-0.472C0.492,-0.442 0.525,-0.402 0.547,-0.351L0.194,-0.122C0.226,-0.096 0.261,-0.083 0.301,-0.083C0.348,-0.083 0.388,-0.1 0.418,-0.134C0.45,-0.168 0.465,-0.209 0.466,-0.257L0.567,-0.257Z" style="fill:white;fill-rule:nonzero;"/>
        </g>
        <g transform="matrix(48.5873,0,0,48.5873,584.46,175.124)">
            <path d="M0.467,-0.25C0.467,-0.295 0.45,-0.334 0.417,-0.367C0.385,-0.4 0.345,-0.417 0.3,-0.417C0.254,-0.417 0.215,-0.4 0.182,-0.367C0.15,-0.335 0.133,-0.296 0.133,-0.25C0.133,-0.204 0.15,-0.165 0.182,-0.132C0.215,-0.1 0.254,-0.083 0.3,-0.083C0.346,-0.083 0.385,-0.1 0.417,-0.132C0.45,-0.165 0.467,-0.204 0.467,-0.25ZM0.567,-0.25C0.567,-0.177 0.541,-0.114 0.488,-0.062C0.436,-0.01 0.373,0.016 0.3,0.016C0.226,0.016 0.163,-0.01 0.111,-0.062C0.059,-0.114 0.033,-0.177 0.033,-0.25C0.033,-0.323 0.059,-0.386 0.111,-0.438C0.164,-0.49 0.227,-0.517 0.3,-0.517C0.373,-0.517 0.436,-0.49 0.488,-0.438C0.541,-0.386 0.567,-0.323 0.567,-0.25Z" style="fill:white;fill-rule:nonzero;"/>
        </g>
        <g transform="matrix(48.5873,0,0,48.5873,612.403,175.124)">
            <path d="M0.487,-0.25C0.487,-0.295 0.471,-0.334 0.438,-0.367C0.405,-0.4 0.366,-0.417 0.321,-0.417C0.275,-0.417 0.236,-0.4 0.203,-0.367C0.171,-0.335 0.154,-0.296 0.154,-0.25C0.154,-0.204 0.171,-0.165 0.203,-0.132C0.236,-0.1 0.275,-0.083 0.321,-0.083C0.366,-0.083 0.405,-0.1 0.438,-0.132C0.471,-0.165 0.487,-0.204 0.487,-0.25ZM0.587,-0.25C0.587,-0.178 0.562,-0.115 0.512,-0.063C0.461,-0.011 0.4,0.016 0.329,0.016C0.262,0.016 0.204,-0.008 0.154,-0.054L0.154,0.174L0.054,0.174L0.054,-0.25C0.054,-0.323 0.08,-0.386 0.132,-0.438C0.185,-0.49 0.248,-0.517 0.321,-0.517C0.394,-0.517 0.456,-0.49 0.509,-0.438C0.561,-0.386 0.587,-0.323 0.587,-0.25Z" style="fill:white;fill-rule:nonzero;"/>
        </g>
        <g transform="matrix(48.5873,0,0,48.5873,641.342,175.124)">
            <rect x="0.075" y="-0.675" width="0.1" height="0.682" style="fill:white;fill-rule:nonzero;"/>
        </g>
        <g transform="matrix(48.5873,0,0,48.5873,652.274,175.124)">
            <path d="M0.406,-0.378C0.374,-0.404 0.338,-0.417 0.299,-0.417C0.253,-0.417 0.214,-0.4 0.182,-0.367C0.149,-0.334 0.133,-0.295 0.133,-0.249C0.133,-0.236 0.136,-0.222 0.14,-0.206L0.406,-0.378ZM0.567,-0.257C0.567,-0.182 0.541,-0.117 0.49,-0.064C0.439,-0.011 0.376,0.016 0.301,0.016C0.227,0.016 0.163,-0.01 0.111,-0.061C0.059,-0.112 0.033,-0.175 0.033,-0.249C0.033,-0.323 0.059,-0.386 0.111,-0.438C0.163,-0.49 0.225,-0.517 0.299,-0.517C0.353,-0.517 0.403,-0.502 0.447,-0.472C0.492,-0.442 0.525,-0.402 0.547,-0.351L0.194,-0.122C0.226,-0.096 0.261,-0.083 0.301,-0.083C0.348,-0.083 0.388,-0.1 0.418,-0.134C0.45,-0.168 0.465,-0.209 0.466,-0.257L0.567,-0.257Z" style="fill:white;fill-rule:nonzero;"/>
        </g>
        <g transform="matrix(32.3915,0,0,32.3915,364.993,213.996)">
            <rect x="0.075" y="-0.092" width="0.1" height="0.099" style="fill:white;fill-rule:nonzero;"/>
        </g>
        <g transform="matrix(32.3915,0,0,32.3915,373.091,213.996)">
            <rect x="0.075" y="-0.092" width="0.1" height="0.099" style="fill:white;fill-rule:nonzero;"/>
        </g>
        <g transform="matrix(32.3915,0,0,32.3915,381.189,213.996)">
            <rect x="0.075" y="-0.092" width="0.1" height="0.099" style="fill:white;fill-rule:nonzero;"/>
        </g>
        <g transform="matrix(32.3915,0,0,32.3915,389.287,213.996)">
            <path d="M0.467,-0.25C0.467,-0.295 0.45,-0.334 0.417,-0.367C0.385,-0.4 0.345,-0.417 0.3,-0.417C0.254,-0.417 0.215,-0.4 0.182,-0.367C0.15,-0.335 0.133,-0.296 0.133,-0.25C0.133,-0.204 0.15,-0.165 0.182,-0.132C0.215,-0.1 0.254,-0.083 0.3,-0.083C0.346,-0.083 0.385,-0.1 0.417,-0.132C0.45,-0.165 0.467,-0.204 0.467,-0.25ZM0.467,0.007L0.467,-0.054C0.417,-0.008 0.359,0.016 0.292,0.016C0.22,0.016 0.159,-0.011 0.108,-0.063C0.058,-0.115 0.033,-0.177 0.033,-0.25C0.033,-0.323 0.059,-0.386 0.111,-0.438C0.164,-0.49 0.227,-0.517 0.3,-0.517C0.373,-0.517 0.436,-0.49 0.488,-0.438C0.541,-0.386 0.567,-0.323 0.567,-0.25L0.567,0.007L0.467,0.007Z" style="fill:white;fill-rule:nonzero;"/>
        </g>
        <g transform="matrix(32.3915,0,0,32.3915,409.389,213.996)">
            <path d="M0.404,0.007L0.404,-0.292C0.404,-0.325 0.392,-0.355 0.367,-0.379C0.342,-0.404 0.313,-0.417 0.279,-0.417C0.245,-0.417 0.216,-0.404 0.191,-0.379C0.167,-0.355 0.154,-0.325 0.154,-0.292L0.154,0.007L0.054,0.007L0.054,-0.292C0.054,-0.351 0.077,-0.403 0.122,-0.449C0.167,-0.494 0.22,-0.517 0.279,-0.517C0.339,-0.517 0.391,-0.494 0.436,-0.449C0.482,-0.403 0.504,-0.351 0.504,-0.292L0.504,0.007L0.404,0.007Z" style="fill:white;fill-rule:nonzero;"/>
        </g>
        <g transform="matrix(32.3915,0,0,32.3915,427.467,213.996)">
            <path d="M0.467,-0.25C0.467,-0.295 0.45,-0.334 0.417,-0.367C0.385,-0.4 0.345,-0.417 0.3,-0.417C0.254,-0.417 0.215,-0.4 0.182,-0.367C0.15,-0.335 0.133,-0.296 0.133,-0.25C0.133,-0.204 0.15,-0.165 0.182,-0.132C0.215,-0.1 0.254,-0.083 0.3,-0.083C0.346,-0.083 0.385,-0.1 0.417,-0.132C0.45,-0.165 0.467,-0.204 0.467,-0.25ZM0.567,-0.25C0.567,-0.177 0.541,-0.114 0.488,-0.062C0.436,-0.01 0.373,0.016 0.3,0.016C0.226,0.016 0.163,-0.01 0.111,-0.062C0.059,-0.114 0.033,-0.177 0.033,-0.25C0.033,-0.323 0.058,-0.385 0.108,-0.438C0.159,-0.49 0.22,-0.517 0.292,-0.517C0.359,-0.517 0.418,-0.493 0.467,-0.446L0.467,-0.675L0.567,-0.675L0.567,-0.25Z" style="fill:white;fill-rule:nonzero;"/>
        </g>
        <g transform="matrix(32.3915,0,0,32.3915,457.012,213.996)">
            <path d="M0.196,-0.408L0.196,0.007L0.096,0.007L0.096,-0.408L0.013,-0.408L0.013,-0.508L0.096,-0.508L0.096,-0.675L0.196,-0.675L0.196,-0.508L0.279,-0.508L0.279,-0.408L0.196,-0.408Z" style="fill:white;fill-rule:nonzero;"/>
        </g>
        <g transform="matrix(32.3915,0,0,32.3915,466.454,213.996)">
            <path d="M0.425,0.007L0.425,-0.292C0.425,-0.325 0.412,-0.355 0.388,-0.379C0.363,-0.404 0.334,-0.417 0.3,-0.417C0.266,-0.417 0.237,-0.404 0.212,-0.379C0.187,-0.355 0.175,-0.325 0.175,-0.292L0.175,0.007L0.075,0.007L0.075,-0.675L0.175,-0.675L0.175,-0.46C0.215,-0.498 0.263,-0.517 0.317,-0.517C0.376,-0.517 0.426,-0.493 0.467,-0.447C0.506,-0.404 0.525,-0.352 0.525,-0.292L0.525,0.007L0.425,0.007Z" style="fill:white;fill-rule:nonzero;"/>
        </g>
        <g transform="matrix(32.3915,0,0,32.3915,485.892,213.996)">
            <path d="M0.406,-0.378C0.374,-0.404 0.338,-0.417 0.299,-0.417C0.253,-0.417 0.214,-0.4 0.182,-0.367C0.149,-0.334 0.133,-0.295 0.133,-0.249C0.133,-0.236 0.136,-0.222 0.14,-0.206L0.406,-0.378ZM0.567,-0.257C0.567,-0.182 0.541,-0.117 0.49,-0.064C0.439,-0.011 0.376,0.016 0.301,0.016C0.227,0.016 0.163,-0.01 0.111,-0.061C0.059,-0.112 0.033,-0.175 0.033,-0.249C0.033,-0.323 0.059,-0.386 0.111,-0.438C0.163,-0.49 0.225,-0.517 0.299,-0.517C0.353,-0.517 0.403,-0.502 0.447,-0.472C0.492,-0.442 0.525,-0.402 0.547,-0.351L0.194,-0.122C0.226,-0.096 0.261,-0.083 0.301,-0.083C0.348,-0.083 0.388,-0.1 0.418,-0.134C0.45,-0.168 0.465,-0.209 0.466,-0.257L0.567,-0.257Z" style="fill:white;fill-rule:nonzero;"/>
        </g>
        <g transform="matrix(32.3915,0,0,32.3915,505.33,213.996)">
            <path d="M0.075,-0.575L0.075,-0.675L0.175,-0.675L0.175,-0.575L0.075,-0.575ZM0.075,0.007L0.075,-0.508L0.175,-0.508L0.175,0.007L0.075,0.007Z" style="fill:white;fill-rule:nonzero;"/>
        </g>
        <g transform="matrix(32.3915,0,0,32.3915,513.428,213.996)">
            <path d="M0.288,-0.417C0.25,-0.417 0.219,-0.405 0.193,-0.381C0.167,-0.357 0.154,-0.328 0.154,-0.292L0.154,0.007L0.054,0.007L0.054,-0.292C0.054,-0.353 0.077,-0.406 0.124,-0.45C0.171,-0.494 0.226,-0.516 0.288,-0.517L0.288,-0.417Z" style="fill:white;fill-rule:nonzero;"/>
        </g>
        <g transform="matrix(32.3915,0,0,32.3915,532.581,213.996)">
            <path d="M0.487,-0.25C0.487,-0.295 0.471,-0.334 0.438,-0.367C0.405,-0.4 0.366,-0.417 0.321,-0.417C0.275,-0.417 0.236,-0.4 0.203,-0.367C0.171,-0.335 0.154,-0.296 0.154,-0.25C0.154,-0.204 0.171,-0.165 0.203,-0.132C0.236,-0.1 0.275,-0.083 0.321,-0.083C0.366,-0.083 0.405,-0.1 0.438,-0.132C0.471,-0.165 0.487,-0.204 0.487,-0.25ZM0.587,-0.25C0.587,-0.177 0.561,-0.114 0.509,-0.062C0.456,-0.01 0.394,0.016 0.321,0.016C0.247,0.016 0.184,-0.01 0.132,-0.062C0.08,-0.114 0.054,-0.177 0.054,-0.25L0.054,-0.675L0.154,-0.675L0.154,-0.446C0.203,-0.493 0.262,-0.517 0.329,-0.517C0.4,-0.517 0.461,-0.49 0.512,-0.438C0.562,-0.384 0.587,-0.322 0.587,-0.25Z" style="fill:white;fill-rule:nonzero;"/>
        </g>
        <g transform="matrix(32.3915,0,0,32.3915,552.684,213.996)">
            <path d="M0.406,-0.378C0.374,-0.404 0.338,-0.417 0.299,-0.417C0.253,-0.417 0.214,-0.4 0.182,-0.367C0.149,-0.334 0.133,-0.295 0.133,-0.249C0.133,-0.236 0.136,-0.222 0.14,-0.206L0.406,-0.378ZM0.567,-0.257C0.567,-0.182 0.541,-0.117 0.49,-0.064C0.439,-0.011 0.376,0.016 0.301,0.016C0.227,0.016 0.163,-0.01 0.111,-0.061C0.059,-0.112 0.033,-0.175 0.033,-0.249C0.033,-0.323 0.059,-0.386 0.111,-0.438C0.163,-0.49 0.225,-0.517 0.299,-0.517C0.353,-0.517 0.403,-0.502 0.447,-0.472C0.492,-0.442 0.525,-0.402 0.547,-0.351L0.194,-0.122C0.226,-0.096 0.261,-0.083 0.301,-0.083C0.348,-0.083 0.388,-0.1 0.418,-0.134C0.45,-0.168 0.465,-0.209 0.466,-0.257L0.567,-0.257Z" style="fill:white;fill-rule:nonzero;"/>
        </g>
        <g transform="matrix(32.3915,0,0,32.3915,572.122,213.996)">
            <path d="M0.425,0.007L0.425,-0.292C0.425,-0.325 0.412,-0.355 0.388,-0.379C0.363,-0.404 0.334,-0.417 0.3,-0.417C0.266,-0.417 0.237,-0.404 0.212,-0.379C0.187,-0.355 0.175,-0.325 0.175,-0.292L0.175,0.007L0.075,0.007L0.075,-0.675L0.175,-0.675L0.175,-0.46C0.215,-0.498 0.263,-0.517 0.317,-0.517C0.376,-0.517 0.426,-0.493 0.467,-0.447C0.506,-0.404 0.525,-0.352 0.525,-0.292L0.525,0.007L0.425,0.007Z" style="fill:white;fill-rule:nonzero;"/>
        </g>
        <g transform="matrix(32.3915,0,0,32.3915,591.56,213.996)">
            <path d="M0.467,-0.25C0.467,-0.295 0.45,-0.334 0.417,-0.367C0.385,-0.4 0.345,-0.417 0.3,-0.417C0.254,-0.417 0.215,-0.4 0.182,-0.367C0.15,-0.335 0.133,-0.296 0.133,-0.25C0.133,-0.204 0.15,-0.165 0.182,-0.132C0.215,-0.1 0.254,-0.083 0.3,-0.083C0.346,-0.083 0.385,-0.1 0.417,-0.132C0.45,-0.165 0.467,-0.204 0.467,-0.25ZM0.467,0.007L0.467,-0.054C0.417,-0.008 0.359,0.016 0.292,0.016C0.22,0.016 0.159,-0.011 0.108,-0.063C0.058,-0.115 0.033,-0.177 0.033,-0.25C0.033,-0.323 0.059,-0.386 0.111,-0.438C0.164,-0.49 0.227,-0.517 0.3,-0.517C0.373,-0.517 0.436,-0.49 0.488,-0.438C0.541,-0.386 0.567,-0.323 0.567,-0.25L0.567,0.007L0.467,0.007Z" style="fill:white;fill-rule:nonzero;"/>
        </g>
        <g transform="matrix(32.3915,0,0,32.3915,611.662,213.996)">
            <path d="M0.308,0.007L0.176,0.007L-0.011,-0.508L0.094,-0.508L0.242,-0.104L0.389,-0.508L0.495,-0.508L0.308,0.007Z" style="fill:white;fill-rule:nonzero;"/>
        </g>
        <g transform="matrix(32.3915,0,0,32.3915,627.32,213.996)">
            <path d="M0.075,-0.575L0.075,-0.675L0.175,-0.675L0.175,-0.575L0.075,-0.575ZM0.075,0.007L0.075,-0.508L0.175,-0.508L0.175,0.007L0.075,0.007Z" style="fill:white;fill-rule:nonzero;"/>
        </g>
        <g transform="matrix(32.3915,0,0,32.3915,635.418,213.996)">
            <path d="M0.467,-0.25C0.467,-0.295 0.45,-0.334 0.417,-0.367C0.385,-0.4 0.345,-0.417 0.3,-0.417C0.254,-0.417 0.215,-0.4 0.182,-0.367C0.15,-0.335 0.133,-0.296 0.133,-0.25C0.133,-0.204 0.15,-0.165 0.182,-0.132C0.215,-0.1 0.254,-0.083 0.3,-0.083C0.346,-0.083 0.385,-0.1 0.417,-0.132C0.45,-0.165 0.467,-0.204 0.467,-0.25ZM0.567,-0.25C0.567,-0.177 0.541,-0.114 0.488,-0.062C0.436,-0.01 0.373,0.016 0.3,0.016C0.226,0.016 0.163,-0.01 0.111,-0.062C0.059,-0.114 0.033,-0.177 0.033,-0.25C0.033,-0.323 0.059,-0.386 0.111,-0.438C0.164,-0.49 0.227,-0.517 0.3,-0.517C0.373,-0.517 0.436,-0.49 0.488,-0.438C0.541,-0.386 0.567,-0.323 0.567,-0.25Z" style="fill:white;fill-rule:nonzero;"/>
        </g>
        <g transform="matrix(32.3915,0,0,32.3915,654.856,213.996)">
            <path d="M0.504,-0.208C0.504,-0.149 0.482,-0.097 0.436,-0.052C0.39,-0.007 0.338,0.016 0.279,0.016C0.22,0.016 0.167,-0.007 0.122,-0.052C0.077,-0.097 0.054,-0.149 0.054,-0.208L0.054,-0.508L0.154,-0.508L0.154,-0.208C0.154,-0.175 0.167,-0.145 0.191,-0.121C0.216,-0.096 0.245,-0.083 0.279,-0.083C0.313,-0.083 0.342,-0.096 0.367,-0.121C0.392,-0.145 0.404,-0.175 0.404,-0.208L0.404,-0.508L0.504,-0.508L0.504,-0.208Z" style="fill:white;fill-rule:nonzero;"/>
        </g>
        <g transform="matrix(32.3915,0,0,32.3915,672.934,213.996)">
            <path d="M0.288,-0.417C0.25,-0.417 0.219,-0.405 0.193,-0.381C0.167,-0.357 0.154,-0.328 0.154,-0.292L0.154,0.007L0.054,0.007L0.054,-0.292C0.054,-0.353 0.077,-0.406 0.124,-0.45C0.171,-0.494 0.226,-0.516 0.288,-0.517L0.288,-0.417Z" style="fill:white;fill-rule:nonzero;"/>
        </g>
    </g>
</svg>
