<?xml version="1.0" encoding="UTF-8" standalone="no"?>
<!DOCTYPE svg PUBLIC "-//W3C//DTD SVG 1.1//EN" "http://www.w3.org/Graphics/SVG/1.1/DTD/svg11.dtd">
<svg width="100%" height="100%" viewBox="0 0 855 238" version="1.1" xmlns="http://www.w3.org/2000/svg" xmlns:xlink="http://www.w3.org/1999/xlink" xml:space="preserve" xmlns:serif="http://www.serif.com/" style="fill-rule:evenodd;clip-rule:evenodd;stroke-linejoin:round;stroke-miterlimit:2;">
    <g transform="matrix(1,0,0,1,-3231.05,-1687.46)">
        <text x="3234.58px" y="1719.96px" style="font-family:'Roboto-Regular', 'Roboto';font-size:42.667px;fill:white;">What <tspan x="3347.9px " y="1719.96px ">i</tspan>nsights <tspan x="3514.2px " y="1719.96px ">w</tspan>ould <tspan x="3644.17px " y="1719.96px ">d</tspan>riv<tspan x="3714.9px 3737.38px 3751.97px " y="1719.96px 1719.96px 1719.96px ">e t</tspan>he <tspan x="3826.79px " y="1719.96px ">m</tspan>essage <tspan x="4015.72px " y="1719.96px ">a</tspan>nd</text>
        <text x="3234.58px" y="1767.96px" style="font-family:'Roboto-Regular', 'Roboto';font-size:42.667px;fill:white;">media allocation?</text>
        <text x="3232.51px" y="1820.01px" style="font-family:'Roboto-Regular', 'Roboto';font-size:42.667px;fill:white;">And <tspan x="3350.87px " y="1820.01px ">h</tspan>ow <tspan x="3473.3px " y="1820.01px ">d</tspan>o <tspan x="3563.45px " y="1820.01px ">w</tspan>e <tspan x="3660.03px 3682.59px 3697.07px " y="1820.01px 1820.01px 1820.01px ">cre</tspan>ate <tspan x="3820.8px " y="1820.01px ">a</tspan>n <tspan x="3910.15px " y="1820.01px ">e</tspan>ngaging</text>
        <text x="3230.45px" y="1872.06px" style="font-family:'Roboto-Regular', 'Roboto';font-size:42.667px;fill:white;">consumer <tspan x="3431.97px " y="1872.06px ">e</tspan>xperience <tspan x="3649.11px " y="1872.06px ">f</tspan>or <tspan x="3712.28px 3735.65px 3745.15px 3769.32px 3783.78px " y="1872.06px 1872.06px 1872.06px 1872.06px 1872.06px ">a pro</tspan>duct <tspan x="3901.92px " y="1872.06px ">o</tspan>r <tspan x="3950.47px " y="1872.06px ">s</tspan>er<tspan x="4010.42px " y="1872.06px ">v</tspan>ice</text>
        <text x="3230.45px" y="1924.11px" style="font-family:'Roboto-Regular', 'Roboto';font-size:42.667px;fill:white;">tailor<tspan x="3327.22px " y="1924.11px ">e</tspan>d t<tspan x="3397.59px " y="1924.11px ">o</tspan> the mark<tspan x="3600.05px " y="1924.11px ">e</tspan>t needs?</text>
    </g>
</svg>
