<?xml version="1.0" encoding="UTF-8" standalone="no"?><!DOCTYPE svg PUBLIC "-//W3C//DTD SVG 1.1//EN" "http://www.w3.org/Graphics/SVG/1.1/DTD/svg11.dtd"><svg width="100%" height="100%" viewBox="0 0 882 465" version="1.1" xmlns="http://www.w3.org/2000/svg" xmlns:xlink="http://www.w3.org/1999/xlink" xml:space="preserve" xmlns:serif="http://www.serif.com/" style="fill-rule:evenodd;clip-rule:evenodd;stroke-linejoin:round;stroke-miterlimit:2;"><g><g><g><path d="M424.11,67.377l-12.452,0l-7.313,-20.061l-7.412,20.061l-12.452,0l-24.508,-67.398l10.377,0l20.357,55.737l8.301,-22.828l-11.957,-32.909l10.475,0l6.819,18.48l6.621,-18.48l10.574,0l-11.957,32.909l8.301,22.828l20.259,-55.737l10.574,0l-24.607,67.398Z" style="fill:#fff;fill-rule:nonzero;"/></g><g><path d="M485.182,29.33c-3.162,-2.569 -6.72,-3.854 -10.574,-3.854c-4.546,-0 -8.4,1.68 -11.562,4.941c-3.261,3.261 -4.843,7.115 -4.843,11.661c0,1.285 0.297,2.669 0.692,4.25l26.287,-16.998Zm15.911,11.958c-0,7.411 -2.57,13.835 -7.61,19.073c-5.04,5.237 -11.265,7.906 -18.677,7.906c-7.313,-0 -13.638,-2.57 -18.777,-7.61c-5.139,-5.04 -7.708,-11.266 -7.708,-18.579c0,-7.313 2.569,-13.539 7.708,-18.677c5.139,-5.139 11.266,-7.807 18.579,-7.807c5.337,-0 10.278,1.482 14.626,4.447c4.447,2.964 7.708,6.917 9.882,11.957l-34.884,22.631c3.162,2.569 6.621,3.854 10.574,3.854c4.644,0 8.597,-1.68 11.562,-5.04c3.162,-3.36 4.645,-7.412 4.744,-12.155l9.981,-0Z" style="fill:#fff;fill-rule:nonzero;"/></g></g><g><g><path d="M558.669,9.862c-3.656,-0 -6.72,1.186 -9.289,3.459c-2.569,2.371 -3.854,5.336 -3.854,8.894l-0,2.47l8.202,0l0,9.883l-8.202,-0l-0,32.809l-9.883,0l0,-32.809l-4.15,-0l-0,-9.883l4.15,0l0,-2.47c0,-6.127 2.273,-11.266 6.918,-15.614c4.546,-4.349 9.981,-6.523 16.108,-6.622l0,9.883Z" style="fill:#fff;fill-rule:nonzero;"/></g><g><path d="M601.54,41.979c-0,-4.447 -1.68,-8.301 -4.942,-11.562c-3.162,-3.261 -7.115,-4.941 -11.562,-4.941c-4.546,-0 -8.4,1.68 -11.661,4.941c-3.163,3.162 -4.843,7.017 -4.843,11.562c0,4.546 1.68,8.4 4.843,11.662c3.261,3.162 7.115,4.842 11.661,4.842c4.546,0 8.4,-1.68 11.562,-4.842c3.262,-3.262 4.942,-7.116 4.942,-11.662Zm9.882,0c-0,7.215 -2.57,13.44 -7.807,18.579c-5.139,5.139 -11.365,7.709 -18.579,7.709c-7.313,-0 -13.539,-2.57 -18.678,-7.709c-5.139,-5.139 -7.708,-11.364 -7.708,-18.579c0,-7.214 2.569,-13.44 7.708,-18.578c5.238,-5.139 11.464,-7.807 18.678,-7.807c7.214,-0 13.44,2.668 18.579,7.807c5.237,5.138 7.807,11.364 7.807,18.578Z" style="fill:#fff;fill-rule:nonzero;"/></g><g><path d="M668.254,41.288c0,7.411 -2.569,13.835 -7.609,19.073c-5.04,5.237 -11.266,7.906 -18.678,7.906c-7.313,-0 -13.638,-2.57 -18.776,-7.61c-5.139,-5.04 -7.709,-11.266 -7.709,-18.579c0,-7.214 2.57,-13.539 7.709,-18.677c5.138,-5.139 11.364,-7.807 18.677,-7.807c3.657,-0 7.412,0.889 11.365,2.569l-4.052,9.092c-2.569,-1.186 -5.04,-1.779 -7.411,-1.779c-4.546,-0 -8.4,1.68 -11.563,4.941c-3.261,3.261 -4.842,7.115 -4.842,11.661c-0,4.546 1.68,8.4 4.842,11.563c3.261,3.162 7.115,4.842 11.76,4.842c4.645,0 8.499,-1.68 11.563,-5.04c3.162,-3.36 4.644,-7.412 4.743,-12.155l9.981,-0Z" style="fill:#fff;fill-rule:nonzero;"/></g><g><path d="M718.861,46.13c-0,5.831 -2.174,10.969 -6.72,15.417c-4.546,4.447 -9.685,6.72 -15.516,6.72c-5.83,-0 -11.068,-2.273 -15.515,-6.72c-4.447,-4.448 -6.72,-9.586 -6.72,-15.417l0,-29.647l9.882,-0l0,29.647c0,3.261 1.285,6.226 3.657,8.598c2.471,2.47 5.336,3.755 8.696,3.755c3.36,0 6.226,-1.285 8.697,-3.755c2.47,-2.372 3.656,-5.337 3.656,-8.598l0,-29.647l9.883,-0l-0,29.647Z" style="fill:#fff;fill-rule:nonzero;"/></g><g><path d="M759.588,53.147c0,4.249 -1.482,7.807 -4.546,10.672c-2.964,2.965 -6.522,4.448 -10.673,4.448c-3.755,-0 -6.917,-1.186 -9.684,-3.459c-2.767,-2.273 -4.546,-5.337 -5.337,-8.993l9.487,-2.57c0.692,3.459 2.471,5.238 5.534,5.238c1.384,0 2.669,-0.593 3.756,-1.581c1.087,-1.087 1.68,-2.273 1.68,-3.755c-0,-2.273 -1.779,-4.25 -5.337,-5.831c-2.866,-1.285 -5.139,-2.273 -6.819,-3.162c-1.581,-0.791 -2.668,-1.384 -3.162,-1.68c-3.558,-2.669 -5.336,-6.523 -5.336,-11.563c-0,-4.052 1.482,-7.708 4.545,-10.772c2.965,-2.964 6.622,-4.545 10.772,-4.545c3.657,-0 6.918,1.185 9.685,3.557c2.569,2.273 4.348,5.238 5.238,8.894l-9.685,2.57c-0.692,-3.36 -2.471,-5.139 -5.238,-5.139c-1.482,-0 -2.767,0.593 -3.854,1.68c-1.087,1.087 -1.581,2.372 -1.581,3.755c-0,2.372 1.779,4.25 5.336,5.831c2.866,1.285 5.04,2.273 6.72,3.063c1.582,0.89 2.669,1.483 3.163,1.878c3.557,2.668 5.336,6.522 5.336,11.464Z" style="fill:#fff;fill-rule:nonzero;"/></g></g><g><g><path d="M84.957,164.312c-0,-8.813 -3.33,-16.451 -9.793,-22.915c-6.267,-6.463 -14.102,-9.792 -22.915,-9.792c-9.009,-0 -16.648,3.329 -23.111,9.792c-6.267,6.268 -9.597,13.906 -9.597,22.915c0,9.01 3.33,16.648 9.597,23.111c6.463,6.268 14.102,9.597 23.111,9.597c9.009,0 16.648,-3.329 22.915,-9.597c6.463,-6.463 9.793,-14.101 9.793,-23.111Zm19.585,0c0,14.298 -5.092,26.637 -15.472,36.821c-10.185,10.184 -22.524,15.277 -36.821,15.277c-14.493,-0 -26.832,-5.093 -37.017,-15.277c-10.184,-10.184 -15.276,-22.523 -15.276,-36.821c-0,-14.297 5.092,-26.636 15.276,-36.82c10.381,-10.185 22.72,-15.473 37.017,-15.473c14.297,0 26.636,5.288 36.821,15.473c10.38,10.184 15.472,22.523 15.472,36.82Z" style="fill:#fff;fill-rule:nonzero;"/></g><g><path d="M185.252,214.647l-0,-58.561c-0,-6.463 -2.351,-12.338 -7.247,-17.039c-4.896,-4.896 -10.576,-7.442 -17.235,-7.442c-6.659,-0 -12.339,2.546 -17.235,7.442c-4.701,4.701 -7.247,10.576 -7.247,17.039l-0,58.561l-19.586,-0l0,-58.561c0,-11.555 4.505,-21.739 13.319,-30.749c8.813,-8.813 19.193,-13.318 30.749,-13.318c11.751,0 21.935,4.505 30.749,13.318c9.009,9.01 13.318,19.194 13.318,30.749l0,58.561l-19.585,-0Z" style="fill:#fff;fill-rule:nonzero;"/></g></g><g><g><path d="M358.115,164.312c0,-8.813 -3.133,-16.451 -9.597,-22.915c-6.463,-6.463 -14.101,-9.792 -22.915,-9.792c-9.009,-0 -16.647,3.329 -23.11,9.792c-6.268,6.268 -9.597,13.906 -9.597,22.915c-0,9.01 3.329,16.648 9.597,23.111c6.463,6.268 14.101,9.597 23.11,9.597c8.814,0 16.452,-3.329 22.915,-9.597c6.464,-6.463 9.597,-14.101 9.597,-23.111Zm19.586,0c-0,14.102 -4.897,26.441 -14.689,36.625c-9.989,10.185 -21.936,15.473 -35.842,15.473c-13.122,-0 -24.482,-4.701 -34.274,-13.71l-0,44.655l-19.586,-0l0,-83.043c0,-14.297 5.092,-26.636 15.277,-36.82c10.38,-10.185 22.719,-15.473 37.016,-15.473c14.298,0 26.441,5.288 36.821,15.473c10.185,10.184 15.277,22.523 15.277,36.82Z" style="fill:#fff;fill-rule:nonzero;"/></g><g><path d="M458.904,139.243c-6.268,-5.092 -13.318,-7.638 -20.957,-7.638c-9.009,-0 -16.647,3.329 -22.915,9.792c-6.463,6.464 -9.597,14.102 -9.597,23.111c0,2.546 0.588,5.288 1.371,8.422l52.098,-33.687Zm31.532,23.698c0,14.689 -5.092,27.42 -15.08,37.8c-9.989,10.381 -22.328,15.669 -37.017,15.669c-14.493,-0 -27.028,-5.093 -37.212,-15.081c-10.185,-9.989 -15.277,-22.328 -15.277,-36.821c-0,-14.493 5.092,-26.832 15.277,-37.016c10.184,-10.185 22.327,-15.473 36.82,-15.473c10.576,0 20.369,2.938 28.987,8.814c8.813,5.875 15.276,13.709 19.585,23.698l-69.136,44.851c6.267,5.092 13.122,7.638 20.956,7.638c9.205,0 17.039,-3.329 22.915,-9.989c6.267,-6.659 9.205,-14.689 9.401,-24.09l19.781,0Z" style="fill:#fff;fill-rule:nonzero;"/></g><g><path d="M583.485,164.312c-0,-8.813 -3.33,-16.451 -9.793,-22.915c-6.267,-6.463 -14.102,-9.792 -22.915,-9.792c-9.009,-0 -16.648,3.329 -23.111,9.792c-6.267,6.268 -9.597,13.906 -9.597,22.915c0,9.01 3.33,16.648 9.597,23.111c6.463,6.268 14.102,9.597 23.111,9.597c9.009,0 16.648,-3.329 22.915,-9.597c6.463,-6.463 9.793,-14.101 9.793,-23.111Zm19.585,0c0,14.298 -5.092,26.637 -15.472,36.821c-10.185,10.184 -22.524,15.277 -36.821,15.277c-14.493,-0 -26.832,-5.093 -37.017,-15.277c-10.184,-10.184 -15.276,-22.523 -15.276,-36.821c-0,-14.297 5.092,-26.636 15.276,-36.82c10.381,-10.185 22.72,-15.473 37.017,-15.473c14.297,0 26.636,5.288 36.821,15.473c10.38,10.184 15.472,22.523 15.472,36.82Z" style="fill:#fff;fill-rule:nonzero;"/></g><g><path d="M700.04,164.312c-0,-8.813 -3.134,-16.451 -9.597,-22.915c-6.464,-6.463 -14.102,-9.792 -22.915,-9.792c-9.01,-0 -16.648,3.329 -23.111,9.792c-6.268,6.268 -9.597,13.906 -9.597,22.915c-0,9.01 3.329,16.648 9.597,23.111c6.463,6.268 14.101,9.597 23.111,9.597c8.813,0 16.451,-3.329 22.915,-9.597c6.463,-6.463 9.597,-14.101 9.597,-23.111Zm19.585,0c-0,14.102 -4.896,26.441 -14.689,36.625c-9.989,10.185 -21.936,15.473 -35.842,15.473c-13.122,-0 -24.481,-4.701 -34.274,-13.71l-0,44.655l-19.586,-0l0,-83.043c0,-14.297 5.093,-26.636 15.277,-36.82c10.38,-10.185 22.719,-15.473 37.017,-15.473c14.297,0 26.44,5.288 36.82,15.473c10.185,10.184 15.277,22.523 15.277,36.82Z" style="fill:#fff;fill-rule:nonzero;"/></g><g><rect x="736" y="81.074" width="19.585" height="133.573" style="fill:#fff;"/></g><g><path d="M844.895,139.243c-6.268,-5.092 -13.318,-7.638 -20.957,-7.638c-9.009,-0 -16.647,3.329 -22.915,9.792c-6.463,6.464 -9.597,14.102 -9.597,23.111c0,2.546 0.588,5.288 1.371,8.422l52.098,-33.687Zm31.532,23.698c0,14.689 -5.092,27.42 -15.081,37.8c-9.988,10.381 -22.327,15.669 -37.016,15.669c-14.493,-0 -27.028,-5.093 -37.212,-15.081c-10.185,-9.989 -15.277,-22.328 -15.277,-36.821c-0,-14.493 5.092,-26.832 15.277,-37.016c10.184,-10.185 22.327,-15.473 36.82,-15.473c10.576,0 20.369,2.938 28.987,8.814c8.813,5.875 15.276,13.709 19.585,23.698l-69.137,44.851c6.268,5.092 13.123,7.638 20.957,7.638c9.205,0 17.039,-3.329 22.915,-9.989c6.267,-6.659 9.205,-14.689 9.401,-24.09l19.781,0Z" style="fill:#fff;fill-rule:nonzero;"/></g></g><g><g><g><rect x="387.439" y="332.439" width="10.301" height="10.198" style="fill:#fff;"/></g><g><rect x="413.191" y="332.439" width="10.301" height="10.198" style="fill:#fff;"/></g><g><rect x="438.943" y="332.439" width="10.301" height="10.198" style="fill:#fff;"/></g><g><path d="M505.072,316.164c0,-4.635 -1.751,-8.652 -5.15,-12.051c-3.296,-3.399 -7.416,-5.15 -12.052,-5.15c-4.738,-0 -8.755,1.751 -12.154,5.15c-3.296,3.296 -5.047,7.313 -5.047,12.051c-0,4.739 1.751,8.756 5.047,12.155c3.399,3.296 7.416,5.047 12.154,5.047c4.739,0 8.756,-1.751 12.052,-5.047c3.399,-3.399 5.15,-7.416 5.15,-12.155Zm0,26.473l0,-6.284c-5.15,4.739 -11.124,7.211 -18.026,7.211c-7.416,-0 -13.699,-2.781 -18.953,-8.138c-5.15,-5.356 -7.725,-11.742 -7.725,-19.262c0,-7.519 2.678,-14.008 8.034,-19.364c5.46,-5.357 11.949,-8.138 19.468,-8.138c7.52,0 14.009,2.781 19.365,8.138c5.46,5.356 8.138,11.845 8.138,19.364l-0,26.473l-10.301,-0Z" style="fill:#fff;fill-rule:nonzero;"/></g><g><path d="M562.507,342.637l0,-30.799c0,-3.399 -1.236,-6.489 -3.811,-8.961c-2.575,-2.575 -5.562,-3.914 -9.064,-3.914c-3.502,-0 -6.49,1.339 -9.065,3.914c-2.472,2.472 -3.811,5.562 -3.811,8.961l0,30.799l-10.3,-0l-0,-30.799c-0,-6.077 2.369,-11.433 7.004,-16.172c4.635,-4.635 10.094,-7.004 16.172,-7.004c6.18,0 11.536,2.369 16.172,7.004c4.738,4.739 7.004,10.095 7.004,16.172l-0,30.799l-10.301,-0Z" style="fill:#fff;fill-rule:nonzero;"/></g><g><path d="M626.485,316.164c-0,-4.635 -1.751,-8.652 -5.15,-12.051c-3.297,-3.399 -7.417,-5.15 -12.052,-5.15c-4.738,-0 -8.755,1.751 -12.155,5.15c-3.296,3.296 -5.047,7.313 -5.047,12.051c0,4.739 1.751,8.756 5.047,12.155c3.4,3.296 7.417,5.047 12.155,5.047c4.738,0 8.755,-1.751 12.052,-5.047c3.399,-3.399 5.15,-7.416 5.15,-12.155Zm10.3,0c0,7.52 -2.678,14.009 -8.137,19.365c-5.356,5.357 -11.846,8.035 -19.365,8.035c-7.622,-0 -14.112,-2.678 -19.468,-8.035c-5.356,-5.356 -8.034,-11.845 -8.034,-19.365c-0,-7.519 2.575,-13.905 7.725,-19.364c5.253,-5.357 11.537,-8.138 18.953,-8.138c6.901,0 12.979,2.472 18.026,7.313l-0,-23.588l10.3,0l0,43.777Z" style="fill:#fff;fill-rule:nonzero;"/></g></g><g><g><path d="M692.524,299.89l-0,42.747l-10.301,-0l0,-42.747l-8.549,-0l-0,-10.301l8.549,0l0,-17.202l10.301,0l-0,17.202l8.549,0l0,10.301l-8.549,-0Z" style="fill:#fff;fill-rule:nonzero;"/></g><g><path d="M746.137,342.637l0,-30.799c0,-3.399 -1.339,-6.489 -3.811,-8.961c-2.575,-2.575 -5.562,-3.914 -9.064,-3.914c-3.502,-0 -6.489,1.339 -9.065,3.914c-2.575,2.472 -3.811,5.562 -3.811,8.961l0,30.799l-10.3,-0l-0,-70.25l10.3,0l0,22.146c4.12,-3.914 9.065,-5.871 14.627,-5.871c6.077,0 11.227,2.472 15.451,7.21c4.017,4.43 5.974,9.786 5.974,15.966l-0,30.799l-10.301,-0Z" style="fill:#fff;fill-rule:nonzero;"/></g><g><path d="M805.993,302.98c-3.296,-2.678 -7.004,-4.017 -11.021,-4.017c-4.738,-0 -8.756,1.751 -12.052,5.15c-3.399,3.399 -5.047,7.416 -5.047,12.154c-0,1.34 0.309,2.782 0.721,4.43l27.399,-17.717Zm16.584,12.463c0,7.726 -2.678,14.421 -7.931,19.88c-5.254,5.46 -11.743,8.241 -19.468,8.241c-7.623,-0 -14.215,-2.678 -19.571,-7.932c-5.356,-5.253 -8.035,-11.742 -8.035,-19.365c0,-7.622 2.679,-14.111 8.035,-19.467c5.356,-5.357 11.742,-8.138 19.365,-8.138c5.562,0 10.712,1.545 15.245,4.635c4.635,3.09 8.034,7.211 10.3,12.464l-36.361,23.588c3.296,2.678 6.902,4.017 11.022,4.017c4.841,0 8.961,-1.751 12.051,-5.253c3.297,-3.502 4.842,-7.725 4.945,-12.67l10.403,0Z" style="fill:#fff;fill-rule:nonzero;"/></g><g><path d="M833.712,282.688l-0,-10.301l10.3,0l0,10.301l-10.3,-0Zm-0,59.949l-0,-53.048l10.3,0l0,53.048l-10.3,-0Z" style="fill:#fff;fill-rule:nonzero;"/></g><g><path d="M881.403,298.963c-3.914,-0 -7.107,1.236 -9.785,3.708c-2.678,2.472 -4.017,5.459 -4.017,9.167l-0,30.799l-10.301,-0l0,-30.799c0,-6.283 2.369,-11.742 7.21,-16.275c4.842,-4.532 10.507,-6.798 16.893,-6.901l0,10.301Z" style="fill:#fff;fill-rule:nonzero;"/></g></g><g><g><path d="M434.273,434.312c0,-5.181 -1.731,-9.671 -5.3,-13.47c-3.569,-3.799 -7.787,-5.757 -12.654,-5.757c-4.976,0 -9.194,1.958 -12.763,5.757c-3.461,3.684 -5.3,8.174 -5.3,13.47c-0,5.295 1.839,9.785 5.3,13.585c3.569,3.684 7.787,5.641 12.763,5.641c4.867,-0 9.085,-1.957 12.654,-5.641c3.569,-3.8 5.3,-8.29 5.3,-13.585Zm10.816,-0c0,8.404 -2.812,15.657 -8.436,21.643c-5.733,5.987 -12.439,8.98 -20.334,8.98c-8.004,0 -14.818,-2.993 -20.443,-8.98c-5.624,-5.986 -8.436,-13.239 -8.436,-21.643l-0,-48.929l10.816,-0l-0,26.364c5.3,-5.411 11.681,-8.174 18.928,-8.174c7.679,-0 14.277,3.108 19.793,9.095c5.408,6.217 8.112,13.354 8.112,21.644Z" style="fill:#fff;fill-rule:nonzero;"/></g><g><path d="M492.639,419.575c-3.461,-2.993 -7.355,-4.49 -11.573,-4.49c-4.976,0 -9.194,1.958 -12.655,5.757c-3.569,3.799 -5.3,8.289 -5.3,13.585c0,1.496 0.325,3.108 0.757,4.95l28.771,-19.802Zm17.414,13.931c-0,8.634 -2.813,16.117 -8.329,22.219c-5.516,6.102 -12.33,9.21 -20.442,9.21c-8.004,0 -14.926,-2.993 -20.55,-8.864c-5.625,-5.872 -8.437,-13.125 -8.437,-21.644c0,-8.52 2.812,-15.773 8.437,-21.759c5.624,-5.987 12.33,-9.095 20.334,-9.095c5.84,-0 11.248,1.727 16.007,5.18c4.868,3.454 8.437,8.059 10.816,13.931l-38.18,26.364c3.461,2.993 7.247,4.49 11.573,4.49c5.084,-0 9.41,-1.957 12.655,-5.872c3.461,-3.914 5.083,-8.634 5.191,-14.16l10.925,-0Z" style="fill:#fff;fill-rule:nonzero;"/></g><g><path d="M559.6,463.899l0,-34.423c0,-3.799 -1.406,-7.253 -4.002,-10.016c-2.704,-2.878 -5.84,-4.375 -9.518,-4.375c-3.677,0 -6.814,1.497 -9.518,4.375c-2.704,2.763 -4.002,6.217 -4.002,10.016l0,34.423l-10.816,0l0,-78.516l10.816,-0l0,24.752c4.327,-4.375 9.518,-6.562 15.359,-6.562c6.381,-0 11.789,2.763 16.224,8.059c4.218,4.95 6.273,10.937 6.273,17.844l0,34.423l-10.816,0Z" style="fill:#fff;fill-rule:nonzero;"/></g><g><path d="M629.049,434.312c-0,-5.181 -1.839,-9.671 -5.408,-13.47c-3.461,-3.799 -7.788,-5.757 -12.655,-5.757c-4.975,0 -9.193,1.958 -12.763,5.757c-3.461,3.684 -5.299,8.174 -5.299,13.47c-0,5.295 1.838,9.785 5.299,13.585c3.57,3.684 7.788,5.641 12.763,5.641c4.976,-0 9.194,-1.957 12.655,-5.641c3.569,-3.8 5.408,-8.29 5.408,-13.585Zm-0,29.587l-0,-7.023c-5.408,5.296 -11.681,8.059 -18.928,8.059c-7.787,0 -14.385,-3.108 -19.901,-9.095c-5.408,-5.986 -8.112,-13.124 -8.112,-21.528c-0,-8.405 2.812,-15.658 8.436,-21.644c5.733,-5.987 12.547,-9.095 20.442,-9.095c7.896,-0 14.71,3.108 20.334,9.095c5.733,5.986 8.545,13.239 8.545,21.644l-0,29.587l-10.816,0Z" style="fill:#fff;fill-rule:nonzero;"/></g><g><path d="M678.975,463.899l-14.277,0l-20.226,-59.29l11.357,-0l16.007,46.511l15.9,-46.511l11.465,-0l-20.226,59.29Z" style="fill:#fff;fill-rule:nonzero;"/></g><g><path d="M706.058,396.895l-0,-11.512l10.816,-0l-0,11.512l-10.816,0Zm-0,67.004l-0,-59.29l10.816,-0l-0,59.29l-10.816,0Z" style="fill:#fff;fill-rule:nonzero;"/></g><g><path d="M775.497,434.312c-0,-5.181 -1.839,-9.671 -5.408,-13.47c-3.461,-3.799 -7.788,-5.757 -12.655,-5.757c-4.975,0 -9.193,1.958 -12.763,5.757c-3.461,3.684 -5.299,8.174 -5.299,13.47c-0,5.295 1.838,9.785 5.299,13.585c3.57,3.684 7.788,5.641 12.763,5.641c4.976,-0 9.194,-1.957 12.655,-5.641c3.569,-3.8 5.408,-8.29 5.408,-13.585Zm10.816,-0c-0,8.404 -2.812,15.657 -8.545,21.643c-5.624,5.987 -12.438,8.98 -20.334,8.98c-8.004,0 -14.818,-2.993 -20.442,-8.98c-5.624,-5.986 -8.436,-13.239 -8.436,-21.643c-0,-8.405 2.812,-15.658 8.436,-21.644c5.733,-5.987 12.547,-9.095 20.442,-9.095c7.896,-0 14.71,3.108 20.334,9.095c5.733,5.986 8.545,13.239 8.545,21.644Z" style="fill:#fff;fill-rule:nonzero;"/></g><g><path d="M844.405,439.147c0,6.792 -2.379,12.779 -7.355,17.96c-4.975,5.18 -10.599,7.828 -16.981,7.828c-6.381,0 -12.114,-2.648 -16.981,-7.828c-4.867,-5.181 -7.355,-11.168 -7.355,-17.96l0,-34.538l10.816,-0l0,34.538c0,3.799 1.406,7.253 4.002,10.016c2.704,2.878 5.841,4.375 9.518,4.375c3.678,-0 6.814,-1.497 9.518,-4.375c2.704,-2.763 4.002,-6.217 4.002,-10.016l0,-34.538l10.816,-0l0,34.538Z" style="fill:#fff;fill-rule:nonzero;"/></g><g><path d="M881.408,415.085c-4.111,0 -7.463,1.382 -10.276,4.145c-2.812,2.763 -4.218,6.102 -4.218,10.246l0,34.423l-10.816,0l0,-34.423c0,-7.023 2.488,-13.124 7.571,-18.19c5.084,-5.065 11.033,-7.598 17.739,-7.713l-0,11.512Z" style="fill:#fff;fill-rule:nonzero;"/></g></g></g></g></svg>