<?xml version="1.0" encoding="UTF-8" standalone="no"?>
<!DOCTYPE svg PUBLIC "-//W3C//DTD SVG 1.1//EN" "http://www.w3.org/Graphics/SVG/1.1/DTD/svg11.dtd">
<svg width="100%" height="100%" viewBox="0 0 276 22" version="1.1" xmlns="http://www.w3.org/2000/svg" xmlns:xlink="http://www.w3.org/1999/xlink" xml:space="preserve" xmlns:serif="http://www.serif.com/" style="fill-rule:evenodd;clip-rule:evenodd;stroke-linejoin:round;stroke-miterlimit:2;">
    <g transform="matrix(2.39421,0,0,2.39421,-923.1,-558.709)">
        <g transform="matrix(11.4017,0,0,11.4017,385.454,241.581)">
            <path d="M0.539,-0.26L0.542,-0.261L0.614,-0.711L0.754,-0.711L0.615,-0L0.487,-0L0.383,-0.44L0.38,-0.44L0.277,-0L0.149,-0L0.009,-0.711L0.15,-0.711L0.223,-0.26L0.226,-0.259L0.328,-0.711L0.436,-0.711L0.539,-0.26Z" style="fill:white;fill-rule:nonzero;"/>
        </g>
        <g transform="matrix(11.4017,0,0,11.4017,394.173,241.581)">
            <path d="M0.41,-0.314L0.192,-0.314L0.192,-0.107L0.453,-0.107L0.453,-0L0.055,-0L0.055,-0.711L0.452,-0.711L0.452,-0.603L0.192,-0.603L0.192,-0.421L0.41,-0.421L0.41,-0.314Z" style="fill:white;fill-rule:nonzero;"/>
        </g>
        <g transform="matrix(11.4017,0,0,11.4017,402.229,241.581)">
            <path d="M0.37,-0.154L0.192,-0.154L0.152,-0L0.009,-0L0.21,-0.711L0.353,-0.711L0.555,-0L0.411,-0L0.37,-0.154ZM0.221,-0.262L0.342,-0.262L0.283,-0.488L0.28,-0.488L0.221,-0.262Z" style="fill:white;fill-rule:nonzero;"/>
        </g>
        <g transform="matrix(11.4017,0,0,11.4017,408.581,241.581)">
            <path d="M0.368,-0.185C0.368,-0.213 0.361,-0.235 0.346,-0.252C0.332,-0.268 0.306,-0.284 0.269,-0.3C0.196,-0.326 0.141,-0.355 0.104,-0.387C0.067,-0.42 0.049,-0.465 0.049,-0.524C0.049,-0.582 0.07,-0.63 0.112,-0.666C0.154,-0.703 0.207,-0.721 0.272,-0.721C0.341,-0.721 0.397,-0.702 0.439,-0.663C0.481,-0.624 0.501,-0.571 0.5,-0.505L0.499,-0.502L0.365,-0.502C0.365,-0.539 0.357,-0.567 0.341,-0.586C0.324,-0.605 0.301,-0.615 0.27,-0.615C0.244,-0.615 0.223,-0.606 0.208,-0.589C0.194,-0.571 0.187,-0.549 0.187,-0.523C0.187,-0.499 0.195,-0.479 0.211,-0.464C0.228,-0.448 0.257,-0.431 0.297,-0.413C0.366,-0.39 0.418,-0.361 0.453,-0.326C0.488,-0.291 0.506,-0.244 0.506,-0.186C0.506,-0.125 0.485,-0.077 0.444,-0.042C0.403,-0.007 0.348,0.01 0.279,0.01C0.212,0.01 0.154,-0.009 0.106,-0.046C0.059,-0.084 0.035,-0.141 0.037,-0.218L0.038,-0.221L0.172,-0.221C0.172,-0.176 0.181,-0.144 0.199,-0.125C0.218,-0.105 0.244,-0.095 0.279,-0.095C0.309,-0.095 0.331,-0.103 0.346,-0.12C0.361,-0.136 0.368,-0.158 0.368,-0.185Z" style="fill:white;fill-rule:nonzero;"/>
        </g>
        <g transform="matrix(11.4017,0,0,11.4017,414.744,241.581)">
            <path d="M0.23,-0.298L0.192,-0.298L0.192,-0L0.055,-0L0.055,-0.711L0.192,-0.711L0.192,-0.42L0.221,-0.42L0.372,-0.711L0.542,-0.711L0.337,-0.386L0.558,-0L0.382,-0L0.23,-0.298Z" style="fill:white;fill-rule:nonzero;"/>
        </g>
        <g transform="matrix(11.4017,0,0,11.4017,423.623,241.581)">
            <path d="M0.482,-0.603L0.315,-0.603L0.315,-0L0.177,-0L0.177,-0.603L0.015,-0.603L0.015,-0.711L0.482,-0.711L0.482,-0.603Z" style="fill:white;fill-rule:nonzero;"/>
        </g>
        <g transform="matrix(11.4017,0,0,11.4017,429.269,241.581)">
            <path d="M0.559,-0L0.421,-0L0.421,-0.296L0.192,-0.296L0.192,-0L0.055,-0L0.055,-0.711L0.192,-0.711L0.192,-0.404L0.421,-0.404L0.421,-0.711L0.559,-0.711L0.559,-0Z" style="fill:white;fill-rule:nonzero;"/>
        </g>
        <g transform="matrix(11.4017,0,0,11.4017,436.267,241.581)">
            <path d="M0.41,-0.314L0.192,-0.314L0.192,-0.107L0.453,-0.107L0.453,-0L0.055,-0L0.055,-0.711L0.452,-0.711L0.452,-0.603L0.192,-0.603L0.192,-0.421L0.41,-0.421L0.41,-0.314Z" style="fill:white;fill-rule:nonzero;"/>
        </g>
        <g transform="matrix(11.4017,0,0,11.4017,444.322,241.581)">
            <path d="M0.559,-0.256C0.559,-0.223 0.555,-0.193 0.548,-0.166C0.54,-0.139 0.53,-0.115 0.516,-0.094L0.602,0.005L0.513,0.077L0.429,-0.018C0.41,-0.008 0.39,-0.001 0.368,0.003C0.346,0.008 0.324,0.01 0.3,0.01C0.221,0.01 0.159,-0.013 0.112,-0.06C0.065,-0.107 0.042,-0.172 0.042,-0.256L0.042,-0.454C0.042,-0.537 0.065,-0.603 0.112,-0.65C0.158,-0.698 0.221,-0.721 0.299,-0.721C0.378,-0.721 0.441,-0.698 0.488,-0.65C0.535,-0.603 0.559,-0.537 0.559,-0.454L0.559,-0.256ZM0.422,-0.456C0.422,-0.507 0.411,-0.546 0.39,-0.573C0.369,-0.599 0.339,-0.612 0.299,-0.612C0.259,-0.612 0.229,-0.599 0.209,-0.573C0.189,-0.547 0.179,-0.508 0.179,-0.456L0.179,-0.256C0.179,-0.203 0.189,-0.164 0.209,-0.137C0.23,-0.111 0.26,-0.098 0.3,-0.098C0.34,-0.098 0.37,-0.111 0.391,-0.137C0.412,-0.164 0.422,-0.203 0.422,-0.256L0.422,-0.456Z" style="fill:white;fill-rule:nonzero;"/>
        </g>
        <g transform="matrix(11.4017,0,0,11.4017,451.343,241.581)">
            <path d="M0.551,-0.711L0.551,-0.247C0.551,-0.166 0.528,-0.103 0.481,-0.058C0.435,-0.012 0.374,0.01 0.3,0.01C0.226,0.01 0.165,-0.012 0.119,-0.058C0.073,-0.103 0.05,-0.166 0.05,-0.247L0.05,-0.711L0.187,-0.711L0.187,-0.247C0.187,-0.198 0.197,-0.161 0.217,-0.135C0.237,-0.11 0.265,-0.097 0.3,-0.097C0.335,-0.097 0.363,-0.11 0.383,-0.135C0.403,-0.161 0.413,-0.198 0.413,-0.247L0.413,-0.711L0.551,-0.711Z" style="fill:white;fill-rule:nonzero;"/>
        </g>
        <g transform="matrix(11.4017,0,0,11.4017,458.185,241.581)">
            <path d="M0.41,-0.314L0.192,-0.314L0.192,-0.107L0.453,-0.107L0.453,-0L0.055,-0L0.055,-0.711L0.452,-0.711L0.452,-0.603L0.192,-0.603L0.192,-0.421L0.41,-0.421L0.41,-0.314Z" style="fill:white;fill-rule:nonzero;"/>
        </g>
        <g transform="matrix(11.4017,0,0,11.4017,463.719,241.581)">
            <path d="M0.368,-0.185C0.368,-0.213 0.361,-0.235 0.346,-0.252C0.332,-0.268 0.306,-0.284 0.269,-0.3C0.196,-0.326 0.141,-0.355 0.104,-0.387C0.067,-0.42 0.049,-0.465 0.049,-0.524C0.049,-0.582 0.07,-0.63 0.112,-0.666C0.154,-0.703 0.207,-0.721 0.272,-0.721C0.341,-0.721 0.397,-0.702 0.439,-0.663C0.481,-0.624 0.501,-0.571 0.5,-0.505L0.499,-0.502L0.365,-0.502C0.365,-0.539 0.357,-0.567 0.341,-0.586C0.324,-0.605 0.301,-0.615 0.27,-0.615C0.244,-0.615 0.223,-0.606 0.208,-0.589C0.194,-0.571 0.187,-0.549 0.187,-0.523C0.187,-0.499 0.195,-0.479 0.211,-0.464C0.228,-0.448 0.257,-0.431 0.297,-0.413C0.366,-0.39 0.418,-0.361 0.453,-0.326C0.488,-0.291 0.506,-0.244 0.506,-0.186C0.506,-0.125 0.485,-0.077 0.444,-0.042C0.403,-0.007 0.348,0.01 0.279,0.01C0.212,0.01 0.154,-0.009 0.106,-0.046C0.059,-0.084 0.035,-0.141 0.037,-0.218L0.038,-0.221L0.172,-0.221C0.172,-0.176 0.181,-0.144 0.199,-0.125C0.218,-0.105 0.244,-0.095 0.279,-0.095C0.309,-0.095 0.331,-0.103 0.346,-0.12C0.361,-0.136 0.368,-0.158 0.368,-0.185Z" style="fill:white;fill-rule:nonzero;"/>
        </g>
        <g transform="matrix(11.4017,0,0,11.4017,469.882,241.581)">
            <path d="M0.482,-0.603L0.315,-0.603L0.315,-0L0.177,-0L0.177,-0.603L0.015,-0.603L0.015,-0.711L0.482,-0.711L0.482,-0.603Z" style="fill:white;fill-rule:nonzero;"/>
        </g>
        <g transform="matrix(11.4017,0,0,11.4017,475.527,241.581)">
            <rect x="0.063" y="-0.711" width="0.137" height="0.711" style="fill:white;fill-rule:nonzero;"/>
        </g>
        <g transform="matrix(11.4017,0,0,11.4017,478.522,241.581)">
            <path d="M0.559,-0.256C0.559,-0.172 0.535,-0.107 0.488,-0.06C0.441,-0.013 0.378,0.01 0.3,0.01C0.221,0.01 0.159,-0.013 0.112,-0.06C0.065,-0.107 0.042,-0.172 0.042,-0.256L0.042,-0.454C0.042,-0.537 0.065,-0.603 0.112,-0.65C0.158,-0.698 0.221,-0.721 0.299,-0.721C0.378,-0.721 0.441,-0.698 0.488,-0.65C0.535,-0.603 0.559,-0.537 0.559,-0.454L0.559,-0.256ZM0.422,-0.456C0.422,-0.507 0.411,-0.546 0.39,-0.573C0.369,-0.599 0.339,-0.612 0.299,-0.612C0.259,-0.612 0.229,-0.599 0.209,-0.573C0.189,-0.547 0.179,-0.508 0.179,-0.456L0.179,-0.256C0.179,-0.203 0.189,-0.164 0.209,-0.137C0.23,-0.111 0.26,-0.098 0.3,-0.098C0.34,-0.098 0.37,-0.111 0.391,-0.137C0.412,-0.164 0.422,-0.203 0.422,-0.256L0.422,-0.456Z" style="fill:white;fill-rule:nonzero;"/>
        </g>
        <g transform="matrix(11.4017,0,0,11.4017,485.37,241.581)">
            <path d="M0.559,-0L0.421,-0L0.195,-0.454L0.192,-0.453L0.192,-0L0.055,-0L0.055,-0.711L0.192,-0.711L0.418,-0.257L0.421,-0.257L0.421,-0.711L0.559,-0.711L0.559,-0Z" style="fill:white;fill-rule:nonzero;"/>
        </g>
        <g transform="matrix(11.4017,0,0,11.4017,492.362,241.581)">
            <path d="M0.368,-0.185C0.368,-0.213 0.361,-0.235 0.346,-0.252C0.332,-0.268 0.306,-0.284 0.269,-0.3C0.196,-0.326 0.141,-0.355 0.104,-0.387C0.067,-0.42 0.049,-0.465 0.049,-0.524C0.049,-0.582 0.07,-0.63 0.112,-0.666C0.154,-0.703 0.207,-0.721 0.272,-0.721C0.341,-0.721 0.397,-0.702 0.439,-0.663C0.481,-0.624 0.501,-0.571 0.5,-0.505L0.499,-0.502L0.365,-0.502C0.365,-0.539 0.357,-0.567 0.341,-0.586C0.324,-0.605 0.301,-0.615 0.27,-0.615C0.244,-0.615 0.223,-0.606 0.208,-0.589C0.194,-0.571 0.187,-0.549 0.187,-0.523C0.187,-0.499 0.195,-0.479 0.211,-0.464C0.228,-0.448 0.257,-0.431 0.297,-0.413C0.366,-0.39 0.418,-0.361 0.453,-0.326C0.488,-0.291 0.506,-0.244 0.506,-0.186C0.506,-0.125 0.485,-0.077 0.444,-0.042C0.403,-0.007 0.348,0.01 0.279,0.01C0.212,0.01 0.154,-0.009 0.106,-0.046C0.059,-0.084 0.035,-0.141 0.037,-0.218L0.038,-0.221L0.172,-0.221C0.172,-0.176 0.181,-0.144 0.199,-0.125C0.218,-0.105 0.244,-0.095 0.279,-0.095C0.309,-0.095 0.331,-0.103 0.346,-0.12C0.361,-0.136 0.368,-0.158 0.368,-0.185Z" style="fill:white;fill-rule:nonzero;"/>
        </g>
        <g transform="matrix(11.4017,0,0,11.4017,498.525,241.581)">
            <path d="M0.197,-0L0.062,-0L0.062,-0.124L0.197,-0.124L0.197,-0ZM0.197,-0.428L0.062,-0.428L0.062,-0.551L0.197,-0.551L0.197,-0.428Z" style="fill:white;fill-rule:nonzero;"/>
        </g>
    </g>
</svg>
