<?xml version="1.0" encoding="UTF-8" standalone="no"?><!DOCTYPE svg PUBLIC "-//W3C//DTD SVG 1.1//EN" "http://www.w3.org/Graphics/SVG/1.1/DTD/svg11.dtd"><svg width="100%" height="100%" viewBox="0 0 32 32" version="1.1" xmlns="http://www.w3.org/2000/svg" xmlns:xlink="http://www.w3.org/1999/xlink" xml:space="preserve" xmlns:serif="http://www.serif.com/" style="fill-rule:evenodd;clip-rule:evenodd;stroke-linecap:round;stroke-linejoin:round;stroke-miterlimit:1.5;"><g><path id="Hand-White-Stroke" serif:id="Hand White Stroke" d="M18.763,31.608c-0.002,-1.792 -0.004,-3.584 -0.002,-5.376c-0,-0.962 0.022,-1.925 0.038,-2.887c0.001,-0.065 0.021,-0.135 0.051,-0.192c0.96,-1.794 1.92,-3.589 2.884,-5.381c0.104,-0.193 0.221,-0.378 0.339,-0.561c0.12,-0.183 0.126,-0.36 0.05,-0.565c-0.534,-1.454 -1.062,-2.91 -1.59,-4.366c-0.086,-0.236 -0.169,-0.474 -0.259,-0.728c-0.222,0.074 -0.438,0.144 -0.651,0.218c-1.242,0.436 -2.482,0.874 -3.724,1.311c-0.125,0.044 -0.269,0.249 -0.234,0.373c0.104,0.363 0.182,0.741 0.343,1.078c0.342,0.714 1.006,0.973 1.773,0.722c0.27,-0.089 0.522,-0.233 0.781,-0.357c0.104,-0.05 0.203,-0.112 0.292,-0.162c0.097,0.207 0.163,0.432 0.294,0.608c0.131,0.177 0.328,0.305 0.472,0.433c-0.363,0.2 -0.769,0.397 -1.147,0.639c-1.076,0.688 -1.859,1.64 -2.44,2.767c-0.444,0.86 -0.746,1.771 -0.966,2.71c-0.012,0.051 -0.024,0.102 -0.041,0.171c-0.059,-0.277 0.23,-1.805 0.551,-2.643c0.324,-0.846 0.757,-1.626 1.403,-2.319c-1.307,0.204 -2.537,0.499 -3.552,1.357c-0.132,0.112 -0.252,0.242 -0.367,0.373c-0.384,0.44 -0.773,0.452 -1.201,0.048c-0.317,-0.3 -0.647,-0.584 -0.975,-0.88c-0.436,0.338 -0.848,0.661 -1.266,0.979c-0.743,0.565 -1.49,1.126 -2.236,1.686c-0.041,0.03 -0.092,0.044 -0.139,0.066c-0.049,-0.07 -0.098,-0.139 -0.147,-0.208c0.046,-0.056 0.084,-0.122 0.139,-0.165c0.886,-0.684 1.774,-1.363 2.66,-2.045c0.227,-0.175 0.452,-0.351 0.696,-0.54c-0.135,-0.103 -0.26,-0.192 -0.378,-0.289c-0.267,-0.219 -0.553,-0.419 -0.789,-0.668c-0.437,-0.458 -0.471,-1.056 -0.103,-1.572c0.263,-0.367 0.56,-0.711 0.843,-1.063c0.288,-0.356 0.554,-0.726 0.729,-1.154c0.082,-0.197 0.224,-0.331 0.403,-0.445c0.504,-0.32 1.002,-0.651 1.5,-0.982c0.049,-0.032 0.093,-0.085 0.118,-0.139c0.117,-0.24 0.224,-0.485 0.341,-0.726c0.023,-0.049 0.066,-0.095 0.111,-0.125c1.105,-0.743 2.212,-1.482 3.319,-2.223c0.297,-0.199 0.603,-0.37 0.967,-0.42c0.424,-0.057 0.756,0.087 0.995,0.436c0.428,0.625 0.858,1.25 1.269,1.888c0.181,0.28 0.383,0.524 0.689,0.668c0.193,0.093 0.303,0.24 0.377,0.45c0.594,1.685 1.201,3.364 1.799,5.048c0.024,0.067 0.021,0.165 -0.01,0.228c-0.672,1.402 -1.349,2.801 -2.026,4.199c-0.372,0.77 -0.745,1.539 -1.126,2.304c-0.129,0.26 -0.175,0.533 -0.176,0.817c-0.011,2.047 -0.026,4.095 -0.032,6.143c-0.002,0.448 -0.002,0.897 -0.001,1.346c-0.214,0.043 -0.43,0.081 -0.648,0.115Zm-6.785,-0.424c0.002,-1.344 0.005,-2.688 0.009,-4.032c0.003,-1.231 0.008,-2.462 0.016,-3.692c0.001,-0.107 -0.025,-0.16 -0.128,-0.204c-0.337,-0.145 -0.585,-0.399 -0.784,-0.699c-0.403,-0.611 -0.603,-1.3 -0.77,-2.001c-0.03,-0.122 0.021,-0.224 0.119,-0.293c0.126,-0.086 0.263,-0.16 0.387,-0.236c0.122,0.446 0.223,0.881 0.362,1.304c0.211,0.642 0.525,1.232 1.104,1.619c0.199,0.133 0.244,0.273 0.243,0.494c-0.009,2.628 -0.01,5.257 -0.013,7.886c-0.183,-0.045 -0.364,-0.094 -0.545,-0.146Zm-4.881,-10.662c0.048,0.069 0.098,0.138 0.147,0.207c0.233,0.335 0.465,0.67 0.698,1.005c0.055,0.078 0.112,0.156 0.18,0.252c-0.103,0.08 -0.203,0.159 -0.31,0.244c-0.265,-0.349 -0.518,-0.68 -0.768,-1.013c-0.345,-0.459 -0.683,-0.921 -1.034,-1.374c-0.097,-0.125 -0.079,-0.2 0.038,-0.281c0.044,-0.031 0.084,-0.066 0.148,-0.119c0.262,0.319 0.523,0.636 0.784,0.953c0.037,0.043 0.078,0.084 0.117,0.126Zm3.685,-6.43c-0.361,0.47 -0.717,0.924 -1.061,1.389c-0.079,0.106 -0.129,0.24 -0.167,0.369c-0.086,0.297 -0.032,0.43 0.217,0.615c0.203,0.151 0.412,0.295 0.603,0.46c0.538,0.462 1.064,0.94 1.604,1.399c0.138,0.118 0.302,0.215 0.469,0.288c0.197,0.084 0.308,0.024 0.439,-0.14c0.086,-0.107 0.195,-0.199 0.304,-0.286c0.098,-0.078 0.213,-0.135 0.316,-0.21c0.142,-0.102 0.203,-0.252 0.132,-0.409c-0.072,-0.166 -0.166,-0.329 -0.282,-0.469c-0.43,-0.514 -0.874,-1.017 -1.31,-1.526c-0.418,-0.486 -0.833,-0.976 -1.264,-1.48Zm5.19,2.632c-0.951,-1.623 -1.896,-3.231 -2.846,-4.851c-0.402,0.256 -0.801,0.496 -1.137,0.825c-0.387,0.376 -0.616,0.829 -0.673,1.369c-0.009,0.099 0.015,0.164 0.076,0.236c0.635,0.748 1.276,1.492 1.897,2.252c0.295,0.359 0.717,0.504 1.096,0.723c0.059,0.034 0.142,0.032 0.213,0.035c0.543,0.018 0.963,-0.251 1.374,-0.589Zm1.198,-4.586c-0.059,-0.083 -0.106,-0.151 -0.157,-0.216c-0.459,-0.598 -0.922,-1.191 -1.376,-1.792c-0.075,-0.1 -0.133,-0.137 -0.245,-0.071c-0.527,0.31 -1.057,0.615 -1.584,0.922c-0.021,0.013 -0.038,0.031 -0.057,0.047c-0.272,0.239 -0.352,0.533 -0.212,0.867c0.084,0.195 0.195,0.38 0.306,0.561c0.858,1.406 1.719,2.81 2.58,4.214c0.032,0.053 0.068,0.103 0.106,0.16c0.83,-0.343 1.648,-0.682 2.471,-1.023c-0.078,-0.185 -0.144,-0.339 -0.211,-0.498c-0.075,0.023 -0.135,0.041 -0.196,0.06c-0.554,0.173 -1.118,0.257 -1.696,0.161c-0.503,-0.083 -0.924,-0.297 -1.14,-0.796c-0.12,-0.276 -0.244,-0.551 -0.354,-0.831c-0.115,-0.288 -0.149,-0.586 -0.018,-0.878c0.031,-0.07 0.1,-0.143 0.17,-0.175c0.53,-0.24 1.065,-0.472 1.613,-0.712Zm2.74,-0.903c-0.003,-0.019 -0.001,-0.03 -0.006,-0.038c-0.498,-0.771 -0.995,-1.542 -1.495,-2.311c-0.11,-0.171 -0.279,-0.232 -0.474,-0.236c-0.245,-0.006 -0.465,0.081 -0.683,0.18c-0.194,0.09 -0.385,0.196 -0.588,0.249c-0.366,0.098 -0.521,0.354 -0.605,0.692c-0.049,0.197 -0.002,0.356 0.131,0.508c0.176,0.201 0.34,0.411 0.504,0.623c0.273,0.353 0.544,0.709 0.812,1.066c0.053,0.071 0.102,0.078 0.183,0.048c0.409,-0.153 0.819,-0.302 1.231,-0.446c0.33,-0.116 0.661,-0.224 0.99,-0.335Zm0.659,-0.952c0.377,-0.296 0.747,-0.594 1.124,-0.884c0.642,-0.489 1.287,-0.974 1.932,-1.459c0.077,-0.058 0.112,-0.119 0.107,-0.219c-0.014,-0.306 -0.018,-0.612 -0.033,-0.918c-0.003,-0.095 0.027,-0.132 0.123,-0.154c0.308,-0.072 0.612,-0.157 0.917,-0.237c0.041,-0.012 0.083,-0.015 0.146,-0.027c-0.045,0.229 -0.088,0.439 -0.134,0.676c0.261,-0.041 0.503,-0.08 0.776,-0.124c-0.138,0.508 -0.271,1.002 -0.412,1.523c-0.264,-0.05 -0.534,-0.069 -0.78,-0.159c-0.323,-0.117 -0.568,-0.051 -0.831,0.157c-0.798,0.635 -1.611,1.253 -2.42,1.877c-0.252,0.194 -0.252,0.193 -0.515,-0.052Z" style="fill:#fff;"/><path id="Hand-Black-Fill" serif:id="Hand Black Fill" d="M26.382,5.627c-0.095,0.189 -0.199,0.374 -0.283,0.567c-0.335,0.77 -0.53,1.582 -0.736,2.392c-0.021,0.081 -0.074,0.17 -0.139,0.221c-1.166,0.916 -2.336,1.827 -3.508,2.736c-0.082,0.063 -0.1,0.114 -0.063,0.216c0.568,1.564 1.13,3.132 1.697,4.697c0.036,0.1 0.031,0.18 -0.015,0.276c-0.268,0.549 -0.527,1.103 -0.795,1.654c-0.796,1.642 -1.6,3.282 -2.389,4.927c-0.096,0.201 -0.159,0.433 -0.173,0.653c-0.034,0.476 -0.031,0.953 -0.031,1.428c-0.005,1.523 -0.009,3.045 -0.005,4.567c0.001,0.472 0.002,0.944 0.003,1.416c-0.177,0.042 -0.355,0.081 -0.534,0.116c-0.001,-0.449 -0.001,-0.897 0.001,-1.346c0.006,-2.048 0.021,-4.096 0.032,-6.143c0.002,-0.284 0.047,-0.557 0.176,-0.817c0.381,-0.765 0.754,-1.534 1.126,-2.304c0.677,-1.398 1.354,-2.797 2.026,-4.199c0.03,-0.063 0.034,-0.161 0.01,-0.228c-0.598,-1.684 -1.205,-3.363 -1.799,-5.048c-0.074,-0.21 -0.183,-0.358 -0.377,-0.45c-0.306,-0.144 -0.508,-0.387 -0.689,-0.668c-0.41,-0.638 -0.841,-1.263 -1.269,-1.888c-0.238,-0.349 -0.571,-0.493 -0.995,-0.436c-0.364,0.051 -0.67,0.221 -0.967,0.42c-1.107,0.741 -2.214,1.481 -3.319,2.223c-0.045,0.03 -0.088,0.077 -0.111,0.126c-0.117,0.24 -0.224,0.485 -0.341,0.725c-0.026,0.053 -0.069,0.107 -0.117,0.139c-0.499,0.331 -0.997,0.662 -1.501,0.982c-0.18,0.114 -0.322,0.248 -0.403,0.445c-0.176,0.428 -0.441,0.798 -0.728,1.155c-0.284,0.351 -0.58,0.694 -0.843,1.062c-0.37,0.516 -0.335,1.114 0.102,1.572c0.236,0.249 0.522,0.449 0.789,0.668c0.118,0.097 0.243,0.186 0.378,0.288c-0.244,0.19 -0.468,0.367 -0.695,0.541c-0.887,0.682 -1.775,1.361 -2.66,2.045c-0.056,0.043 -0.094,0.109 -0.14,0.165c-0.039,-0.042 -0.08,-0.083 -0.117,-0.127c-0.261,-0.316 -0.522,-0.633 -0.784,-0.952c-0.065,0.052 -0.104,0.088 -0.148,0.118c-0.117,0.081 -0.135,0.157 -0.038,0.283c0.351,0.451 0.689,0.915 1.034,1.373c0.25,0.333 0.503,0.664 0.768,1.013c0.107,-0.085 0.207,-0.164 0.31,-0.244c-0.068,-0.096 -0.124,-0.174 -0.18,-0.252c-0.058,-0.084 -0.116,-0.168 -0.174,-0.251l-0.35,-0.503c-0.058,-0.083 -0.116,-0.167 -0.174,-0.251c0.047,-0.021 0.099,-0.035 0.139,-0.065c0.746,-0.56 1.492,-1.121 2.236,-1.686c0.418,-0.317 0.83,-0.641 1.266,-0.979c0.328,0.296 0.658,0.58 0.975,0.88c0.428,0.404 0.816,0.392 1.2,-0.048c0.116,-0.131 0.236,-0.261 0.368,-0.373c1.015,-0.858 2.244,-1.153 3.552,-1.357c-0.646,0.693 -1.078,1.473 -1.403,2.319c-0.321,0.838 -0.609,2.366 -0.551,2.643c0.016,-0.069 0.029,-0.12 0.041,-0.171c0.22,-0.938 0.522,-1.85 0.965,-2.71c0.582,-1.127 1.366,-2.079 2.441,-2.767c0.378,-0.242 0.785,-0.439 1.147,-0.639c-0.144,-0.128 -0.341,-0.257 -0.472,-0.433c-0.131,-0.176 -0.197,-0.401 -0.293,-0.607c-0.09,0.049 -0.189,0.111 -0.293,0.161c-0.259,0.124 -0.511,0.268 -0.781,0.357c-0.767,0.252 -1.431,-0.008 -1.773,-0.722c-0.162,-0.337 -0.24,-0.715 -0.343,-1.078c-0.035,-0.124 0.109,-0.329 0.235,-0.373c1.241,-0.437 2.481,-0.875 3.722,-1.31c0.215,-0.075 0.43,-0.145 0.651,-0.219c0.091,0.254 0.174,0.492 0.26,0.728c0.529,1.456 1.055,2.912 1.59,4.366c0.076,0.205 0.07,0.382 -0.05,0.565c-0.119,0.183 -0.236,0.368 -0.339,0.56c-0.964,1.793 -1.924,3.587 -2.884,5.382c-0.03,0.057 -0.05,0.127 -0.051,0.192c-0.015,0.962 -0.038,1.925 -0.038,2.887c-0.001,1.792 -0,3.584 0.002,5.376c-0.792,0.124 -1.605,0.188 -2.433,0.188c-1.313,-0 -2.588,-0.161 -3.807,-0.466c0.003,-2.629 0.004,-5.259 0.013,-7.886c0.001,-0.222 -0.043,-0.361 -0.243,-0.495c-0.579,-0.386 -0.893,-0.976 -1.105,-1.618c-0.138,-0.423 -0.238,-0.858 -0.361,-1.304c-0.124,0.075 -0.261,0.15 -0.387,0.236c-0.098,0.069 -0.149,0.171 -0.12,0.293c0.168,0.701 0.369,1.39 0.772,2.001c0.198,0.301 0.446,0.553 0.783,0.698c0.103,0.045 0.129,0.099 0.128,0.205c-0.008,1.23 -0.013,2.461 -0.016,3.692c-0.004,1.345 -0.007,2.688 -0.009,4.032c-0.171,-0.049 -0.342,-0.102 -0.51,-0.157c0.001,-0.886 0.002,-1.773 0.003,-2.66c0.002,-1.206 0.002,-2.412 0.006,-3.618c0.002,-0.302 0.019,-0.603 0.028,-0.903c0.004,-0.128 -0.06,-0.213 -0.163,-0.289c-0.152,-0.113 -0.304,-0.229 -0.431,-0.366c-0.401,-0.435 -0.625,-0.968 -0.804,-1.52c-0.093,-0.284 -0.17,-0.573 -0.268,-0.904c-0.58,0.452 -1.146,0.877 -1.692,1.327c-0.198,0.163 -0.393,0.277 -0.649,0.284c-0.374,0.01 -0.737,-0.044 -1.087,-0.175c-0.381,-0.142 -0.628,-0.411 -0.742,-0.802c-0.018,-0.06 -0.04,-0.118 -0.06,-0.176l-0,-0.672c0.038,-0.197 0.084,-0.394 0.114,-0.594c0.035,-0.217 0.129,-0.39 0.315,-0.518c0.151,-0.104 0.29,-0.227 0.439,-0.337c0.773,-0.573 1.548,-1.143 2.322,-1.716c0.092,-0.068 0.176,-0.147 0.269,-0.225c-0.097,-0.121 -0.197,-0.219 -0.263,-0.335c-0.318,-0.558 -0.351,-1.129 -0.014,-1.688c0.18,-0.298 0.391,-0.58 0.602,-0.858c0.446,-0.589 0.917,-1.159 1.243,-1.83c0.024,-0.047 0.078,-0.084 0.125,-0.116c0.542,-0.369 1.086,-0.736 1.627,-1.107c0.052,-0.037 0.1,-0.092 0.128,-0.149c0.115,-0.241 0.219,-0.487 0.333,-0.728c0.018,-0.04 0.058,-0.076 0.096,-0.102c0.977,-0.644 1.954,-1.291 2.936,-1.929c0.378,-0.247 0.752,-0.508 1.154,-0.707c0.718,-0.354 1.394,-0.234 1.901,0.324c0.237,0.26 0.42,0.57 0.627,0.858c0.083,0.117 0.162,0.236 0.25,0.363c0.119,-0.091 0.223,-0.169 0.327,-0.249c0.976,-0.739 1.954,-1.477 2.928,-2.218c0.205,-0.157 0.43,-0.258 0.678,-0.322c0.555,-0.142 1.109,-0.288 1.659,-0.448c0.295,-0.086 0.58,-0.207 0.87,-0.313l0.116,-0l-0.009,0.018Zm-15.6,8.465c0.431,0.504 0.846,0.994 1.264,1.48c0.436,0.509 0.88,1.012 1.31,1.527c0.116,0.139 0.21,0.302 0.282,0.469c0.071,0.157 0.01,0.306 -0.132,0.408c-0.103,0.075 -0.218,0.131 -0.316,0.209c-0.109,0.088 -0.218,0.18 -0.304,0.288c-0.131,0.163 -0.242,0.223 -0.439,0.139c-0.167,-0.073 -0.331,-0.169 -0.469,-0.288c-0.54,-0.46 -1.066,-0.937 -1.604,-1.399c-0.191,-0.165 -0.4,-0.309 -0.603,-0.46c-0.249,-0.185 -0.303,-0.319 -0.217,-0.615c0.038,-0.129 0.088,-0.263 0.167,-0.369c0.344,-0.464 0.7,-0.919 1.061,-1.389Zm5.19,2.632c-0.411,0.338 -0.831,0.607 -1.374,0.589c-0.072,-0.002 -0.155,-0.001 -0.213,-0.034c-0.379,-0.22 -0.801,-0.365 -1.096,-0.724c-0.621,-0.76 -1.262,-1.504 -1.897,-2.252c-0.061,-0.072 -0.085,-0.137 -0.076,-0.236c0.057,-0.54 0.286,-0.993 0.673,-1.37c0.336,-0.328 0.735,-0.568 1.137,-0.824c0.95,1.62 1.895,3.228 2.846,4.851Zm1.199,-4.586c-0.549,0.24 -1.083,0.472 -1.614,0.712c-0.07,0.032 -0.139,0.105 -0.17,0.175c-0.13,0.292 -0.096,0.59 0.018,0.878c0.11,0.28 0.234,0.555 0.353,0.831c0.217,0.499 0.638,0.713 1.141,0.796c0.578,0.096 1.142,0.012 1.696,-0.161c0.06,-0.019 0.12,-0.037 0.196,-0.06c0.067,0.159 0.133,0.313 0.211,0.498c-0.824,0.341 -1.641,0.68 -2.471,1.023c-0.037,-0.057 -0.074,-0.107 -0.107,-0.16c-0.86,-1.404 -1.721,-2.808 -2.579,-4.214c-0.111,-0.182 -0.222,-0.366 -0.306,-0.561c-0.14,-0.334 -0.059,-0.628 0.212,-0.867c0.019,-0.016 0.036,-0.034 0.057,-0.047c0.528,-0.307 1.057,-0.612 1.584,-0.922c0.112,-0.066 0.17,-0.029 0.245,0.071c0.454,0.601 0.917,1.195 1.376,1.792c0.051,0.065 0.097,0.132 0.158,0.216Zm2.739,-0.903c-0.329,0.111 -0.66,0.219 -0.99,0.335c-0.412,0.144 -0.822,0.293 -1.231,0.446c-0.081,0.03 -0.13,0.023 -0.183,-0.048c-0.268,-0.357 -0.539,-0.713 -0.812,-1.066c-0.164,-0.212 -0.328,-0.422 -0.504,-0.623c-0.133,-0.152 -0.18,-0.311 -0.131,-0.508c0.084,-0.338 0.239,-0.594 0.605,-0.692c0.203,-0.053 0.394,-0.159 0.588,-0.249c0.218,-0.099 0.438,-0.186 0.683,-0.18c0.195,0.004 0.364,0.065 0.474,0.236c0.5,0.769 0.997,1.54 1.495,2.311c0.005,0.008 0.003,0.019 0.006,0.038Zm0.659,-0.952c0.263,0.245 0.263,0.246 0.515,0.052c0.809,-0.624 1.622,-1.242 2.42,-1.877c0.263,-0.208 0.508,-0.274 0.831,-0.157c0.246,0.09 0.516,0.109 0.78,0.159c0.141,-0.521 0.274,-1.015 0.412,-1.523c-0.273,0.044 -0.515,0.083 -0.776,0.124c0.046,-0.237 0.089,-0.447 0.134,-0.676c-0.063,0.012 -0.105,0.015 -0.146,0.027c-0.305,0.08 -0.609,0.165 -0.917,0.237c-0.096,0.022 -0.126,0.059 -0.123,0.154c0.015,0.306 0.019,0.612 0.033,0.918c0.005,0.1 -0.03,0.161 -0.107,0.219c-0.645,0.485 -1.29,0.97 -1.932,1.459c-0.377,0.29 -0.747,0.588 -1.124,0.884Z" style="fill:#231f20;"/></g><circle cx="16" cy="16" r="16" style="fill:none;stroke:#231f20;stroke-width:0.69px;"/></svg>