<?xml version="1.0" encoding="UTF-8" standalone="no"?><!DOCTYPE svg PUBLIC "-//W3C//DTD SVG 1.1//EN" "http://www.w3.org/Graphics/SVG/1.1/DTD/svg11.dtd"><svg width="100%" height="100%" viewBox="0 0 895 1514" version="1.1" xmlns="http://www.w3.org/2000/svg" xmlns:xlink="http://www.w3.org/1999/xlink" xml:space="preserve" xmlns:serif="http://www.serif.com/" style="fill-rule:evenodd;clip-rule:evenodd;stroke-linejoin:round;stroke-miterlimit:2;"><g id="Artboard1"><rect x="0" y="0" width="894.924" height="1513.77" style="fill:none;"/><g><g><g><g><path d="M1080.53,758.206c-2.046,-324.29 -267.552,-586.451 -591.859,-584.405c-324.277,2.046 -586.431,267.536 -584.385,591.826c2.046,324.274 267.529,586.425 591.805,584.379c324.307,-2.046 586.485,-267.526 584.439,-591.8m-1177.52,7.429c-0.502,-79.568 14.594,-156.851 44.868,-229.711c29.243,-70.369 71.342,-133.67 125.127,-188.141c53.785,-54.468 116.546,-97.363 186.541,-127.491c72.465,-31.194 149.552,-47.264 229.116,-47.766c79.571,-0.502 156.865,14.594 229.724,44.871c70.376,29.243 133.68,71.342 188.151,125.127c54.475,53.789 97.373,116.553 127.501,186.548c31.195,72.468 47.264,149.559 47.766,229.126c0.502,79.561 -14.594,156.838 -44.871,229.694c-29.243,70.367 -71.345,133.664 -125.137,188.132c-53.789,54.471 -116.556,97.366 -186.558,127.491c-72.472,31.194 -149.569,47.264 -229.14,47.766c-79.564,0.502 -156.847,-14.594 -229.7,-44.871c-70.37,-29.24 -133.667,-71.339 -188.135,-125.128c-54.468,-53.785 -97.362,-116.545 -127.491,-186.537c-31.19,-72.469 -47.26,-149.549 -47.762,-229.11" style="fill:#a755a0;fill-rule:nonzero;"/></g><g><g><path d="M83.873,1211.87c0.495,-0.733 0.722,-1.517 0.685,-2.305c-0.036,-0.787 -0.399,-1.454 -1.066,-2.026c-0.667,-0.571 -1.455,-0.846 -2.312,-0.78c-0.931,0.047 -1.645,0.414 -2.217,1.081c-0.879,1.026 -0.942,2.396 -0.19,4.063l2.129,4.628c0.509,1.949 0.029,3.807 -1.466,5.551c-1.165,1.36 -2.664,2.122 -4.5,2.239c-1.835,0.117 -3.433,-0.407 -4.818,-1.594c-1.231,-1.055 -1.957,-2.389 -2.169,-3.906c-0.242,-1.586 0.073,-3.096 0.875,-4.499l3.108,1.462c-0.469,0.754 -0.697,1.539 -0.664,2.279c0.041,0.835 0.385,1.575 1.026,2.125c0.667,0.572 1.477,0.821 2.36,0.777c0.905,-0.07 1.645,-0.414 2.217,-1.081c0.879,-1.026 0.92,-2.371 0.168,-4.038c-0.743,-1.572 -1.297,-2.847 -1.711,-3.869c-0.414,-1.023 -0.711,-1.767 -0.821,-2.261c-0.267,-0.986 0.371,-2.353 1.865,-4.097c1.188,-1.385 2.712,-2.125 4.5,-2.239c1.861,-0.095 3.459,0.429 4.818,1.594c1.257,1.078 1.957,2.389 2.148,3.932c0.216,1.564 -0.077,3.048 -0.902,4.478l-3.063,-1.514Z" style="fill:#fff;fill-rule:nonzero;"/></g><g><path d="M100.945,1232.82c1.459,-1.818 2.075,-3.879 1.821,-6.207c-0.281,-2.348 -1.301,-4.207 -3.119,-5.666c-1.791,-1.438 -3.853,-2.054 -6.18,-1.8c-2.327,0.255 -4.234,1.28 -5.693,3.097c-1.438,1.792 -2.028,3.875 -1.773,6.202c0.254,2.327 1.279,4.233 3.071,5.672c1.817,1.459 3.874,2.027 6.227,1.794c2.327,-0.254 4.207,-1.301 5.646,-3.092Zm2.634,2.115c-2.009,2.502 -4.639,3.943 -7.916,4.301c-3.256,0.332 -6.157,-0.48 -8.685,-2.511c-2.503,-2.009 -3.949,-4.686 -4.302,-7.916c-0.358,-3.277 0.454,-6.177 2.464,-8.68c2.03,-2.528 4.687,-3.948 7.964,-4.306c3.277,-0.358 6.156,0.48 8.658,2.49c2.529,2.03 3.97,4.66 4.328,7.937c0.358,3.277 -0.481,6.156 -2.511,8.685Z" style="fill:#fff;fill-rule:nonzero;"/></g><g><path d="M122.907,1243.94c0.096,-1.487 -0.139,-2.925 -0.725,-4.288c-0.587,-1.362 -1.449,-2.467 -2.641,-3.355c-1.843,-1.371 -3.926,-1.91 -6.243,-1.571c-2.316,0.34 -4.183,1.435 -5.575,3.305c-1.371,1.843 -1.883,3.946 -1.544,6.262c0.34,2.317 1.435,4.184 3.278,5.555c1.165,0.868 2.519,1.369 4.039,1.532c1.427,0.177 2.852,0.017 4.248,-0.502l1.168,3.185c-1.923,0.716 -3.895,0.933 -5.964,0.657c-2.014,-0.236 -3.834,-0.958 -5.488,-2.189c-2.574,-1.915 -4.118,-4.538 -4.589,-7.752c-0.479,-3.262 0.226,-6.19 2.142,-8.765c1.936,-2.601 4.538,-4.118 7.8,-4.596c3.262,-0.479 6.17,0.253 8.744,2.169c1.626,1.21 2.869,2.766 3.727,4.668c0.784,1.889 1.143,3.84 1.016,5.935l-3.393,-0.25Z" style="fill:#fff;fill-rule:nonzero;"/></g><g><path d="M134.474,1243.28l-2.757,-1.952l-13.317,18.801l2.757,1.952l13.317,-18.801Z" style="fill:#fff;"/></g><g><path d="M141.944,1253.31l-9.892,7.131l6.908,4.681l2.984,-11.812Zm-4.936,19.63l1.063,-4.34l-8.921,-6.045l-3.636,2.596l-2.937,-1.99l19.86,-14.373l3.524,2.388l-5.961,23.792l-2.992,-2.028Z" style="fill:#fff;fill-rule:nonzero;"/></g><g><path d="M141.548,1275.93l12.404,-19.415l2.847,1.819l-10.604,16.597l9.48,6.056l-1.801,2.819l-12.326,-7.876Z" style="fill:#fff;fill-rule:nonzero;"/></g><g><path d="M180.713,1299.61l7.304,-12.712l-12.869,9.514l-3.017,-1.733l1.739,-15.91l-7.305,12.712l-2.929,-1.683l11.479,-19.976l2.958,1.7l-2.198,20.166l16.317,-12.054l2.929,1.683l-11.479,19.976l-2.929,-1.683Z" style="fill:#fff;fill-rule:nonzero;"/></g><g><path d="M188.022,1303.61l10.766,-20.369l12.933,6.835l-1.579,2.987l-9.946,-5.257l-2.888,5.466l7.466,3.946l-1.578,2.987l-7.467,-3.947l-3.157,5.974l9.945,5.256l-1.562,2.957l-12.933,-6.835Z" style="fill:#fff;fill-rule:nonzero;"/></g><g><path d="M225.563,1309.82c0.993,-2.034 1.094,-4.09 0.378,-6.243c-0.761,-2.139 -2.105,-3.697 -4.139,-4.69l-4.797,-2.341l-7.156,14.664l4.796,2.341c2.034,0.993 4.09,1.094 6.244,0.378c2.138,-0.761 3.696,-2.105 4.674,-4.109Zm3.036,1.482c-1.378,2.823 -3.61,4.778 -6.637,5.82c-3.012,1.011 -5.93,0.827 -8.784,-0.566l-7.832,-3.822l10.105,-20.705l7.833,3.822c2.853,1.393 4.778,3.611 5.82,6.638c1.041,3.026 0.888,5.959 -0.505,8.813Z" style="fill:#fff;fill-rule:nonzero;"/></g><g><path d="M239.328,1303.42l-3.07,-1.41l-9.613,20.938l3.07,1.41l9.613,-20.938Z" style="fill:#fff;"/></g><g><path d="M248.445,1311.89l-8.405,8.835l7.653,3.324l0.752,-12.159Zm-1.226,20.204l0.244,-4.462l-9.885,-4.293l-3.094,3.223l-3.253,-1.413l16.863,-17.794l3.905,1.696l-1.464,24.483l-3.316,-1.44Z" style="fill:#fff;fill-rule:nonzero;"/></g><g><path d="M279.476,1344.74l5.167,-13.721l-11.174,11.459l-3.256,-1.227l-0.839,-15.982l-5.168,13.72l-3.161,-1.19l8.12,-21.561l3.193,1.202l1.071,20.257l14.167,-14.518l3.162,1.19l-8.12,21.561l-3.162,-1.19Z" style="fill:#fff;fill-rule:nonzero;"/></g><g><path d="M300.634,1331.94l-7.621,9.519l7.909,2.66l-0.288,-12.179Zm0.502,20.234l-0.138,-4.466l-10.214,-3.434l-2.808,3.475l-3.363,-1.131l15.285,-19.167l4.034,1.357l0.63,24.518l-3.426,-1.152Z" style="fill:#fff;fill-rule:nonzero;"/></g><g><path d="M326.037,1342.66c0.254,-0.841 0.187,-1.672 -0.274,-2.482c-0.397,-0.79 -1.053,-1.305 -1.862,-1.549l-8.506,-2.566l-1.873,6.21l8.506,2.566c0.841,0.253 1.65,0.144 2.45,-0.285c0.8,-0.429 1.306,-1.053 1.559,-1.894Zm-5.064,15.622l-2.572,-11.009l-5.855,-1.766l-2.828,9.38l-3.235,-0.976l6.653,-22.058l11.741,3.541c1.714,0.517 2.974,1.603 3.865,3.213c0.881,1.641 1.047,3.315 0.53,5.029c-0.469,1.552 -1.364,2.764 -2.75,3.617c-1.363,0.894 -2.849,1.257 -4.437,1.025l2.64,11.135l-3.752,-1.131Z" style="fill:#fff;fill-rule:nonzero;"/></g><g><path d="M340.422,1363.64l-6.484,-11.179l-0.662,0.382l-2.22,8.288l-3.263,-0.874l5.96,-22.254l3.263,0.873l-2.508,9.366l11.874,-6.857l4.633,1.241l-14.149,8.171l8.189,14.083l-4.633,-1.24Z" style="fill:#fff;fill-rule:nonzero;"/></g><g><path d="M347.347,1365.4l5.306,-22.419l14.235,3.369l-0.778,3.287l-10.947,-2.591l-1.424,6.016l8.218,1.945l-0.778,3.287l-8.218,-1.945l-1.557,6.575l10.947,2.591l-0.77,3.254l-14.234,-3.369Z" style="fill:#fff;fill-rule:nonzero;"/></g><g><path d="M378.455,1352.25l-4,19.249l-3.308,-0.687l4,-19.25l-6.879,-1.429l0.687,-3.308l17.067,3.547l-0.687,3.307l-6.88,-1.429Z" style="fill:#fff;fill-rule:nonzero;"/></g><g><path d="M391.308,1351.34l-3.32,-0.626l-4.263,22.642l3.32,0.625l4.263,-22.641Z" style="fill:#fff;"/></g><g><path d="M405.774,1377.2l-7.986,-18.168l-2.713,16.398l-3.333,-0.551l3.761,-22.731l3.199,0.53l7.981,18.201l2.718,-16.431l3.333,0.551l-3.761,22.73l-3.199,-0.529Z" style="fill:#fff;fill-rule:nonzero;"/></g><g><path d="M433.096,1365.16c-0.624,-1.353 -1.52,-2.472 -2.651,-3.387c-1.193,-0.957 -2.511,-1.523 -3.948,-1.73c-2.274,-0.328 -4.363,0.189 -6.238,1.591c-1.874,1.402 -2.995,3.254 -3.328,5.561c-0.328,2.274 0.223,4.367 1.625,6.242c1.401,1.875 3.253,2.995 5.527,3.324c2.641,0.381 4.969,-0.375 6.978,-2.236l0.507,-3.51l-6.787,-0.98l0.483,-3.344l10.131,1.463l-1.883,13.04l-3.344,-0.483l0.3,-2.073c-1.865,1.335 -4.155,1.824 -6.863,1.433c-3.176,-0.459 -5.782,-2.03 -7.728,-4.632c-1.974,-2.64 -2.748,-5.55 -2.29,-8.727c0.464,-3.21 2.03,-5.782 4.67,-7.756c2.64,-1.974 5.546,-2.715 8.722,-2.257c2.006,0.29 3.84,1.067 5.5,2.33c1.59,1.288 2.834,2.833 3.72,4.736l-3.103,1.395Z" style="fill:#fff;fill-rule:nonzero;"/></g></g><g><g><path d="M540.525,1354.63c-1.129,26.39 -23.44,46.867 -49.827,45.738c-26.39,-1.129 -46.87,-23.436 -45.741,-49.826c1.128,-26.387 23.439,-46.864 49.829,-45.735c26.387,1.129 46.867,23.436 45.739,49.823" style="fill:#a755a0;fill-rule:nonzero;"/></g><g><path d="M502.073,1342.45c1.409,-0.117 2.691,-0.183 3.961,-0.361c0.372,-0.051 0.878,-0.342 1.006,-0.655c0.244,-0.601 0.065,-1.207 -0.602,-1.554c-0.67,-0.345 -1.352,-0.673 -1.986,-1.076c-0.909,-0.569 -0.934,-0.856 -0.285,-1.728c0.484,-0.651 0.612,-2.849 0.18,-3.519c-0.085,-0.135 -0.214,-0.254 -0.355,-0.338c-1.096,-0.665 -2.225,-0.585 -3.004,0.194c-0.656,0.657 -0.93,2.51 -0.493,3.287c0.742,1.328 0.659,1.55 -0.743,2.141c-0.671,0.284 -1.389,0.512 -1.955,0.935c-0.301,0.222 -0.434,0.814 -0.429,1.234c-0.002,0.225 0.422,0.579 0.712,0.645c1.353,0.313 2.723,0.553 3.993,0.795m11.969,32.372c1.568,-0.084 2.742,-0.128 3.911,-0.212c0.468,-0.031 0.94,-0.131 1.404,-0.229c1.105,-0.242 1.389,-0.606 1.143,-1.688c-0.085,-0.356 -0.428,-0.73 -0.752,-0.932c-0.779,-0.487 -1.64,-0.842 -2.429,-1.313c-1.258,-0.749 -1.273,-1.105 -0.412,-2.308c0.289,-0.397 0.437,-0.945 0.505,-1.449c0.068,-0.485 -0.048,-0.997 -0.077,-1.495c-0.08,-1.505 -1.304,-2.487 -2.815,-2.266c-2.126,0.315 -3.295,3.153 -2.072,5.029c0.806,1.241 0.688,1.659 -0.663,2.296c-0.301,0.138 -0.628,0.229 -0.933,0.37c-0.633,0.289 -1.27,0.57 -1.885,0.9c-0.623,0.339 -0.678,1.002 -0.53,1.553c0.09,0.333 0.54,0.725 0.896,0.807c1.679,0.388 3.383,0.682 4.709,0.937m-38.367,-9.238c2.889,0.16 5.759,0.021 8.583,-0.661c0.363,-0.089 0.786,-0.235 1.025,-0.494c0.515,-0.565 0.285,-2.812 -0.34,-3.272c-0.716,-0.528 -1.5,-0.964 -2.267,-1.42c-0.983,-0.58 -2.044,-1.055 -2.952,-1.735c-1.285,-0.965 -1.285,-1.597 -0.251,-2.842c0.174,-0.218 0.434,-0.395 0.538,-0.639c0.261,-0.603 0.64,-1.232 0.644,-1.853c0.011,-1.363 -0.152,-2.73 -0.303,-4.087c-0.091,-0.844 -0.535,-1.457 -1.416,-1.673c-0.239,-0.064 -0.48,-0.148 -0.704,-0.255c-2.824,-1.35 -5.919,0.405 -6.203,3.53c-0.044,0.472 0.035,0.982 -0.115,1.416c-0.383,1.105 -0.029,2.007 0.554,2.922c0.34,0.535 0.62,1.118 0.833,1.712c0.078,0.221 -0.018,0.654 -0.191,0.784c-0.684,0.518 -1.401,1.018 -2.166,1.402c-0.971,0.486 -2.005,0.854 -3.013,1.271c-1.286,0.533 -1.987,1.37 -1.921,2.887c0.042,0.922 0.305,1.367 1.163,1.635c2.77,0.878 5.608,1.285 8.502,1.372m15.83,-4.089c-3.94,10.512 -16.252,13.407 -24.356,8.06c-7.868,-5.2 -9.768,-15.827 -4.141,-23.462c5.626,-7.636 17.503,-9.217 25.087,-1.372c2.098,-1.466 4.215,-2.923 6.295,-4.436c0.187,-0.137 0.219,-0.639 0.154,-0.934c-0.927,-4.392 1.695,-8.596 6.021,-9.617c4.634,-1.095 9.051,1.969 9.778,6.79c0.681,4.496 -2.792,8.737 -7.405,9.016c-2.896,0.172 -5.23,-0.929 -7.01,-3.215c-0.082,-0.111 -0.175,-0.215 -0.264,-0.323c-0.016,-0.018 -0.05,-0.026 -0.171,-0.092c-2.012,1.409 -4.065,2.843 -6.159,4.305c0.118,0.216 0.214,0.418 0.334,0.598c2.437,3.705 3.201,7.758 2.454,12.109c-0.067,0.397 -0.088,0.648 0.36,0.855c4.171,1.972 8.33,3.97 12.494,5.955c0.043,0.022 0.1,0.008 0.161,0.01c0.366,-0.72 0.684,-1.465 1.109,-2.149c2.464,-3.958 7.242,-5.655 11.63,-4.144c4.439,1.523 7.082,5.768 6.604,10.594c-0.428,4.351 -4.085,8.02 -8.587,8.613c-5.962,0.783 -11.317,-4.054 -11.136,-10.079c0.01,-0.473 0.012,-0.822 -0.525,-1.073c-4.125,-1.94 -8.233,-3.909 -12.347,-5.872c-0.122,-0.059 -0.255,-0.091 -0.38,-0.137" style="fill:#fff;fill-rule:nonzero;"/></g></g></g><g><g><path d="M992.778,692.765c-2.688,-275.796 -229.263,-497.985 -505.076,-495.297c-275.789,2.687 -497.972,229.249 -495.284,505.046c2.688,275.783 229.243,497.965 505.032,495.277c275.813,-2.688 498.015,-229.243 495.328,-505.026m-1001.63,9.761c-0.66,-67.694 11.957,-133.494 37.503,-195.571c24.674,-59.958 60.305,-113.939 105.909,-160.437c45.603,-46.501 98.876,-83.18 158.338,-109.018c61.564,-26.754 127.102,-40.651 194.796,-41.311c67.701,-0.659 133.505,11.958 195.585,37.507c59.961,24.673 113.942,60.308 160.446,105.908c46.505,45.603 83.185,98.88 109.022,158.345c26.751,61.568 40.651,127.106 41.311,194.804c0.659,67.687 -11.961,133.484 -37.507,195.554c-24.674,59.958 -60.308,113.936 -105.915,160.433c-45.607,46.501 -98.883,83.178 -158.352,109.015c-61.571,26.751 -127.116,40.648 -194.816,41.308c-67.691,0.659 -133.491,-11.958 -195.565,-37.503c-59.954,-24.674 -113.932,-60.305 -160.433,-105.909c-46.501,-45.6 -83.177,-98.876 -109.015,-158.338c-26.75,-61.561 -40.647,-127.099 -41.307,-194.787" style="fill:#df8a27;fill-rule:nonzero;"/></g><g><g><path d="M598.679,1213.4c-0.516,-2.78 -1.924,-4.977 -4.265,-6.585c-2.381,-1.6 -4.897,-2.133 -7.677,-1.617c-2.74,0.508 -4.937,1.916 -6.545,4.257c-1.608,2.341 -2.174,4.905 -1.658,7.685c0.509,2.739 1.957,4.93 4.298,6.537c2.341,1.608 4.905,2.174 7.644,1.665c2.78,-0.516 4.93,-1.957 6.578,-4.305c1.608,-2.34 2.134,-4.897 1.625,-7.637Zm4.029,-0.747c0.711,3.827 -0.046,7.385 -2.31,10.681c-2.271,3.256 -5.313,5.279 -9.181,5.997c-3.828,0.711 -7.433,-0.079 -10.682,-2.31c-3.296,-2.264 -5.319,-5.306 -6.03,-9.133c-0.718,-3.868 0.079,-7.434 2.343,-10.73c2.264,-3.296 5.314,-5.279 9.141,-5.989c3.868,-0.718 7.426,0.038 10.722,2.302c3.296,2.264 5.279,5.314 5.997,9.182Z" style="fill:#fff;fill-rule:nonzero;"/></g><g><path d="M631.409,1208.56c0.763,3.061 0.343,5.953 -1.309,8.645c-1.652,2.692 -3.959,4.449 -7.02,5.212c-3.022,0.753 -5.924,0.294 -8.646,-1.308c-2.682,-1.613 -4.449,-3.959 -5.212,-7.021l-4.082,-16.382l3.976,-0.991l4.082,16.382c0.486,1.949 1.588,3.49 3.326,4.535c1.778,1.035 3.627,1.334 5.575,0.849c1.948,-0.486 3.44,-1.617 4.485,-3.356c1.084,-1.748 1.334,-3.626 0.849,-5.575l-4.082,-16.382l3.976,-0.99l4.082,16.382Z" style="fill:#fff;fill-rule:nonzero;"/></g><g><path d="M644.597,1191.29l6.949,22.815l-3.92,1.194l-6.949,-22.815l-8.153,2.484l-1.194,-3.92l20.227,-6.161l1.194,3.92l-8.154,2.483Z" style="fill:#fff;fill-rule:nonzero;"/></g><g><path d="M679.575,1189.77c-0.938,-2.581 -2.647,-4.401 -5.129,-5.592c-2.507,-1.137 -4.999,-1.278 -7.579,-0.339l-6.085,2.212l6.763,18.601l6.085,-2.213c2.58,-0.938 4.4,-2.646 5.591,-5.128c1.138,-2.507 1.278,-5 0.354,-7.541Zm3.851,-1.401c1.302,3.582 1.113,7.139 -0.529,10.657c-1.642,3.519 -4.261,5.91 -7.881,7.226l-9.936,3.613l-9.55,-26.265l9.936,-3.613c3.62,-1.316 7.177,-1.127 10.696,0.515c3.518,1.643 5.948,4.247 7.264,7.867Z" style="fill:#fff;fill-rule:nonzero;"/></g><g><path d="M709.907,1177.15c-1.12,-2.597 -2.981,-4.427 -5.62,-5.475c-2.676,-1.033 -5.248,-0.994 -7.844,0.126c-2.559,1.103 -4.389,2.964 -5.438,5.603c-1.048,2.639 -1.031,5.265 0.089,7.861c1.103,2.558 3.002,4.373 5.641,5.421c2.639,1.048 5.264,1.032 7.823,-0.072c2.596,-1.12 4.373,-3.002 5.459,-5.657c1.048,-2.639 0.994,-5.249 -0.11,-7.807Zm3.763,-1.623c1.541,3.574 1.593,7.211 0.117,10.928c-1.493,3.678 -4.01,6.326 -7.622,7.884c-3.575,1.542 -7.266,1.572 -10.928,0.117c-3.716,-1.476 -6.364,-3.994 -7.906,-7.568c-1.558,-3.612 -1.572,-7.266 -0.096,-10.982c1.477,-3.716 4.01,-6.326 7.585,-7.868c3.612,-1.558 7.249,-1.61 10.965,-0.133c3.716,1.476 6.327,4.01 7.885,7.622Z" style="fill:#fff;fill-rule:nonzero;"/></g><g><path d="M739.474,1162.6c-1.279,-2.522 -3.249,-4.234 -5.947,-5.117c-2.736,-0.865 -5.3,-0.668 -7.822,0.61c-2.486,1.26 -4.198,3.23 -5.081,5.928c-0.884,2.699 -0.705,5.319 0.573,7.841c1.26,2.485 3.267,4.179 5.965,5.062c2.699,0.884 5.319,0.705 7.804,-0.555c2.522,-1.278 4.179,-3.266 5.099,-5.983c0.884,-2.699 0.668,-5.3 -0.591,-7.786Zm3.655,-1.852c1.76,3.472 2.036,7.099 0.792,10.9c-1.263,3.763 -3.612,6.562 -7.121,8.34c-3.472,1.76 -7.154,2.018 -10.9,0.792c-3.8,-1.244 -6.598,-3.593 -8.358,-7.066c-1.778,-3.509 -2.018,-7.154 -0.774,-10.955c1.244,-3.8 3.612,-6.562 7.084,-8.321c3.509,-1.778 7.137,-2.055 10.937,-0.811c3.8,1.244 6.562,3.612 8.34,7.121Z" style="fill:#fff;fill-rule:nonzero;"/></g><g><path d="M761.508,1143.2c-0.537,-0.92 -1.31,-1.513 -2.411,-1.772c-1.085,-0.316 -2.05,-0.18 -2.934,0.337l-9.308,5.432l3.966,6.795l9.308,-5.432c0.92,-0.537 1.492,-1.346 1.772,-2.411c0.28,-1.064 0.144,-2.029 -0.393,-2.949Zm9.684,17.407l-11.9,-6.814l-6.406,3.738l5.99,10.264l-3.539,2.065l-14.087,-24.136l12.847,-7.498c1.876,-1.095 3.882,-1.317 6.047,-0.778c2.186,0.575 3.808,1.811 4.903,3.686c0.991,1.699 1.328,3.495 0.939,5.43c-0.333,1.95 -1.238,3.57 -2.757,4.788l12.069,6.858l-4.106,2.397Z" style="fill:#fff;fill-rule:nonzero;"/></g></g><g><g><path d="M542.49,1197.41c0.575,26.408 -20.365,48.281 -46.774,48.856c-26.405,0.575 -48.281,-20.365 -48.856,-46.773c-0.575,-26.409 20.369,-48.281 46.774,-48.857c26.408,-0.575 48.28,20.366 48.856,46.774" style="fill:#df8a27;fill-rule:nonzero;"/></g><g><path d="M478.697,1170.6c2.591,2.333 5.183,4.666 7.935,7.137c-1.296,0.31 -2.113,0.211 -2.917,-0.631c-1.518,-1.588 -3.138,-3.083 -4.762,-4.575c-0.983,-0.905 -1.989,-0.568 -2.412,0.814c0.279,0.021 0.538,0.056 0.8,0.057c1.322,-0.006 1.914,0.787 1.406,1.99c-0.099,0.24 -0.537,0.438 -0.832,0.461c-1.133,0.071 -2.275,0.033 -3.408,0.108c-0.885,0.056 -1.201,-0.303 -1.207,-1.169c-0.001,-0.812 0.073,-1.445 1.126,-1.33c0.171,0.02 0.348,-0.021 0.613,-0.044c0.058,-1.33 0.88,-2.15 1.95,-2.781l1.708,-0.037Z" style="fill:#fff;fill-rule:nonzero;"/></g><g><path d="M504.729,1170.04c1.221,1.057 2.466,2.098 3.657,3.183c1.394,1.261 2.741,2.565 4.252,3.988c-1.146,0.21 -1.951,0.261 -2.741,-0.564c-1.548,-1.611 -3.176,-3.15 -4.85,-4.627c-0.376,-0.331 -1.107,-0.442 -1.629,-0.371c-0.341,0.048 -0.607,0.611 -0.912,0.947c0.055,0.086 0.114,0.175 0.173,0.261c0.346,-0.008 0.692,0.025 1.027,-0.029c0.93,-0.141 1.121,0.318 1.176,1.149c0.066,1.036 -0.285,1.412 -1.31,1.358c-0.987,-0.046 -1.99,-0.007 -2.979,0.064c-0.878,0.063 -1.201,-0.279 -1.189,-1.152c0.013,-0.785 -0.016,-1.476 1.078,-1.342c0.172,0.019 0.349,-0.018 0.607,-0.037c0.075,-1.321 0.896,-2.134 1.933,-2.791l1.707,-0.037Z" style="fill:#fff;fill-rule:nonzero;"/></g><g><path d="M491.713,1170.32c1.629,1.452 3.262,2.903 4.887,4.358c0.973,0.871 1.938,1.753 3.103,2.812c-1.261,0.205 -2.066,0.246 -2.856,-0.582c-1.515,-1.592 -3.122,-3.097 -4.771,-4.558c-0.387,-0.341 -1.099,-0.51 -1.614,-0.442c-0.375,0.052 -0.678,0.636 -1.009,0.982c0.059,0.083 0.118,0.169 0.176,0.248c0.349,-0.007 0.699,0.022 1.044,-0.029c0.913,-0.128 1.127,0.297 1.179,1.149c0.06,1.035 -0.291,1.409 -1.313,1.357c-0.991,-0.042 -1.987,-0.007 -2.975,0.065c-0.882,0.063 -1.218,-0.272 -1.193,-1.155c0.019,-0.779 -0.019,-1.477 1.085,-1.343c0.168,0.023 0.345,-0.017 0.603,-0.037c0.068,-1.33 0.896,-2.14 1.946,-2.787l1.708,-0.038Z" style="fill:#fff;fill-rule:nonzero;"/></g><g><path d="M496.598,1215.88l0.246,11.298c1.138,-0.025 2.227,-0.105 3.312,-0.058c2.412,0.101 4.463,2.302 4.361,4.677l-19.662,0.428c-0.241,-1.646 0.608,-3.52 2.381,-4.223c1.531,-0.608 3.264,-0.699 5.012,-1.036l-0.239,-10.99l-5.508,0.12c-6.854,0.149 -13.704,0.299 -20.558,0.444c-0.316,0.007 -0.651,0.018 -0.945,-0.076c-0.841,-0.264 -1.325,-0.884 -1.246,-1.755c0.075,-0.858 0.589,-1.436 1.496,-1.547c0.352,-0.041 0.708,-0.032 1.067,-0.04l55.97,-1.219c0.211,-0.004 0.426,-0.012 0.637,-0.01c1.105,0.009 1.853,0.627 1.914,1.589c0.062,0.959 -0.713,1.775 -1.82,1.809c-2.629,0.08 -5.256,0.124 -7.88,0.181c-5.79,0.13 -11.58,0.256 -17.37,0.382l-1.168,0.026" style="fill:#fff;fill-rule:nonzero;"/></g><g><path d="M467.821,1209.23l52.672,-1.148l-0.608,-27.921l-52.672,1.147l0.608,27.922Zm-2.515,-29.8l56.429,-1.229l0.691,31.719l-56.429,1.229l-0.691,-31.719Z" style="fill:#fff;fill-rule:nonzero;"/></g></g></g><g><g><path d="M903.73,636.947c-4.036,-225.145 -190.501,-405.032 -415.659,-400.995c-225.138,4.036 -405.018,190.492 -400.981,415.637c4.036,225.136 190.484,405.013 415.622,400.976c225.158,-4.037 405.055,-190.482 401.018,-415.618m-817.915,14.665c-1.962,-109.405 38.799,-213.026 114.77,-291.775c75.972,-78.75 178.061,-123.199 287.463,-125.16c109.415,-1.962 213.042,38.799 291.795,114.774c78.752,75.971 123.201,178.068 125.162,287.473c1.962,109.399 -38.799,213.013 -114.777,291.759c-75.978,78.746 -178.081,123.199 -287.493,125.161c-109.398,1.961 -213.019,-38.803 -291.764,-114.775c-78.746,-75.972 -123.195,-178.061 -125.156,-287.457" style="fill:#a02021;fill-rule:nonzero;"/></g><g><g><path d="M295.221,1020.23c0.411,-0.784 0.473,-1.635 0.201,-2.508c-0.272,-0.872 -0.793,-1.491 -1.576,-1.902l-7.412,-3.889l-3.034,5.785l7.411,3.889c0.784,0.41 1.605,0.457 2.477,0.185c0.873,-0.272 1.522,-0.777 1.933,-1.56Zm-4.117,9.02c0.411,-0.783 0.487,-1.588 0.215,-2.461c-0.272,-0.873 -0.793,-1.492 -1.576,-1.903l-7.924,-4.157l-3.019,5.755l7.924,4.157c0.753,0.395 1.588,0.487 2.431,0.199c0.903,-0.256 1.538,-0.807 1.949,-1.59Zm3.012,1.581c-0.853,1.627 -2.137,2.682 -3.928,3.241c-1.776,0.528 -3.432,0.389 -5.029,-0.448l-10.937,-5.738l10.78,-20.548l10.425,5.469c1.597,0.837 2.666,2.167 3.241,3.929c0.528,1.775 0.404,3.477 -0.434,5.074c-0.933,1.778 -2.399,2.814 -4.368,3.126c1.226,1.911 1.294,3.906 0.25,5.895Z" style="fill:#fff;fill-rule:nonzero;"/></g><g><path d="M316.846,1030.61c0.372,-0.803 0.424,-1.641 0.08,-2.514c-0.283,-0.845 -0.864,-1.452 -1.635,-1.81l-8.115,-3.771l-2.753,5.925l8.115,3.77c0.802,0.373 1.625,0.38 2.483,0.066c0.859,-0.314 1.452,-0.864 1.825,-1.666Zm-7.276,14.852l-0.996,-11.342l-5.585,-2.595l-4.157,8.948l-3.086,-1.433l9.778,-21.044l11.2,5.204c1.636,0.76 2.737,2.022 3.396,3.754c0.644,1.762 0.571,3.454 -0.189,5.089c-0.688,1.481 -1.753,2.562 -3.256,3.214c-1.487,0.698 -3.02,0.848 -4.571,0.39l1.045,11.478l-3.579,-1.663Z" style="fill:#fff;fill-rule:nonzero;"/></g><g><path d="M330.869,1033.68l-8.289,9.063l7.772,3.196l0.517,-12.259Zm-0.835,20.369l0.157,-4.497l-10.038,-4.129l-3.052,3.307l-3.304,-1.359l16.63,-18.251l3.964,1.631l-0.99,24.682l-3.367,-1.384Z" style="fill:#fff;fill-rule:nonzero;"/></g><g><path d="M348.972,1061.07l-4.61,-19.448l-5.667,15.751l-3.201,-1.152l7.856,-21.834l3.073,1.106l4.598,19.481l5.679,-15.784l3.201,1.152l-7.856,21.834l-3.073,-1.106Z" style="fill:#fff;fill-rule:nonzero;"/></g><g><path d="M376.657,1057.76c0.666,-2.18 0.441,-4.241 -0.611,-6.27c-1.095,-2.006 -2.678,-3.344 -4.858,-4.009l-5.142,-1.571l-4.8,15.717l5.141,1.57c2.18,0.666 4.241,0.442 6.27,-0.611c2.006,-1.094 3.344,-2.678 4,-4.826Zm3.254,0.994c-0.925,3.027 -2.836,5.324 -5.682,6.839c-2.836,1.481 -5.767,1.76 -8.826,0.826l-8.395,-2.565l6.778,-22.192l8.395,2.565c3.059,0.934 5.324,2.835 6.839,5.681c1.514,2.846 1.825,5.788 0.891,8.846Z" style="fill:#fff;fill-rule:nonzero;"/></g><g><path d="M389.415,1049.14l-3.286,-0.883l-6.022,22.409l3.286,0.883l6.022,-22.409Z" style="fill:#fff;"/></g><g><path d="M402.055,1076.11l-6.809,-18.793l-3.824,16.298l-3.312,-0.778l5.301,-22.59l3.18,0.746l6.801,18.825l3.831,-16.33l3.313,0.777l-5.301,22.591l-3.18,-0.746Z" style="fill:#fff;fill-rule:nonzero;"/></g><g><path d="M430.786,1065.49c-0.579,-1.384 -1.44,-2.543 -2.545,-3.505c-1.166,-1.007 -2.471,-1.624 -3.911,-1.886c-2.276,-0.413 -4.397,0.032 -6.335,1.374c-1.939,1.343 -3.134,3.166 -3.554,5.476c-0.413,2.276 0.065,4.403 1.408,6.341c1.342,1.938 3.165,3.134 5.442,3.547c2.644,0.481 5.015,-0.195 7.105,-1.994l0.638,-3.515l-6.795,-1.234l0.608,-3.348l10.143,1.842l-2.371,13.056l-3.348,-0.608l0.377,-2.076c-1.926,1.276 -4.248,1.684 -6.959,1.192c-3.181,-0.578 -5.746,-2.254 -7.609,-4.944c-1.891,-2.729 -2.564,-5.687 -1.986,-8.867c0.583,-3.214 2.254,-5.746 4.983,-7.637c2.729,-1.89 5.681,-2.53 8.861,-1.952c2.009,0.364 3.826,1.213 5.451,2.546c1.552,1.354 2.749,2.954 3.571,4.901l-3.174,1.291Z" style="fill:#fff;fill-rule:nonzero;"/></g></g><g><g><path d="M540.1,1054.32c0.296,21.349 -16.344,38.899 -37.153,39.187c-20.819,0.289 -37.935,-16.794 -38.231,-38.143c-0.295,-21.356 16.341,-38.899 37.16,-39.187c20.809,-0.288 37.929,16.787 38.224,38.143" style="fill:#fff;fill-rule:nonzero;"/></g><g><path d="M530.269,1050.52c0,0.027 -0.003,0.054 -0.002,0.084c-1.338,0.086 -2.694,0.095 -4.013,0.301c-0.439,0.07 -0.793,0.652 -1.188,1c0.426,0.406 0.835,1.146 1.285,1.17c2.391,0.131 4.795,0.165 7.185,0.028c0.446,-0.027 1.008,-0.934 1.171,-1.527c0.063,-0.232 -0.782,-0.972 -1.283,-1.049c-1.03,-0.157 -2.102,-0.021 -3.155,-0.007m-56.991,3.485l-0.001,-0.101c1.057,-0.015 2.142,0.111 3.156,-0.101c0.583,-0.119 1.057,-0.79 1.578,-1.216c-0.489,-0.356 -0.957,-0.984 -1.464,-1.02c-2.298,-0.163 -4.604,-0.219 -6.905,-0.157c-0.463,0.01 -1.341,0.821 -1.278,1.052c0.169,0.595 0.691,1.437 1.189,1.524c1.208,0.201 2.477,0.036 3.725,0.019m7.069,9.58c-2.517,1.424 -4.952,2.746 -7.304,4.212c-0.263,0.165 -0.244,1.299 0.044,1.694c0.263,0.365 1.247,0.64 1.6,0.431c2.143,-1.261 4.218,-2.643 6.252,-4.077c0.349,-0.243 0.537,-0.957 0.487,-1.423c-0.031,-0.291 -0.645,-0.521 -1.079,-0.837m42.009,-0.955c-0.175,0.469 -0.511,0.937 -0.461,1.363c0.064,0.492 0.344,1.119 0.737,1.382c2.002,1.321 4.04,2.592 6.14,3.751c0.399,0.219 1.369,0.034 1.65,-0.312c0.313,-0.39 0.384,-1.579 0.147,-1.717c-2.47,-1.452 -5.018,-2.762 -8.213,-4.467m-37.752,-39.904c-0.274,1.336 -0.84,2.36 -0.537,2.92c1.126,2.092 2.486,4.063 3.875,6c0.284,0.392 1.077,0.425 1.633,0.625c0.116,-0.579 0.516,-1.299 0.309,-1.715c-1.102,-2.217 -2.336,-4.374 -3.574,-6.515c-0.206,-0.349 -0.679,-0.541 -1.706,-1.315m34.278,1.569c-0.524,-0.48 -0.891,-1.089 -1.328,-1.143c-0.518,-0.063 -1.347,0.186 -1.603,0.579c-0.87,1.361 -1.72,2.786 -2.259,4.3c-0.446,1.245 -0.44,2.651 -0.636,3.982c0.937,-0.905 2.023,-1.709 2.777,-2.75c1.113,-1.529 1.999,-3.226 3.049,-4.968m11.927,11.16c-0.92,-0.276 -1.98,-0.969 -2.507,-0.683c-2.195,1.188 -4.248,2.636 -6.285,4.087c-0.319,0.226 -0.433,0.999 -0.333,1.448c0.057,0.254 0.888,0.622 1.138,0.494c2.479,-1.269 4.917,-2.622 7.344,-3.981c0.2,-0.114 0.249,-0.493 0.643,-1.365m-49.045,5.371c-0.575,-0.807 -0.722,-1.205 -1.006,-1.385c-2.19,-1.386 -4.384,-2.785 -6.657,-4.036c-0.334,-0.183 -1.439,0.268 -1.552,0.622c-0.173,0.55 -0.007,1.631 0.385,1.864c2.071,1.22 4.22,2.314 6.422,3.284c0.527,0.234 1.343,-0.173 2.408,-0.349m20.795,-16.289c-0.024,-1.771 0.106,-3.048 -0.129,-4.256c-0.101,-0.516 -0.912,-1.102 -1.491,-1.231c-0.313,-0.067 -1.177,0.774 -1.181,1.211c-0.029,2.49 0.069,4.989 0.281,7.469c0.04,0.433 0.796,0.959 1.321,1.12c0.216,0.064 0.934,-0.671 1.002,-1.105c0.191,-1.224 0.163,-2.486 0.197,-3.208m-0.678,49.877c2.976,-0.041 5.964,0.066 8.92,-0.204c0.962,-0.083 1.837,-1.139 2.751,-1.749c-0.909,-0.736 -1.811,-2.089 -2.73,-2.107c-6.043,-0.111 -12.095,-0.013 -18.135,0.245c-0.896,0.039 -2.36,1.187 -2.486,1.987c-0.29,1.853 1.339,1.968 2.755,1.952c2.973,-0.031 5.952,-0.082 8.925,-0.124m0.038,1.56l0,-0.01c-2.12,0.03 -4.246,0.19 -6.355,0.051c-2.526,-0.163 -3.593,0.802 -3.249,3.341c0.101,0.757 0.098,1.546 0.035,2.308c-0.205,2.413 1.027,3.671 3.288,3.837c3.158,0.235 6.347,0.543 9.489,0.349c6.041,-0.383 6.68,-1.267 6.359,-7.236c-0.009,-0.195 -0.029,-0.386 -0.021,-0.577c0.055,-1.618 -0.776,-2.221 -2.326,-2.173c-2.405,0.074 -4.814,0.077 -7.22,0.11m-0.136,-6.199c2.5,-0.035 5.018,0.071 7.498,-0.171c0.992,-0.105 2.204,-0.772 2.784,-1.566c1.403,-1.925 2.46,-4.098 3.72,-6.132c4.349,-7.054 2.816,-16.231 -3.642,-21.675c-6.065,-5.108 -15.624,-4.975 -21.534,0.298c-6.312,5.625 -7.59,14.837 -3.044,21.768c1.309,1.999 2.433,4.141 3.889,6.027c0.605,0.777 1.831,1.411 2.822,1.488c2.49,0.173 5.004,-0.003 7.507,-0.037m-0.884,-65.967c27.184,-0.363 49.683,21.514 50.079,48.697c0.392,27.318 -21.575,49.838 -48.917,50.153c-27.158,0.312 -49.597,-21.633 -49.934,-48.844c-0.339,-27.177 21.575,-49.639 48.772,-50.006" style="fill:#a02021;fill-rule:nonzero;"/></g><g><path d="M504.297,1065.21c0.119,-1.321 0.4,-2.657 0.311,-3.968c-0.102,-1.512 -0.056,-3.55 -0.963,-4.339c-0.819,-0.72 -3.284,-0.609 -4.193,0.138c-0.833,0.68 -0.69,2.712 -0.724,4.152c-0.031,1.383 0.27,2.778 0.423,4.162c-0.257,0.054 -0.515,0.108 -0.769,0.158c-0.795,-3.113 -1.67,-6.209 -2.301,-9.351c-0.115,-0.572 0.615,-1.626 1.224,-1.963c0.89,-0.489 2.012,-0.642 3.051,-0.731c6.493,-0.536 7.427,0.525 5.982,6.666c-0.416,1.744 -0.848,3.485 -1.27,5.229c-0.256,-0.05 -0.512,-0.1 -0.771,-0.153" style="fill:#a02021;fill-rule:nonzero;"/></g></g></g><g><g><path d="M796.425,595.238c1.403,-167.165 -133.462,-304.308 -300.64,-305.711c-167.159,-1.403 -304.297,133.456 -305.7,300.622c-1.403,167.159 133.452,304.294 300.61,305.697c167.179,1.403 304.327,-133.449 305.73,-300.608m-607.615,-5.1c0.682,-81.318 32.992,-157.508 90.972,-214.527c57.984,-57.015 134.699,-88.041 216.013,-87.359c81.328,0.683 157.518,32.993 214.54,90.973c57.021,57.984 88.048,134.703 87.365,216.024c-0.682,81.311 -32.992,157.494 -90.979,214.513c-57.987,57.019 -134.712,88.045 -216.036,87.363c-81.315,-0.683 -157.498,-32.993 -214.516,-90.977c-57.015,-57.984 -88.042,-134.699 -87.359,-216.01" style="fill:#30b34a;fill-rule:nonzero;"/></g><g><g><path d="M583.827,901.089c-0.224,-0.811 -0.695,-1.419 -1.482,-1.839c-0.765,-0.46 -1.529,-0.55 -2.308,-0.335l-8.2,2.27l1.657,5.986l8.2,-2.269c0.81,-0.225 1.41,-0.726 1.838,-1.483c0.429,-0.756 0.52,-1.52 0.295,-2.33Zm3.882,15.239l-7.709,-7.601l-5.644,1.562l2.503,9.042l-3.118,0.863l-5.885,-21.264l11.318,-3.133c1.653,-0.457 3.228,-0.222 4.772,0.627c1.552,0.879 2.542,2.149 2.999,3.802c0.414,1.497 0.309,2.935 -0.378,4.334c-0.647,1.421 -1.665,2.475 -3.07,3.099l7.829,7.668l-3.617,1.001Z" style="fill:#fff;fill-rule:nonzero;"/></g><g><path d="M597.378,894.063l-0.189,11.676l7.548,-2.623l-7.359,-9.053Zm12.244,15.026l-2.723,-3.3l-9.748,3.388l-0.088,4.278l-3.209,1.115l0.334,-23.474l3.851,-1.338l14.853,18.195l-3.27,1.136Z" style="fill:#fff;fill-rule:nonzero;"/></g><g><path d="M627.47,889.882c-0.854,-1.992 -2.282,-3.351 -4.292,-4.178c-2.026,-0.786 -3.997,-0.785 -5.989,0.069l-4.698,2.015l6.16,14.361l4.697,-2.015c1.992,-0.855 3.351,-2.283 4.179,-4.292c0.785,-2.026 0.785,-3.998 -0.057,-5.96Zm2.973,-1.275c1.186,2.765 1.195,5.577 0.058,8.423c-1.138,2.847 -3.095,4.848 -5.89,6.047l-7.671,3.29l-8.697,-20.276l7.671,-3.291c2.794,-1.198 5.606,-1.208 8.453,-0.07c2.846,1.137 4.877,3.082 6.076,5.877Z" style="fill:#fff;fill-rule:nonzero;"/></g><g><path d="M632.58,875.169l-2.909,1.416l9.653,19.839l2.909,-1.415l-9.653,-19.84Z" style="fill:#fff;"/></g><g><path d="M658.659,873.792c-1.082,-1.953 -2.686,-3.247 -4.841,-3.865c-2.183,-0.603 -4.2,-0.373 -6.153,0.708c-1.924,1.066 -3.218,2.67 -3.836,4.825c-0.619,2.154 -0.402,4.216 0.68,6.169c1.065,1.924 2.698,3.202 4.852,3.821c2.155,0.618 4.217,0.401 6.141,-0.665c1.953,-1.081 3.202,-2.698 3.849,-4.868c0.619,-2.155 0.374,-4.201 -0.692,-6.125Zm2.83,-1.568c1.489,2.689 1.812,5.542 0.941,8.577c-0.887,3.005 -2.659,5.281 -5.376,6.786c-2.689,1.489 -5.586,1.799 -8.576,0.941c-3.035,-0.871 -5.31,-2.643 -6.799,-5.332c-1.505,-2.717 -1.8,-5.586 -0.929,-8.62c0.872,-3.034 2.659,-5.282 5.348,-6.771c2.717,-1.505 5.57,-1.828 8.604,-0.956c3.035,0.871 5.282,2.658 6.787,5.375Z" style="fill:#fff;fill-rule:nonzero;"/></g><g><path d="M676.073,853.971l2.978,11.291l6.556,-4.568l-9.534,-6.723Zm15.854,11.152l-3.515,-2.44l-8.467,5.899l1.072,4.142l-2.787,1.942l-6.03,-22.689l3.344,-2.33l19.223,13.497l-2.84,1.979Z" style="fill:#fff;fill-rule:nonzero;"/></g><g><path d="M703.931,841.761c-1.364,-1.685 -3.107,-2.604 -5.266,-2.855c-2.164,-0.204 -4.06,0.332 -5.745,1.696l-3.973,3.216l9.832,12.145l3.973,-3.216c1.685,-1.364 2.604,-3.108 2.854,-5.266c0.205,-2.164 -0.331,-4.061 -1.675,-5.72Zm2.514,-2.036c1.894,2.339 2.667,5.042 2.346,8.091c-0.32,3.048 -1.66,5.506 -4.024,7.42l-6.487,5.252l-13.883,-17.148l6.488,-5.252c2.363,-1.914 5.067,-2.687 8.115,-2.366c3.049,0.32 5.532,1.64 7.445,4.003Z" style="fill:#fff;fill-rule:nonzero;"/></g><g><path d="M724.479,838.105l-2.986,2.775l-20.895,-10.704l2.489,-2.312l17.301,8.832l-7.56,-17.882l2.536,-2.356l9.115,21.647Z" style="fill:#fff;fill-rule:nonzero;"/></g><g><path d="M733.21,829.685l-16.012,-15.179l9.637,-10.166l2.347,2.225l-7.411,7.819l4.297,4.073l5.564,-5.87l2.348,2.226l-5.564,5.869l4.695,4.451l7.412,-7.818l2.324,2.203l-9.637,10.167Z" style="fill:#fff;fill-rule:nonzero;"/></g><g><path d="M744.953,792.732c-0.65,-0.534 -1.384,-0.762 -2.27,-0.653c-0.89,0.064 -1.567,0.428 -2.081,1.053l-5.407,6.569l4.796,3.947l5.407,-6.569c0.534,-0.65 0.737,-1.405 0.653,-2.27c-0.084,-0.865 -0.449,-1.542 -1.098,-2.077Zm11.934,10.241l-10.677,-1.79l-3.721,4.521l7.244,5.962l-2.056,2.498l-17.035,-14.02l7.462,-9.068c1.09,-1.324 2.514,-2.037 4.265,-2.23c1.776,-0.172 3.316,0.299 4.64,1.388c1.199,0.987 1.939,2.225 2.181,3.765c0.287,1.535 0.06,2.982 -0.732,4.3l10.814,1.777l-2.385,2.897Z" style="fill:#fff;fill-rule:nonzero;"/></g><g><path d="M751.872,778.317l15.255,11.036l-1.896,2.621l-15.255,-11.036l-3.944,5.452l-2.621,-1.896l9.784,-13.525l2.621,1.896l-3.944,5.452Z" style="fill:#fff;fill-rule:nonzero;"/></g><g><path d="M765.072,763.387c-0.761,-0.371 -1.535,-0.482 -2.277,-0.342c-0.742,0.14 -1.326,0.573 -1.779,1.282c-0.453,0.709 -0.608,1.492 -0.431,2.297c0.169,0.876 0.612,1.504 1.321,1.957c1.091,0.697 2.398,0.573 3.879,-0.362l4.104,-2.637c1.807,-0.727 3.633,-0.52 5.46,0.647c1.444,0.924 2.368,2.243 2.724,3.968c0.357,1.725 0.073,3.31 -0.867,4.782c-0.836,1.309 -2.004,2.175 -3.414,2.579c-1.472,0.442 -2.946,0.345 -4.384,-0.229l0.971,-3.142c0.761,0.371 1.535,0.482 2.25,0.325c0.804,-0.178 1.442,-0.576 1.878,-1.257c0.453,-0.709 0.581,-1.51 0.421,-2.342c-0.187,-0.849 -0.612,-1.505 -1.321,-1.958c-1.091,-0.696 -2.371,-0.555 -3.852,0.38c-2.747,1.777 -4.121,2.665 -4.148,2.648c-1.753,0.76 -3.606,0.536 -5.46,-0.648c-1.472,-0.941 -2.378,-2.287 -2.725,-3.968c-0.339,-1.752 -0.055,-3.337 0.868,-4.782c0.853,-1.336 2.004,-2.175 3.441,-2.562c1.455,-0.414 2.901,-0.334 4.366,0.257l-1.025,3.107Z" style="fill:#fff;fill-rule:nonzero;"/></g></g><g><g><path d="M545.489,892.541c1.072,26.389 -19.452,48.659 -45.845,49.731c-26.392,1.072 -48.659,-19.459 -49.731,-45.848c-1.072,-26.393 19.456,-48.656 45.849,-49.728c26.392,-1.073 48.655,19.452 49.727,45.845" style="fill:#30b34a;fill-rule:nonzero;"/></g><g><path d="M475.25,906.48c0.062,1.935 1.648,3.446 3.566,3.388c1.892,-0.053 3.441,-1.695 3.391,-3.593c-0.051,-1.906 -1.674,-3.422 -3.596,-3.364c-1.959,0.063 -3.423,1.62 -3.361,3.569m2.87,-14.587c-1.931,0.081 -3.394,1.689 -3.315,3.627c0.085,1.924 1.707,3.433 3.612,3.352c1.884,-0.083 3.418,-1.754 3.341,-3.648c-0.084,-1.908 -1.727,-3.416 -3.638,-3.331m29.6,23.581c6.927,-0.271 12.267,-6.053 11.983,-12.973c-0.284,-6.916 -6.096,-12.255 -13.005,-11.951c-6.886,0.31 -12.168,6.026 -11.945,12.921c0.223,6.876 6.057,12.28 12.967,12.003m-38.465,2.416l-1.08,-26.604c0.625,-2.39 1.882,-4.251 4.232,-5.27c0.228,-0.097 0.362,-0.589 0.403,-0.91c0.286,-2.302 2.298,-3.851 4.588,-3.548c0.526,0.07 1.113,0.039 1.613,-0.122c12.012,-3.833 24.015,-7.696 36.029,-11.539c0.59,-0.188 0.885,-0.462 1.016,-1.109c0.303,-1.49 1.451,-2.4 2.916,-2.459c1.398,-0.057 2.683,0.804 3.108,2.093c0.452,1.369 -0.048,2.867 -1.212,3.653c-1.21,0.811 -2.762,0.784 -3.815,-0.255c-0.574,-0.564 -1.028,-0.489 -1.66,-0.271c-8.71,3.023 -17.43,6.027 -26.146,9.041c-2.948,1.02 -5.892,2.043 -8.876,3.077c0.173,0.615 0.312,1.129 0.469,1.697l1.395,-0.056c11.992,-0.487 23.979,-0.964 35.971,-1.472c2.41,-0.104 4.409,0.661 5.864,2.583c0.568,0.753 0.895,1.69 1.333,2.542l1.08,26.604c-0.12,0.344 -0.247,0.685 -0.357,1.032c-0.841,2.63 -3.106,4.479 -5.859,4.594c-14.788,0.624 -29.57,1.224 -44.356,1.802c-2.753,0.108 -5.161,-1.547 -6.212,-4.104c-0.138,-0.34 -0.292,-0.666 -0.444,-0.999" style="fill:#fff;fill-rule:nonzero;"/></g><g><path d="M516.543,903.674c-0.304,0.029 -0.628,0.073 -0.957,0.086c-5.545,0.232 -11.084,0.437 -16.628,0.696c-0.838,0.037 -1.195,-0.147 -1.229,-1.052c-0.033,-0.899 0.28,-1.133 1.132,-1.164c5.399,-0.186 10.79,-0.422 16.184,-0.641c1.744,-0.071 1.957,0.213 1.498,2.075" style="fill:#fff;fill-rule:nonzero;"/></g><g><path d="M515.83,899.334c-0.298,0.029 -0.515,0.061 -0.736,0.07l-16.61,0.675c0.098,-1.737 0.585,-2.234 2.227,-2.3l12.486,-0.508c1.807,-0.073 2.025,0.093 2.633,2.063" style="fill:#fff;fill-rule:nonzero;"/></g><g><path d="M498.631,906.655l16.713,-0.679c0.221,-0.009 0.443,-0.001 0.668,-0c-0.151,1.722 -0.645,2.212 -2.268,2.278l-12.388,0.504c-1.888,0.076 -2.071,-0.057 -2.725,-2.103" style="fill:#fff;fill-rule:nonzero;"/></g><g><path d="M512.164,895.073l-10.333,0.42c1.778,-2.359 7.297,-2.654 10.333,-0.42" style="fill:#fff;fill-rule:nonzero;"/></g><g><path d="M512.762,910.615c-2.991,2.338 -7.222,2.516 -10.41,0.423l10.41,-0.423Z" style="fill:#fff;fill-rule:nonzero;"/></g></g></g><g><g><path d="M692.495,523.637c-5.103,-111.155 -99.691,-197.433 -210.852,-192.33c-111.148,5.103 -197.426,99.684 -192.323,210.839c5.102,111.152 99.683,197.427 210.831,192.324c111.161,-5.103 197.446,-99.681 192.344,-210.833m-404.449,18.568c-5.135,-111.856 81.686,-207.036 193.538,-212.171c111.865,-5.136 207.049,81.689 212.184,193.545c5.135,111.852 -81.693,207.03 -193.558,212.165c-111.852,5.135 -207.029,-81.687 -212.164,-193.539" style="fill:#1a9ad6;fill-rule:nonzero;"/></g><g><g><path d="M269.755,571.624c2.091,-0.301 3.731,-1.301 5.019,-2.984c1.251,-1.709 1.749,-3.565 1.448,-5.656l-0.709,-4.932l-15.076,2.168l0.709,4.932c0.301,2.091 1.301,3.732 2.984,5.019c1.709,1.251 3.565,1.749 5.625,1.453Zm0.449,3.121c-2.903,0.418 -5.584,-0.28 -7.976,-2.071c-2.361,-1.795 -3.75,-4.144 -4.172,-7.078l-1.158,-8.053l21.288,-3.061l1.158,8.053c0.422,2.934 -0.28,5.584 -2.071,7.976c-1.791,2.392 -4.135,3.812 -7.069,4.234Z" style="fill:#fff;fill-rule:nonzero;"/></g><g><path d="M282.254,578.706l-0.655,-3.085l-21.037,4.472l0.656,3.085l21.036,-4.472Z" style="fill:#fff;"/></g><g><path d="M280.971,600.202c0.912,-1.049 1.522,-2.241 1.867,-3.554c0.358,-1.382 0.335,-2.721 -0.039,-4.024c-0.592,-2.061 -1.832,-3.641 -3.744,-4.7c-1.911,-1.059 -3.917,-1.304 -6.009,-0.704c-2.061,0.592 -3.632,1.863 -4.691,3.774c-1.059,1.912 -1.304,3.917 -0.712,5.979c0.687,2.394 2.222,4.086 4.575,5.084l3.183,-0.913l-1.766,-6.153l3.032,-0.87l2.635,9.184l-11.822,3.392l-0.869,-3.031l1.879,-0.539c-1.851,-1.077 -3.144,-2.838 -3.848,-5.293c-0.826,-2.88 -0.487,-5.7 0.982,-8.353c1.492,-2.692 3.673,-4.466 6.553,-5.292c2.909,-0.835 5.699,-0.487 8.391,1.004c2.692,1.492 4.436,3.682 5.262,6.561c0.522,1.819 0.563,3.677 0.123,5.575c-0.487,1.846 -1.326,3.497 -2.606,4.98l-2.376,-2.107Z" style="fill:#fff;fill-rule:nonzero;"/></g><g><path d="M290.704,607.356l-1.079,-2.963l-20.208,7.36l1.079,2.963l20.208,-7.36Z" style="fill:#fff;"/></g><g><path d="M292.129,619.312l-16.881,7.201l-1.238,-2.901l16.882,-7.201l-2.573,-6.033l2.9,-1.238l6.385,14.968l-2.901,1.237l-2.574,-6.033Z" style="fill:#fff;fill-rule:nonzero;"/></g><g><path d="M298.395,633.769l-11.284,1.498l3.615,6.899l7.669,-8.397Zm-12.725,13.966l2.79,-3.1l-4.669,-8.91l-4.137,0.53l-1.536,-2.933l22.679,-3.055l1.844,3.52l-15.405,16.937l-1.566,-2.989Z" style="fill:#fff;fill-rule:nonzero;"/></g><g><path d="M288.73,652.987l18.232,-11.406l1.673,2.673l-15.586,9.751l5.569,8.902l-2.646,1.656l-7.242,-11.576Z" style="fill:#fff;fill-rule:nonzero;"/></g><g><path d="M321.234,668.756l-10.793,3.618l4.861,6.085l5.932,-9.703Zm-9.837,16.133l2.15,-3.574l-6.279,-7.86l-3.96,1.307l-2.067,-2.587l21.685,-7.313l2.48,3.104l-11.903,19.559l-2.106,-2.636Z" style="fill:#fff;fill-rule:nonzero;"/></g><g><path d="M324.716,699.331l4.215,-18.039l-11.212,10.724l-2.18,-2.279l15.543,-14.866l2.092,2.188l-4.238,18.061l11.235,-10.746l2.18,2.279l-15.543,14.866l-2.092,-2.188Z" style="fill:#fff;fill-rule:nonzero;"/></g><g><path d="M347.549,691.322l-2.32,-2.136l-14.567,15.823l2.321,2.136l14.566,-15.823Z" style="fill:#fff;"/></g><g><path d="M351.318,722.314l8.479,-10.743l-13.182,7.03l-2.55,-2.012l3.776,-14.455l-8.479,10.743l-2.476,-1.954l13.325,-16.881l2.5,1.973l-4.78,18.323l16.711,-8.906l2.476,1.954l-13.325,16.881l-2.475,-1.953Z" style="fill:#fff;fill-rule:nonzero;"/></g><g><path d="M374.248,716.382l-9.036,6.922l6.572,4.18l2.464,-11.102Zm-4.072,18.451l0.874,-4.079l-8.488,-5.398l-3.323,2.521l-2.794,-1.776l18.14,-13.952l3.353,2.133l-4.915,22.361l-2.847,-1.81Z" style="fill:#fff;fill-rule:nonzero;"/></g><g><path d="M390.977,725.335l-8.571,16.23l-2.788,-1.473l8.57,-16.229l-5.8,-3.063l1.473,-2.789l14.389,7.599l-1.473,2.788l-5.8,-3.063Z" style="fill:#fff;fill-rule:nonzero;"/></g><g><path d="M402.875,727.593l-2.865,-1.318l-8.992,19.536l2.864,1.319l8.993,-19.537Z" style="fill:#fff;"/></g><g><path d="M418.994,745.64c0.768,-2.036 0.716,-4.044 -0.185,-6.035c-0.93,-2.002 -2.375,-3.355 -4.411,-4.123c-2.006,-0.756 -4.014,-0.704 -6.005,0.197c-1.991,0.901 -3.385,2.364 -4.153,4.4c-0.756,2.006 -0.675,4.025 0.226,6.016c0.901,1.991 2.364,3.385 4.371,4.142c2.036,0.767 4.025,0.674 6.046,-0.215c1.991,-0.901 3.355,-2.375 4.111,-4.382Zm2.951,1.113c-1.056,2.803 -2.972,4.844 -5.775,6.113c-2.793,1.239 -5.602,1.36 -8.435,0.292c-2.803,-1.057 -4.863,-3.013 -6.113,-5.776c-1.268,-2.803 -1.389,-5.612 -0.332,-8.416c1.067,-2.832 3.012,-4.863 5.816,-6.131c2.803,-1.269 5.601,-1.36 8.404,-0.303c2.833,1.067 4.875,2.983 6.143,5.786c1.269,2.804 1.36,5.602 0.292,8.435Z" style="fill:#fff;fill-rule:nonzero;"/></g><g><path d="M435.547,761.488l-5.883,-17.566l-3.913,15.014l-3.051,-0.796l5.423,-20.811l2.93,0.763l5.875,17.597l3.92,-15.044l3.052,0.795l-5.424,20.812l-2.929,-0.764Z" style="fill:#fff;fill-rule:nonzero;"/></g></g><g><g><path d="M548.014,735.165c-0.029,26.414 -21.465,47.802 -47.88,47.772c-26.414,-0.03 -47.801,-21.466 -47.771,-47.881c0.03,-26.414 21.465,-47.801 47.88,-47.772c26.414,0.03 47.801,21.466 47.771,47.881" style="fill:#1a9ad6;fill-rule:nonzero;"/></g><g><path d="M519.562,724.65c0.001,1.704 1.449,3.176 3.15,3.198c1.711,0.025 3.277,-1.55 3.229,-3.255c-0.046,-1.694 -1.54,-3.149 -3.225,-3.131c-1.701,0.015 -3.152,1.483 -3.154,3.188m3.126,12.469c1.698,0.022 3.183,-1.402 3.242,-3.11c0.055,-1.695 -1.503,-3.287 -3.214,-3.275c-1.695,0.004 -3.153,1.479 -3.161,3.187c-0.012,1.708 1.429,3.179 3.133,3.198m-27.737,18.441c4.61,0.005 9.221,0.044 13.831,0.009c4.359,-0.036 6.976,-2.7 6.988,-7.039c0.014,-6.701 0.025,-13.398 0.022,-20.096c-0.005,-4.258 -2.639,-6.976 -6.911,-6.997c-9.221,-0.051 -18.438,-0.062 -27.659,-0.032c-4.285,0.012 -6.889,2.684 -6.9,6.979c-0.028,6.738 -0.029,13.475 -0.02,20.213c0.003,0.742 0.046,1.51 0.236,2.219c0.799,2.93 3.283,4.688 6.699,4.722c4.574,0.035 9.144,0.017 13.714,0.022m35.531,-35.257l-0.041,36.431c-0.986,2.335 -2.712,3.292 -5.265,3.283c-16.536,-0.073 -33.072,-0.065 -49.608,-0.083c-3.513,-0.004 -4.425,-0.606 -5.693,-3.738l0.04,-35.488c1.245,-3.055 2.282,-3.735 5.725,-3.735c7.094,0.008 14.187,0.019 21.281,0.024c0.412,0.001 0.822,-0.036 1.439,-0.065c-0.526,-0.565 -0.891,-0.964 -1.263,-1.354c-2.511,-2.671 -5.041,-5.324 -7.528,-8.015c-0.378,-0.413 -0.757,-0.984 -0.793,-1.507c-0.027,-0.363 0.498,-1.043 0.843,-1.083c0.48,-0.063 1.161,0.196 1.513,0.552c1.676,1.669 3.268,3.423 4.886,5.146c1.398,1.481 2.799,2.959 4.237,4.478c2.983,-3.151 5.882,-6.218 8.788,-9.265c0.293,-0.308 0.615,-0.677 0.991,-0.794c0.383,-0.117 1.007,-0.113 1.238,0.122c0.292,0.289 0.439,0.896 0.364,1.316c-0.071,0.419 -0.447,0.815 -0.766,1.15c-2.59,2.759 -5.197,5.5 -7.797,8.246c-0.276,0.295 -0.538,0.603 -0.965,1.079l1.577,0.002c7.174,0.008 14.348,0.05 21.519,0.007c2.51,-0.014 4.308,0.925 5.278,3.291" style="fill:#fff;fill-rule:nonzero;"/></g></g></g><g><path d="M497.345,421.173c-56.771,-0 -102.96,46.192 -102.96,102.97c-0,56.772 46.189,102.961 102.96,102.961c56.772,-0 102.961,-46.189 102.961,-102.961c-0,-56.778 -46.189,-102.97 -102.961,-102.97m0,207.206c-57.476,-0 -104.235,-46.763 -104.235,-104.236c-0,-57.483 46.759,-104.245 104.235,-104.245c57.477,-0 104.236,46.762 104.236,104.245c-0,57.473 -46.759,104.236 -104.236,104.236" style="fill:#3f3a3c;fill-rule:nonzero;"/></g><g><g><g><path d="M331.123,250.191l-27.875,-0l-16.371,-44.909l-16.591,44.909l-27.875,-0l-54.864,-150.877l23.229,0l45.572,124.772l18.583,-51.103l-26.768,-73.669l23.45,0l15.264,41.37l14.823,-41.37l23.671,0l-26.769,73.669l18.583,51.103l45.352,-124.772l23.671,0l-55.085,150.877Z" style="fill:#fff;fill-rule:nonzero;"/></g><g><path d="M472.044,250.191l0,-66.147c0,-7.3 -2.876,-13.937 -8.185,-19.247c-5.531,-5.53 -11.946,-8.406 -19.468,-8.406c-7.522,-0 -13.937,2.876 -19.468,8.406c-5.531,5.31 -8.185,11.947 -8.185,19.247l-0,66.147l-22.123,-0l0,-150.877l22.123,0l-0,47.564c8.849,-8.407 19.468,-12.61 31.414,-12.61c13.052,0 24.113,5.31 33.184,15.486c8.627,9.513 12.831,21.016 12.831,34.29l-0,66.147l-22.123,-0Z" style="fill:#fff;fill-rule:nonzero;"/></g><g><path d="M608.563,193.336c-0,-9.956 -3.761,-18.583 -11.061,-25.884c-7.08,-7.3 -15.929,-11.061 -25.884,-11.061c-10.176,-0 -18.804,3.761 -26.104,11.061c-7.08,7.079 -10.84,15.707 -10.84,25.884c-0,10.176 3.76,18.804 10.84,26.104c7.3,7.079 15.928,10.84 26.104,10.84c10.177,0 18.804,-3.761 25.884,-10.84c7.3,-7.3 11.061,-15.928 11.061,-26.104Zm-0,56.855l-0,-13.495c-11.061,10.176 -23.892,15.486 -38.715,15.486c-15.928,-0 -29.423,-5.973 -40.705,-17.477c-11.061,-11.504 -16.592,-25.22 -16.592,-41.369c-0,-16.15 5.752,-30.087 17.256,-41.591c11.725,-11.504 25.662,-17.477 41.811,-17.477c16.15,0 30.087,5.973 41.591,17.477c11.725,11.504 17.477,25.441 17.477,41.591l-0,56.855l-22.123,-0Z" style="fill:#fff;fill-rule:nonzero;"/></g><g><path d="M680.371,158.382l0,91.809l-22.122,-0l-0,-91.809l-18.362,-0l0,-22.123l18.362,0l-0,-36.945l22.122,0l0,36.945l18.362,0l0,22.123l-18.362,-0Z" style="fill:#fff;fill-rule:nonzero;"/></g></g><g><g><path d="M540.095,404.453l-29.202,0l-10.397,-28.095l-10.177,28.095l-29.201,0l-41.37,-113.931l23.229,-0l32.742,89.375l13.052,-36.06l-19.468,-53.315l23.45,-0l7.743,21.016l7.743,-21.016l23.45,-0l-19.247,53.315l13.052,36.06l32.521,-89.375l23.449,-0l-41.369,113.931Z" style="fill:#fff;fill-rule:nonzero;"/></g><g><path d="M663.205,319.281c-7.079,-5.752 -15.043,-8.627 -23.671,-8.627c-10.176,-0 -18.804,3.76 -25.883,11.061c-7.301,7.3 -10.84,15.928 -10.84,26.105c-0,2.875 0.663,5.973 1.548,9.512l58.846,-38.051Zm35.618,26.769c-0,16.592 -5.752,30.971 -17.035,42.696c-11.282,11.725 -25.219,17.698 -41.811,17.698c-16.371,0 -30.529,-5.751 -42.033,-17.034c-11.504,-11.283 -17.256,-25.22 -17.256,-41.59c0,-16.371 5.752,-30.308 17.256,-41.812c11.504,-11.504 25.22,-17.477 41.59,-17.477c11.946,-0 23.008,3.318 32.742,9.955c9.955,6.637 17.255,15.486 22.122,26.768l-78.092,50.661c7.079,5.752 14.822,8.628 23.671,8.628c10.397,0 19.246,-3.761 25.883,-11.283c7.079,-7.521 10.398,-16.591 10.619,-27.21l22.344,-0Z" style="fill:#fff;fill-rule:nonzero;"/></g></g><g><g><path d="M401.855,524.358c-0,-9.955 -3.761,-18.583 -11.062,-25.883c-7.079,-7.301 -15.928,-11.062 -25.883,-11.062c-10.176,0 -18.804,3.761 -26.105,11.062c-7.079,7.079 -10.84,15.707 -10.84,25.883c0,10.176 3.761,18.804 10.84,26.105c7.301,7.079 15.929,10.84 26.105,10.84c10.176,-0 18.804,-3.761 25.883,-10.84c7.301,-7.301 11.062,-15.929 11.062,-26.105Zm22.122,0c0,16.15 -5.752,30.087 -17.477,41.591c-11.503,11.503 -25.441,17.255 -41.59,17.255c-16.371,0 -30.308,-5.752 -41.812,-17.255c-11.504,-11.504 -17.255,-25.441 -17.255,-41.591c-0,-16.149 5.53,-29.865 16.592,-41.59c11.282,-11.504 24.777,-17.477 40.705,-17.477c14.822,-0 27.875,5.309 38.715,15.707l-0,-50.661l22.122,0l0,94.021Z" style="fill:#fff;fill-rule:nonzero;"/></g><g><path d="M533.615,524.358c0,-9.955 -3.761,-18.583 -11.061,-25.883c-7.079,-7.301 -15.928,-11.062 -25.883,-11.062c-10.177,0 -18.805,3.761 -26.105,11.062c-7.079,7.079 -10.84,15.707 -10.84,25.883c-0,10.176 3.761,18.804 10.84,26.105c7.3,7.079 15.928,10.84 26.105,10.84c10.176,-0 18.804,-3.761 25.883,-10.84c7.3,-7.301 11.061,-15.929 11.061,-26.105Zm22.123,0c-0,16.15 -5.752,30.087 -17.477,41.591c-11.504,11.503 -25.441,17.255 -41.59,17.255c-16.371,0 -30.308,-5.752 -41.812,-17.255c-11.504,-11.504 -17.256,-25.441 -17.256,-41.591c0,-16.149 5.752,-30.087 17.256,-41.59c11.725,-11.504 25.662,-17.477 41.812,-17.477c16.149,-0 30.086,5.973 41.59,17.477c11.725,11.503 17.477,25.441 17.477,41.59Z" style="fill:#fff;fill-rule:nonzero;"/></g></g><g><g><clipPath id="_clip1"><path d="M439.44,524.141c-0,31.978 25.921,57.906 57.906,57.906c31.981,-0 57.909,-25.928 57.909,-57.906c0,-31.985 -25.928,-57.913 -57.909,-57.913c-31.985,0 -57.906,25.928 -57.906,57.913Z"/></clipPath><g clip-path="url(#_clip1)"><g><path d="M555.04,524.138c0,-31.864 -25.834,-57.695 -57.694,-57.695c-31.861,-0 -57.688,25.831 -57.688,57.695c-0,31.86 25.827,57.694 57.688,57.694c31.86,0 57.694,-25.834 57.694,-57.694" style="fill:#c82127;"/></g><g><path d="M513.009,502.582c0.97,0.906 0.97,0.913 1.896,0.188c2.987,-2.299 5.993,-4.581 8.943,-6.926c0.966,-0.772 1.872,-1.01 3.07,-0.577c0.909,0.325 1.899,0.399 2.882,0.584c0.517,-1.93 1.007,-3.748 1.517,-5.624c-1.003,0.161 -1.899,0.302 -2.866,0.453c0.171,-0.873 0.329,-1.648 0.497,-2.493c-0.238,0.04 -0.393,0.06 -0.54,0.1c-1.131,0.292 -2.248,0.611 -3.389,0.876c-0.356,0.077 -0.467,0.215 -0.45,0.571c0.05,1.127 0.06,2.258 0.124,3.389c0.014,0.369 -0.114,0.597 -0.402,0.808c-2.383,1.792 -4.765,3.584 -7.141,5.393c-1.393,1.067 -2.758,2.164 -4.141,3.258m-49.222,38.592c0.172,-0.081 0.359,-0.135 0.51,-0.245c2.755,-2.067 5.514,-4.138 8.255,-6.225c1.547,-1.174 3.07,-2.369 4.681,-3.617c1.215,1.09 2.433,2.144 3.604,3.251c1.577,1.49 3.016,1.447 4.432,-0.177c0.426,-0.487 0.866,-0.964 1.359,-1.38c3.745,-3.171 8.288,-4.261 13.12,-5.009c-2.395,2.557 -3.979,5.439 -5.184,8.566c-1.184,3.094 -2.248,8.738 -2.037,9.758c0.064,-0.255 0.111,-0.443 0.151,-0.627c0.816,-3.473 1.93,-6.836 3.567,-10.013c2.151,-4.164 5.044,-7.681 9.013,-10.221c1.403,-0.893 2.906,-1.618 4.241,-2.356c-0.53,-0.476 -1.261,-0.953 -1.741,-1.604c-0.487,-0.651 -0.728,-1.479 -1.087,-2.248c-0.326,0.188 -0.695,0.416 -1.081,0.604c-0.949,0.453 -1.882,0.987 -2.885,1.309c-2.829,0.936 -5.285,-0.024 -6.547,-2.661c-0.597,-1.245 -0.889,-2.638 -1.268,-3.983c-0.125,-0.456 0.399,-1.211 0.869,-1.379c4.583,-1.611 9.16,-3.225 13.747,-4.836c0.789,-0.278 1.591,-0.533 2.403,-0.808c0.339,0.936 0.641,1.815 0.963,2.691c1.953,5.375 3.895,10.754 5.872,16.123c0.278,0.755 0.258,1.413 -0.178,2.087c-0.446,0.675 -0.872,1.359 -1.262,2.074c-3.556,6.62 -7.107,13.244 -10.647,19.878c-0.117,0.211 -0.188,0.466 -0.191,0.705c-0.054,3.56 -0.141,7.113 -0.144,10.667c-0.004,11.392 0.017,22.784 0.033,34.172c0,1.53 0.014,3.061 0.017,4.587c0.03,9.127 0.057,18.251 0.087,27.378c0.007,2.909 0.01,5.822 0.02,8.731c0.011,8.496 0.047,16.999 0.051,25.492c-0,6.65 -0.017,13.301 -0.04,19.945c-0.004,2.59 -0.044,5.174 -0.068,7.761c-0.003,0.836 0,1.675 0,2.607c-7.694,0.071 -15.244,0.138 -22.837,0.212c-0.02,-0.161 -0.05,-0.342 -0.054,-0.514c-0.07,-4.795 -0.168,-9.586 -0.208,-14.381c-0.05,-6.037 -0.057,-12.073 -0.08,-18.11c-0.014,-4.923 -0.037,-9.848 -0.027,-14.768c-0,-13.475 0.013,-26.954 0.027,-40.43c0.013,-6.953 0.03,-13.902 0.033,-20.858c0.017,-10.711 0.02,-21.422 0.057,-32.126c0.007,-0.818 -0.161,-1.332 -0.899,-1.822c-2.138,-1.432 -3.299,-3.61 -4.084,-5.982c-0.506,-1.557 -0.879,-3.168 -1.328,-4.812c-0.464,0.275 -0.967,0.547 -1.43,0.872c-0.366,0.248 -0.554,0.631 -0.443,1.077c0.621,2.594 1.359,5.141 2.852,7.389c0.735,1.114 1.648,2.05 2.889,2.584c0.383,0.164 0.48,0.362 0.477,0.755c-0.034,4.55 -0.047,9.087 -0.064,13.637c-0.017,5.727 -0.027,11.462 -0.03,17.193c-0.017,9.614 -0.017,19.227 -0.02,28.834c-0.007,6.906 -0.014,13.805 -0.02,20.707c-0.01,8.422 -0.024,16.848 -0.041,25.28c-0.006,6.483 -0.016,12.976 -0.03,19.456c-0.01,5.764 -0.02,11.532 -0.023,17.301l-0,0.51c1.006,-0 1.939,-0.024 2.869,-0c3.909,0.107 7.821,0.231 11.734,0.318c4.198,0.084 8.402,0.121 12.6,0.185c0.265,-0 0.527,-0.047 0.889,-0.071l0,-3.697c0,-3.916 0.003,-7.832 0,-11.751c-0.013,-2.782 -0.03,-5.564 -0.044,-8.345c-0.03,-7.497 -0.06,-14.986 -0.1,-22.476c-0.037,-6.16 -0.074,-12.328 -0.111,-18.485c-0.04,-6.181 -0.074,-12.362 -0.107,-18.543c-0.041,-6.825 -0.081,-13.653 -0.108,-20.478c-0.017,-4.96 -0.05,-9.919 -0.033,-14.875c0.02,-7.564 0.084,-15.127 0.127,-22.69c0,-1.051 0.168,-2.054 0.644,-3.017c1.41,-2.829 2.779,-5.667 4.161,-8.509c2.5,-5.165 4.997,-10.332 7.483,-15.513c0.114,-0.231 0.121,-0.59 0.037,-0.839c-2.208,-6.224 -4.453,-12.425 -6.647,-18.65c-0.275,-0.775 -0.678,-1.318 -1.389,-1.664c-1.135,-0.534 -1.883,-1.426 -2.551,-2.466c-1.516,-2.353 -3.104,-4.661 -4.684,-6.973c-0.882,-1.285 -2.111,-1.822 -3.678,-1.611c-1.342,0.188 -2.469,0.822 -3.57,1.551c-4.09,2.734 -8.181,5.472 -12.264,8.214c-0.161,0.114 -0.319,0.285 -0.41,0.463c-0.429,0.889 -0.825,1.792 -1.258,2.678c-0.094,0.198 -0.252,0.399 -0.433,0.513c-1.839,1.221 -3.674,2.446 -5.54,3.627c-0.664,0.423 -1.191,0.916 -1.486,1.644c-0.651,1.581 -1.631,2.95 -2.691,4.265c-1.057,1.302 -2.141,2.567 -3.114,3.926c-1.369,1.906 -1.235,4.114 0.369,5.809c0.879,0.916 1.933,1.654 2.919,2.466c0.44,0.359 0.903,0.688 1.396,1.067c-0.899,0.698 -1.728,1.349 -2.567,1.993c-3.275,2.517 -6.557,5.03 -9.825,7.557c-0.204,0.154 -0.345,0.399 -0.517,0.604c-0.14,-0.148 -0.291,-0.299 -0.426,-0.467c-0.966,-1.167 -1.932,-2.338 -2.906,-3.513c-0.231,0.191 -0.382,0.326 -0.54,0.436c-0.436,0.299 -0.503,0.574 -0.144,1.041c1.302,1.671 2.547,3.379 3.822,5.07c0.923,1.231 1.859,2.453 2.839,3.741c0.396,-0.312 0.765,-0.607 1.137,-0.896c-0.241,-0.352 -0.456,-0.644 -0.664,-0.936c-0.856,-1.238 -1.715,-2.47 -2.571,-3.704m16.496,155.138l-1.08,0c0.02,-11.694 0.033,-23.384 0.05,-35.082c0.01,-5.14 0.027,-10.281 0.037,-15.418c0.01,-5.047 0.01,-10.097 0.02,-15.147c0.013,-10.204 0.04,-20.405 0.047,-30.612c0.023,-10.225 0.027,-20.445 0.04,-30.67c0.007,-4.452 0.007,-8.909 0.03,-13.368c0,-1.111 0.064,-2.221 0.098,-3.332c0.013,-0.477 -0.225,-0.789 -0.604,-1.067c-0.564,-0.416 -1.128,-0.846 -1.594,-1.352c-1.477,-1.604 -2.305,-3.574 -2.97,-5.618c-0.339,-1.05 -0.627,-2.11 -0.986,-3.335c-2.144,1.671 -4.232,3.238 -6.252,4.899c-0.731,0.601 -1.449,1.027 -2.399,1.05c-1.379,0.037 -2.724,-0.161 -4.01,-0.647c-1.409,-0.524 -2.325,-1.52 -2.748,-2.963c-0.06,-0.215 -0.144,-0.43 -0.221,-0.648l-0,-2.479c0.147,-0.735 0.308,-1.46 0.429,-2.195c0.128,-0.809 0.473,-1.446 1.158,-1.913c0.56,-0.389 1.074,-0.842 1.624,-1.248c2.852,-2.117 5.718,-4.221 8.577,-6.335c0.335,-0.252 0.644,-0.54 0.99,-0.836c-0.356,-0.449 -0.725,-0.805 -0.974,-1.238c-1.167,-2.057 -1.288,-4.167 -0.043,-6.228c0.664,-1.107 1.439,-2.147 2.221,-3.174c1.648,-2.178 3.393,-4.282 4.587,-6.758c0.087,-0.178 0.292,-0.312 0.467,-0.429c1.999,-1.366 4.009,-2.722 6.013,-4.091c0.188,-0.134 0.362,-0.339 0.473,-0.55c0.423,-0.889 0.808,-1.795 1.225,-2.688c0.07,-0.147 0.211,-0.282 0.355,-0.376c3.617,-2.382 7.221,-4.768 10.849,-7.13c1.392,-0.906 2.775,-1.872 4.261,-2.607c2.648,-1.309 5.151,-0.866 7.02,1.191c0.876,0.966 1.553,2.107 2.318,3.174c0.302,0.43 0.594,0.876 0.92,1.342c0.443,-0.335 0.829,-0.63 1.204,-0.919c3.614,-2.731 7.221,-5.453 10.822,-8.198c0.755,-0.577 1.587,-0.946 2.507,-1.181c2.05,-0.53 4.09,-1.07 6.12,-1.661c1.09,-0.318 2.144,-0.765 3.215,-1.154l0.429,0c-0.362,0.722 -0.755,1.423 -1.08,2.161c-1.232,2.842 -1.957,5.842 -2.715,8.832c-0.084,0.302 -0.275,0.631 -0.513,0.822c-4.309,3.379 -8.631,6.744 -12.956,10.097c-0.309,0.238 -0.369,0.426 -0.232,0.802c2.098,5.781 4.175,11.569 6.269,17.354c0.127,0.366 0.11,0.661 -0.068,1.017c-0.986,2.027 -1.939,4.074 -2.929,6.11c-2.939,6.067 -5.906,12.12 -8.825,18.201c-0.359,0.741 -0.587,1.593 -0.641,2.409c-0.117,1.755 -0.114,3.52 -0.114,5.278c-0.017,5.624 -0.03,11.248 -0.017,16.868c0.017,8.802 0.054,17.603 0.088,26.405c0.026,8.352 0.07,16.707 0.104,25.055c0.03,6.144 0.05,12.288 0.073,18.429c0.01,3.902 0.024,7.795 0.037,11.694c0.01,3.486 0.034,6.969 0.034,10.452c-0,8.661 -0.007,17.321 -0.02,25.978l-0,2.363c-0.205,0.02 -0.292,0.037 -0.379,0.037c-3.46,0.1 -6.923,0.224 -10.389,0.278c-5.728,0.087 -11.456,0.128 -17.177,0.195c-0.936,0.016 -1.856,0.107 -2.775,0.154" style="fill:#231f20;"/></g><g><path d="M510.57,506.105c-0.007,-0.07 -0,-0.114 -0.02,-0.144c-1.839,-2.849 -3.678,-5.694 -5.523,-8.537c-0.403,-0.63 -1.027,-0.855 -1.749,-0.872c-0.902,-0.02 -1.721,0.299 -2.523,0.664c-0.718,0.333 -1.423,0.725 -2.174,0.923c-1.356,0.363 -1.923,1.309 -2.235,2.55c-0.181,0.735 -0.007,1.322 0.486,1.879c0.648,0.742 1.255,1.524 1.859,2.302c1.01,1.309 2.014,2.621 3.004,3.94c0.194,0.265 0.365,0.285 0.674,0.177c1.51,-0.567 3.027,-1.114 4.543,-1.65c1.215,-0.423 2.443,-0.823 3.658,-1.232m-33.713,10.55c-1.335,1.735 -2.651,3.419 -3.919,5.13c-0.292,0.396 -0.477,0.89 -0.614,1.363c-0.326,1.097 -0.121,1.587 0.795,2.271c0.752,0.564 1.52,1.091 2.231,1.698c1.984,1.712 3.933,3.473 5.923,5.174c0.513,0.433 1.117,0.789 1.735,1.057c0.725,0.316 1.137,0.094 1.617,-0.513c0.315,-0.396 0.722,-0.738 1.128,-1.06c0.362,-0.285 0.781,-0.497 1.164,-0.769c0.527,-0.382 0.752,-0.929 0.493,-1.516c-0.268,-0.614 -0.614,-1.218 -1.047,-1.728c-1.587,-1.903 -3.228,-3.762 -4.838,-5.641c-1.544,-1.799 -3.077,-3.604 -4.668,-5.466m23.596,-7.218c-0.225,-0.309 -0.396,-0.55 -0.58,-0.798c-1.698,-2.205 -3.41,-4.4 -5.084,-6.624c-0.282,-0.363 -0.487,-0.497 -0.906,-0.259c-1.943,1.145 -3.903,2.275 -5.852,3.413c-0.074,0.04 -0.141,0.107 -0.205,0.168c-1.01,0.882 -1.305,1.969 -0.785,3.201c0.309,0.721 0.721,1.402 1.131,2.077c3.167,5.194 6.345,10.378 9.529,15.566c0.115,0.191 0.249,0.376 0.393,0.584c3.06,-1.262 6.08,-2.517 9.124,-3.778c-0.286,-0.682 -0.534,-1.252 -0.779,-1.836c-0.282,0.084 -0.5,0.151 -0.725,0.225c-2.046,0.634 -4.134,0.946 -6.261,0.591c-1.862,-0.306 -3.419,-1.098 -4.211,-2.94c-0.443,-1.02 -0.906,-2.033 -1.309,-3.07c-0.419,-1.064 -0.55,-2.168 -0.07,-3.245c0.117,-0.265 0.372,-0.527 0.634,-0.644c1.953,-0.889 3.926,-1.742 5.956,-2.631m-4.429,16.939c-3.513,-5.993 -6.996,-11.932 -10.513,-17.915c-1.483,0.939 -2.96,1.832 -4.198,3.04c-1.429,1.392 -2.271,3.063 -2.486,5.063c-0.034,0.359 0.057,0.608 0.282,0.869c2.342,2.765 4.711,5.51 7.006,8.315c1.09,1.332 2.651,1.866 4.047,2.675c0.218,0.127 0.53,0.12 0.792,0.127c2.006,0.067 3.553,-0.926 5.07,-2.174m-32.78,14.029c0.171,-0.208 0.309,-0.45 0.517,-0.611c3.268,-2.523 6.546,-5.036 9.824,-7.553c0.836,-0.644 1.665,-1.295 2.564,-1.993c-0.497,-0.379 -0.953,-0.708 -1.396,-1.067c-0.98,-0.812 -2.04,-1.55 -2.916,-2.466c-1.604,-1.698 -1.738,-3.903 -0.369,-5.809c0.97,-1.352 2.057,-2.624 3.111,-3.926c1.063,-1.315 2.04,-2.681 2.691,-4.265c0.298,-0.728 0.825,-1.221 1.486,-1.644c1.866,-1.178 3.705,-2.402 5.544,-3.627c0.177,-0.114 0.339,-0.312 0.432,-0.51c0.433,-0.889 0.826,-1.792 1.259,-2.681c0.09,-0.178 0.245,-0.352 0.409,-0.463c4.08,-2.742 8.174,-5.48 12.265,-8.214c1.093,-0.729 2.224,-1.363 3.57,-1.547c1.567,-0.215 2.792,0.325 3.677,1.607c1.581,2.312 3.165,4.617 4.681,6.973c0.671,1.04 1.42,1.936 2.554,2.469c0.711,0.339 1.111,0.89 1.389,1.661c2.191,6.225 4.436,12.426 6.644,18.65c0.091,0.245 0.077,0.608 -0.034,0.842c-2.486,5.178 -4.983,10.345 -7.482,15.51c-1.383,2.842 -2.755,5.68 -4.161,8.506c-0.48,0.966 -0.644,1.969 -0.648,3.02c-0.043,7.566 -0.104,15.126 -0.127,22.69c-0.014,4.959 0.016,9.919 0.037,14.875c0.026,6.828 0.067,13.653 0.107,20.482c0.03,6.177 0.064,12.358 0.107,18.539c0.034,6.157 0.078,12.321 0.108,18.482c0.04,7.493 0.07,14.982 0.104,22.479c0.01,2.781 0.03,5.563 0.043,8.345c0.004,3.919 0,7.835 0,11.751l0,3.697c-0.362,0.024 -0.627,0.071 -0.889,0.071c-4.201,-0.064 -8.402,-0.101 -12.6,-0.185c-3.912,-0.087 -7.825,-0.211 -11.741,-0.315c-0.926,-0.024 -1.855,-0 -2.865,-0l-0,-0.513c0.006,-5.769 0.013,-11.537 0.023,-17.301c0.007,-6.483 0.024,-12.973 0.03,-19.456c0.021,-8.432 0.034,-16.858 0.041,-25.28c0.006,-6.902 0.016,-13.801 0.027,-20.704c-0,-9.606 -0,-19.227 0.013,-28.837c0.007,-5.731 0.01,-11.462 0.033,-17.193c0.014,-4.547 0.031,-9.09 0.058,-13.637c0.003,-0.393 -0.091,-0.591 -0.474,-0.748c-1.238,-0.541 -2.157,-1.477 -2.889,-2.591c-1.493,-2.248 -2.231,-4.795 -2.852,-7.389c-0.111,-0.446 0.084,-0.829 0.446,-1.077c0.463,-0.322 0.967,-0.597 1.433,-0.876c0.443,1.648 0.816,3.259 1.326,4.816c0.785,2.372 1.946,4.553 4.083,5.982c0.739,0.49 0.903,1.007 0.9,1.822c-0.037,10.708 -0.041,21.419 -0.057,32.126c-0.007,6.956 -0.021,13.909 -0.034,20.861c-0.013,13.476 -0.027,26.952 -0.03,40.427c-0.007,4.923 0.017,9.845 0.03,14.771c0.023,6.034 0.027,12.07 0.081,18.107c0.04,4.798 0.134,9.586 0.204,14.381c0.007,0.172 0.037,0.356 0.054,0.514c7.593,-0.074 15.147,-0.141 22.841,-0.212c-0,-0.929 -0.007,-1.765 -0,-2.607c0.023,-2.587 0.06,-5.171 0.07,-7.761c0.02,-6.644 0.037,-13.291 0.037,-19.945c-0.007,-8.49 -0.037,-16.993 -0.054,-25.489c-0.006,-2.912 -0.013,-5.822 -0.02,-8.734c-0.03,-9.127 -0.053,-18.254 -0.084,-27.378c-0.003,-1.53 -0.02,-3.057 -0.02,-4.583c-0.013,-11.389 -0.037,-22.784 -0.033,-34.176c0.006,-3.554 0.09,-7.11 0.144,-10.667c0.007,-0.235 0.077,-0.494 0.191,-0.705c3.54,-6.63 7.091,-13.261 10.654,-19.878c0.386,-0.711 0.809,-1.396 1.255,-2.07c0.436,-0.682 0.46,-1.336 0.178,-2.087c-1.973,-5.373 -3.919,-10.752 -5.869,-16.127c-0.325,-0.872 -0.627,-1.755 -0.966,-2.688c-0.812,0.269 -1.614,0.527 -2.403,0.805c-4.587,1.611 -9.164,3.225 -13.744,4.836c-0.47,0.168 -0.997,0.923 -0.872,1.382c0.382,1.342 0.671,2.735 1.268,3.98c1.268,2.637 3.718,3.594 6.55,2.661c1.007,-0.322 1.933,-0.856 2.882,-1.309c0.386,-0.188 0.755,-0.416 1.081,-0.604c0.359,0.765 0.597,1.601 1.087,2.248c0.486,0.655 1.211,1.131 1.745,1.604c-1.336,0.738 -2.846,1.463 -4.242,2.356c-3.972,2.54 -6.862,6.057 -9.012,10.221c-1.641,3.177 -2.752,6.543 -3.567,10.013c-0.044,0.184 -0.091,0.372 -0.148,0.627c-0.215,-1.017 0.849,-6.661 2.03,-9.758c1.205,-3.127 2.795,-6.009 5.184,-8.566c-4.825,0.748 -9.372,1.838 -13.12,5.013c-0.49,0.412 -0.936,0.892 -1.359,1.376c-1.416,1.624 -2.852,1.671 -4.432,0.177c-1.171,-1.107 -2.389,-2.161 -3.601,-3.251c-1.61,1.248 -3.134,2.443 -4.681,3.617c-2.741,2.087 -5.499,4.158 -8.258,6.228c-0.144,0.114 -0.338,0.161 -0.51,0.238c-0.181,-0.252 -0.362,-0.51 -0.543,-0.765" style="fill:#fff;"/></g><g><path d="M497.346,469.634c-30.055,0 -54.504,24.452 -54.504,54.507c0,30.052 24.449,54.503 54.504,54.503c30.052,0 54.503,-24.451 54.503,-54.503c0,-30.055 -24.451,-54.507 -54.503,-54.507m-0,115.386c-33.569,-0 -60.879,-27.311 -60.879,-60.879c-0,-33.572 27.31,-60.882 60.879,-60.882c33.568,-0 60.879,27.31 60.879,60.882c-0,33.568 -27.311,60.879 -60.879,60.879" style="fill:#fff;fill-rule:nonzero;"/></g><g><path d="M513.009,502.582c1.383,-1.094 2.748,-2.191 4.141,-3.258c2.376,-1.809 4.758,-3.601 7.141,-5.393c0.288,-0.211 0.416,-0.439 0.402,-0.808c-0.064,-1.131 -0.074,-2.262 -0.124,-3.389c-0.017,-0.356 0.094,-0.494 0.45,-0.571c1.141,-0.265 2.258,-0.584 3.389,-0.876c0.147,-0.04 0.302,-0.06 0.54,-0.1c-0.168,0.845 -0.326,1.62 -0.497,2.493c0.967,-0.151 1.863,-0.292 2.866,-0.453c-0.51,1.876 -1,3.694 -1.517,5.624c-0.983,-0.185 -1.973,-0.259 -2.882,-0.584c-1.198,-0.433 -2.104,-0.195 -3.07,0.577c-2.95,2.345 -5.956,4.627 -8.943,6.926c-0.926,0.725 -0.926,0.718 -1.896,-0.188" style="fill:#fff;"/></g><g><path d="M463.244,540.405c0.181,0.255 0.362,0.51 0.543,0.769c0.859,1.234 1.715,2.466 2.577,3.704c0.202,0.292 0.417,0.58 0.665,0.933c-0.379,0.292 -0.748,0.587 -1.144,0.902c-0.98,-1.288 -1.913,-2.513 -2.839,-3.741c-1.272,-1.694 -2.52,-3.402 -3.822,-5.077c-0.352,-0.463 -0.292,-0.735 0.144,-1.037c0.161,-0.114 0.312,-0.248 0.544,-0.436c0.97,1.175 1.936,2.342 2.902,3.513c0.135,0.165 0.289,0.312 0.43,0.47" style="fill:#fff;"/></g><g><path d="M496.024,526.376c-1.517,1.248 -3.064,2.241 -5.07,2.174c-0.262,-0.01 -0.574,0 -0.796,-0.127c-1.396,-0.809 -2.953,-1.346 -4.043,-2.671c-2.295,-2.809 -4.664,-5.554 -7.006,-8.319c-0.225,-0.261 -0.316,-0.51 -0.282,-0.869c0.211,-2 1.057,-3.667 2.486,-5.067c1.238,-1.208 2.715,-2.097 4.198,-3.036c3.517,5.983 7,11.922 10.513,17.915" style="fill:#231f20;"/></g><g><path d="M500.453,509.434c-2.03,0.889 -4.003,1.741 -5.956,2.63c-0.265,0.118 -0.52,0.383 -0.634,0.645c-0.48,1.084 -0.353,2.181 0.067,3.248c0.406,1.03 0.866,2.047 1.309,3.067c0.795,1.845 2.352,2.637 4.211,2.943c2.134,0.352 4.214,0.043 6.264,-0.598c0.225,-0.067 0.44,-0.137 0.722,-0.221c0.245,0.587 0.496,1.154 0.782,1.839c-3.047,1.261 -6.067,2.51 -9.127,3.778c-0.141,-0.211 -0.275,-0.393 -0.396,-0.587c-3.181,-5.185 -6.359,-10.372 -9.523,-15.566c-0.413,-0.672 -0.826,-1.353 -1.131,-2.078c-0.52,-1.231 -0.225,-2.315 0.785,-3.197c0.061,-0.064 0.128,-0.128 0.202,-0.171c1.952,-1.138 3.909,-2.269 5.852,-3.41c0.422,-0.241 0.627,-0.107 0.909,0.259c1.674,2.221 3.382,4.416 5.084,6.624c0.181,0.238 0.355,0.486 0.58,0.795" style="fill:#231f20;"/></g><g><path d="M476.857,516.655c1.591,1.865 3.124,3.671 4.668,5.469c1.61,1.876 3.251,3.735 4.838,5.641c0.43,0.507 0.779,1.111 1.047,1.728c0.259,0.584 0.034,1.134 -0.493,1.513c-0.383,0.272 -0.802,0.484 -1.168,0.769c-0.399,0.325 -0.809,0.664 -1.124,1.063c-0.48,0.604 -0.892,0.826 -1.617,0.51c-0.621,-0.265 -1.225,-0.62 -1.735,-1.057c-1.993,-1.701 -3.939,-3.462 -5.923,-5.17c-0.711,-0.608 -1.479,-1.138 -2.231,-1.698c-0.916,-0.685 -1.121,-1.178 -0.795,-2.275c0.134,-0.473 0.322,-0.967 0.614,-1.359c1.268,-1.715 2.584,-3.396 3.919,-5.134" style="fill:#231f20;"/></g><g><path d="M510.57,506.105c-1.215,0.409 -2.443,0.809 -3.658,1.232c-1.516,0.536 -3.033,1.083 -4.543,1.65c-0.309,0.108 -0.48,0.088 -0.674,-0.177c-0.99,-1.319 -1.994,-2.631 -3.004,-3.94c-0.604,-0.778 -1.211,-1.56 -1.859,-2.302c-0.493,-0.557 -0.667,-1.144 -0.486,-1.879c0.312,-1.241 0.879,-2.187 2.235,-2.55c0.751,-0.198 1.456,-0.59 2.174,-0.923c0.802,-0.365 1.621,-0.684 2.523,-0.664c0.722,0.017 1.346,0.242 1.749,0.872c1.845,2.843 3.684,5.688 5.523,8.537c0.02,0.03 0.013,0.074 0.02,0.144" style="fill:#231f20;"/></g></g></g></g></g></g></g></g></svg>