<?xml version="1.0" encoding="UTF-8" standalone="no"?>
<!DOCTYPE svg PUBLIC "-//W3C//DTD SVG 1.1//EN" "http://www.w3.org/Graphics/SVG/1.1/DTD/svg11.dtd">
<svg width="100%" height="100%" viewBox="0 0 1080 880" version="1.1" xmlns="http://www.w3.org/2000/svg" xmlns:xlink="http://www.w3.org/1999/xlink" xml:space="preserve" xmlns:serif="http://www.serif.com/" style="fill-rule:evenodd;clip-rule:evenodd;stroke-linejoin:round;stroke-miterlimit:2;">
    <g transform="matrix(2.5031,0,0,2.5031,-10513.6,-81.3324)">
        <g transform="matrix(1,0,0,1,4441.33,383.421)">
            <path d="M0,-350.548C-96.646,-350.548 -175.272,-271.917 -175.272,-175.266C-175.272,-78.624 -96.646,0 0,0C96.641,0 175.264,-78.624 175.264,-175.266C175.264,-271.917 96.641,-350.548 0,-350.548M0,0.38C-23.713,0.38 -46.716,-4.264 -68.372,-13.423C-89.288,-22.27 -108.073,-34.935 -124.205,-51.066C-140.336,-67.197 -153.001,-85.981 -161.848,-106.897C-171.008,-128.551 -175.652,-151.554 -175.652,-175.266C-175.652,-198.98 -171.008,-221.986 -161.848,-243.642C-153.001,-264.56 -140.336,-283.346 -124.205,-299.478C-108.073,-315.611 -89.288,-328.277 -68.372,-337.124C-46.717,-346.284 -23.713,-350.928 0,-350.928C23.711,-350.928 46.712,-346.284 68.367,-337.124C89.282,-328.277 108.066,-315.611 124.197,-299.478C140.329,-283.346 152.994,-264.56 161.84,-243.642C171,-221.986 175.644,-198.98 175.644,-175.266C175.644,-151.554 171,-128.551 161.84,-106.897C152.994,-85.981 140.329,-67.197 124.197,-51.066C108.066,-34.935 89.282,-22.27 68.367,-13.423C46.712,-4.264 23.711,0.38 0,0.38" style="fill:rgb(167,85,160);fill-rule:nonzero;"/>
        </g>
        <g transform="matrix(1,0,0,1,4422.18,357.216)">
            <path d="M0,-298.139C-82.196,-298.139 -149.067,-231.264 -149.067,-149.063C-149.067,-66.869 -82.196,0 0,0C82.192,0 149.061,-66.869 149.061,-149.063C149.061,-231.264 82.192,-298.139 0,-298.139M0,0.38C-20.175,0.38 -39.747,-3.571 -58.172,-11.364C-75.968,-18.891 -91.951,-29.666 -105.675,-43.391C-119.4,-57.116 -130.176,-73.098 -137.703,-90.893C-145.497,-109.317 -149.448,-128.888 -149.448,-149.063C-149.448,-169.24 -145.497,-188.813 -137.703,-207.239C-130.176,-225.036 -119.4,-241.019 -105.676,-254.745C-91.951,-268.471 -75.968,-279.247 -58.172,-286.774C-39.747,-294.567 -20.176,-298.519 0,-298.519C20.173,-298.519 39.744,-294.567 58.167,-286.774C75.963,-279.247 91.945,-268.471 105.669,-254.745C119.394,-241.019 130.169,-225.036 137.696,-207.239C145.489,-188.813 149.44,-169.24 149.44,-149.063C149.44,-128.889 145.489,-109.317 137.696,-90.893C130.169,-73.098 119.394,-57.116 105.669,-43.391C91.945,-29.666 75.962,-18.891 58.167,-11.364C39.744,-3.571 20.173,0.38 0,0.38" style="fill:rgb(223,138,39);fill-rule:nonzero;"/>
        </g>
        <g transform="matrix(1,0,0,1,4406.98,329.853)">
            <path d="M0,-243.413C-67.108,-243.413 -121.705,-188.813 -121.705,-121.701C-121.705,-54.595 -67.108,0 0,0C67.105,0 121.699,-54.595 121.699,-121.701C121.699,-188.813 67.105,-243.413 0,-243.413M0,0.38C-32.61,0.38 -63.268,-12.319 -86.327,-35.377C-109.386,-58.435 -122.085,-89.092 -122.085,-121.701C-122.085,-154.314 -109.386,-184.974 -86.327,-208.034C-63.269,-231.094 -32.61,-243.793 0,-243.793C32.608,-243.793 63.264,-231.094 86.322,-208.034C109.38,-184.974 122.08,-154.313 122.08,-121.701C122.08,-89.093 109.38,-58.435 86.322,-35.377C63.264,-12.319 32.607,0.38 0,0.38" style="fill:rgb(160,32,33);fill-rule:nonzero;"/>
        </g>
        <g transform="matrix(1,0,0,1,4391.77,298.5)">
            <path d="M0,-180.707C-49.82,-180.707 -90.352,-140.173 -90.352,-90.349C-90.352,-40.531 -49.82,-0 0,-0C49.818,-0 90.348,-40.531 90.348,-90.349C90.348,-140.173 49.818,-180.707 0,-180.707M0,0.38C-24.235,0.38 -47.021,-9.058 -64.158,-26.194C-81.294,-43.331 -90.732,-66.115 -90.732,-90.349C-90.732,-114.587 -81.294,-137.373 -64.158,-154.511C-47.021,-171.649 -24.236,-181.087 0,-181.087C24.233,-181.087 47.017,-171.649 64.154,-154.511C81.291,-137.373 90.729,-114.586 90.729,-90.349C90.729,-66.115 81.291,-43.331 64.154,-26.194C47.017,-9.058 24.233,0.38 0,0.38" style="fill:rgb(48,179,74);fill-rule:nonzero;"/>
        </g>
        <g transform="matrix(1,0,0,1,4379.99,268.287)">
            <path d="M0,-120.28C-33.161,-120.28 -60.139,-93.3 -60.139,-60.137C-60.139,-26.978 -33.161,0 0,0C33.16,0 60.137,-26.978 60.137,-60.137C60.137,-93.3 33.16,-120.28 0,-120.28M0,0.38C-33.37,0.38 -60.519,-26.768 -60.519,-60.137C-60.519,-93.51 -33.37,-120.66 0,-120.66C33.369,-120.66 60.517,-93.51 60.517,-60.137C60.517,-26.768 33.369,0.38 0,0.38" style="fill:rgb(26,154,214);fill-rule:nonzero;"/>
        </g>
        <g transform="matrix(1,0,0,1,4372.39,238.833)">
            <path d="M0,-61.371C-16.919,-61.371 -30.684,-47.605 -30.684,-30.684C-30.684,-13.765 -16.919,0 0,0C16.919,0 30.684,-13.765 30.684,-30.684C30.684,-47.605 16.919,-61.371 0,-61.371M0,0.38C-17.129,0.38 -31.064,-13.556 -31.064,-30.684C-31.064,-47.815 -17.129,-61.751 0,-61.751C17.129,-61.751 31.064,-47.815 31.064,-30.684C31.064,-13.556 17.129,0.38 0,0.38" style="fill:rgb(63,58,60);fill-rule:nonzero;"/>
        </g>
        <g transform="matrix(1.10373,0,0,1.10373,-476.992,-27.3877)">
            <g transform="matrix(5.9797,-6.888,6.888,5.9797,4578.13,329.926)">
                <path d="M0.364,-0.493C0.361,-0.519 0.351,-0.541 0.335,-0.558C0.319,-0.575 0.298,-0.583 0.272,-0.583C0.246,-0.583 0.223,-0.574 0.205,-0.556C0.185,-0.537 0.176,-0.515 0.176,-0.489C0.176,-0.449 0.201,-0.417 0.25,-0.394L0.387,-0.331C0.436,-0.297 0.461,-0.246 0.461,-0.178C0.461,-0.125 0.442,-0.079 0.403,-0.041C0.364,-0.003 0.318,0.016 0.264,0.016C0.216,0.016 0.174,0 0.14,-0.03C0.104,-0.061 0.082,-0.101 0.073,-0.148L0.171,-0.175C0.175,-0.149 0.185,-0.127 0.2,-0.111C0.217,-0.093 0.239,-0.083 0.264,-0.083C0.29,-0.083 0.313,-0.093 0.332,-0.111C0.351,-0.13 0.361,-0.152 0.361,-0.178C0.361,-0.218 0.336,-0.249 0.287,-0.272C0.24,-0.293 0.203,-0.311 0.174,-0.326C0.145,-0.341 0.124,-0.352 0.112,-0.361C0.087,-0.378 0.075,-0.421 0.075,-0.489C0.075,-0.543 0.095,-0.589 0.133,-0.626C0.173,-0.664 0.219,-0.683 0.272,-0.683C0.321,-0.683 0.362,-0.667 0.396,-0.636C0.431,-0.605 0.453,-0.566 0.462,-0.518L0.364,-0.493Z" style="fill:white;fill-rule:nonzero;"/>
            </g>
            <g transform="matrix(5.7557,-7.0763,7.0763,5.7557,4581.31,326.293)">
                <path d="M0.633,-0.333C0.633,-0.402 0.609,-0.461 0.56,-0.51C0.51,-0.559 0.452,-0.583 0.383,-0.583C0.315,-0.583 0.256,-0.559 0.207,-0.51C0.158,-0.461 0.133,-0.402 0.133,-0.333C0.133,-0.265 0.158,-0.206 0.207,-0.157C0.256,-0.108 0.315,-0.083 0.383,-0.083C0.452,-0.083 0.51,-0.108 0.56,-0.157C0.609,-0.206 0.633,-0.265 0.633,-0.333ZM0.733,-0.333C0.733,-0.238 0.699,-0.156 0.63,-0.087C0.561,-0.019 0.479,0.016 0.383,0.016C0.288,0.016 0.205,-0.019 0.137,-0.087C0.068,-0.156 0.033,-0.238 0.033,-0.333C0.033,-0.429 0.068,-0.511 0.137,-0.58C0.206,-0.649 0.288,-0.683 0.383,-0.683C0.479,-0.683 0.561,-0.649 0.63,-0.58C0.699,-0.511 0.733,-0.429 0.733,-0.333Z" style="fill:white;fill-rule:nonzero;"/>
            </g>
            <g transform="matrix(5.4914,-7.2833,7.2833,5.4914,4585.71,320.873)">
                <path d="M0.598,-0.461C0.574,-0.498 0.543,-0.528 0.505,-0.55C0.467,-0.572 0.427,-0.583 0.383,-0.583C0.315,-0.583 0.256,-0.559 0.207,-0.51C0.158,-0.461 0.133,-0.402 0.133,-0.333C0.133,-0.265 0.158,-0.206 0.207,-0.157C0.256,-0.108 0.315,-0.083 0.383,-0.083C0.426,-0.083 0.467,-0.095 0.506,-0.118C0.543,-0.139 0.574,-0.168 0.598,-0.205L0.682,-0.15C0.649,-0.099 0.606,-0.059 0.552,-0.029C0.5,0.001 0.444,0.016 0.383,0.016C0.288,0.016 0.205,-0.019 0.137,-0.087C0.068,-0.156 0.033,-0.238 0.033,-0.333C0.033,-0.429 0.068,-0.511 0.137,-0.58C0.206,-0.649 0.288,-0.683 0.383,-0.683C0.443,-0.683 0.5,-0.668 0.554,-0.638C0.606,-0.607 0.649,-0.567 0.683,-0.515L0.598,-0.461Z" style="fill:white;fill-rule:nonzero;"/>
            </g>
            <g transform="matrix(5.3189,-7.4102,7.4102,5.3189,4589.55,315.749)">
                <rect x="0.075" y="-0.675" width="0.1" height="0.682" style="fill:white;fill-rule:nonzero;"/>
            </g>
            <g transform="matrix(5.1645,-7.5186,7.5186,5.1645,4590.83,313.989)">
                <path d="M0.3,-0.556L0.176,-0.217L0.423,-0.217L0.3,-0.556ZM0.505,0.007L0.459,-0.117L0.14,-0.117L0.094,0.007L-0.011,0.007L0.237,-0.675L0.363,-0.675L0.612,0.007L0.505,0.007Z" style="fill:white;fill-rule:nonzero;"/>
            </g>
            <g transform="matrix(4.9595,-7.6554,7.6554,4.9595,4593.88,309.547)">
                <path d="M0.075,0.007L0.075,-0.675L0.175,-0.675L0.175,-0.092L0.508,-0.092L0.508,0.007L0.075,0.007Z" style="fill:white;fill-rule:nonzero;"/>
            </g>
            <g transform="matrix(4.5943,-7.88,7.88,4.5943,4597.69,303.626)">
                <path d="M0.658,0.007L0.658,-0.427L0.468,0.007L0.365,0.007L0.175,-0.427L0.175,0.007L0.075,0.007L0.075,-0.675L0.176,-0.675L0.417,-0.125L0.658,-0.675L0.758,-0.675L0.758,0.007L0.658,0.007Z" style="fill:white;fill-rule:nonzero;"/>
            </g>
            <g transform="matrix(4.3132,-8.0373,8.0373,4.3132,4601.48,297.079)">
                <path d="M0.075,0.007L0.075,-0.675L0.508,-0.675L0.508,-0.575L0.175,-0.575L0.175,-0.392L0.425,-0.392L0.425,-0.292L0.175,-0.292L0.175,-0.092L0.508,-0.092L0.508,0.007L0.075,0.007Z" style="fill:white;fill-rule:nonzero;"/>
            </g>
            <g transform="matrix(4.0523,-8.1719,8.1719,4.0523,4603.99,292.429)">
                <path d="M0.575,-0.333C0.575,-0.4 0.551,-0.456 0.504,-0.504C0.456,-0.551 0.4,-0.575 0.333,-0.575L0.175,-0.575L0.175,-0.092L0.333,-0.092C0.4,-0.092 0.456,-0.116 0.504,-0.163C0.551,-0.211 0.575,-0.267 0.575,-0.333ZM0.675,-0.333C0.675,-0.24 0.641,-0.159 0.574,-0.092C0.507,-0.026 0.427,0.007 0.333,0.007L0.075,0.007L0.075,-0.675L0.333,-0.675C0.427,-0.675 0.507,-0.641 0.574,-0.574C0.641,-0.507 0.675,-0.427 0.675,-0.333Z" style="fill:white;fill-rule:nonzero;"/>
            </g>
            <g transform="matrix(3.8583,-8.2653,8.2653,3.8583,4606.8,286.704)">
                <rect x="0.075" y="-0.675" width="0.1" height="0.682" style="fill:white;fill-rule:nonzero;"/>
            </g>
            <g transform="matrix(3.6869,-8.3432,8.3432,3.6869,4607.73,284.759)">
                <path d="M0.3,-0.556L0.176,-0.217L0.423,-0.217L0.3,-0.556ZM0.505,0.007L0.459,-0.117L0.14,-0.117L0.094,0.007L-0.011,0.007L0.237,-0.675L0.363,-0.675L0.612,0.007L0.505,0.007Z" style="fill:white;fill-rule:nonzero;"/>
            </g>
            <g transform="matrix(3.2685,-8.5158,8.5158,3.2685,4610.91,277.464)">
                <path d="M0.658,0.007L0.658,-0.427L0.468,0.007L0.365,0.007L0.175,-0.427L0.175,0.007L0.075,0.007L0.075,-0.675L0.176,-0.675L0.417,-0.125L0.658,-0.675L0.758,-0.675L0.758,0.007L0.658,0.007Z" style="fill:white;fill-rule:nonzero;"/>
            </g>
            <g transform="matrix(2.9618,-8.6272,8.6272,2.9618,4613.61,270.384)">
                <path d="M0.3,-0.556L0.176,-0.217L0.423,-0.217L0.3,-0.556ZM0.505,0.007L0.459,-0.117L0.14,-0.117L0.094,0.007L-0.011,0.007L0.237,-0.675L0.363,-0.675L0.612,0.007L0.505,0.007Z" style="fill:white;fill-rule:nonzero;"/>
            </g>
            <g transform="matrix(2.6889,-8.7162,8.7162,2.6889,4615.38,265.242)">
                <path d="M0.533,-0.479C0.533,-0.505 0.524,-0.528 0.504,-0.547C0.486,-0.566 0.463,-0.575 0.438,-0.575L0.175,-0.575L0.175,-0.383L0.438,-0.383C0.464,-0.383 0.486,-0.393 0.505,-0.412C0.524,-0.431 0.533,-0.453 0.533,-0.479ZM0.523,0.007L0.356,-0.283L0.175,-0.283L0.175,0.007L0.075,0.007L0.075,-0.675L0.438,-0.675C0.491,-0.675 0.536,-0.655 0.575,-0.617C0.614,-0.578 0.633,-0.532 0.633,-0.479C0.633,-0.431 0.618,-0.389 0.586,-0.353C0.555,-0.316 0.516,-0.293 0.469,-0.286L0.639,0.007L0.523,0.007Z" style="fill:white;fill-rule:nonzero;"/>
            </g>
            <g transform="matrix(2.4152,-8.7959,8.7959,2.4152,4617.15,259.507)">
                <path d="M0.462,0.007L0.191,-0.263L0.175,-0.247L0.175,0.007L0.075,0.007L0.075,-0.675L0.175,-0.675L0.175,-0.388L0.462,-0.675L0.604,-0.675L0.262,-0.333L0.604,0.007L0.462,0.007Z" style="fill:white;fill-rule:nonzero;"/>
            </g>
            <g transform="matrix(2.1569,-8.8628,8.8628,2.1569,4618.59,254.243)">
                <path d="M0.075,0.007L0.075,-0.675L0.508,-0.675L0.508,-0.575L0.175,-0.575L0.175,-0.392L0.425,-0.392L0.425,-0.292L0.175,-0.292L0.175,-0.092L0.508,-0.092L0.508,0.007L0.075,0.007Z" style="fill:white;fill-rule:nonzero;"/>
            </g>
            <g transform="matrix(1.9121,-8.9188,8.9188,1.9121,4619.83,249.134)">
                <path d="M0.321,-0.575L0.321,0.007L0.221,0.007L0.221,-0.575L0.013,-0.575L0.013,-0.675L0.529,-0.675L0.529,-0.575L0.321,-0.575Z" style="fill:white;fill-rule:nonzero;"/>
            </g>
            <g transform="matrix(1.7444,-8.9531,8.9531,1.7444,4620.83,244.444)">
                <rect x="0.075" y="-0.675" width="0.1" height="0.682" style="fill:white;fill-rule:nonzero;"/>
            </g>
            <g transform="matrix(1.5457,-8.9896,8.9896,1.5457,4621.27,242.286)">
                <path d="M0.496,0.007L0.175,-0.485L0.175,0.007L0.075,0.007L0.075,-0.675L0.171,-0.675L0.492,-0.182L0.492,-0.675L0.592,-0.675L0.592,0.007L0.496,0.007Z" style="fill:white;fill-rule:nonzero;"/>
            </g>
            <g transform="matrix(1.3603,-9.0195,9.0195,1.3603,4622.24,236.461)">
                <path d="M0.598,-0.461C0.574,-0.498 0.543,-0.527 0.506,-0.549C0.467,-0.572 0.426,-0.583 0.383,-0.583C0.315,-0.583 0.256,-0.559 0.207,-0.51C0.158,-0.461 0.133,-0.402 0.133,-0.333C0.133,-0.265 0.158,-0.206 0.207,-0.157C0.256,-0.108 0.315,-0.083 0.383,-0.083C0.462,-0.083 0.527,-0.115 0.578,-0.178L0.578,-0.283L0.375,-0.283L0.375,-0.383L0.678,-0.383L0.678,0.007L0.578,0.007L0.578,-0.055C0.529,-0.008 0.464,0.016 0.383,0.016C0.288,0.016 0.205,-0.019 0.137,-0.087C0.068,-0.156 0.033,-0.238 0.033,-0.333C0.033,-0.429 0.068,-0.511 0.137,-0.58C0.206,-0.649 0.288,-0.683 0.383,-0.683C0.443,-0.683 0.5,-0.668 0.554,-0.638C0.606,-0.607 0.649,-0.567 0.683,-0.515L0.598,-0.461Z" style="fill:white;fill-rule:nonzero;"/>
            </g>
        </g>
        <g>
            <g transform="matrix(3.5984,8.3816,-8.3816,3.5984,4560.09,145.265)">
                <path d="M0.633,-0.333C0.633,-0.402 0.609,-0.461 0.56,-0.51C0.51,-0.559 0.452,-0.583 0.383,-0.583C0.315,-0.583 0.256,-0.559 0.207,-0.51C0.158,-0.461 0.133,-0.402 0.133,-0.333C0.133,-0.265 0.158,-0.206 0.207,-0.157C0.256,-0.108 0.315,-0.083 0.383,-0.083C0.452,-0.083 0.51,-0.108 0.56,-0.157C0.609,-0.206 0.633,-0.265 0.633,-0.333ZM0.733,-0.333C0.733,-0.238 0.699,-0.156 0.63,-0.087C0.561,-0.019 0.479,0.016 0.383,0.016C0.288,0.016 0.205,-0.019 0.137,-0.087C0.068,-0.156 0.033,-0.238 0.033,-0.333C0.033,-0.429 0.068,-0.511 0.137,-0.58C0.206,-0.649 0.288,-0.683 0.383,-0.683C0.479,-0.683 0.561,-0.649 0.63,-0.58C0.699,-0.511 0.733,-0.429 0.733,-0.333Z" style="fill:white;fill-rule:nonzero;"/>
            </g>
            <g transform="matrix(3.2338,8.5289,-8.5289,3.2338,4562.76,151.493)">
                <path d="M0.633,-0.263C0.633,-0.186 0.606,-0.12 0.551,-0.066C0.496,-0.012 0.431,0.016 0.354,0.016C0.278,0.016 0.212,-0.012 0.157,-0.066C0.103,-0.12 0.075,-0.186 0.075,-0.263L0.075,-0.675L0.175,-0.675L0.175,-0.263C0.175,-0.214 0.192,-0.171 0.227,-0.136C0.263,-0.101 0.305,-0.083 0.354,-0.083C0.403,-0.083 0.446,-0.101 0.48,-0.136C0.516,-0.171 0.533,-0.213 0.533,-0.263L0.533,-0.675L0.633,-0.675L0.633,-0.263Z" style="fill:white;fill-rule:nonzero;"/>
            </g>
            <g transform="matrix(2.9227,8.6404,-8.6404,2.9227,4564.96,157.318)">
                <path d="M0.321,-0.575L0.321,0.007L0.221,0.007L0.221,-0.575L0.013,-0.575L0.013,-0.675L0.529,-0.675L0.529,-0.575L0.321,-0.575Z" style="fill:white;fill-rule:nonzero;"/>
            </g>
            <g transform="matrix(2.6063,8.7411,-8.7411,2.6063,4566.49,161.784)">
                <path d="M0.575,-0.333C0.575,-0.4 0.551,-0.456 0.504,-0.504C0.456,-0.551 0.4,-0.575 0.333,-0.575L0.175,-0.575L0.175,-0.092L0.333,-0.092C0.4,-0.092 0.456,-0.116 0.504,-0.163C0.551,-0.211 0.575,-0.267 0.575,-0.333ZM0.675,-0.333C0.675,-0.24 0.641,-0.159 0.574,-0.092C0.507,-0.026 0.427,0.007 0.333,0.007L0.075,0.007L0.075,-0.675L0.333,-0.675C0.427,-0.675 0.507,-0.641 0.574,-0.574C0.641,-0.507 0.675,-0.427 0.675,-0.333Z" style="fill:white;fill-rule:nonzero;"/>
            </g>
            <g transform="matrix(2.2255,8.8457,-8.8457,2.2255,4568.28,167.77)">
                <path d="M0.633,-0.333C0.633,-0.402 0.609,-0.461 0.56,-0.51C0.51,-0.559 0.452,-0.583 0.383,-0.583C0.315,-0.583 0.256,-0.559 0.207,-0.51C0.158,-0.461 0.133,-0.402 0.133,-0.333C0.133,-0.265 0.158,-0.206 0.207,-0.157C0.256,-0.108 0.315,-0.083 0.383,-0.083C0.452,-0.083 0.51,-0.108 0.56,-0.157C0.609,-0.206 0.633,-0.265 0.633,-0.333ZM0.733,-0.333C0.733,-0.238 0.699,-0.156 0.63,-0.087C0.561,-0.019 0.479,0.016 0.383,0.016C0.288,0.016 0.205,-0.019 0.137,-0.087C0.068,-0.156 0.033,-0.238 0.033,-0.333C0.033,-0.429 0.068,-0.511 0.137,-0.58C0.206,-0.649 0.288,-0.683 0.383,-0.683C0.479,-0.683 0.561,-0.649 0.63,-0.58C0.699,-0.511 0.733,-0.429 0.733,-0.333Z" style="fill:white;fill-rule:nonzero;"/>
            </g>
            <g transform="matrix(1.8246,8.937,-8.937,1.8246,4569.94,174.343)">
                <path d="M0.633,-0.333C0.633,-0.402 0.609,-0.461 0.56,-0.51C0.51,-0.559 0.452,-0.583 0.383,-0.583C0.315,-0.583 0.256,-0.559 0.207,-0.51C0.158,-0.461 0.133,-0.402 0.133,-0.333C0.133,-0.265 0.158,-0.206 0.207,-0.157C0.256,-0.108 0.315,-0.083 0.383,-0.083C0.452,-0.083 0.51,-0.108 0.56,-0.157C0.609,-0.206 0.633,-0.265 0.633,-0.333ZM0.733,-0.333C0.733,-0.238 0.699,-0.156 0.63,-0.087C0.561,-0.019 0.479,0.016 0.383,0.016C0.288,0.016 0.205,-0.019 0.137,-0.087C0.068,-0.156 0.033,-0.238 0.033,-0.333C0.033,-0.429 0.068,-0.511 0.137,-0.58C0.206,-0.649 0.288,-0.683 0.383,-0.683C0.479,-0.683 0.561,-0.649 0.63,-0.58C0.699,-0.511 0.733,-0.429 0.733,-0.333Z" style="fill:white;fill-rule:nonzero;"/>
            </g>
            <g transform="matrix(1.4479,9.0057,-9.0057,1.4479,4571.29,180.979)">
                <path d="M0.533,-0.479C0.533,-0.505 0.524,-0.528 0.504,-0.547C0.486,-0.566 0.463,-0.575 0.438,-0.575L0.175,-0.575L0.175,-0.383L0.438,-0.383C0.464,-0.383 0.486,-0.393 0.505,-0.412C0.524,-0.431 0.533,-0.453 0.533,-0.479ZM0.523,0.007L0.356,-0.283L0.175,-0.283L0.175,0.007L0.075,0.007L0.075,-0.675L0.438,-0.675C0.491,-0.675 0.536,-0.655 0.575,-0.617C0.614,-0.578 0.633,-0.532 0.633,-0.479C0.633,-0.431 0.618,-0.389 0.586,-0.353C0.555,-0.316 0.516,-0.293 0.469,-0.286L0.639,0.007L0.523,0.007Z" style="fill:white;fill-rule:nonzero;"/>
            </g>
        </g>
        <g transform="matrix(1.11164,0,0,1.11164,-503.918,-26.8866)">
            <g transform="matrix(4.3816,-8,8,4.3816,4519.06,273.131)">
                <path d="M0.517,-0.479C0.517,-0.505 0.507,-0.528 0.488,-0.547C0.469,-0.566 0.447,-0.575 0.421,-0.575L0.175,-0.575L0.175,-0.383L0.421,-0.383C0.447,-0.383 0.469,-0.393 0.488,-0.412C0.507,-0.431 0.517,-0.453 0.517,-0.479ZM0.533,-0.188C0.533,-0.214 0.524,-0.236 0.505,-0.255C0.486,-0.274 0.464,-0.283 0.438,-0.283L0.175,-0.283L0.175,-0.092L0.438,-0.092C0.463,-0.092 0.486,-0.101 0.504,-0.12C0.524,-0.139 0.533,-0.162 0.533,-0.188ZM0.633,-0.188C0.633,-0.134 0.614,-0.089 0.575,-0.05C0.536,-0.012 0.491,0.007 0.438,0.007L0.075,0.007L0.075,-0.675L0.421,-0.675C0.474,-0.675 0.52,-0.655 0.559,-0.617C0.597,-0.578 0.617,-0.532 0.617,-0.479C0.617,-0.42 0.593,-0.373 0.546,-0.338C0.604,-0.305 0.633,-0.254 0.633,-0.188Z" style="fill:white;fill-rule:nonzero;"/>
            </g>
            <g transform="matrix(3.991,-8.2019,8.2019,3.991,4522.18,267.433)">
                <path d="M0.533,-0.479C0.533,-0.505 0.524,-0.528 0.504,-0.547C0.486,-0.566 0.463,-0.575 0.438,-0.575L0.175,-0.575L0.175,-0.383L0.438,-0.383C0.464,-0.383 0.486,-0.393 0.505,-0.412C0.524,-0.431 0.533,-0.453 0.533,-0.479ZM0.523,0.007L0.356,-0.283L0.175,-0.283L0.175,0.007L0.075,0.007L0.075,-0.675L0.438,-0.675C0.491,-0.675 0.536,-0.655 0.575,-0.617C0.614,-0.578 0.633,-0.532 0.633,-0.479C0.633,-0.431 0.618,-0.389 0.586,-0.353C0.555,-0.316 0.516,-0.293 0.469,-0.286L0.639,0.007L0.523,0.007Z" style="fill:white;fill-rule:nonzero;"/>
            </g>
            <g transform="matrix(3.62,-8.3723,8.3723,3.62,4524.84,261.93)">
                <path d="M0.3,-0.556L0.176,-0.217L0.423,-0.217L0.3,-0.556ZM0.505,0.007L0.459,-0.117L0.14,-0.117L0.094,0.007L-0.011,0.007L0.237,-0.675L0.363,-0.675L0.612,0.007L0.505,0.007Z" style="fill:white;fill-rule:nonzero;"/>
            </g>
            <g transform="matrix(3.2414,-8.526,8.526,3.2414,4527.03,256.891)">
                <path d="M0.496,0.007L0.175,-0.485L0.175,0.007L0.075,0.007L0.075,-0.675L0.171,-0.675L0.492,-0.182L0.492,-0.675L0.592,-0.675L0.592,0.007L0.496,0.007Z" style="fill:white;fill-rule:nonzero;"/>
            </g>
            <g transform="matrix(2.8205,-8.6743,8.6743,2.8205,4529.21,251.175)">
                <path d="M0.575,-0.333C0.575,-0.4 0.551,-0.456 0.504,-0.504C0.456,-0.551 0.4,-0.575 0.333,-0.575L0.175,-0.575L0.175,-0.092L0.333,-0.092C0.4,-0.092 0.456,-0.116 0.504,-0.163C0.551,-0.211 0.575,-0.267 0.575,-0.333ZM0.675,-0.333C0.675,-0.24 0.641,-0.159 0.574,-0.092C0.507,-0.026 0.427,0.007 0.333,0.007L0.075,0.007L0.075,-0.675L0.333,-0.675C0.427,-0.675 0.507,-0.641 0.574,-0.574C0.641,-0.507 0.675,-0.427 0.675,-0.333Z" style="fill:white;fill-rule:nonzero;"/>
            </g>
            <g transform="matrix(2.5247,-8.765,8.765,2.5247,4531.17,245.025)">
                <rect x="0.075" y="-0.675" width="0.1" height="0.682" style="fill:white;fill-rule:nonzero;"/>
            </g>
            <g transform="matrix(2.2426,-8.8414,8.8414,2.2426,4531.81,242.898)">
                <path d="M0.496,0.007L0.175,-0.485L0.175,0.007L0.075,0.007L0.075,-0.675L0.171,-0.675L0.492,-0.182L0.492,-0.675L0.592,-0.675L0.592,0.007L0.496,0.007Z" style="fill:white;fill-rule:nonzero;"/>
            </g>
            <g transform="matrix(1.7904,-8.9439,8.9439,1.7904,4533.33,236.95)">
                <path d="M0.598,-0.461C0.574,-0.498 0.543,-0.527 0.506,-0.549C0.467,-0.572 0.426,-0.583 0.383,-0.583C0.315,-0.583 0.256,-0.559 0.207,-0.51C0.158,-0.461 0.133,-0.402 0.133,-0.333C0.133,-0.265 0.158,-0.206 0.207,-0.157C0.256,-0.108 0.315,-0.083 0.383,-0.083C0.462,-0.083 0.527,-0.115 0.578,-0.178L0.578,-0.283L0.375,-0.283L0.375,-0.383L0.678,-0.383L0.678,0.007L0.578,0.007L0.578,-0.055C0.529,-0.008 0.464,0.016 0.383,0.016C0.288,0.016 0.205,-0.019 0.137,-0.087C0.068,-0.156 0.033,-0.238 0.033,-0.333C0.033,-0.429 0.068,-0.511 0.137,-0.58C0.206,-0.649 0.288,-0.683 0.383,-0.683C0.443,-0.683 0.5,-0.668 0.554,-0.638C0.606,-0.607 0.649,-0.567 0.683,-0.515L0.598,-0.461Z" style="fill:white;fill-rule:nonzero;"/>
            </g>
        </g>
        <g>
            <g transform="matrix(7.1643,5.6454,-5.6454,7.1643,4446.81,133.384)">
                <path d="M0.533,-0.479C0.533,-0.505 0.524,-0.528 0.504,-0.547C0.486,-0.566 0.463,-0.575 0.438,-0.575L0.175,-0.575L0.175,-0.383L0.438,-0.383C0.464,-0.383 0.486,-0.393 0.505,-0.412C0.524,-0.431 0.533,-0.453 0.533,-0.479ZM0.523,0.007L0.356,-0.283L0.175,-0.283L0.175,0.007L0.075,0.007L0.075,-0.675L0.438,-0.675C0.491,-0.675 0.536,-0.655 0.575,-0.617C0.614,-0.578 0.633,-0.532 0.633,-0.479C0.633,-0.431 0.618,-0.389 0.586,-0.353C0.555,-0.316 0.516,-0.293 0.469,-0.286L0.639,0.007L0.523,0.007Z" style="fill:white;fill-rule:nonzero;"/>
            </g>
            <g transform="matrix(6.8148,6.0628,-6.0628,6.8148,4451.42,137.022)">
                <path d="M0.3,-0.556L0.176,-0.217L0.423,-0.217L0.3,-0.556ZM0.505,0.007L0.459,-0.117L0.14,-0.117L0.094,0.007L-0.011,0.007L0.237,-0.675L0.363,-0.675L0.612,0.007L0.505,0.007Z" style="fill:white;fill-rule:nonzero;"/>
            </g>
            <g transform="matrix(6.4279,6.4715,-6.4715,6.4279,4455.37,140.5)">
                <path d="M0.575,-0.333C0.575,-0.4 0.551,-0.456 0.504,-0.504C0.456,-0.551 0.4,-0.575 0.333,-0.575L0.175,-0.575L0.175,-0.092L0.333,-0.092C0.4,-0.092 0.456,-0.116 0.504,-0.163C0.551,-0.211 0.575,-0.267 0.575,-0.333ZM0.675,-0.333C0.675,-0.24 0.641,-0.159 0.574,-0.092C0.507,-0.026 0.427,0.007 0.333,0.007L0.075,0.007L0.075,-0.675L0.333,-0.675C0.427,-0.675 0.507,-0.641 0.574,-0.574C0.641,-0.507 0.675,-0.427 0.675,-0.333Z" style="fill:white;fill-rule:nonzero;"/>
            </g>
            <g transform="matrix(6.1326,6.752,-6.752,6.1326,4459.74,144.959)">
                <rect x="0.075" y="-0.675" width="0.1" height="0.682" style="fill:white;fill-rule:nonzero;"/>
            </g>
            <g transform="matrix(5.8053,7.0354,-7.0354,5.8053,4461.16,146.438)">
                <path d="M0.633,-0.333C0.633,-0.402 0.609,-0.461 0.56,-0.51C0.51,-0.559 0.452,-0.583 0.383,-0.583C0.315,-0.583 0.256,-0.559 0.207,-0.51C0.158,-0.461 0.133,-0.402 0.133,-0.333C0.133,-0.265 0.158,-0.206 0.207,-0.157C0.256,-0.108 0.315,-0.083 0.383,-0.083C0.452,-0.083 0.51,-0.108 0.56,-0.157C0.609,-0.206 0.633,-0.265 0.633,-0.333ZM0.733,-0.333C0.733,-0.238 0.699,-0.156 0.63,-0.087C0.561,-0.019 0.479,0.016 0.383,0.016C0.288,0.016 0.205,-0.019 0.137,-0.087C0.068,-0.156 0.033,-0.238 0.033,-0.333C0.033,-0.429 0.068,-0.511 0.137,-0.58C0.206,-0.649 0.288,-0.683 0.383,-0.683C0.479,-0.683 0.561,-0.649 0.63,-0.58C0.699,-0.511 0.733,-0.429 0.733,-0.333Z" style="fill:white;fill-rule:nonzero;"/>
            </g>
            <g transform="matrix(5.1388,7.536,-7.536,5.1388,4466.93,153.635)">
                <path d="M0.3,-0.556L0.176,-0.217L0.423,-0.217L0.3,-0.556ZM0.505,0.007L0.459,-0.117L0.14,-0.117L0.094,0.007L-0.011,0.007L0.237,-0.675L0.363,-0.675L0.612,0.007L0.505,0.007Z" style="fill:white;fill-rule:nonzero;"/>
            </g>
            <g transform="matrix(4.6591,7.8416,-7.8416,4.6591,4469.91,157.971)">
                <path d="M0.575,-0.333C0.575,-0.4 0.551,-0.456 0.504,-0.504C0.456,-0.551 0.4,-0.575 0.333,-0.575L0.175,-0.575L0.175,-0.092L0.333,-0.092C0.4,-0.092 0.456,-0.116 0.504,-0.163C0.551,-0.211 0.575,-0.267 0.575,-0.333ZM0.675,-0.333C0.675,-0.24 0.641,-0.159 0.574,-0.092C0.507,-0.026 0.427,0.007 0.333,0.007L0.075,0.007L0.075,-0.675L0.333,-0.675C0.427,-0.675 0.507,-0.641 0.574,-0.574C0.641,-0.507 0.675,-0.427 0.675,-0.333Z" style="fill:white;fill-rule:nonzero;"/>
            </g>
            <g transform="matrix(4.1607,8.1171,-8.1171,4.1607,4473.09,163.347)">
                <path d="M0.363,0.007L0.237,0.007L-0.011,-0.675L0.094,-0.675L0.3,-0.111L0.505,-0.675L0.612,-0.675L0.363,0.007Z" style="fill:white;fill-rule:nonzero;"/>
            </g>
            <g transform="matrix(3.696,8.339,-8.339,3.696,4475.5,168.042)">
                <path d="M0.075,0.007L0.075,-0.675L0.508,-0.675L0.508,-0.575L0.175,-0.575L0.175,-0.392L0.425,-0.392L0.425,-0.292L0.175,-0.292L0.175,-0.092L0.508,-0.092L0.508,0.007L0.075,0.007Z" style="fill:white;fill-rule:nonzero;"/>
            </g>
            <g transform="matrix(3.1932,8.5441,-8.5441,3.1932,4477.59,172.711)">
                <path d="M0.533,-0.479C0.533,-0.505 0.524,-0.528 0.504,-0.547C0.486,-0.566 0.463,-0.575 0.438,-0.575L0.175,-0.575L0.175,-0.383L0.438,-0.383C0.464,-0.383 0.486,-0.393 0.505,-0.412C0.524,-0.431 0.533,-0.453 0.533,-0.479ZM0.523,0.007L0.356,-0.283L0.175,-0.283L0.175,0.007L0.075,0.007L0.075,-0.675L0.438,-0.675C0.491,-0.675 0.536,-0.655 0.575,-0.617C0.614,-0.578 0.633,-0.532 0.633,-0.479C0.633,-0.431 0.618,-0.389 0.586,-0.353C0.555,-0.316 0.516,-0.293 0.469,-0.286L0.639,0.007L0.523,0.007Z" style="fill:white;fill-rule:nonzero;"/>
            </g>
            <g transform="matrix(2.6985,8.713,-8.713,2.6985,4479.64,178.217)">
                <path d="M0.321,-0.575L0.321,0.007L0.221,0.007L0.221,-0.575L0.013,-0.575L0.013,-0.675L0.529,-0.675L0.529,-0.575L0.321,-0.575Z" style="fill:white;fill-rule:nonzero;"/>
            </g>
            <g transform="matrix(2.2556,8.838,-8.838,2.2556,4481.04,182.724)">
                <path d="M0.364,-0.493C0.361,-0.519 0.351,-0.541 0.335,-0.558C0.319,-0.575 0.298,-0.583 0.272,-0.583C0.246,-0.583 0.223,-0.574 0.205,-0.556C0.185,-0.537 0.176,-0.515 0.176,-0.489C0.176,-0.449 0.201,-0.417 0.25,-0.394L0.387,-0.331C0.436,-0.297 0.461,-0.246 0.461,-0.178C0.461,-0.125 0.442,-0.079 0.403,-0.041C0.364,-0.003 0.318,0.016 0.264,0.016C0.216,0.016 0.174,0 0.14,-0.03C0.104,-0.061 0.082,-0.101 0.073,-0.148L0.171,-0.175C0.175,-0.149 0.185,-0.127 0.2,-0.111C0.217,-0.093 0.239,-0.083 0.264,-0.083C0.29,-0.083 0.313,-0.093 0.332,-0.111C0.351,-0.13 0.361,-0.152 0.361,-0.178C0.361,-0.218 0.336,-0.249 0.287,-0.272C0.24,-0.293 0.203,-0.311 0.174,-0.326C0.145,-0.341 0.124,-0.352 0.112,-0.361C0.087,-0.378 0.075,-0.421 0.075,-0.489C0.075,-0.543 0.095,-0.589 0.133,-0.626C0.173,-0.664 0.219,-0.683 0.272,-0.683C0.321,-0.683 0.362,-0.667 0.396,-0.636C0.431,-0.605 0.453,-0.566 0.462,-0.518L0.364,-0.493Z" style="fill:white;fill-rule:nonzero;"/>
            </g>
        </g>
        <g transform="matrix(1.02775,-0.0726646,0.0726646,1.02775,-136.671,312.452)">
            <g transform="matrix(9.1183,-0.2404,0.2404,9.1183,4378.53,276.2)">
                <path d="M0.575,-0.333C0.575,-0.4 0.551,-0.456 0.504,-0.504C0.456,-0.551 0.4,-0.575 0.333,-0.575L0.175,-0.575L0.175,-0.092L0.333,-0.092C0.4,-0.092 0.456,-0.116 0.504,-0.163C0.551,-0.211 0.575,-0.267 0.575,-0.333ZM0.675,-0.333C0.675,-0.24 0.641,-0.159 0.574,-0.092C0.507,-0.026 0.427,0.007 0.333,0.007L0.075,0.007L0.075,-0.675L0.333,-0.675C0.427,-0.675 0.507,-0.641 0.574,-0.574C0.641,-0.507 0.675,-0.427 0.675,-0.333Z" style="fill:white;fill-rule:nonzero;"/>
            </g>
            <g transform="matrix(9.082,-0.8471,0.8471,9.082,4385.13,275.951)">
                <rect x="0.075" y="-0.675" width="0.1" height="0.682" style="fill:white;fill-rule:nonzero;"/>
            </g>
            <g transform="matrix(9.0006,-1.4799,1.4799,9.0006,4387.58,275.798)">
                <path d="M0.598,-0.461C0.574,-0.498 0.543,-0.527 0.506,-0.549C0.467,-0.572 0.426,-0.583 0.383,-0.583C0.315,-0.583 0.256,-0.559 0.207,-0.51C0.158,-0.461 0.133,-0.402 0.133,-0.333C0.133,-0.265 0.158,-0.206 0.207,-0.157C0.256,-0.108 0.315,-0.083 0.383,-0.083C0.462,-0.083 0.527,-0.115 0.578,-0.178L0.578,-0.283L0.375,-0.283L0.375,-0.383L0.678,-0.383L0.678,0.007L0.578,0.007L0.578,-0.055C0.529,-0.008 0.464,0.016 0.383,0.016C0.288,0.016 0.205,-0.019 0.137,-0.087C0.068,-0.156 0.033,-0.238 0.033,-0.333C0.033,-0.429 0.068,-0.511 0.137,-0.58C0.206,-0.649 0.288,-0.683 0.383,-0.683C0.443,-0.683 0.5,-0.668 0.554,-0.638C0.606,-0.607 0.649,-0.567 0.683,-0.515L0.598,-0.461Z" style="fill:white;fill-rule:nonzero;"/>
            </g>
            <g transform="matrix(8.8753,-2.1048,2.1048,8.8753,4394.53,274.567)">
                <rect x="0.075" y="-0.675" width="0.1" height="0.682" style="fill:white;fill-rule:nonzero;"/>
            </g>
            <g transform="matrix(8.7491,-2.5797,2.5797,8.7491,4396.82,274.059)">
                <path d="M0.321,-0.575L0.321,0.007L0.221,0.007L0.221,-0.575L0.013,-0.575L0.013,-0.675L0.529,-0.675L0.529,-0.575L0.321,-0.575Z" style="fill:white;fill-rule:nonzero;"/>
            </g>
            <g transform="matrix(8.5167,-3.2659,3.2659,8.5167,4401.77,272.601)">
                <path d="M0.3,-0.556L0.176,-0.217L0.423,-0.217L0.3,-0.556ZM0.505,0.007L0.459,-0.117L0.14,-0.117L0.094,0.007L-0.011,0.007L0.237,-0.675L0.363,-0.675L0.612,0.007L0.505,0.007Z" style="fill:white;fill-rule:nonzero;"/>
            </g>
            <g transform="matrix(8.2426,-3.9064,3.9064,8.2426,4407.06,270.544)">
                <path d="M0.075,0.007L0.075,-0.675L0.175,-0.675L0.175,-0.092L0.508,-0.092L0.508,0.007L0.075,0.007Z" style="fill:white;fill-rule:nonzero;"/>
            </g>
            <g transform="matrix(7.7398,-4.8266,4.8266,7.7398,4413.69,267.252)">
                <path d="M0.3,-0.556L0.176,-0.217L0.423,-0.217L0.3,-0.556ZM0.505,0.007L0.459,-0.117L0.14,-0.117L0.094,0.007L-0.011,0.007L0.237,-0.675L0.363,-0.675L0.612,0.007L0.505,0.007Z" style="fill:white;fill-rule:nonzero;"/>
            </g>
            <g transform="matrix(7.2797,-5.4961,5.4961,7.2797,4418.58,264.203)">
                <path d="M0.496,0.007L0.175,-0.485L0.175,0.007L0.075,0.007L0.075,-0.675L0.171,-0.675L0.492,-0.182L0.492,-0.675L0.592,-0.675L0.592,0.007L0.496,0.007Z" style="fill:white;fill-rule:nonzero;"/>
            </g>
            <g transform="matrix(6.9157,-5.9476,5.9476,6.9157,4423.5,260.408)">
                <rect x="0.075" y="-0.675" width="0.1" height="0.682" style="fill:white;fill-rule:nonzero;"/>
            </g>
            <g transform="matrix(6.4449,-6.4547,6.4547,6.4449,4425.44,258.86)">
                <path d="M0.658,0.007L0.658,-0.427L0.468,0.007L0.365,0.007L0.175,-0.427L0.175,0.007L0.075,0.007L0.075,-0.675L0.176,-0.675L0.417,-0.125L0.658,-0.675L0.758,-0.675L0.758,0.007L0.658,0.007Z" style="fill:white;fill-rule:nonzero;"/>
            </g>
            <g transform="matrix(5.756,-7.076,7.076,5.756,4431,253.194)">
                <path d="M0.3,-0.556L0.176,-0.217L0.423,-0.217L0.3,-0.556ZM0.505,0.007L0.459,-0.117L0.14,-0.117L0.094,0.007L-0.011,0.007L0.237,-0.675L0.363,-0.675L0.612,0.007L0.505,0.007Z" style="fill:white;fill-rule:nonzero;"/>
            </g>
            <g transform="matrix(5.1678,-7.5163,7.5163,5.1678,4434.59,248.75)">
                <path d="M0.321,-0.575L0.321,0.007L0.221,0.007L0.221,-0.575L0.013,-0.575L0.013,-0.675L0.529,-0.675L0.529,-0.575L0.321,-0.575Z" style="fill:white;fill-rule:nonzero;"/>
            </g>
            <g transform="matrix(4.7509,-7.7865,7.7865,4.7509,4437.4,244.593)">
                <rect x="0.075" y="-0.675" width="0.1" height="0.682" style="fill:white;fill-rule:nonzero;"/>
            </g>
            <g transform="matrix(4.1873,-8.1036,8.1036,4.1873,4438.75,242.523)">
                <path d="M0.633,-0.333C0.633,-0.402 0.609,-0.461 0.56,-0.51C0.51,-0.559 0.452,-0.583 0.383,-0.583C0.315,-0.583 0.256,-0.559 0.207,-0.51C0.158,-0.461 0.133,-0.402 0.133,-0.333C0.133,-0.265 0.158,-0.206 0.207,-0.157C0.256,-0.108 0.315,-0.083 0.383,-0.083C0.452,-0.083 0.51,-0.108 0.56,-0.157C0.609,-0.206 0.633,-0.265 0.633,-0.333ZM0.733,-0.333C0.733,-0.238 0.699,-0.156 0.63,-0.087C0.561,-0.019 0.479,0.016 0.383,0.016C0.288,0.016 0.205,-0.019 0.137,-0.087C0.068,-0.156 0.033,-0.238 0.033,-0.333C0.033,-0.429 0.068,-0.511 0.137,-0.58C0.206,-0.649 0.288,-0.683 0.383,-0.683C0.479,-0.683 0.561,-0.649 0.63,-0.58C0.699,-0.511 0.733,-0.429 0.733,-0.333Z" style="fill:white;fill-rule:nonzero;"/>
            </g>
            <g transform="matrix(3.3102,-8.4996,8.4996,3.3102,4442.11,235.969)">
                <path d="M0.496,0.007L0.175,-0.485L0.175,0.007L0.075,0.007L0.075,-0.675L0.171,-0.675L0.492,-0.182L0.492,-0.675L0.592,-0.675L0.592,0.007L0.496,0.007Z" style="fill:white;fill-rule:nonzero;"/>
            </g>
        </g>
        <g transform="matrix(1,0,0,1,3972.67,0)">
            <g transform="matrix(1,0,0,1,156.691,-98.6505)">
                <g transform="matrix(65.9292,0,0,65.9292,71.562,224.695)">
                    <path d="M0.638,0.007L0.512,0.007L0.438,-0.196L0.363,0.007L0.237,0.007L-0.011,-0.675L0.094,-0.675L0.3,-0.111L0.384,-0.342L0.263,-0.675L0.369,-0.675L0.438,-0.488L0.505,-0.675L0.612,-0.675L0.491,-0.342L0.575,-0.111L0.78,-0.675L0.887,-0.675L0.638,0.007Z" style="fill:white;fill-rule:nonzero;"/>
                </g>
                <g transform="matrix(65.9292,0,0,65.9292,127.602,224.695)">
                    <path d="M0.425,0.007L0.425,-0.292C0.425,-0.325 0.412,-0.355 0.388,-0.379C0.363,-0.404 0.334,-0.417 0.3,-0.417C0.266,-0.417 0.237,-0.404 0.212,-0.379C0.187,-0.355 0.175,-0.325 0.175,-0.292L0.175,0.007L0.075,0.007L0.075,-0.675L0.175,-0.675L0.175,-0.46C0.215,-0.498 0.263,-0.517 0.317,-0.517C0.376,-0.517 0.426,-0.493 0.467,-0.447C0.506,-0.404 0.525,-0.352 0.525,-0.292L0.525,0.007L0.425,0.007Z" style="fill:white;fill-rule:nonzero;"/>
                </g>
                <g transform="matrix(65.9292,0,0,65.9292,165.518,224.695)">
                    <path d="M0.467,-0.25C0.467,-0.295 0.45,-0.334 0.417,-0.367C0.385,-0.4 0.345,-0.417 0.3,-0.417C0.254,-0.417 0.215,-0.4 0.182,-0.367C0.15,-0.335 0.133,-0.296 0.133,-0.25C0.133,-0.204 0.15,-0.165 0.182,-0.132C0.215,-0.1 0.254,-0.083 0.3,-0.083C0.346,-0.083 0.385,-0.1 0.417,-0.132C0.45,-0.165 0.467,-0.204 0.467,-0.25ZM0.467,0.007L0.467,-0.054C0.417,-0.008 0.359,0.016 0.292,0.016C0.22,0.016 0.159,-0.011 0.108,-0.063C0.058,-0.115 0.033,-0.177 0.033,-0.25C0.033,-0.323 0.059,-0.386 0.111,-0.438C0.164,-0.49 0.227,-0.517 0.3,-0.517C0.373,-0.517 0.436,-0.49 0.488,-0.438C0.541,-0.386 0.567,-0.323 0.567,-0.25L0.567,0.007L0.467,0.007Z" style="fill:white;fill-rule:nonzero;"/>
                </g>
                <g transform="matrix(65.9292,0,0,65.9292,204.785,224.695)">
                    <path d="M0.196,-0.408L0.196,0.007L0.096,0.007L0.096,-0.408L0.013,-0.408L0.013,-0.508L0.096,-0.508L0.096,-0.675L0.196,-0.675L0.196,-0.508L0.279,-0.508L0.279,-0.408L0.196,-0.408Z" style="fill:white;fill-rule:nonzero;"/>
                </g>
            </g>
            <g transform="matrix(1,0,0,1,57.5271,-52.6775)">
                <g transform="matrix(65.9292,0,0,65.9292,239.926,224.695)">
                    <path d="M0.533,0.007L0.401,0.007L0.354,-0.12L0.308,0.007L0.176,0.007L-0.011,-0.508L0.094,-0.508L0.242,-0.104L0.301,-0.267L0.213,-0.508L0.319,-0.508L0.354,-0.413L0.389,-0.508L0.495,-0.508L0.408,-0.267L0.467,-0.104L0.614,-0.508L0.72,-0.508L0.533,0.007Z" style="fill:white;fill-rule:nonzero;"/>
                </g>
                <g transform="matrix(65.9292,0,0,65.9292,284.988,224.695)">
                    <path d="M0.406,-0.378C0.374,-0.404 0.338,-0.417 0.299,-0.417C0.253,-0.417 0.214,-0.4 0.182,-0.367C0.149,-0.334 0.133,-0.295 0.133,-0.249C0.133,-0.236 0.136,-0.222 0.14,-0.206L0.406,-0.378ZM0.567,-0.257C0.567,-0.182 0.541,-0.117 0.49,-0.064C0.439,-0.011 0.376,0.016 0.301,0.016C0.227,0.016 0.163,-0.01 0.111,-0.061C0.059,-0.112 0.033,-0.175 0.033,-0.249C0.033,-0.323 0.059,-0.386 0.111,-0.438C0.163,-0.49 0.225,-0.517 0.299,-0.517C0.353,-0.517 0.403,-0.502 0.447,-0.472C0.492,-0.442 0.525,-0.402 0.547,-0.351L0.194,-0.122C0.226,-0.096 0.261,-0.083 0.301,-0.083C0.348,-0.083 0.388,-0.1 0.418,-0.134C0.45,-0.168 0.465,-0.209 0.466,-0.257L0.567,-0.257Z" style="fill:white;fill-rule:nonzero;"/>
                </g>
            </g>
            <g>
                <g transform="matrix(65.9292,0,0,65.9292,340.475,224.695)">
                    <path d="M0.467,-0.25C0.467,-0.295 0.45,-0.334 0.417,-0.367C0.385,-0.4 0.345,-0.417 0.3,-0.417C0.254,-0.417 0.215,-0.4 0.182,-0.367C0.15,-0.335 0.133,-0.296 0.133,-0.25C0.133,-0.204 0.15,-0.165 0.182,-0.132C0.215,-0.1 0.254,-0.083 0.3,-0.083C0.346,-0.083 0.385,-0.1 0.417,-0.132C0.45,-0.165 0.467,-0.204 0.467,-0.25ZM0.567,-0.25C0.567,-0.177 0.541,-0.114 0.488,-0.062C0.436,-0.01 0.373,0.016 0.3,0.016C0.226,0.016 0.163,-0.01 0.111,-0.062C0.059,-0.114 0.033,-0.177 0.033,-0.25C0.033,-0.323 0.058,-0.385 0.108,-0.438C0.159,-0.49 0.22,-0.517 0.292,-0.517C0.359,-0.517 0.418,-0.493 0.467,-0.446L0.467,-0.675L0.567,-0.675L0.567,-0.25Z" style="fill:white;fill-rule:nonzero;"/>
                </g>
                <g transform="matrix(65.9292,0,0,65.9292,379.742,224.695)">
                    <path d="M0.467,-0.25C0.467,-0.295 0.45,-0.334 0.417,-0.367C0.385,-0.4 0.345,-0.417 0.3,-0.417C0.254,-0.417 0.215,-0.4 0.182,-0.367C0.15,-0.335 0.133,-0.296 0.133,-0.25C0.133,-0.204 0.15,-0.165 0.182,-0.132C0.215,-0.1 0.254,-0.083 0.3,-0.083C0.346,-0.083 0.385,-0.1 0.417,-0.132C0.45,-0.165 0.467,-0.204 0.467,-0.25ZM0.567,-0.25C0.567,-0.177 0.541,-0.114 0.488,-0.062C0.436,-0.01 0.373,0.016 0.3,0.016C0.226,0.016 0.163,-0.01 0.111,-0.062C0.059,-0.114 0.033,-0.177 0.033,-0.25C0.033,-0.323 0.059,-0.386 0.111,-0.438C0.164,-0.49 0.227,-0.517 0.3,-0.517C0.373,-0.517 0.436,-0.49 0.488,-0.438C0.541,-0.386 0.567,-0.323 0.567,-0.25Z" style="fill:white;fill-rule:nonzero;"/>
                </g>
            </g>
        </g>
        <g transform="matrix(0,-1,-1,0,4372.39,190.954)">
            <path d="M-17.193,-17.193C-7.697,-17.193 0.001,-9.494 0.001,0.001C0.001,9.496 -7.697,17.193 -17.193,17.193C-26.688,17.193 -34.387,9.496 -34.387,0.001C-34.387,-9.494 -26.688,-17.193 -17.193,-17.193" style="fill:rgb(200,33,39);"/>
        </g>
        <g transform="matrix(1,0,0,1,4372.39,224.391)">
            <path d="M0,-32.487C-8.957,-32.487 -16.243,-25.2 -16.243,-16.243C-16.243,-7.287 -8.957,0 0,0C8.956,0 16.243,-7.287 16.243,-16.243C16.243,-25.2 8.956,-32.487 0,-32.487M0,1.9C-10.004,1.9 -18.143,-6.239 -18.143,-16.243C-18.143,-26.248 -10.004,-34.387 0,-34.387C10.004,-34.387 18.143,-26.248 18.143,-16.243C18.143,-6.239 10.004,1.9 0,1.9" style="fill:white;fill-rule:nonzero;"/>
        </g>
        <g transform="matrix(1,0,0,1,3972.67,0)">
            <clipPath id="_clip1">
                <path d="M382.465,208.148C382.465,217.678 390.19,225.405 399.722,225.405C409.253,225.405 416.98,217.678 416.98,208.148C416.98,198.616 409.253,190.889 399.722,190.889C390.19,190.889 382.465,198.616 382.465,208.148Z" clip-rule="nonzero"/>
            </clipPath>
            <g clip-path="url(#_clip1)">
                <g transform="matrix(0,-1,-1,0,399.723,190.954)">
                    <path d="M-17.193,-17.193C-7.697,-17.193 0.001,-9.494 0.001,0.001C0.001,9.496 -7.697,17.193 -17.193,17.193C-26.688,17.193 -34.387,9.496 -34.387,0.001C-34.387,-9.494 -26.688,-17.193 -17.193,-17.193" style="fill:rgb(200,33,39);"/>
                </g>
                <g transform="matrix(1,0,0,1,404.39,254.314)">
                    <path d="M0,-52.591C0.289,-52.321 0.289,-52.319 0.565,-52.535C1.455,-53.22 2.351,-53.9 3.23,-54.599C3.518,-54.829 3.788,-54.9 4.145,-54.771C4.416,-54.674 4.711,-54.652 5.004,-54.597C5.158,-55.172 5.304,-55.714 5.456,-56.273C5.157,-56.225 4.89,-56.183 4.602,-56.138C4.653,-56.398 4.7,-56.629 4.75,-56.881C4.679,-56.869 4.633,-56.863 4.589,-56.851C4.252,-56.764 3.919,-56.669 3.579,-56.59C3.473,-56.567 3.44,-56.526 3.445,-56.42C3.46,-56.084 3.463,-55.747 3.482,-55.41C3.486,-55.3 3.448,-55.232 3.362,-55.169C2.652,-54.635 1.942,-54.101 1.234,-53.562C0.819,-53.244 0.412,-52.917 0,-52.591M-14.669,-41.09C-14.618,-41.114 -14.562,-41.13 -14.517,-41.163C-13.696,-41.779 -12.874,-42.396 -12.057,-43.018C-11.596,-43.368 -11.142,-43.724 -10.662,-44.096C-10.3,-43.771 -9.937,-43.457 -9.588,-43.127C-9.118,-42.683 -8.689,-42.696 -8.267,-43.18C-8.14,-43.325 -8.009,-43.467 -7.862,-43.591C-6.746,-44.536 -5.392,-44.861 -3.952,-45.084C-4.666,-44.322 -5.138,-43.463 -5.497,-42.531C-5.85,-41.609 -6.167,-39.927 -6.104,-39.623C-6.085,-39.699 -6.071,-39.755 -6.059,-39.81C-5.816,-40.845 -5.484,-41.847 -4.996,-42.794C-4.355,-44.035 -3.493,-45.083 -2.31,-45.84C-1.892,-46.106 -1.444,-46.322 -1.046,-46.542C-1.204,-46.684 -1.422,-46.826 -1.565,-47.02C-1.71,-47.214 -1.782,-47.461 -1.889,-47.69C-1.986,-47.634 -2.096,-47.566 -2.211,-47.51C-2.494,-47.375 -2.772,-47.216 -3.071,-47.12C-3.914,-46.841 -4.646,-47.127 -5.022,-47.913C-5.2,-48.284 -5.287,-48.699 -5.4,-49.1C-5.437,-49.236 -5.281,-49.461 -5.141,-49.511C-3.775,-49.991 -2.411,-50.472 -1.044,-50.952C-0.809,-51.035 -0.57,-51.111 -0.328,-51.193C-0.227,-50.914 -0.137,-50.652 -0.041,-50.391C0.541,-48.789 1.12,-47.186 1.709,-45.586C1.792,-45.361 1.786,-45.165 1.656,-44.964C1.523,-44.763 1.396,-44.559 1.28,-44.346C0.22,-42.373 -0.838,-40.399 -1.893,-38.422C-1.928,-38.359 -1.949,-38.283 -1.95,-38.212C-1.966,-37.151 -1.992,-36.092 -1.993,-35.033C-1.994,-31.638 -1.988,-28.243 -1.983,-24.849C-1.983,-24.393 -1.979,-23.937 -1.978,-23.482C-1.969,-20.762 -1.961,-18.043 -1.952,-15.323C-1.95,-14.456 -1.949,-13.588 -1.946,-12.721C-1.943,-10.189 -1.932,-7.655 -1.931,-5.124C-1.931,-3.142 -1.936,-1.16 -1.943,0.82C-1.944,1.592 -1.956,2.362 -1.963,3.133C-1.964,3.382 -1.963,3.632 -1.963,3.91C-4.256,3.931 -6.506,3.951 -8.769,3.973C-8.775,3.925 -8.784,3.871 -8.785,3.82C-8.806,2.391 -8.835,0.963 -8.847,-0.466C-8.862,-2.265 -8.864,-4.064 -8.871,-5.863C-8.875,-7.33 -8.882,-8.798 -8.879,-10.264C-8.879,-14.28 -8.875,-18.297 -8.871,-22.313C-8.867,-24.385 -8.862,-26.456 -8.861,-28.529C-8.856,-31.721 -8.855,-34.913 -8.844,-38.103C-8.842,-38.347 -8.892,-38.5 -9.112,-38.646C-9.749,-39.073 -10.095,-39.722 -10.329,-40.429C-10.48,-40.893 -10.591,-41.373 -10.725,-41.863C-10.863,-41.781 -11.013,-41.7 -11.151,-41.603C-11.26,-41.529 -11.316,-41.415 -11.283,-41.282C-11.098,-40.509 -10.878,-39.75 -10.433,-39.08C-10.214,-38.748 -9.942,-38.469 -9.572,-38.31C-9.458,-38.261 -9.429,-38.202 -9.43,-38.085C-9.44,-36.729 -9.444,-35.377 -9.449,-34.021C-9.454,-32.314 -9.457,-30.605 -9.458,-28.897C-9.463,-26.032 -9.463,-23.167 -9.464,-20.304C-9.466,-18.246 -9.468,-16.19 -9.47,-14.133C-9.473,-11.623 -9.477,-9.112 -9.482,-6.599C-9.484,-4.667 -9.487,-2.732 -9.491,-0.801C-9.494,0.917 -9.497,2.636 -9.498,4.355L-9.498,4.507C-9.198,4.507 -8.92,4.5 -8.643,4.507C-7.478,4.539 -6.312,4.576 -5.146,4.602C-3.895,4.627 -2.642,4.638 -1.391,4.657C-1.312,4.657 -1.234,4.643 -1.126,4.636L-1.126,3.534C-1.126,2.367 -1.125,1.2 -1.126,0.032C-1.13,-0.797 -1.135,-1.626 -1.139,-2.455C-1.148,-4.689 -1.157,-6.921 -1.169,-9.153C-1.18,-10.989 -1.191,-12.827 -1.202,-14.662C-1.214,-16.504 -1.224,-18.346 -1.234,-20.188C-1.246,-22.222 -1.258,-24.257 -1.266,-26.291C-1.271,-27.769 -1.281,-29.247 -1.276,-30.724C-1.27,-32.978 -1.251,-35.232 -1.238,-37.486C-1.238,-37.799 -1.188,-38.098 -1.046,-38.385C-0.626,-39.228 -0.218,-40.074 0.194,-40.921C0.939,-42.46 1.683,-44 2.424,-45.544C2.458,-45.613 2.46,-45.72 2.435,-45.794C1.777,-47.649 1.108,-49.497 0.454,-51.352C0.372,-51.583 0.252,-51.745 0.04,-51.848C-0.298,-52.007 -0.521,-52.273 -0.72,-52.583C-1.172,-53.284 -1.645,-53.972 -2.116,-54.661C-2.379,-55.044 -2.745,-55.204 -3.212,-55.141C-3.612,-55.085 -3.948,-54.896 -4.276,-54.679C-5.495,-53.864 -6.714,-53.048 -7.931,-52.231C-7.979,-52.197 -8.026,-52.146 -8.053,-52.093C-8.181,-51.828 -8.299,-51.559 -8.428,-51.295C-8.456,-51.236 -8.503,-51.176 -8.557,-51.142C-9.105,-50.778 -9.652,-50.413 -10.208,-50.061C-10.406,-49.935 -10.563,-49.788 -10.651,-49.571C-10.845,-49.1 -11.137,-48.692 -11.453,-48.3C-11.768,-47.912 -12.091,-47.535 -12.381,-47.13C-12.789,-46.562 -12.749,-45.904 -12.271,-45.399C-12.009,-45.126 -11.695,-44.906 -11.401,-44.664C-11.27,-44.557 -11.132,-44.459 -10.985,-44.346C-11.253,-44.138 -11.5,-43.944 -11.75,-43.752C-12.726,-43.002 -13.704,-42.253 -14.678,-41.5C-14.739,-41.454 -14.781,-41.381 -14.832,-41.32C-14.874,-41.364 -14.919,-41.409 -14.959,-41.459C-15.247,-41.807 -15.535,-42.156 -15.825,-42.506C-15.894,-42.449 -15.939,-42.409 -15.986,-42.376C-16.116,-42.287 -16.136,-42.205 -16.029,-42.066C-15.641,-41.568 -15.27,-41.059 -14.89,-40.555C-14.615,-40.188 -14.336,-39.824 -14.044,-39.44C-13.926,-39.533 -13.816,-39.621 -13.705,-39.707C-13.777,-39.812 -13.841,-39.899 -13.903,-39.986C-14.158,-40.355 -14.414,-40.722 -14.669,-41.09M-9.753,5.144L-10.075,5.144C-10.069,1.659 -10.065,-1.825 -10.06,-5.311C-10.057,-6.843 -10.052,-8.375 -10.049,-9.906C-10.046,-11.41 -10.046,-12.915 -10.043,-14.42C-10.039,-17.461 -10.031,-20.501 -10.029,-23.543C-10.022,-26.59 -10.021,-29.636 -10.017,-32.683C-10.015,-34.01 -10.015,-35.338 -10.008,-36.667C-10.008,-36.998 -9.989,-37.329 -9.979,-37.66C-9.975,-37.802 -10.046,-37.895 -10.159,-37.978C-10.327,-38.102 -10.495,-38.23 -10.634,-38.381C-11.074,-38.859 -11.321,-39.446 -11.519,-40.055C-11.62,-40.368 -11.706,-40.684 -11.813,-41.049C-12.452,-40.551 -13.074,-40.084 -13.676,-39.589C-13.894,-39.41 -14.108,-39.283 -14.391,-39.276C-14.802,-39.265 -15.203,-39.324 -15.586,-39.469C-16.006,-39.625 -16.279,-39.922 -16.405,-40.352C-16.423,-40.416 -16.448,-40.48 -16.471,-40.545L-16.471,-41.284C-16.427,-41.503 -16.379,-41.719 -16.343,-41.938C-16.305,-42.179 -16.202,-42.369 -15.998,-42.508C-15.831,-42.624 -15.678,-42.759 -15.514,-42.88C-14.664,-43.511 -13.81,-44.138 -12.958,-44.768C-12.858,-44.843 -12.766,-44.929 -12.663,-45.017C-12.769,-45.151 -12.879,-45.257 -12.953,-45.386C-13.301,-45.999 -13.337,-46.628 -12.966,-47.242C-12.768,-47.572 -12.537,-47.882 -12.304,-48.188C-11.813,-48.837 -11.293,-49.464 -10.937,-50.202C-10.911,-50.255 -10.85,-50.295 -10.798,-50.33C-10.202,-50.737 -9.603,-51.141 -9.006,-51.549C-8.95,-51.589 -8.898,-51.65 -8.865,-51.713C-8.739,-51.978 -8.624,-52.248 -8.5,-52.514C-8.479,-52.558 -8.437,-52.598 -8.394,-52.626C-7.316,-53.336 -6.242,-54.047 -5.161,-54.751C-4.746,-55.021 -4.334,-55.309 -3.891,-55.528C-3.102,-55.918 -2.356,-55.786 -1.799,-55.173C-1.538,-54.885 -1.336,-54.545 -1.108,-54.227C-1.018,-54.099 -0.931,-53.966 -0.834,-53.827C-0.702,-53.927 -0.587,-54.015 -0.475,-54.101C0.602,-54.915 1.677,-55.726 2.75,-56.544C2.975,-56.716 3.223,-56.826 3.497,-56.896C4.108,-57.054 4.716,-57.215 5.321,-57.391C5.646,-57.486 5.96,-57.619 6.279,-57.735L6.407,-57.735C6.299,-57.52 6.182,-57.311 6.085,-57.091C5.718,-56.244 5.502,-55.35 5.276,-54.459C5.251,-54.369 5.194,-54.271 5.123,-54.214C3.839,-53.207 2.551,-52.204 1.262,-51.205C1.17,-51.134 1.152,-51.078 1.193,-50.966C1.818,-49.243 2.437,-47.518 3.061,-45.794C3.099,-45.685 3.094,-45.597 3.041,-45.491C2.747,-44.887 2.463,-44.277 2.168,-43.67C1.292,-41.862 0.408,-40.058 -0.462,-38.246C-0.569,-38.025 -0.637,-37.771 -0.653,-37.528C-0.688,-37.005 -0.687,-36.479 -0.687,-35.955C-0.692,-34.279 -0.696,-32.603 -0.692,-30.928C-0.687,-28.305 -0.676,-25.682 -0.666,-23.059C-0.658,-20.57 -0.645,-18.08 -0.635,-15.592C-0.626,-13.761 -0.62,-11.93 -0.613,-10.1C-0.61,-8.937 -0.606,-7.777 -0.602,-6.615C-0.599,-5.576 -0.592,-4.538 -0.592,-3.5C-0.592,-0.919 -0.594,1.662 -0.598,4.242L-0.598,4.946C-0.659,4.952 -0.685,4.957 -0.711,4.957C-1.742,4.987 -2.774,5.024 -3.807,5.04C-5.514,5.066 -7.221,5.078 -8.926,5.098C-9.205,5.103 -9.479,5.13 -9.753,5.144" style="fill:rgb(35,31,32);"/>
                </g>
                <g transform="matrix(1,0,0,1,403.663,255.308)">
                    <path d="M0,-52.535C-0.002,-52.556 0,-52.569 -0.006,-52.578C-0.554,-53.427 -1.102,-54.275 -1.652,-55.122C-1.772,-55.31 -1.958,-55.377 -2.173,-55.382C-2.442,-55.388 -2.686,-55.293 -2.925,-55.184C-3.139,-55.085 -3.349,-54.968 -3.573,-54.909C-3.977,-54.801 -4.146,-54.519 -4.239,-54.149C-4.293,-53.93 -4.241,-53.755 -4.094,-53.589C-3.901,-53.368 -3.72,-53.135 -3.54,-52.903C-3.239,-52.513 -2.94,-52.122 -2.645,-51.729C-2.587,-51.65 -2.536,-51.644 -2.444,-51.676C-1.994,-51.845 -1.542,-52.008 -1.09,-52.168C-0.728,-52.294 -0.362,-52.413 0,-52.535M-10.047,-49.391C-10.445,-48.874 -10.837,-48.372 -11.215,-47.862C-11.302,-47.744 -11.357,-47.597 -11.398,-47.456C-11.495,-47.129 -11.434,-46.983 -11.161,-46.779C-10.937,-46.611 -10.708,-46.454 -10.496,-46.273C-9.905,-45.763 -9.324,-45.238 -8.731,-44.731C-8.578,-44.602 -8.398,-44.496 -8.214,-44.416C-7.998,-44.322 -7.875,-44.388 -7.732,-44.569C-7.638,-44.687 -7.517,-44.789 -7.396,-44.885C-7.288,-44.97 -7.163,-45.033 -7.049,-45.114C-6.892,-45.228 -6.825,-45.391 -6.902,-45.566C-6.982,-45.749 -7.085,-45.929 -7.214,-46.081C-7.687,-46.648 -8.176,-47.202 -8.656,-47.762C-9.116,-48.298 -9.573,-48.836 -10.047,-49.391M-3.015,-51.542C-3.082,-51.634 -3.133,-51.706 -3.188,-51.78C-3.694,-52.437 -4.204,-53.091 -4.703,-53.754C-4.787,-53.862 -4.848,-53.902 -4.973,-53.831C-5.552,-53.49 -6.136,-53.153 -6.717,-52.814C-6.739,-52.802 -6.759,-52.782 -6.778,-52.764C-7.079,-52.501 -7.167,-52.177 -7.012,-51.81C-6.92,-51.595 -6.797,-51.392 -6.675,-51.191C-5.731,-49.643 -4.784,-48.098 -3.835,-46.552C-3.801,-46.495 -3.761,-46.44 -3.718,-46.378C-2.806,-46.754 -1.906,-47.128 -0.999,-47.504C-1.084,-47.707 -1.158,-47.877 -1.231,-48.051C-1.315,-48.026 -1.38,-48.006 -1.447,-47.984C-2.057,-47.795 -2.679,-47.702 -3.313,-47.808C-3.868,-47.899 -4.332,-48.135 -4.568,-48.684C-4.7,-48.988 -4.838,-49.29 -4.958,-49.599C-5.083,-49.916 -5.122,-50.245 -4.979,-50.566C-4.944,-50.645 -4.868,-50.723 -4.79,-50.758C-4.208,-51.023 -3.62,-51.277 -3.015,-51.542M-4.335,-46.494C-5.382,-48.28 -6.42,-50.05 -7.468,-51.833C-7.91,-51.553 -8.35,-51.287 -8.719,-50.927C-9.145,-50.512 -9.396,-50.014 -9.46,-49.418C-9.47,-49.311 -9.443,-49.237 -9.376,-49.159C-8.678,-48.335 -7.972,-47.517 -7.288,-46.681C-6.963,-46.284 -6.498,-46.125 -6.082,-45.884C-6.017,-45.846 -5.924,-45.848 -5.846,-45.846C-5.248,-45.826 -4.787,-46.122 -4.335,-46.494M-14.104,-42.313C-14.053,-42.375 -14.012,-42.447 -13.95,-42.495C-12.976,-43.247 -11.999,-43.996 -11.022,-44.746C-10.773,-44.938 -10.526,-45.132 -10.258,-45.34C-10.406,-45.453 -10.542,-45.551 -10.674,-45.658C-10.966,-45.9 -11.282,-46.12 -11.543,-46.393C-12.021,-46.899 -12.061,-47.556 -11.653,-48.124C-11.364,-48.527 -11.04,-48.906 -10.726,-49.294C-10.409,-49.686 -10.118,-50.093 -9.924,-50.565C-9.835,-50.782 -9.678,-50.929 -9.481,-51.055C-8.925,-51.406 -8.377,-51.771 -7.829,-52.136C-7.776,-52.17 -7.728,-52.229 -7.7,-52.288C-7.571,-52.553 -7.454,-52.822 -7.325,-53.087C-7.298,-53.14 -7.252,-53.192 -7.203,-53.225C-5.987,-54.042 -4.767,-54.858 -3.548,-55.673C-3.222,-55.89 -2.885,-56.079 -2.484,-56.134C-2.017,-56.198 -1.652,-56.037 -1.388,-55.655C-0.917,-54.966 -0.445,-54.279 0.007,-53.577C0.207,-53.267 0.43,-53 0.768,-52.841C0.98,-52.74 1.099,-52.576 1.182,-52.346C1.835,-50.491 2.504,-48.643 3.162,-46.788C3.189,-46.715 3.185,-46.607 3.152,-46.537C2.411,-44.994 1.667,-43.454 0.922,-41.915C0.51,-41.068 0.101,-40.222 -0.318,-39.38C-0.461,-39.092 -0.51,-38.793 -0.511,-38.48C-0.524,-36.225 -0.542,-33.972 -0.549,-31.718C-0.553,-30.24 -0.544,-28.762 -0.538,-27.285C-0.53,-25.25 -0.518,-23.216 -0.506,-21.181C-0.497,-19.34 -0.487,-17.498 -0.474,-15.656C-0.464,-13.821 -0.451,-11.984 -0.442,-10.148C-0.43,-7.915 -0.421,-5.683 -0.411,-3.449C-0.408,-2.62 -0.402,-1.791 -0.398,-0.962C-0.397,0.206 -0.398,1.373 -0.398,2.54L-0.398,3.642C-0.506,3.649 -0.585,3.663 -0.663,3.663C-1.915,3.644 -3.167,3.633 -4.418,3.608C-5.584,3.582 -6.75,3.545 -7.917,3.514C-8.193,3.507 -8.47,3.514 -8.771,3.514L-8.771,3.361C-8.769,1.642 -8.767,-0.077 -8.764,-1.795C-8.762,-3.727 -8.757,-5.661 -8.755,-7.593C-8.749,-10.106 -8.745,-12.617 -8.743,-15.127C-8.741,-17.184 -8.738,-19.24 -8.735,-21.297C-8.735,-24.16 -8.735,-27.027 -8.731,-29.891C-8.729,-31.599 -8.728,-33.307 -8.721,-35.015C-8.717,-36.37 -8.712,-37.724 -8.704,-39.079C-8.703,-39.196 -8.731,-39.255 -8.845,-39.302C-9.214,-39.463 -9.488,-39.742 -9.706,-40.074C-10.151,-40.744 -10.371,-41.503 -10.556,-42.276C-10.589,-42.409 -10.531,-42.523 -10.423,-42.597C-10.285,-42.693 -10.135,-42.775 -9.996,-42.858C-9.864,-42.367 -9.753,-41.887 -9.601,-41.423C-9.367,-40.716 -9.021,-40.066 -8.384,-39.64C-8.164,-39.494 -8.115,-39.34 -8.116,-39.097C-8.127,-35.906 -8.128,-32.714 -8.133,-29.523C-8.135,-27.45 -8.139,-25.378 -8.143,-23.306C-8.147,-19.29 -8.151,-15.274 -8.152,-11.258C-8.154,-9.791 -8.147,-8.324 -8.143,-6.856C-8.136,-5.058 -8.135,-3.259 -8.119,-1.46C-8.107,-0.03 -8.079,1.397 -8.058,2.826C-8.056,2.877 -8.047,2.932 -8.042,2.979C-5.779,2.957 -3.528,2.937 -1.235,2.916C-1.235,2.639 -1.237,2.39 -1.235,2.139C-1.228,1.368 -1.217,0.598 -1.214,-0.174C-1.208,-2.154 -1.203,-4.135 -1.203,-6.118C-1.205,-8.648 -1.214,-11.182 -1.219,-13.714C-1.221,-14.582 -1.223,-15.449 -1.225,-16.317C-1.234,-19.037 -1.241,-21.757 -1.25,-24.476C-1.251,-24.932 -1.256,-25.387 -1.256,-25.842C-1.26,-29.236 -1.267,-32.632 -1.266,-36.027C-1.264,-37.086 -1.239,-38.146 -1.223,-39.206C-1.221,-39.276 -1.2,-39.353 -1.166,-39.416C-0.111,-41.392 0.947,-43.368 2.009,-45.34C2.124,-45.552 2.25,-45.756 2.383,-45.957C2.513,-46.16 2.52,-46.355 2.436,-46.579C1.848,-48.18 1.268,-49.783 0.687,-51.385C0.59,-51.645 0.5,-51.908 0.399,-52.186C0.157,-52.106 -0.082,-52.029 -0.317,-51.946C-1.684,-51.466 -3.048,-50.985 -4.413,-50.505C-4.553,-50.455 -4.71,-50.23 -4.673,-50.093C-4.559,-49.693 -4.473,-49.278 -4.295,-48.907C-3.917,-48.121 -3.187,-47.836 -2.343,-48.114C-2.043,-48.21 -1.767,-48.369 -1.484,-48.504C-1.369,-48.56 -1.259,-48.628 -1.162,-48.684C-1.055,-48.456 -0.984,-48.207 -0.838,-48.014C-0.693,-47.819 -0.477,-47.677 -0.318,-47.536C-0.716,-47.316 -1.166,-47.1 -1.582,-46.834C-2.766,-46.077 -3.627,-45.029 -4.268,-43.788C-4.757,-42.841 -5.088,-41.838 -5.331,-40.804C-5.344,-40.749 -5.358,-40.693 -5.375,-40.617C-5.439,-40.92 -5.122,-42.602 -4.77,-43.525C-4.411,-44.457 -3.937,-45.316 -3.225,-46.078C-4.663,-45.855 -6.018,-45.53 -7.135,-44.584C-7.281,-44.461 -7.414,-44.318 -7.54,-44.174C-7.962,-43.69 -8.39,-43.676 -8.861,-44.121C-9.21,-44.451 -9.573,-44.765 -9.934,-45.09C-10.414,-44.718 -10.868,-44.362 -11.329,-44.012C-12.146,-43.39 -12.968,-42.773 -13.79,-42.156C-13.833,-42.122 -13.891,-42.108 -13.942,-42.085C-13.996,-42.16 -14.05,-42.237 -14.104,-42.313" style="fill:white;"/>
                </g>
                <g transform="matrix(1,0,0,1,404.39,197.705)">
                    <path d="M0,4.018C0.412,3.692 0.819,3.365 1.234,3.047C1.942,2.508 2.652,1.974 3.362,1.44C3.448,1.377 3.486,1.309 3.482,1.199C3.463,0.862 3.46,0.525 3.445,0.189C3.44,0.083 3.473,0.042 3.579,0.019C3.919,-0.06 4.252,-0.155 4.589,-0.242C4.633,-0.254 4.679,-0.26 4.75,-0.272C4.7,-0.02 4.653,0.211 4.602,0.471C4.89,0.426 5.157,0.384 5.456,0.336C5.304,0.895 5.158,1.437 5.004,2.012C4.711,1.957 4.416,1.935 4.145,1.838C3.788,1.709 3.518,1.78 3.23,2.01C2.351,2.709 1.455,3.389 0.565,4.074C0.289,4.29 0.289,4.288 0,4.018" style="fill:white;"/>
                </g>
                <g transform="matrix(1,0,0,1,389.559,213.688)">
                    <path d="M0,-0.693C0.054,-0.617 0.108,-0.541 0.162,-0.464C0.418,-0.096 0.673,0.271 0.93,0.64C0.99,0.727 1.054,0.813 1.128,0.918C1.015,1.005 0.905,1.093 0.787,1.187C0.495,0.803 0.217,0.438 -0.059,0.072C-0.438,-0.433 -0.81,-0.942 -1.198,-1.441C-1.303,-1.579 -1.285,-1.66 -1.155,-1.75C-1.107,-1.784 -1.062,-1.824 -0.993,-1.88C-0.704,-1.53 -0.416,-1.182 -0.128,-0.833C-0.088,-0.784 -0.042,-0.74 0,-0.693" style="fill:white;"/>
                </g>
                <g transform="matrix(1,0,0,1,399.328,204.143)">
                    <path d="M0,4.671C-0.452,5.043 -0.913,5.339 -1.511,5.319C-1.589,5.316 -1.682,5.319 -1.748,5.281C-2.164,5.04 -2.628,4.88 -2.953,4.485C-3.637,3.648 -4.343,2.83 -5.041,2.006C-5.108,1.928 -5.135,1.854 -5.125,1.747C-5.062,1.151 -4.81,0.654 -4.384,0.237C-4.015,-0.123 -3.575,-0.388 -3.133,-0.668C-2.085,1.115 -1.047,2.885 0,4.671" style="fill:rgb(35,31,32);"/>
                </g>
                <g transform="matrix(1,0,0,1,400.648,206.57)">
                    <path d="M0,-2.805C-0.605,-2.54 -1.193,-2.286 -1.775,-2.021C-1.854,-1.986 -1.93,-1.907 -1.964,-1.829C-2.107,-1.506 -2.069,-1.179 -1.944,-0.861C-1.823,-0.554 -1.686,-0.251 -1.554,0.053C-1.317,0.603 -0.853,0.839 -0.299,0.93C0.337,1.035 0.957,0.943 1.568,0.752C1.635,0.732 1.699,0.711 1.783,0.686C1.856,0.861 1.931,1.03 2.016,1.234C1.108,1.61 0.208,1.982 -0.704,2.36C-0.746,2.297 -0.786,2.243 -0.822,2.185C-1.77,0.64 -2.717,-0.906 -3.66,-2.454C-3.783,-2.654 -3.906,-2.857 -3.997,-3.073C-4.152,-3.44 -4.064,-3.763 -3.763,-4.026C-3.745,-4.045 -3.725,-4.064 -3.703,-4.077C-3.121,-4.416 -2.538,-4.753 -1.959,-5.093C-1.833,-5.165 -1.772,-5.125 -1.688,-5.016C-1.189,-4.354 -0.68,-3.7 -0.173,-3.042C-0.119,-2.971 -0.067,-2.897 0,-2.805" style="fill:rgb(35,31,32);"/>
                </g>
                <g transform="matrix(1,0,0,1,393.616,210.986)">
                    <path d="M0,-5.069C0.474,-4.513 0.931,-3.975 1.391,-3.439C1.871,-2.88 2.36,-2.326 2.833,-1.758C2.961,-1.607 3.065,-1.427 3.145,-1.243C3.222,-1.069 3.155,-0.905 2.998,-0.792C2.884,-0.711 2.759,-0.648 2.65,-0.563C2.531,-0.466 2.409,-0.365 2.315,-0.246C2.172,-0.066 2.049,0 1.833,-0.094C1.648,-0.173 1.468,-0.279 1.316,-0.409C0.722,-0.916 0.142,-1.441 -0.449,-1.95C-0.661,-2.131 -0.89,-2.289 -1.114,-2.456C-1.387,-2.66 -1.448,-2.807 -1.351,-3.134C-1.311,-3.275 -1.255,-3.422 -1.168,-3.539C-0.79,-4.05 -0.398,-4.551 0,-5.069" style="fill:rgb(35,31,32);"/>
                </g>
                <g transform="matrix(1,0,0,1,403.663,200.811)">
                    <path d="M0,1.962C-0.362,2.084 -0.728,2.203 -1.09,2.329C-1.542,2.489 -1.994,2.652 -2.444,2.821C-2.536,2.853 -2.587,2.847 -2.645,2.768C-2.94,2.375 -3.239,1.984 -3.54,1.594C-3.72,1.362 -3.901,1.129 -4.094,0.908C-4.241,0.742 -4.293,0.567 -4.239,0.348C-4.146,-0.022 -3.977,-0.304 -3.573,-0.412C-3.349,-0.471 -3.139,-0.588 -2.925,-0.687C-2.686,-0.796 -2.442,-0.891 -2.173,-0.885C-1.958,-0.88 -1.772,-0.813 -1.652,-0.625C-1.102,0.222 -0.554,1.07 -0.006,1.919C0,1.928 -0.002,1.941 0,1.962" style="fill:rgb(35,31,32);"/>
                </g>
            </g>
        </g>
        <g>
            <g transform="matrix(0,-1,-1,0,4617.36,194.905)">
                <path d="M-14.253,-14.254C-22.125,-14.254 -28.506,-7.872 -28.506,-0.001C-28.506,7.871 -22.125,14.253 -14.253,14.253C-6.382,14.253 -0.001,7.871 -0.001,-0.001C-0.001,-7.872 -6.382,-14.254 -14.253,-14.254" style="fill:rgb(167,85,160);fill-rule:nonzero;"/>
            </g>
            <g transform="matrix(1,0,0,1,4620.01,212.783)">
                <path d="M0,-6.761C0.418,-6.814 0.799,-6.85 1.175,-6.919C1.285,-6.939 1.432,-7.032 1.466,-7.127C1.531,-7.309 1.47,-7.487 1.267,-7.582C1.063,-7.676 0.856,-7.765 0.662,-7.877C0.384,-8.035 0.373,-8.12 0.555,-8.388C0.691,-8.588 0.701,-9.244 0.564,-9.438C0.537,-9.477 0.497,-9.511 0.454,-9.534C0.119,-9.718 -0.216,-9.68 -0.438,-9.438C-0.625,-9.234 -0.683,-8.679 -0.543,-8.453C-0.305,-8.067 -0.327,-8 -0.737,-7.806C-0.933,-7.713 -1.144,-7.636 -1.307,-7.503C-1.394,-7.433 -1.426,-7.255 -1.419,-7.13C-1.417,-7.063 -1.286,-6.963 -1.199,-6.947C-0.792,-6.871 -0.381,-6.817 0,-6.761M3.976,2.725C4.442,2.68 4.791,2.652 5.138,2.612C5.277,2.597 5.416,2.561 5.553,2.526C5.879,2.44 5.959,2.328 5.872,2.009C5.842,1.904 5.735,1.797 5.636,1.741C5.398,1.606 5.137,1.511 4.896,1.381C4.512,1.174 4.503,1.068 4.744,0.699C4.825,0.577 4.862,0.412 4.876,0.261C4.89,0.116 4.849,-0.035 4.834,-0.183C4.791,-0.63 4.414,-0.907 3.967,-0.822C3.338,-0.701 3.026,0.159 3.414,0.702C3.67,1.061 3.64,1.187 3.246,1.394C3.158,1.439 3.062,1.47 2.973,1.516C2.788,1.61 2.602,1.702 2.423,1.808C2.242,1.917 2.234,2.115 2.285,2.277C2.316,2.375 2.455,2.486 2.562,2.506C3.067,2.6 3.578,2.666 3.976,2.725M-7.565,0.463C-6.703,0.474 -5.85,0.396 -5.018,0.157C-4.911,0.126 -4.787,0.077 -4.719,-0.003C-4.573,-0.178 -4.67,-0.844 -4.862,-0.973C-5.082,-1.121 -5.321,-1.241 -5.555,-1.367C-5.855,-1.527 -6.177,-1.655 -6.456,-1.846C-6.851,-2.117 -6.859,-2.305 -6.567,-2.689C-6.518,-2.756 -6.443,-2.812 -6.415,-2.886C-6.345,-3.069 -6.24,-3.261 -6.247,-3.446C-6.261,-3.852 -6.327,-4.257 -6.389,-4.659C-6.427,-4.909 -6.567,-5.086 -6.832,-5.139C-6.904,-5.155 -6.977,-5.177 -7.045,-5.206C-7.903,-5.572 -8.802,-5.01 -8.847,-4.076C-8.854,-3.935 -8.824,-3.784 -8.863,-3.653C-8.963,-3.319 -8.846,-3.055 -8.661,-2.79C-8.553,-2.635 -8.462,-2.465 -8.391,-2.291C-8.365,-2.226 -8.388,-2.096 -8.438,-2.055C-8.635,-1.892 -8.842,-1.734 -9.065,-1.61C-9.348,-1.453 -9.651,-1.33 -9.946,-1.193C-10.322,-1.018 -10.52,-0.76 -10.481,-0.309C-10.457,-0.035 -10.373,0.094 -10.114,0.163C-9.278,0.389 -8.428,0.474 -7.565,0.463M-2.904,-0.956C-3.943,2.224 -7.572,3.243 -10.053,1.754C-12.462,0.306 -13.163,-2.834 -11.585,-5.179C-10.007,-7.524 -6.491,-8.146 -4.133,-5.907C-3.527,-6.37 -2.915,-6.831 -2.315,-7.308C-2.261,-7.351 -2.258,-7.501 -2.281,-7.588C-2.613,-8.884 -1.886,-10.169 -0.611,-10.528C0.755,-10.913 2.109,-10.057 2.387,-8.631C2.647,-7.301 1.667,-5.994 0.297,-5.852C-0.563,-5.764 -1.272,-6.062 -1.831,-6.72C-1.857,-6.752 -1.886,-6.782 -1.914,-6.813C-1.919,-6.818 -1.929,-6.82 -1.966,-6.838C-2.547,-6.393 -3.14,-5.94 -3.745,-5.478C-3.707,-5.415 -3.676,-5.356 -3.638,-5.304C-2.865,-4.232 -2.586,-3.035 -2.753,-1.73C-2.768,-1.611 -2.771,-1.536 -2.635,-1.48C-1.368,-0.946 -0.104,-0.404 1.161,0.134C1.174,0.14 1.191,0.135 1.209,0.135C1.309,-0.084 1.394,-0.31 1.512,-0.519C2.195,-1.729 3.596,-2.295 4.922,-1.901C6.263,-1.504 7.104,-0.274 7.023,1.169C6.951,2.47 5.909,3.609 4.576,3.843C2.811,4.152 1.155,2.78 1.132,0.984C1.129,0.843 1.125,0.739 0.962,0.671C-0.291,0.146 -1.539,-0.388 -2.789,-0.92C-2.826,-0.936 -2.866,-0.944 -2.904,-0.956" style="fill:white;fill-rule:nonzero;"/>
            </g>
        </g>
        <g>
            <g transform="matrix(0,-1,-1,0,4571.43,194.728)">
                <path d="M-14.253,-14.253C-22.125,-14.253 -28.506,-7.872 -28.506,0C-28.506,7.871 -22.125,14.253 -14.253,14.253C-6.381,14.253 0,7.871 0,0C0,-7.872 -6.381,-14.253 -14.253,-14.253" style="fill:rgb(223,138,39);fill-rule:nonzero;"/>
            </g>
            <g transform="matrix(1,0,0,1,4566.85,202.842)">
                <path d="M0,-2.262C0.757,-1.55 1.514,-0.838 2.318,-0.084C1.93,0 1.687,-0.035 1.453,-0.291C1.011,-0.774 0.538,-1.23 0.064,-1.685C-0.223,-1.961 -0.525,-1.867 -0.66,-1.458C-0.577,-1.45 -0.5,-1.438 -0.422,-1.436C-0.028,-1.429 0.143,-1.189 -0.016,-0.834C-0.047,-0.763 -0.179,-0.707 -0.267,-0.702C-0.605,-0.688 -0.945,-0.707 -1.283,-0.692C-1.547,-0.681 -1.639,-0.79 -1.635,-1.048C-1.63,-1.29 -1.604,-1.478 -1.291,-1.437C-1.24,-1.43 -1.187,-1.441 -1.108,-1.446C-1.082,-1.842 -0.832,-2.081 -0.509,-2.262L0,-2.262Z" style="fill:white;fill-rule:nonzero;"/>
            </g>
            <g transform="matrix(1,0,0,1,4574.61,202.833)">
                <path d="M0,-2.253C0.357,-1.93 0.721,-1.612 1.069,-1.281C1.476,-0.896 1.869,-0.499 2.31,-0.065C1.967,-0.01 1.727,0 1.497,-0.251C1.046,-0.741 0.571,-1.21 0.082,-1.661C-0.028,-1.762 -0.245,-1.8 -0.401,-1.782C-0.503,-1.77 -0.586,-1.604 -0.679,-1.506C-0.663,-1.48 -0.646,-1.453 -0.629,-1.427C-0.526,-1.427 -0.423,-1.415 -0.323,-1.429C-0.045,-1.465 0.009,-1.327 0.02,-1.079C0.033,-0.77 -0.074,-0.66 -0.379,-0.683C-0.673,-0.703 -0.972,-0.698 -1.267,-0.683C-1.529,-0.67 -1.623,-0.774 -1.614,-1.034C-1.605,-1.268 -1.609,-1.474 -1.284,-1.427C-1.233,-1.42 -1.18,-1.43 -1.103,-1.434C-1.072,-1.827 -0.822,-2.064 -0.509,-2.253L0,-2.253Z" style="fill:white;fill-rule:nonzero;"/>
            </g>
            <g transform="matrix(1,0,0,1,4570.73,202.828)">
                <path d="M0,-2.248C0.476,-1.805 0.953,-1.362 1.428,-0.918C1.712,-0.652 1.994,-0.383 2.334,-0.06C1.957,-0.007 1.717,0 1.487,-0.252C1.046,-0.736 0.577,-1.195 0.095,-1.641C-0.018,-1.745 -0.229,-1.8 -0.383,-1.783C-0.495,-1.77 -0.589,-1.598 -0.69,-1.497C-0.673,-1.472 -0.656,-1.446 -0.639,-1.422C-0.535,-1.422 -0.431,-1.411 -0.328,-1.424C-0.055,-1.456 0.006,-1.328 0.016,-1.074C0.027,-0.765 -0.08,-0.656 -0.384,-0.678C-0.679,-0.697 -0.976,-0.693 -1.271,-0.678C-1.534,-0.665 -1.632,-0.767 -1.619,-1.03C-1.608,-1.262 -1.615,-1.47 -1.287,-1.423C-1.237,-1.415 -1.184,-1.426 -1.107,-1.43C-1.078,-1.826 -0.826,-2.062 -0.509,-2.248L0,-2.248Z" style="fill:white;fill-rule:nonzero;"/>
            </g>
            <g transform="matrix(1,0,0,1,4571.89,217.956)">
                <path d="M0,-3.771L0,-0.403C0.339,-0.403 0.664,-0.42 0.987,-0.399C1.705,-0.353 2.302,0.316 2.256,1.023L-3.605,1.023C-3.666,0.531 -3.401,-0.022 -2.868,-0.22C-2.408,-0.391 -1.891,-0.407 -1.368,-0.496L-1.368,-3.772L-3.01,-3.772C-5.053,-3.772 -7.095,-3.772 -9.138,-3.773C-9.232,-3.773 -9.332,-3.772 -9.419,-3.802C-9.668,-3.886 -9.808,-4.074 -9.779,-4.333C-9.751,-4.588 -9.594,-4.757 -9.323,-4.784C-9.218,-4.794 -9.112,-4.789 -9.005,-4.789L7.679,-4.789C7.742,-4.789 7.806,-4.79 7.869,-4.788C8.198,-4.778 8.417,-4.589 8.429,-4.302C8.441,-4.016 8.205,-3.778 7.875,-3.775C7.091,-3.768 6.308,-3.772 5.526,-3.772C3.8,-3.771 2.074,-3.771 0.348,-3.771L0,-3.771" style="fill:white;fill-rule:nonzero;"/>
            </g>
            <g transform="matrix(1,0,0,1,3972.67,5.24)">
                <path d="M590.689,206.779L606.39,206.779L606.39,198.456L590.689,198.456L590.689,206.779ZM590.133,197.884L606.954,197.884L606.954,207.339L590.133,207.339L590.133,197.884Z" style="fill:white;fill-rule:nonzero;"/>
            </g>
        </g>
        <g>
            <g transform="matrix(0,-1,-1,0,4440.32,193.894)">
                <path d="M-14.253,-14.253C-22.125,-14.253 -28.506,-7.872 -28.506,0C-28.506,7.872 -22.125,14.253 -14.253,14.253C-6.381,14.253 0,7.872 0,0C0,-7.872 -6.381,-14.253 -14.253,-14.253" style="fill:rgb(26,154,214);fill-rule:nonzero;"/>
            </g>
            <g transform="matrix(1,0,0,1,4446.09,209.69)">
                <path d="M0,-4.667C0.001,-4.159 0.433,-3.721 0.94,-3.715C1.45,-3.708 1.916,-4.178 1.901,-4.686C1.887,-5.191 1.441,-5.624 0.939,-5.618C0.432,-5.613 0,-5.175 0,-4.667M0.936,-0.952C1.442,-0.946 1.884,-1.371 1.901,-1.88C1.917,-2.385 1.452,-2.859 0.942,-2.855C0.437,-2.853 0.003,-2.413 0.001,-1.904C-0.002,-1.395 0.428,-0.957 0.936,-0.952M-7.324,4.553C-5.95,4.553 -4.576,4.563 -3.202,4.551C-1.903,4.539 -1.124,3.744 -1.122,2.451C-1.12,0.454 -1.119,-1.542 -1.122,-3.538C-1.125,-4.807 -1.911,-5.616 -3.184,-5.621C-5.932,-5.633 -8.679,-5.633 -11.427,-5.621C-12.704,-5.616 -13.479,-4.819 -13.481,-3.539C-13.487,-1.531 -13.485,0.477 -13.48,2.485C-13.479,2.706 -13.466,2.935 -13.409,3.146C-13.17,4.019 -12.429,4.542 -11.411,4.551C-10.048,4.56 -8.686,4.553 -7.324,4.553M3.253,-5.966L3.253,4.891C2.96,5.587 2.446,5.873 1.685,5.871C-3.243,5.855 -8.171,5.863 -13.099,5.863C-14.146,5.863 -14.418,5.684 -14.797,4.751L-14.797,-5.825C-14.427,-6.736 -14.118,-6.939 -13.092,-6.94C-10.978,-6.94 -8.864,-6.939 -6.75,-6.94C-6.627,-6.94 -6.505,-6.951 -6.321,-6.96C-6.478,-7.128 -6.587,-7.247 -6.698,-7.363C-7.447,-8.158 -8.202,-8.948 -8.944,-9.749C-9.057,-9.872 -9.17,-10.042 -9.181,-10.198C-9.189,-10.306 -9.033,-10.509 -8.93,-10.521C-8.787,-10.54 -8.584,-10.463 -8.479,-10.357C-7.979,-9.86 -7.504,-9.338 -7.021,-8.825C-6.604,-8.384 -6.186,-7.944 -5.757,-7.492C-4.869,-8.432 -4.006,-9.347 -3.141,-10.256C-3.054,-10.348 -2.958,-10.458 -2.846,-10.493C-2.732,-10.528 -2.546,-10.527 -2.477,-10.457C-2.39,-10.371 -2.346,-10.19 -2.368,-10.065C-2.389,-9.94 -2.501,-9.822 -2.596,-9.722C-3.367,-8.899 -4.143,-8.081 -4.917,-7.262C-4.999,-7.174 -5.077,-7.082 -5.204,-6.94L-4.734,-6.94C-2.596,-6.94 -0.458,-6.93 1.679,-6.945C2.427,-6.95 2.963,-6.671 3.253,-5.966" style="fill:white;fill-rule:nonzero;"/>
            </g>
        </g>
        <g>
            <g transform="matrix(0,-1,-1,0,4482.31,193.893)">
                <path d="M-14.253,-14.254C-22.124,-14.254 -28.507,-7.873 -28.507,-0.001C-28.507,7.871 -22.124,14.253 -14.253,14.253C-6.381,14.253 0,7.871 0,-0.001C0,-7.873 -6.381,-14.254 -14.253,-14.254" style="fill:rgb(48,179,74);fill-rule:nonzero;"/>
            </g>
            <g transform="matrix(1,0,0,1,4475.48,204.952)">
                <path d="M0,6.495C-0.005,7.072 0.449,7.541 1.021,7.547C1.585,7.554 2.066,7.084 2.074,6.518C2.082,5.95 1.617,5.479 1.044,5.473C0.46,5.468 0.005,5.914 0,6.495M1.031,2.186C0.455,2.187 0,2.648 0,3.226C0.002,3.8 0.467,4.269 1.035,4.268C1.597,4.266 2.074,3.787 2.074,3.222C2.072,2.653 1.601,2.184 1.031,2.186M9.56,9.566C11.626,9.569 13.286,7.912 13.285,5.848C13.284,3.785 11.618,2.125 9.557,2.132C7.503,2.141 5.861,3.779 5.844,5.835C5.827,7.885 7.499,9.565 9.56,9.566M-1.923,9.82L-1.923,1.885C-1.708,1.181 -1.311,0.642 -0.599,0.367C-0.53,0.341 -0.484,0.196 -0.468,0.101C-0.355,-0.581 0.263,-1.018 0.941,-0.9C1.097,-0.873 1.272,-0.875 1.423,-0.917C5.046,-1.913 8.667,-2.918 12.291,-3.917C12.469,-3.966 12.56,-4.044 12.607,-4.235C12.715,-4.675 13.068,-4.932 13.505,-4.932C13.922,-4.932 14.294,-4.66 14.405,-4.271C14.523,-3.858 14.356,-3.418 14,-3.198C13.63,-2.971 13.168,-2.998 12.867,-3.32C12.703,-3.495 12.567,-3.478 12.376,-3.421C9.746,-2.626 7.113,-1.837 4.481,-1.045C3.591,-0.777 2.702,-0.508 1.801,-0.236C1.845,-0.051 1.88,0.104 1.92,0.275L2.336,0.275C5.913,0.275 9.488,0.278 13.065,0.272C13.784,0.27 14.37,0.522 14.78,1.112C14.94,1.343 15.026,1.626 15.146,1.885L15.146,9.82C15.106,9.921 15.064,10.021 15.027,10.123C14.745,10.896 14.048,11.419 13.227,11.42C8.816,11.427 4.407,11.427 -0.003,11.42C-0.824,11.419 -1.521,10.897 -1.803,10.123C-1.84,10.02 -1.882,9.921 -1.923,9.82" style="fill:white;fill-rule:nonzero;"/>
            </g>
            <g transform="matrix(1,0,0,1,4487.81,210.49)">
                <path d="M0,0.621C-0.091,0.626 -0.188,0.635 -0.286,0.635C-1.94,0.637 -3.592,0.631 -5.246,0.641C-5.496,0.642 -5.6,0.583 -5.599,0.313C-5.598,0.045 -5.502,-0.021 -5.248,-0.02C-3.638,-0.01 -2.03,-0.015 -0.421,-0.015C0.099,-0.015 0.159,0.072 0,0.621" style="fill:white;fill-rule:nonzero;"/>
            </g>
            <g transform="matrix(1,0,0,1,4487.65,209.176)">
                <path d="M0,0.634C-0.089,0.639 -0.154,0.646 -0.22,0.646L-5.174,0.646C-5.124,0.13 -4.973,-0.012 -4.483,-0.012L-0.759,-0.012C-0.22,-0.012 -0.157,0.04 0,0.634" style="fill:white;fill-rule:nonzero;"/>
            </g>
            <g transform="matrix(1,0,0,1,4482.44,212.441)">
                <path d="M0,-0.659L4.985,-0.659C5.051,-0.659 5.117,-0.654 5.184,-0.651C5.118,-0.14 4.965,0 4.481,0L0.786,0C0.223,0 0.17,-0.042 0,-0.659" style="fill:white;fill-rule:nonzero;"/>
            </g>
            <g transform="matrix(1,0,0,1,4486.61,207.795)">
                <path d="M0,0.702L-3.082,0.702C-2.524,0.021 -0.877,0 0,0.702" style="fill:white;fill-rule:nonzero;"/>
            </g>
            <g transform="matrix(1,0,0,1,4486.6,213.794)">
                <path d="M0,-0.662C-0.919,-0.002 -2.181,0 -3.105,-0.662L0,-0.662Z" style="fill:white;fill-rule:nonzero;"/>
            </g>
        </g>
        <g>
            <g transform="matrix(0,-1,-1,0,4529.11,197.748)">
                <path d="M-11.234,-11.234C-17.597,-11.234 -22.758,-6.203 -22.758,-0.001C-22.758,6.204 -17.597,11.234 -11.234,11.234C-4.869,11.234 0.29,6.204 0.29,-0.001C0.29,-6.203 -4.869,-11.234 -11.234,-11.234" style="fill:white;fill-rule:nonzero;"/>
            </g>
            <g transform="matrix(1,0,0,1,4537.43,209.203)">
                <path d="M0,-1.395C0,-1.387 -0.001,-1.379 -0.001,-1.37C-0.4,-1.35 -0.804,-1.353 -1.198,-1.297C-1.329,-1.278 -1.437,-1.106 -1.556,-1.004C-1.431,-0.881 -1.312,-0.659 -1.178,-0.65C-0.466,-0.601 0.25,-0.581 0.963,-0.612C1.096,-0.618 1.267,-0.886 1.318,-1.062C1.338,-1.131 1.089,-1.355 0.94,-1.38C0.634,-1.431 0.314,-1.395 0,-1.395M-16.997,-0.592L-16.997,-0.622C-16.682,-0.622 -16.359,-0.58 -16.056,-0.639C-15.882,-0.672 -15.738,-0.87 -15.581,-0.995C-15.725,-1.103 -15.862,-1.292 -16.013,-1.305C-16.697,-1.363 -17.384,-1.389 -18.07,-1.38C-18.208,-1.379 -18.473,-1.141 -18.455,-1.072C-18.407,-0.894 -18.255,-0.641 -18.107,-0.613C-17.748,-0.548 -17.369,-0.592 -16.997,-0.592M-14.93,2.292C-15.686,2.706 -16.417,3.09 -17.124,3.517C-17.203,3.565 -17.202,3.903 -17.118,4.022C-17.041,4.132 -16.749,4.218 -16.643,4.157C-15.999,3.79 -15.375,3.387 -14.763,2.968C-14.658,2.897 -14.599,2.685 -14.612,2.546C-14.62,2.459 -14.802,2.388 -14.93,2.292M-2.408,2.181C-2.462,2.32 -2.564,2.458 -2.551,2.585C-2.534,2.732 -2.453,2.92 -2.337,3C-1.746,3.402 -1.144,3.789 -0.523,4.143C-0.405,4.21 -0.115,4.159 -0.03,4.057C0.065,3.942 0.091,3.588 0.021,3.546C-0.709,3.103 -1.463,2.702 -2.408,2.181M-13.493,-9.866C-13.58,-9.469 -13.753,-9.166 -13.665,-8.998C-13.338,-8.37 -12.941,-7.777 -12.535,-7.194C-12.452,-7.076 -12.216,-7.063 -12.051,-7.001C-12.014,-7.173 -11.892,-7.386 -11.952,-7.511C-12.271,-8.176 -12.63,-8.824 -12.99,-9.467C-13.05,-9.572 -13.19,-9.631 -13.493,-9.866M-3.285,-9.257C-3.439,-9.402 -3.546,-9.585 -3.676,-9.603C-3.83,-9.624 -4.078,-9.553 -4.156,-9.437C-4.421,-9.035 -4.68,-8.614 -4.847,-8.165C-4.985,-7.796 -4.989,-7.377 -5.053,-6.981C-4.77,-7.247 -4.443,-7.482 -4.214,-7.789C-3.876,-8.24 -3.605,-8.742 -3.285,-9.257M0.223,-5.882C-0.05,-5.968 -0.363,-6.179 -0.521,-6.096C-1.18,-5.751 -1.798,-5.328 -2.411,-4.904C-2.507,-4.838 -2.544,-4.608 -2.516,-4.474C-2.5,-4.398 -2.254,-4.285 -2.179,-4.322C-1.435,-4.69 -0.703,-5.083 0.026,-5.478C0.086,-5.511 0.102,-5.624 0.223,-5.882M-14.414,-4.484C-14.582,-4.727 -14.624,-4.846 -14.708,-4.901C-15.355,-5.323 -16.003,-5.749 -16.675,-6.131C-16.774,-6.187 -17.105,-6.057 -17.14,-5.952C-17.194,-5.789 -17.149,-5.466 -17.033,-5.395C-16.421,-5.023 -15.785,-4.688 -15.133,-4.39C-14.977,-4.318 -14.732,-4.436 -14.414,-4.484M-8.15,-9.252C-8.15,-9.78 -8.106,-10.16 -8.171,-10.521C-8.199,-10.675 -8.438,-10.853 -8.61,-10.894C-8.703,-10.915 -8.964,-10.668 -8.967,-10.538C-8.986,-9.796 -8.967,-9.051 -8.914,-8.311C-8.904,-8.182 -8.681,-8.022 -8.525,-7.972C-8.461,-7.952 -8.244,-8.168 -8.222,-8.297C-8.16,-8.661 -8.163,-9.037 -8.15,-9.252M-8.558,5.608C-7.671,5.608 -6.781,5.652 -5.899,5.584C-5.612,5.563 -5.347,5.252 -5.072,5.074C-5.34,4.851 -5.603,4.444 -5.877,4.435C-7.677,4.377 -9.481,4.381 -11.282,4.433C-11.549,4.441 -11.99,4.777 -12.031,5.015C-12.125,5.566 -11.64,5.607 -11.218,5.608C-10.332,5.611 -9.444,5.608 -8.558,5.608M-8.553,6.073L-8.553,6.07C-9.185,6.07 -9.819,6.109 -10.447,6.059C-11.199,6 -11.521,6.283 -11.429,7.041C-11.402,7.267 -11.406,7.502 -11.428,7.729C-11.499,8.447 -11.137,8.827 -10.464,8.886C-9.524,8.969 -8.575,9.074 -7.638,9.029C-5.836,8.94 -5.642,8.679 -5.713,6.899C-5.715,6.841 -5.72,6.784 -5.717,6.727C-5.694,6.245 -5.939,6.062 -6.401,6.07C-7.118,6.082 -7.836,6.073 -8.553,6.073M-8.568,4.225C-7.823,4.225 -7.073,4.267 -6.333,4.205C-6.037,4.178 -5.673,3.984 -5.497,3.75C-5.071,3.182 -4.747,2.539 -4.363,1.938C-3.038,-0.146 -3.457,-2.887 -5.359,-4.536C-7.145,-6.083 -9.994,-6.083 -11.777,-4.536C-13.681,-2.886 -14.1,-0.146 -12.774,1.938C-12.392,2.539 -12.066,3.182 -11.64,3.75C-11.463,3.984 -11.1,4.178 -10.805,4.205C-10.064,4.267 -9.314,4.225 -8.568,4.225M-8.559,-15.436C-0.457,-15.432 6.157,-8.82 6.163,-0.718C6.167,7.424 -0.472,14.044 -8.621,14.025C-16.715,14.006 -23.311,7.374 -23.299,-0.736C-23.288,-8.836 -16.665,-15.439 -8.559,-15.436" style="fill:rgb(160,32,33);fill-rule:nonzero;"/>
            </g>
            <g transform="matrix(1,0,0,1,4529.63,208.499)">
                <path d="M0,3.582C0.041,3.189 0.13,2.792 0.109,2.401C0.085,1.95 0.107,1.343 -0.16,1.104C-0.401,0.886 -1.136,0.909 -1.41,1.128C-1.661,1.327 -1.627,1.933 -1.643,2.362C-1.658,2.774 -1.574,3.191 -1.534,3.604C-1.611,3.619 -1.688,3.634 -1.764,3.648C-1.988,2.717 -2.236,1.791 -2.411,0.852C-2.443,0.681 -2.221,0.37 -2.038,0.272C-1.771,0.13 -1.436,0.089 -1.126,0.067C0.811,-0.066 1.085,0.254 0.629,2.078C0.498,2.596 0.362,3.113 0.229,3.631C0.153,3.615 0.077,3.599 0,3.582" style="fill:rgb(160,32,33);fill-rule:nonzero;"/>
            </g>
        </g>
    </g>
</svg>
