<?xml version="1.0" encoding="UTF-8" standalone="no"?><!DOCTYPE svg PUBLIC "-//W3C//DTD SVG 1.1//EN" "http://www.w3.org/Graphics/SVG/1.1/DTD/svg11.dtd"><svg width="100%" height="100%" viewBox="0 0 481 102" version="1.1" xmlns="http://www.w3.org/2000/svg" xmlns:xlink="http://www.w3.org/1999/xlink" xml:space="preserve" xmlns:serif="http://www.serif.com/" style="fill-rule:evenodd;clip-rule:evenodd;stroke-linejoin:round;stroke-miterlimit:2;"><rect id="Artboard1" x="0" y="0" width="481" height="102" style="fill:none;"/><clipPath id="_clip1"><rect x="0" y="0" width="481" height="102"/></clipPath><g clip-path="url(#_clip1)"><g><text x="0px" y="12.949px" style="font-family:'Roboto-Regular', 'Roboto';font-size:17px;fill:#fff;">O<tspan x="12.16px 20.909px 30.206px 36.472px 42.943px 48.695px 58.664px 67.961px 74.432px 84.401px 94.054px 103.251px 109.003px 115.474px 125.36px 131.831px 140.58px 149.876px 159.53px 165.797px 174.994px 181.464px 194.671px 203.967px 210.438px 220.407px 229.936px 238.685px 247.981px 254.452px 264.421px 274.075px 284.044px 290.515px 296.267px 306.236px 315.532px 322.003px 331.972px 338.239px 342.796px 351.652px 356.209px 360.766px 370.062px 380.031px 389.328px 395.799px 405.768px 411.935px 418.406px 431.612px 441.581px 447.848px 456.845px 461.402px 471.371px " y="12.949px 12.949px 12.949px 12.949px 12.949px 12.949px 12.949px 12.949px 12.949px 12.949px 12.949px 12.949px 12.949px 12.949px 12.949px 12.949px 12.949px 12.949px 12.949px 12.949px 12.949px 12.949px 12.949px 12.949px 12.949px 12.949px 12.949px 12.949px 12.949px 12.949px 12.949px 12.949px 12.949px 12.949px 12.949px 12.949px 12.949px 12.949px 12.949px 12.949px 12.949px 12.949px 12.949px 12.949px 12.949px 12.949px 12.949px 12.949px 12.949px 12.949px 12.949px 12.949px 12.949px 12.949px 12.949px 12.949px 12.949px ">ver the past 8 years we have had the privilege of working</tspan></text><text x="0px" y="29.949px" style="font-family:'Roboto-Regular', 'Roboto';font-size:17px;fill:#fff;">c<tspan x="9.33px 13.887px 23.855px 33.052px 42.349px 46.906px 55.762px 60.342px 73.548px 78.105px 83.857px 93.826px 98.406px 107.602px 117.571px 132.803px 142.1px 146.679px 156.648px 162.815px 167.395px 173.147px 183.116px 192.412px 196.992px 206.961px 211.518px 221.487px 231.455px 240.752px 249.949px 255.701px 260.281px 270.249px 276.516px 286.17px 296.139px 306.108px 315.304px 319.884px 329.538px 339.506px 349.475px 354.055px 364.024px 370.133px 380.102px 389.755px 399.724px 404.281px 413.138px 422.791px 428.543px 433.1px 443.069px 453.038px 462.235px 466.814px 471.371px " y="29.949px 29.949px 29.949px 29.949px 29.949px 29.949px 29.949px 29.949px 29.949px 29.949px 29.949px 29.949px 29.949px 29.949px 29.949px 29.949px 29.949px 29.949px 29.949px 29.949px 29.949px 29.949px 29.949px 29.949px 29.949px 29.949px 29.949px 29.949px 29.949px 29.949px 29.949px 29.949px 29.949px 29.949px 29.949px 29.949px 29.949px 29.949px 29.949px 29.949px 29.949px 29.949px 29.949px 29.949px 29.949px 29.949px 29.949px 29.949px 29.949px 29.949px 29.949px 29.949px 29.949px 29.949px 29.949px 29.949px 29.949px 29.949px 29.949px ">losely with some of the biggest brands and organizations in</tspan></text><text x="0px" y="46.949px" style="font-family:'Roboto-Regular', 'Roboto';font-size:17px;fill:#fff;">t<tspan x="5.752px 15.721px 25.018px 35.267px 41.376px 50.673px 60.642px 65.198px 75.167px 85.136px 89.95px 100.2px 110.684px 120.653px 126.753px 136.722px 146.691px 156.66px 166.629px 176.879px 186.847px 196.501px 202.61px 212.579px 222.828px 236.035px 246.004px 252.27px 261.268px 264.945px 275.195px 284.848px 295.098px 305.067px 314.363px 324.332px 328.889px 338.219px 347.872px 353.624px 358.181px 368.15px 378.119px 388.368px 393.955px 403.923px 414.173px 423.03px 427.586px 437.555px 442.112px 446.669px 456.322px 466.291px 472.043px " y="46.949px 46.949px 46.949px 46.949px 46.949px 46.949px 46.949px 46.949px 46.949px 46.949px 46.949px 46.949px 46.949px 46.949px 46.949px 46.949px 46.949px 46.949px 46.949px 46.949px 46.949px 46.949px 46.949px 46.949px 46.949px 46.949px 46.949px 46.949px 46.949px 46.949px 46.949px 46.949px 46.949px 46.949px 46.949px 46.949px 46.949px 46.949px 46.949px 46.949px 46.949px 46.949px 46.949px 46.949px 46.949px 46.949px 46.949px 46.949px 46.949px 46.949px 46.949px 46.949px 46.949px 46.949px 46.949px ">he region. Through hard work, a dedication to vigilante</tspan></text><text x="0px" y="63.949px" style="font-family:'Roboto-Regular', 'Roboto';font-size:17px;fill:#fff;">m<tspan x="15.232px 24.885px 31.152px 39.984px 49.28px 55.032px 61.559px 67.668px 76.965px 86.162px 95.458px 105.112px 111.221px 120.55px 130.519px 137.046px 146.7px 156.668px 166.637px 173.164px 182.818px 192.787px 199.313px 209.282px 219.251px 229.22px 238.517px 244.783px 253.98px 259.732px 269.386px 279.355px 289.324px 293.88px 303.849px 313.818px 320.345px 330.314px 336.481px 343.008px 352.977px 362.946px 369.213px 375.739px 385.069px 389.626px 394.183px 403.479px 413.448px 419.2px 422.271px 431.468px 437.995px 447.964px 457.933px 467.586px 472.143px " y="63.949px 63.949px 63.949px 63.949px 63.949px 63.949px 63.949px 63.949px 63.949px 63.949px 63.949px 63.949px 63.949px 63.949px 63.949px 63.949px 63.949px 63.949px 63.949px 63.949px 63.949px 63.949px 63.949px 63.949px 63.949px 63.949px 63.949px 63.949px 63.949px 63.949px 63.949px 63.949px 63.949px 63.949px 63.949px 63.949px 63.949px 63.949px 63.949px 63.949px 63.949px 63.949px 63.949px 63.949px 63.949px 63.949px 63.949px 63.949px 63.949px 63.949px 63.949px 63.949px 63.949px 63.949px 63.949px 63.949px 63.949px ">arket research and an understanding of our client’s goals</tspan></text><text x="0px" y="80.949px" style="font-family:'Roboto-Regular', 'Roboto';font-size:17px;fill:#fff;">a<tspan x="9.653px 19.622px 29.591px 35.123px 40.875px 50.528px 56.637px 66.606px 75.903px 81.655px 90.852px 96.383px 109.589px 118.886px 124.417px 134.386px 143.915px 152.664px 161.96px 167.492px 177.461px 186.757px 196.054px 206.023px 211.554px 221.208px 231.176px 235.733px 245.03px 250.561px 256.147px 266.116px 271.648px 281.616px 290.913px 300.882px 310.178px 316.445px 326.099px 331.851px 341.147px 346.679px 355.411px 365.064px 369.621px 379.59px 389.243px 399.212px 403.769px 413.066px 418.597px 427.927px 434.036px 443.332px 452.986px 458.738px 463.295px 472.043px " y="80.949px 80.949px 80.949px 80.949px 80.949px 80.949px 80.949px 80.949px 80.949px 80.949px 80.949px 80.949px 80.949px 80.949px 80.949px 80.949px 80.949px 80.949px 80.949px 80.949px 80.949px 80.949px 80.949px 80.949px 80.949px 80.949px 80.949px 80.949px 80.949px 80.949px 80.949px 80.949px 80.949px 80.949px 80.949px 80.949px 80.949px 80.949px 80.949px 80.949px 80.949px 80.949px 80.949px 80.949px 80.949px 80.949px 80.949px 80.949px 80.949px 80.949px 80.949px 80.949px 80.949px 80.949px 80.949px 80.949px 80.949px 80.949px ">nd targets we have been able to generate valuable creative</tspan></text><text x="0px" y="97.949px" style="font-family:'Roboto-Regular', 'Roboto';font-size:17px;fill:#fff;">c<tspan x="9.33px 19.299px 29.268px 35.02px 44.316px 54.285px 60.037px " y="97.949px 97.949px 97.949px 97.949px 97.949px 97.949px 97.949px ">ontent.</tspan></text></g></g></svg>