<?xml version="1.0" encoding="UTF-8" standalone="no"?>
<!DOCTYPE svg PUBLIC "-//W3C//DTD SVG 1.1//EN" "http://www.w3.org/Graphics/SVG/1.1/DTD/svg11.dtd">
<svg width="100%" height="100%" viewBox="0 0 510 245" version="1.1" xmlns="http://www.w3.org/2000/svg" xmlns:xlink="http://www.w3.org/1999/xlink" xml:space="preserve" xmlns:serif="http://www.serif.com/" style="fill-rule:evenodd;clip-rule:evenodd;stroke-linejoin:round;stroke-miterlimit:2;">
    <g transform="matrix(1,0,0,1,-408.592,-212.826)">
        <g transform="matrix(0.997452,0,0,1,1.03725,0)">
            <text x="407.096px" y="245.326px" style="font-family:'Roboto-Regular', 'Roboto';font-size:42.667px;fill:white;">W<tspan x="444.053px " y="245.326px ">e</tspan> ar<tspan x="514.947px " y="245.326px ">e</tspan> an adv<tspan x="674.738px 697.218px 712.761px " y="245.326px 245.326px 245.326px ">ert</tspan>ising</text>
        </g>
        <g transform="matrix(0.997452,0,0,1,1.03725,0)">
            <text x="407.096px" y="295.993px" style="font-family:'Roboto-Regular', 'Roboto';font-size:42.667px;fill:white;">agency based in Kampala</text>
        </g>
        <g transform="matrix(0.997452,0,0,1,1.03725,0)">
            <text x="407.096px" y="346.66px" style="font-family:'Roboto-Regular', 'Roboto';font-size:42.667px;fill:white;">Uganda, that use a &apos;<tspan x="779.782px " y="346.66px ">m</tspan>ark<tspan x="876.719px " y="346.66px ">e</tspan>t</text>
        </g>
        <g transform="matrix(0.997452,0,0,1,1.03725,0)">
            <text x="407.096px" y="397.326px" style="font-family:'Roboto-Regular', 'Roboto';font-size:42.667px;fill:white;">r<tspan x="421.574px " y="397.326px ">e</tspan>le<tspan x="476.844px 497.906px " y="397.326px 397.326px ">va</tspan>nt&apos; appr<tspan x="663.197px " y="397.326px ">o</tspan>ach t<tspan x="781.195px " y="397.326px ">o</tspan>war<tspan x="875.507px " y="397.326px ">d</tspan>s</text>
        </g>
        <g transform="matrix(0.997452,0,0,1,1.03725,0)">
            <text x="407.096px" y="447.993px" style="font-family:'Roboto-Regular', 'Roboto';font-size:42.667px;fill:white;">strategy</text>
        </g>
    </g>
</svg>
