<?xml version="1.0" encoding="UTF-8" standalone="no"?><!DOCTYPE svg PUBLIC "-//W3C//DTD SVG 1.1//EN" "http://www.w3.org/Graphics/SVG/1.1/DTD/svg11.dtd"><svg width="100%" height="100%" viewBox="0 0 231 58" version="1.1" xmlns="http://www.w3.org/2000/svg" xmlns:xlink="http://www.w3.org/1999/xlink" xml:space="preserve" xmlns:serif="http://www.serif.com/" style="fill-rule:evenodd;clip-rule:evenodd;stroke-linejoin:round;stroke-miterlimit:2;"><g transform="matrix(0.122985,0,0,0.122985,-2.02746,-0.562058)"><text x="49.352px" y="107px" style="font-family:'SFNewRepublic', 'SF New Republic';font-size:48.786px;fill:#fff;">Script</text><text x="36px" y="155.786px" style="font-family:'SFNewRepublic', 'SF New Republic';font-size:48.786px;fill:#fff;">Writing</text></g><g transform="matrix(0.122985,0,0,0.122985,32.9545,-0.562058)"><text x="86.871px" y="107px" style="font-family:'SFNewRepublic', 'SF New Republic';font-size:48.786px;fill:#fff;">Story</text><text x="36px" y="155.786px" style="font-family:'SFNewRepublic', 'SF New Republic';font-size:48.786px;fill:#fff;">Boarding</text></g><g transform="matrix(0.122985,0,0,0.122985,71.1483,-0.562058)"><text x="36px" y="107px" style="font-family:'SFNewRepublic', 'SF New Republic';font-size:48.786px;fill:#fff;">Graphics</text><text x="60.596px" y="155.786px" style="font-family:'SFNewRepublic', 'SF New Republic';font-size:48.786px;fill:#fff;">Design</text></g><g transform="matrix(0.122985,0,0,0.122985,112.131,-0.562058)"><text x="62.12px" y="107px" style="font-family:'SFNewRepublic', 'SF New Republic';font-size:48.786px;fill:#fff;">Motion</text><text x="36px" y="155.786px" style="font-family:'SFNewRepublic', 'SF New Republic';font-size:48.786px;fill:#fff;">Graphics</text></g><g transform="matrix(0.122985,0,0,0.122985,153.362,-0.562058)"><text x="73.698px" y="107px" style="font-family:'SFNewRepublic', 'SF New Republic';font-size:48.786px;fill:#fff;">Digital</text><text x="36px" y="155.786px" style="font-family:'SFNewRepublic', 'SF New Republic';font-size:48.786px;fill:#fff;">Animation</text></g><g transform="matrix(0.122985,0,0,0.122985,192.395,-0.562058)"><text x="36px" y="107px" style="font-family:'SFNewRepublic', 'SF New Republic';font-size:48.786px;fill:#fff;">Voice-Over</text><text x="45.779px" y="155.786px" style="font-family:'SFNewRepublic', 'SF New Republic';font-size:48.786px;fill:#fff;">Recording</text></g><g><path d="M13,26.012c6.359,-0 11.52,5.151 11.52,11.52c-0,6.359 -5.161,11.52 -11.52,11.52c-6.368,-0 -11.52,-5.161 -11.52,-11.52c0,-6.369 5.152,-11.52 11.52,-11.52Z" style="fill:#141515;"/><path d="M13,26.74c5.963,-0 10.801,4.838 10.801,10.801c0,4.414 -2.645,8.211 -6.433,9.889l-0.884,-1.493c3.29,-1.364 5.594,-4.608 5.594,-8.396c-0,-5.014 -4.065,-9.087 -9.078,-9.087c-5.023,-0 -9.087,4.073 -9.087,9.087c-0,3.788 2.313,7.032 5.594,8.396l-0.885,1.493c-3.787,-1.678 -6.432,-5.475 -6.432,-9.889c-0,-5.963 4.838,-10.801 10.81,-10.801Z" style="fill:#fbca08;"/><path d="M22.354,32.14c0.922,1.585 1.447,3.438 1.447,5.401c0,4.414 -2.645,8.211 -6.433,9.889l-0.884,-1.493c3.29,-1.364 5.594,-4.608 5.594,-8.396c-0,-1.65 -0.443,-3.207 -1.208,-4.544l1.484,-0.857Z" style="fill:#b72325;"/><path d="M5.13,32.997c-0.775,1.337 -1.217,2.894 -1.217,4.544c-0,3.788 2.313,7.032 5.594,8.396l-0.885,1.493c-3.787,-1.678 -6.432,-5.475 -6.432,-9.889c-0,-1.963 0.525,-3.816 1.447,-5.401l1.493,0.857Z" style="fill:#00ff68;"/></g><g><path d="M50.28,26.012c6.359,-0 11.52,5.151 11.52,11.52c-0,6.359 -5.161,11.52 -11.52,11.52c-6.368,-0 -11.52,-5.161 -11.52,-11.52c-0,-6.369 5.152,-11.52 11.52,-11.52Z" style="fill:#141515;"/><path d="M50.28,26.74c5.963,-0 10.801,4.838 10.801,10.801c0,4.414 -2.645,8.211 -6.433,9.889l-0.884,-1.493c3.29,-1.364 5.594,-4.608 5.594,-8.396c-0,-5.014 -4.065,-9.087 -9.078,-9.087c-5.023,-0 -9.087,4.073 -9.087,9.087c-0,3.788 2.313,7.032 5.594,8.396l-0.885,1.493c-3.787,-1.678 -6.432,-5.475 -6.432,-9.889c-0,-5.963 4.838,-10.801 10.81,-10.801Z" style="fill:#fbca08;"/><path d="M59.634,32.14c0.922,1.585 1.447,3.438 1.447,5.401c0,4.414 -2.645,8.211 -6.433,9.889l-0.884,-1.493c3.29,-1.364 5.594,-4.608 5.594,-8.396c-0,-1.65 -0.443,-3.207 -1.208,-4.544l1.484,-0.857Z" style="fill:#b72325;"/><path d="M42.409,32.997c-0.774,1.337 -1.216,2.894 -1.216,4.544c-0,3.788 2.313,7.032 5.594,8.396l-0.885,1.493c-3.787,-1.678 -6.432,-5.475 -6.432,-9.889c-0,-1.963 0.525,-3.816 1.446,-5.401l1.493,0.857Z" style="fill:#00ff68;"/></g><g><path d="M88.8,26.012c6.359,-0 11.52,5.151 11.52,11.52c0,6.359 -5.161,11.52 -11.52,11.52c-6.368,-0 -11.52,-5.161 -11.52,-11.52c0,-6.369 5.152,-11.52 11.52,-11.52Z" style="fill:#141515;"/><path d="M88.8,26.74c5.963,-0 10.801,4.838 10.801,10.801c0,4.414 -2.645,8.211 -6.432,9.889l-0.885,-1.493c3.29,-1.364 5.594,-4.608 5.594,-8.396c0,-5.014 -4.064,-9.087 -9.078,-9.087c-5.022,-0 -9.087,4.073 -9.087,9.087c0,3.788 2.314,7.032 5.594,8.396l-0.884,1.493c-3.788,-1.678 -6.433,-5.475 -6.433,-9.889c-0,-5.963 4.838,-10.801 10.81,-10.801Z" style="fill:#fbca08;"/><path d="M98.155,32.14c0.921,1.585 1.446,3.438 1.446,5.401c0,4.414 -2.645,8.211 -6.432,9.889l-0.885,-1.493c3.29,-1.364 5.594,-4.608 5.594,-8.396c0,-1.65 -0.442,-3.207 -1.207,-4.544l1.484,-0.857Z" style="fill:#b72325;"/><path d="M80.93,32.997c-0.774,1.337 -1.217,2.894 -1.217,4.544c0,3.788 2.314,7.032 5.594,8.396l-0.884,1.493c-3.788,-1.678 -6.433,-5.475 -6.433,-9.889c-0,-1.963 0.525,-3.816 1.447,-5.401l1.493,0.857Z" style="fill:#00ff68;"/></g><g><path d="M130.011,26.012c6.359,-0 11.52,5.151 11.52,11.52c-0,6.359 -5.161,11.52 -11.52,11.52c-6.369,-0 -11.52,-5.161 -11.52,-11.52c-0,-6.369 5.151,-11.52 11.52,-11.52Z" style="fill:#141515;"/><path d="M130.011,26.74c5.962,-0 10.801,4.838 10.801,10.801c-0,4.414 -2.645,8.211 -6.433,9.889l-0.885,-1.493c3.29,-1.364 5.594,-4.608 5.594,-8.396c0,-5.014 -4.064,-9.087 -9.077,-9.087c-5.023,-0 -9.087,4.073 -9.087,9.087c-0,3.788 2.313,7.032 5.594,8.396l-0.885,1.493c-3.788,-1.678 -6.433,-5.475 -6.433,-9.889c0,-5.963 4.839,-10.801 10.811,-10.801Z" style="fill:#fbca08;"/><path d="M139.365,32.14c0.921,1.585 1.447,3.438 1.447,5.401c-0,4.414 -2.645,8.211 -6.433,9.889l-0.885,-1.493c3.29,-1.364 5.594,-4.608 5.594,-8.396c0,-1.65 -0.442,-3.207 -1.207,-4.544l1.484,-0.857Z" style="fill:#b72325;"/><path d="M122.14,32.997c-0.774,1.337 -1.216,2.894 -1.216,4.544c-0,3.788 2.313,7.032 5.594,8.396l-0.885,1.493c-3.788,-1.678 -6.433,-5.475 -6.433,-9.889c0,-1.963 0.526,-3.816 1.447,-5.401l1.493,0.857Z" style="fill:#00ff68;"/></g><g><path d="M171.801,26.012c6.359,-0 11.52,5.151 11.52,11.52c-0,6.359 -5.161,11.52 -11.52,11.52c-6.369,-0 -11.52,-5.161 -11.52,-11.52c-0,-6.369 5.151,-11.52 11.52,-11.52Z" style="fill:#141515;"/><path d="M171.801,26.74c5.962,-0 10.801,4.838 10.801,10.801c-0,4.414 -2.645,8.211 -6.433,9.889l-0.885,-1.493c3.29,-1.364 5.594,-4.608 5.594,-8.396c0,-5.014 -4.064,-9.087 -9.077,-9.087c-5.023,-0 -9.087,4.073 -9.087,9.087c-0,3.788 2.313,7.032 5.594,8.396l-0.885,1.493c-3.788,-1.678 -6.433,-5.475 -6.433,-9.889c0,-5.963 4.839,-10.801 10.811,-10.801Z" style="fill:#fbca08;"/><path d="M181.155,32.14c0.921,1.585 1.447,3.438 1.447,5.401c-0,4.414 -2.645,8.211 -6.433,9.889l-0.885,-1.493c3.29,-1.364 5.594,-4.608 5.594,-8.396c0,-1.65 -0.442,-3.207 -1.207,-4.544l1.484,-0.857Z" style="fill:#b72325;"/><path d="M163.93,32.997c-0.774,1.337 -1.216,2.894 -1.216,4.544c-0,3.788 2.313,7.032 5.594,8.396l-0.885,1.493c-3.788,-1.678 -6.433,-5.475 -6.433,-9.889c0,-1.963 0.526,-3.816 1.447,-5.401l1.493,0.857Z" style="fill:#00ff68;"/></g><g><path d="M212.411,26.012c6.359,-0 11.52,5.151 11.52,11.52c0,6.359 -5.161,11.52 -11.52,11.52c-6.368,-0 -11.52,-5.161 -11.52,-11.52c0,-6.369 5.152,-11.52 11.52,-11.52Z" style="fill:#141515;"/><path d="M212.411,26.74c5.963,-0 10.801,4.838 10.801,10.801c0,4.414 -2.645,8.211 -6.432,9.889l-0.885,-1.493c3.29,-1.364 5.594,-4.608 5.594,-8.396c-0,-5.014 -4.064,-9.087 -9.078,-9.087c-5.023,-0 -9.087,4.073 -9.087,9.087c0,3.788 2.313,7.032 5.594,8.396l-0.885,1.493c-3.787,-1.678 -6.432,-5.475 -6.432,-9.889c-0,-5.963 4.838,-10.801 10.81,-10.801Z" style="fill:#fbca08;"/><path d="M221.765,32.14c0.922,1.585 1.447,3.438 1.447,5.401c0,4.414 -2.645,8.211 -6.432,9.889l-0.885,-1.493c3.29,-1.364 5.594,-4.608 5.594,-8.396c-0,-1.65 -0.442,-3.207 -1.207,-4.544l1.483,-0.857Z" style="fill:#b72325;"/><path d="M204.541,32.997c-0.775,1.337 -1.217,2.894 -1.217,4.544c0,3.788 2.313,7.032 5.594,8.396l-0.885,1.493c-3.787,-1.678 -6.432,-5.475 -6.432,-9.889c-0,-1.963 0.525,-3.816 1.447,-5.401l1.493,0.857Z" style="fill:#00ff68;"/></g><g><path d="M9.399,46.953l2.303,-6.794l2.311,-6.798l0.499,0.191l0.503,0.199l-2.802,6.604l-2.814,6.598Z" style="fill:#fff;"/><path d="M14.003,39.797c-1.245,0.556 -2.706,-0.002 -3.267,-1.255c-0.556,-1.246 -0.002,-2.715 1.243,-3.272c1.254,-0.56 2.718,0.006 3.275,1.251c0.561,1.254 0.003,2.715 -1.251,3.276Z" style="fill:#40494d;"/><path d="M13.36,38.358c-0.446,0.199 -0.982,-0.005 -1.185,-0.46c-0.203,-0.454 0.005,-0.981 0.451,-1.181c0.454,-0.203 0.986,-0.007 1.19,0.448c0.203,0.454 -0.002,0.99 -0.456,1.193Z" style="fill:#fff;"/></g><g><path d="M41.678,32.26l6.253,3.516l6.255,3.525l-0.279,0.455l-0.289,0.458l-5.973,-3.972l-5.967,-3.982Z" style="fill:#fff;"/><path d="M47.863,38.104c-0.317,-1.326 0.501,-2.659 1.836,-2.979c1.326,-0.318 2.669,0.498 2.986,1.825c0.32,1.335 -0.507,2.67 -1.833,2.988c-1.336,0.32 -2.669,-0.498 -2.989,-1.834Z" style="fill:#40494d;"/><path d="M49.396,37.737c-0.114,-0.475 0.186,-0.963 0.67,-1.079c0.484,-0.116 0.964,0.186 1.078,0.661c0.115,0.484 -0.175,0.97 -0.659,1.086c-0.484,0.116 -0.973,-0.184 -1.089,-0.668Z" style="fill:#fff;"/></g><g><path d="M92.993,46.701l-3.23,-6.405l-3.228,-6.414l0.486,-0.222l0.495,-0.219l2.744,6.627l2.733,6.633Z" style="fill:#fff;"/><path d="M91.117,38.401c-0.476,1.278 -1.898,1.929 -3.185,1.449c-1.278,-0.475 -1.937,-1.901 -1.461,-3.179c0.479,-1.287 1.91,-1.934 3.188,-1.458c1.287,0.479 1.937,1.901 1.458,3.188Z" style="fill:#40494d;"/><path d="M89.64,37.851c-0.17,0.458 -0.691,0.696 -1.158,0.523c-0.466,-0.174 -0.696,-0.692 -0.526,-1.15c0.174,-0.466 0.687,-0.708 1.153,-0.534c0.467,0.173 0.705,0.695 0.531,1.161Z" style="fill:#fff;"/></g><g><path d="M133.997,46.793l-3.086,-6.476l-3.083,-6.484l0.491,-0.212l0.499,-0.208l2.596,6.688l2.583,6.692Z" style="fill:#fff;"/><path d="M132.308,38.453c-0.505,1.267 -1.941,1.885 -3.217,1.378c-1.267,-0.505 -1.895,-1.945 -1.39,-3.212c0.508,-1.276 1.953,-1.891 3.22,-1.386c1.276,0.507 1.894,1.944 1.387,3.22Z" style="fill:#40494d;"/><path d="M130.843,37.87c-0.18,0.454 -0.707,0.68 -1.169,0.496c-0.463,-0.184 -0.681,-0.707 -0.5,-1.161c0.184,-0.462 0.702,-0.692 1.164,-0.508c0.463,0.184 0.689,0.711 0.505,1.173Z" style="fill:#fff;"/></g><g><path d="M181.397,40.616l-6.908,-1.934l-6.912,-1.942l0.164,-0.509l0.172,-0.513l6.744,2.443l6.74,2.455Z" style="fill:#fff;"/><path d="M174.004,36.403c0.622,1.214 0.144,2.703 -1.078,3.33c-1.213,0.623 -2.711,0.148 -3.334,-1.065c-0.627,-1.222 -0.139,-2.715 1.074,-3.338c1.222,-0.627 2.71,-0.148 3.338,1.073Z" style="fill:#40494d;"/><path d="M172.602,37.123c0.223,0.435 0.047,0.981 -0.396,1.208c-0.443,0.227 -0.98,0.047 -1.203,-0.387c-0.228,-0.443 -0.06,-0.985 0.383,-1.212c0.442,-0.227 0.988,-0.052 1.216,0.391Z" style="fill:#fff;"/></g><g><path d="M208.314,46.749l2.661,-6.662l2.67,-6.665l0.488,0.217l0.491,0.225l-3.149,6.445l-3.161,6.44Z" style="fill:#fff;"/><path d="M213.292,39.847c-1.273,0.49 -2.702,-0.145 -3.195,-1.427c-0.49,-1.273 0.142,-2.711 1.415,-3.201c1.282,-0.493 2.714,0.151 3.204,1.424c0.493,1.282 -0.142,2.711 -1.424,3.204Z" style="fill:#40494d;"/><path d="M212.726,38.376c-0.455,0.176 -0.979,-0.057 -1.158,-0.522c-0.179,-0.464 0.057,-0.98 0.513,-1.155c0.465,-0.179 0.985,0.045 1.164,0.51c0.179,0.464 -0.054,0.989 -0.519,1.167Z" style="fill:#fff;"/></g></svg>