<?xml version="1.0" encoding="UTF-8" standalone="no"?><!DOCTYPE svg PUBLIC "-//W3C//DTD SVG 1.1//EN" "http://www.w3.org/Graphics/SVG/1.1/DTD/svg11.dtd"><svg width="100%" height="100%" viewBox="0 0 231 58" version="1.1" xmlns="http://www.w3.org/2000/svg" xmlns:xlink="http://www.w3.org/1999/xlink" xml:space="preserve" xmlns:serif="http://www.serif.com/" style="fill-rule:evenodd;clip-rule:evenodd;stroke-linejoin:round;stroke-miterlimit:2;"><g transform="matrix(0.122985,0,0,0.122985,-2.02746,-0.562058)"><text x="49.352px" y="107px" style="font-family:'SFNewRepublic', 'SF New Republic';font-size:48.786px;fill:#fff;">Script</text><text x="36px" y="155.786px" style="font-family:'SFNewRepublic', 'SF New Republic';font-size:48.786px;fill:#fff;">Writing</text></g><g transform="matrix(0.122985,0,0,0.122985,32.9545,-0.562058)"><text x="86.871px" y="107px" style="font-family:'SFNewRepublic', 'SF New Republic';font-size:48.786px;fill:#fff;">Story</text><text x="36px" y="155.786px" style="font-family:'SFNewRepublic', 'SF New Republic';font-size:48.786px;fill:#fff;">Boarding</text></g><g transform="matrix(0.122985,0,0,0.122985,71.1483,-0.562058)"><text x="36px" y="107px" style="font-family:'SFNewRepublic', 'SF New Republic';font-size:48.786px;fill:#fff;">Graphics</text><text x="60.596px" y="155.786px" style="font-family:'SFNewRepublic', 'SF New Republic';font-size:48.786px;fill:#fff;">Design</text></g><g transform="matrix(0.122985,0,0,0.122985,112.131,-0.562058)"><text x="62.12px" y="107px" style="font-family:'SFNewRepublic', 'SF New Republic';font-size:48.786px;fill:#fff;">Motion</text><text x="36px" y="155.786px" style="font-family:'SFNewRepublic', 'SF New Republic';font-size:48.786px;fill:#fff;">Graphics</text></g><g transform="matrix(0.122985,0,0,0.122985,153.362,-0.562058)"><text x="73.698px" y="107px" style="font-family:'SFNewRepublic', 'SF New Republic';font-size:48.786px;fill:#fff;">Digital</text><text x="36px" y="155.786px" style="font-family:'SFNewRepublic', 'SF New Republic';font-size:48.786px;fill:#fff;">Animation</text></g><g transform="matrix(0.122985,0,0,0.122985,192.395,-0.562058)"><text x="36px" y="107px" style="font-family:'SFNewRepublic', 'SF New Republic';font-size:48.786px;fill:#fff;">Voice-Over</text><text x="45.779px" y="155.786px" style="font-family:'SFNewRepublic', 'SF New Republic';font-size:48.786px;fill:#fff;">Recording</text></g><g><path d="M13,26.012c6.359,-0 11.52,5.151 11.52,11.52c-0,6.359 -5.161,11.52 -11.52,11.52c-6.368,-0 -11.52,-5.161 -11.52,-11.52c0,-6.369 5.152,-11.52 11.52,-11.52Z" style="fill:#141515;"/><path d="M13,26.74c5.963,-0 10.801,4.838 10.801,10.801c0,4.414 -2.645,8.211 -6.433,9.889l-0.884,-1.493c3.29,-1.364 5.594,-4.608 5.594,-8.396c-0,-5.014 -4.065,-9.087 -9.078,-9.087c-5.023,-0 -9.087,4.073 -9.087,9.087c-0,3.788 2.313,7.032 5.594,8.396l-0.885,1.493c-3.787,-1.678 -6.432,-5.475 -6.432,-9.889c-0,-5.963 4.838,-10.801 10.81,-10.801Z" style="fill:#fbca08;"/><path d="M22.354,32.14c0.922,1.585 1.447,3.438 1.447,5.401c0,4.414 -2.645,8.211 -6.433,9.889l-0.884,-1.493c3.29,-1.364 5.594,-4.608 5.594,-8.396c-0,-1.65 -0.443,-3.207 -1.208,-4.544l1.484,-0.857Z" style="fill:#b72325;"/><path d="M5.13,32.997c-0.775,1.337 -1.217,2.894 -1.217,4.544c-0,3.788 2.313,7.032 5.594,8.396l-0.885,1.493c-3.787,-1.678 -6.432,-5.475 -6.432,-9.889c-0,-1.963 0.525,-3.816 1.447,-5.401l1.493,0.857Z" style="fill:#00ff68;"/></g><g><path d="M50.28,26.012c6.359,-0 11.52,5.151 11.52,11.52c-0,6.359 -5.161,11.52 -11.52,11.52c-6.368,-0 -11.52,-5.161 -11.52,-11.52c-0,-6.369 5.152,-11.52 11.52,-11.52Z" style="fill:#141515;"/><path d="M50.28,26.74c5.963,-0 10.801,4.838 10.801,10.801c0,4.414 -2.645,8.211 -6.433,9.889l-0.884,-1.493c3.29,-1.364 5.594,-4.608 5.594,-8.396c-0,-5.014 -4.065,-9.087 -9.078,-9.087c-5.023,-0 -9.087,4.073 -9.087,9.087c-0,3.788 2.313,7.032 5.594,8.396l-0.885,1.493c-3.787,-1.678 -6.432,-5.475 -6.432,-9.889c-0,-5.963 4.838,-10.801 10.81,-10.801Z" style="fill:#fbca08;"/><path d="M59.634,32.14c0.922,1.585 1.447,3.438 1.447,5.401c0,4.414 -2.645,8.211 -6.433,9.889l-0.884,-1.493c3.29,-1.364 5.594,-4.608 5.594,-8.396c-0,-1.65 -0.443,-3.207 -1.208,-4.544l1.484,-0.857Z" style="fill:#b72325;"/><path d="M42.409,32.997c-0.774,1.337 -1.216,2.894 -1.216,4.544c-0,3.788 2.313,7.032 5.594,8.396l-0.885,1.493c-3.787,-1.678 -6.432,-5.475 -6.432,-9.889c-0,-1.963 0.525,-3.816 1.446,-5.401l1.493,0.857Z" style="fill:#00ff68;"/></g><g><path d="M88.8,26.012c6.359,-0 11.52,5.151 11.52,11.52c0,6.359 -5.161,11.52 -11.52,11.52c-6.368,-0 -11.52,-5.161 -11.52,-11.52c0,-6.369 5.152,-11.52 11.52,-11.52Z" style="fill:#141515;"/><path d="M88.8,26.74c5.963,-0 10.801,4.838 10.801,10.801c0,4.414 -2.645,8.211 -6.432,9.889l-0.885,-1.493c3.29,-1.364 5.594,-4.608 5.594,-8.396c0,-5.014 -4.064,-9.087 -9.078,-9.087c-5.022,-0 -9.087,4.073 -9.087,9.087c0,3.788 2.314,7.032 5.594,8.396l-0.884,1.493c-3.788,-1.678 -6.433,-5.475 -6.433,-9.889c-0,-5.963 4.838,-10.801 10.81,-10.801Z" style="fill:#fbca08;"/><path d="M98.155,32.14c0.921,1.585 1.446,3.438 1.446,5.401c0,4.414 -2.645,8.211 -6.432,9.889l-0.885,-1.493c3.29,-1.364 5.594,-4.608 5.594,-8.396c0,-1.65 -0.442,-3.207 -1.207,-4.544l1.484,-0.857Z" style="fill:#b72325;"/><path d="M80.93,32.997c-0.774,1.337 -1.217,2.894 -1.217,4.544c0,3.788 2.314,7.032 5.594,8.396l-0.884,1.493c-3.788,-1.678 -6.433,-5.475 -6.433,-9.889c-0,-1.963 0.525,-3.816 1.447,-5.401l1.493,0.857Z" style="fill:#00ff68;"/></g><g><path d="M130.011,26.012c6.359,-0 11.52,5.151 11.52,11.52c-0,6.359 -5.161,11.52 -11.52,11.52c-6.369,-0 -11.52,-5.161 -11.52,-11.52c-0,-6.369 5.151,-11.52 11.52,-11.52Z" style="fill:#141515;"/><path d="M130.011,26.74c5.962,-0 10.801,4.838 10.801,10.801c-0,4.414 -2.645,8.211 -6.433,9.889l-0.885,-1.493c3.29,-1.364 5.594,-4.608 5.594,-8.396c0,-5.014 -4.064,-9.087 -9.077,-9.087c-5.023,-0 -9.087,4.073 -9.087,9.087c-0,3.788 2.313,7.032 5.594,8.396l-0.885,1.493c-3.788,-1.678 -6.433,-5.475 -6.433,-9.889c0,-5.963 4.839,-10.801 10.811,-10.801Z" style="fill:#fbca08;"/><path d="M139.365,32.14c0.921,1.585 1.447,3.438 1.447,5.401c-0,4.414 -2.645,8.211 -6.433,9.889l-0.885,-1.493c3.29,-1.364 5.594,-4.608 5.594,-8.396c0,-1.65 -0.442,-3.207 -1.207,-4.544l1.484,-0.857Z" style="fill:#b72325;"/><path d="M122.14,32.997c-0.774,1.337 -1.216,2.894 -1.216,4.544c-0,3.788 2.313,7.032 5.594,8.396l-0.885,1.493c-3.788,-1.678 -6.433,-5.475 -6.433,-9.889c0,-1.963 0.526,-3.816 1.447,-5.401l1.493,0.857Z" style="fill:#00ff68;"/></g><g><path d="M171.801,26.012c6.359,-0 11.52,5.151 11.52,11.52c-0,6.359 -5.161,11.52 -11.52,11.52c-6.369,-0 -11.52,-5.161 -11.52,-11.52c-0,-6.369 5.151,-11.52 11.52,-11.52Z" style="fill:#141515;"/><path d="M171.801,26.74c5.962,-0 10.801,4.838 10.801,10.801c-0,4.414 -2.645,8.211 -6.433,9.889l-0.885,-1.493c3.29,-1.364 5.594,-4.608 5.594,-8.396c0,-5.014 -4.064,-9.087 -9.077,-9.087c-5.023,-0 -9.087,4.073 -9.087,9.087c-0,3.788 2.313,7.032 5.594,8.396l-0.885,1.493c-3.788,-1.678 -6.433,-5.475 -6.433,-9.889c0,-5.963 4.839,-10.801 10.811,-10.801Z" style="fill:#fbca08;"/><path d="M181.155,32.14c0.921,1.585 1.447,3.438 1.447,5.401c-0,4.414 -2.645,8.211 -6.433,9.889l-0.885,-1.493c3.29,-1.364 5.594,-4.608 5.594,-8.396c0,-1.65 -0.442,-3.207 -1.207,-4.544l1.484,-0.857Z" style="fill:#b72325;"/><path d="M163.93,32.997c-0.774,1.337 -1.216,2.894 -1.216,4.544c-0,3.788 2.313,7.032 5.594,8.396l-0.885,1.493c-3.788,-1.678 -6.433,-5.475 -6.433,-9.889c0,-1.963 0.526,-3.816 1.447,-5.401l1.493,0.857Z" style="fill:#00ff68;"/></g><g><path d="M212.411,26.012c6.359,-0 11.52,5.151 11.52,11.52c0,6.359 -5.161,11.52 -11.52,11.52c-6.368,-0 -11.52,-5.161 -11.52,-11.52c0,-6.369 5.152,-11.52 11.52,-11.52Z" style="fill:#141515;"/><path d="M212.411,26.74c5.963,-0 10.801,4.838 10.801,10.801c0,4.414 -2.645,8.211 -6.432,9.889l-0.885,-1.493c3.29,-1.364 5.594,-4.608 5.594,-8.396c-0,-5.014 -4.064,-9.087 -9.078,-9.087c-5.023,-0 -9.087,4.073 -9.087,9.087c0,3.788 2.313,7.032 5.594,8.396l-0.885,1.493c-3.787,-1.678 -6.432,-5.475 -6.432,-9.889c-0,-5.963 4.838,-10.801 10.81,-10.801Z" style="fill:#fbca08;"/><path d="M221.765,32.14c0.922,1.585 1.447,3.438 1.447,5.401c0,4.414 -2.645,8.211 -6.432,9.889l-0.885,-1.493c3.29,-1.364 5.594,-4.608 5.594,-8.396c-0,-1.65 -0.442,-3.207 -1.207,-4.544l1.483,-0.857Z" style="fill:#b72325;"/><path d="M204.541,32.997c-0.775,1.337 -1.217,2.894 -1.217,4.544c0,3.788 2.313,7.032 5.594,8.396l-0.885,1.493c-3.787,-1.678 -6.432,-5.475 -6.432,-9.889c-0,-1.963 0.525,-3.816 1.447,-5.401l1.493,0.857Z" style="fill:#00ff68;"/></g><g><path d="M22.342,41.319l-6.746,-2.441l-6.749,-2.449l0.201,-0.495l0.209,-0.499l6.545,2.936l6.54,2.948Z" style="fill:#fff;"/><path d="M15.28,36.57c0.532,1.256 -0.056,2.706 -1.321,3.241c-1.256,0.531 -2.714,-0.053 -3.245,-1.31c-0.535,-1.264 0.061,-2.717 1.317,-3.248c1.265,-0.535 2.715,0.052 3.249,1.317Z" style="fill:#40494d;"/><path d="M13.829,37.184c0.19,0.45 -0.025,0.981 -0.484,1.175c-0.458,0.194 -0.981,-0.025 -1.171,-0.475c-0.194,-0.458 0.013,-0.986 0.471,-1.18c0.459,-0.194 0.99,0.022 1.184,0.48Z" style="fill:#fff;"/></g><g><path d="M59.545,41.503l-6.696,-2.573l-6.699,-2.583l0.21,-0.491l0.219,-0.495l6.486,3.066l6.48,3.076Z" style="fill:#fff;"/><path d="M52.579,36.616c0.506,1.266 -0.11,2.704 -1.385,3.213c-1.267,0.507 -2.713,-0.106 -3.219,-1.373c-0.51,-1.275 0.115,-2.716 1.382,-3.222c1.275,-0.51 2.712,0.107 3.222,1.382Z" style="fill:#40494d;"/><path d="M51.116,37.201c0.181,0.453 -0.045,0.98 -0.507,1.165c-0.462,0.185 -0.981,-0.045 -1.162,-0.498c-0.185,-0.462 0.033,-0.986 0.495,-1.171c0.462,-0.185 0.989,0.042 1.174,0.504Z" style="fill:#fff;"/></g><g><path d="M98.205,41.161l-6.786,-2.327l-6.79,-2.335l0.193,-0.498l0.201,-0.503l6.593,2.826l6.589,2.837Z" style="fill:#fff;"/><path d="M91.064,36.532c0.553,1.247 -0.011,2.706 -1.266,3.262c-1.247,0.552 -2.715,-0.007 -3.267,-1.254c-0.556,-1.256 0.015,-2.719 1.263,-3.271c1.255,-0.556 2.714,0.007 3.27,1.263Z" style="fill:#40494d;"/><path d="M89.623,37.17c0.198,0.447 -0.008,0.982 -0.464,1.183c-0.455,0.202 -0.981,-0.009 -1.179,-0.455c-0.201,-0.455 -0.003,-0.986 0.452,-1.188c0.455,-0.202 0.99,0.005 1.191,0.46Z" style="fill:#fff;"/></g><g><path d="M134.103,46.747l-3.16,-6.44l-3.157,-6.449l0.488,-0.217l0.497,-0.214l2.672,6.657l2.66,6.663Z" style="fill:#fff;"/><path d="M132.318,38.426c-0.49,1.273 -1.919,1.908 -3.201,1.415c-1.273,-0.49 -1.916,-1.923 -1.426,-3.196c0.493,-1.281 1.931,-1.913 3.204,-1.423c1.281,0.493 1.916,1.923 1.423,3.204Z" style="fill:#40494d;"/><path d="M130.847,37.86c-0.175,0.456 -0.699,0.689 -1.164,0.51c-0.464,-0.179 -0.688,-0.699 -0.513,-1.155c0.179,-0.465 0.694,-0.701 1.159,-0.522c0.464,0.179 0.697,0.703 0.518,1.167Z" style="fill:#fff;"/></g><g><path d="M180.917,41.833l-6.599,-2.812l-6.603,-2.821l0.228,-0.483l0.237,-0.487l6.371,3.296l6.366,3.307Z" style="fill:#fff;"/><path d="M174.131,36.699c0.461,1.284 -0.207,2.698 -1.5,3.162c-1.284,0.46 -2.707,-0.204 -3.167,-1.488c-0.464,-1.293 0.213,-2.71 1.497,-3.171c1.292,-0.463 2.706,0.204 3.17,1.497Z" style="fill:#40494d;"/><path d="M172.648,37.231c0.165,0.46 -0.08,0.978 -0.549,1.146c-0.468,0.168 -0.978,-0.08 -1.143,-0.539c-0.168,-0.469 0.068,-0.984 0.537,-1.152c0.468,-0.168 0.987,0.077 1.155,0.545Z" style="fill:#fff;"/></g><g><path d="M221.413,42.068l-6.524,-2.982l-6.527,-2.991l0.24,-0.477l0.249,-0.48l6.284,3.459l6.278,3.471Z" style="fill:#fff;"/><path d="M214.762,36.76c0.428,1.295 -0.276,2.692 -1.581,3.122c-1.295,0.427 -2.7,-0.274 -3.128,-1.57c-0.43,-1.304 0.283,-2.703 1.579,-3.13c1.304,-0.43 2.7,0.274 3.13,1.578Z" style="fill:#40494d;"/><path d="M213.266,37.253c0.153,0.464 -0.105,0.976 -0.578,1.132c-0.473,0.156 -0.976,-0.105 -1.129,-0.569c-0.156,-0.473 0.093,-0.982 0.566,-1.138c0.473,-0.156 0.985,0.102 1.141,0.575Z" style="fill:#fff;"/></g></svg>