<?xml version="1.0" encoding="UTF-8" standalone="no"?><!DOCTYPE svg PUBLIC "-//W3C//DTD SVG 1.1//EN" "http://www.w3.org/Graphics/SVG/1.1/DTD/svg11.dtd"><svg width="100%" height="100%" viewBox="0 0 231 58" version="1.1" xmlns="http://www.w3.org/2000/svg" xmlns:xlink="http://www.w3.org/1999/xlink" xml:space="preserve" xmlns:serif="http://www.serif.com/" style="fill-rule:evenodd;clip-rule:evenodd;stroke-linejoin:round;stroke-miterlimit:2;"><g transform="matrix(0.122985,0,0,0.122985,-2.02746,-0.562058)"><text x="49.352px" y="107px" style="font-family:'SFNewRepublic', 'SF New Republic';font-size:48.786px;fill:#fff;">Script</text><text x="36px" y="155.786px" style="font-family:'SFNewRepublic', 'SF New Republic';font-size:48.786px;fill:#fff;">Writing</text></g><g transform="matrix(0.122985,0,0,0.122985,32.9545,-0.562058)"><text x="86.871px" y="107px" style="font-family:'SFNewRepublic', 'SF New Republic';font-size:48.786px;fill:#fff;">Story</text><text x="36px" y="155.786px" style="font-family:'SFNewRepublic', 'SF New Republic';font-size:48.786px;fill:#fff;">Boarding</text></g><g transform="matrix(0.122985,0,0,0.122985,71.1483,-0.562058)"><text x="36px" y="107px" style="font-family:'SFNewRepublic', 'SF New Republic';font-size:48.786px;fill:#fff;">Graphics</text><text x="60.596px" y="155.786px" style="font-family:'SFNewRepublic', 'SF New Republic';font-size:48.786px;fill:#fff;">Design</text></g><g transform="matrix(0.122985,0,0,0.122985,112.131,-0.562058)"><text x="62.12px" y="107px" style="font-family:'SFNewRepublic', 'SF New Republic';font-size:48.786px;fill:#fff;">Motion</text><text x="36px" y="155.786px" style="font-family:'SFNewRepublic', 'SF New Republic';font-size:48.786px;fill:#fff;">Graphics</text></g><g transform="matrix(0.122985,0,0,0.122985,153.362,-0.562058)"><text x="73.698px" y="107px" style="font-family:'SFNewRepublic', 'SF New Republic';font-size:48.786px;fill:#fff;">Digital</text><text x="36px" y="155.786px" style="font-family:'SFNewRepublic', 'SF New Republic';font-size:48.786px;fill:#fff;">Animation</text></g><g transform="matrix(0.122985,0,0,0.122985,192.395,-0.562058)"><text x="36px" y="107px" style="font-family:'SFNewRepublic', 'SF New Republic';font-size:48.786px;fill:#fff;">Voice-Over</text><text x="45.779px" y="155.786px" style="font-family:'SFNewRepublic', 'SF New Republic';font-size:48.786px;fill:#fff;">Recording</text></g><g><path d="M13,26.012c6.359,-0 11.52,5.151 11.52,11.52c-0,6.359 -5.161,11.52 -11.52,11.52c-6.368,-0 -11.52,-5.161 -11.52,-11.52c0,-6.369 5.152,-11.52 11.52,-11.52Z" style="fill:#141515;"/><path d="M13,26.74c5.963,-0 10.801,4.838 10.801,10.801c0,4.414 -2.645,8.211 -6.433,9.889l-0.884,-1.493c3.29,-1.364 5.594,-4.608 5.594,-8.396c-0,-5.014 -4.065,-9.087 -9.078,-9.087c-5.023,-0 -9.087,4.073 -9.087,9.087c-0,3.788 2.313,7.032 5.594,8.396l-0.885,1.493c-3.787,-1.678 -6.432,-5.475 -6.432,-9.889c-0,-5.963 4.838,-10.801 10.81,-10.801Z" style="fill:#fbca08;"/><path d="M22.354,32.14c0.922,1.585 1.447,3.438 1.447,5.401c0,4.414 -2.645,8.211 -6.433,9.889l-0.884,-1.493c3.29,-1.364 5.594,-4.608 5.594,-8.396c-0,-1.65 -0.443,-3.207 -1.208,-4.544l1.484,-0.857Z" style="fill:#b72325;"/><path d="M5.13,32.997c-0.775,1.337 -1.217,2.894 -1.217,4.544c-0,3.788 2.313,7.032 5.594,8.396l-0.885,1.493c-3.787,-1.678 -6.432,-5.475 -6.432,-9.889c-0,-1.963 0.525,-3.816 1.447,-5.401l1.493,0.857Z" style="fill:#00ff68;"/></g><g><path d="M50.28,26.012c6.359,-0 11.52,5.151 11.52,11.52c-0,6.359 -5.161,11.52 -11.52,11.52c-6.368,-0 -11.52,-5.161 -11.52,-11.52c-0,-6.369 5.152,-11.52 11.52,-11.52Z" style="fill:#141515;"/><path d="M50.28,26.74c5.963,-0 10.801,4.838 10.801,10.801c0,4.414 -2.645,8.211 -6.433,9.889l-0.884,-1.493c3.29,-1.364 5.594,-4.608 5.594,-8.396c-0,-5.014 -4.065,-9.087 -9.078,-9.087c-5.023,-0 -9.087,4.073 -9.087,9.087c-0,3.788 2.313,7.032 5.594,8.396l-0.885,1.493c-3.787,-1.678 -6.432,-5.475 -6.432,-9.889c-0,-5.963 4.838,-10.801 10.81,-10.801Z" style="fill:#fbca08;"/><path d="M59.634,32.14c0.922,1.585 1.447,3.438 1.447,5.401c0,4.414 -2.645,8.211 -6.433,9.889l-0.884,-1.493c3.29,-1.364 5.594,-4.608 5.594,-8.396c-0,-1.65 -0.443,-3.207 -1.208,-4.544l1.484,-0.857Z" style="fill:#b72325;"/><path d="M42.409,32.997c-0.774,1.337 -1.216,2.894 -1.216,4.544c-0,3.788 2.313,7.032 5.594,8.396l-0.885,1.493c-3.787,-1.678 -6.432,-5.475 -6.432,-9.889c-0,-1.963 0.525,-3.816 1.446,-5.401l1.493,0.857Z" style="fill:#00ff68;"/></g><g><path d="M88.8,26.012c6.359,-0 11.52,5.151 11.52,11.52c0,6.359 -5.161,11.52 -11.52,11.52c-6.368,-0 -11.52,-5.161 -11.52,-11.52c0,-6.369 5.152,-11.52 11.52,-11.52Z" style="fill:#141515;"/><path d="M88.8,26.74c5.963,-0 10.801,4.838 10.801,10.801c0,4.414 -2.645,8.211 -6.432,9.889l-0.885,-1.493c3.29,-1.364 5.594,-4.608 5.594,-8.396c0,-5.014 -4.064,-9.087 -9.078,-9.087c-5.022,-0 -9.087,4.073 -9.087,9.087c0,3.788 2.314,7.032 5.594,8.396l-0.884,1.493c-3.788,-1.678 -6.433,-5.475 -6.433,-9.889c-0,-5.963 4.838,-10.801 10.81,-10.801Z" style="fill:#fbca08;"/><path d="M98.155,32.14c0.921,1.585 1.446,3.438 1.446,5.401c0,4.414 -2.645,8.211 -6.432,9.889l-0.885,-1.493c3.29,-1.364 5.594,-4.608 5.594,-8.396c0,-1.65 -0.442,-3.207 -1.207,-4.544l1.484,-0.857Z" style="fill:#b72325;"/><path d="M80.93,32.997c-0.774,1.337 -1.217,2.894 -1.217,4.544c0,3.788 2.314,7.032 5.594,8.396l-0.884,1.493c-3.788,-1.678 -6.433,-5.475 -6.433,-9.889c-0,-1.963 0.525,-3.816 1.447,-5.401l1.493,0.857Z" style="fill:#00ff68;"/></g><g><path d="M130.011,26.012c6.359,-0 11.52,5.151 11.52,11.52c-0,6.359 -5.161,11.52 -11.52,11.52c-6.369,-0 -11.52,-5.161 -11.52,-11.52c-0,-6.369 5.151,-11.52 11.52,-11.52Z" style="fill:#141515;"/><path d="M130.011,26.74c5.962,-0 10.801,4.838 10.801,10.801c-0,4.414 -2.645,8.211 -6.433,9.889l-0.885,-1.493c3.29,-1.364 5.594,-4.608 5.594,-8.396c0,-5.014 -4.064,-9.087 -9.077,-9.087c-5.023,-0 -9.087,4.073 -9.087,9.087c-0,3.788 2.313,7.032 5.594,8.396l-0.885,1.493c-3.788,-1.678 -6.433,-5.475 -6.433,-9.889c0,-5.963 4.839,-10.801 10.811,-10.801Z" style="fill:#fbca08;"/><path d="M139.365,32.14c0.921,1.585 1.447,3.438 1.447,5.401c-0,4.414 -2.645,8.211 -6.433,9.889l-0.885,-1.493c3.29,-1.364 5.594,-4.608 5.594,-8.396c0,-1.65 -0.442,-3.207 -1.207,-4.544l1.484,-0.857Z" style="fill:#b72325;"/><path d="M122.14,32.997c-0.774,1.337 -1.216,2.894 -1.216,4.544c-0,3.788 2.313,7.032 5.594,8.396l-0.885,1.493c-3.788,-1.678 -6.433,-5.475 -6.433,-9.889c0,-1.963 0.526,-3.816 1.447,-5.401l1.493,0.857Z" style="fill:#00ff68;"/></g><g><path d="M171.801,26.012c6.359,-0 11.52,5.151 11.52,11.52c-0,6.359 -5.161,11.52 -11.52,11.52c-6.369,-0 -11.52,-5.161 -11.52,-11.52c-0,-6.369 5.151,-11.52 11.52,-11.52Z" style="fill:#141515;"/><path d="M171.801,26.74c5.962,-0 10.801,4.838 10.801,10.801c-0,4.414 -2.645,8.211 -6.433,9.889l-0.885,-1.493c3.29,-1.364 5.594,-4.608 5.594,-8.396c0,-5.014 -4.064,-9.087 -9.077,-9.087c-5.023,-0 -9.087,4.073 -9.087,9.087c-0,3.788 2.313,7.032 5.594,8.396l-0.885,1.493c-3.788,-1.678 -6.433,-5.475 -6.433,-9.889c0,-5.963 4.839,-10.801 10.811,-10.801Z" style="fill:#fbca08;"/><path d="M181.155,32.14c0.921,1.585 1.447,3.438 1.447,5.401c-0,4.414 -2.645,8.211 -6.433,9.889l-0.885,-1.493c3.29,-1.364 5.594,-4.608 5.594,-8.396c0,-1.65 -0.442,-3.207 -1.207,-4.544l1.484,-0.857Z" style="fill:#b72325;"/><path d="M163.93,32.997c-0.774,1.337 -1.216,2.894 -1.216,4.544c-0,3.788 2.313,7.032 5.594,8.396l-0.885,1.493c-3.788,-1.678 -6.433,-5.475 -6.433,-9.889c0,-1.963 0.526,-3.816 1.447,-5.401l1.493,0.857Z" style="fill:#00ff68;"/></g><g><path d="M212.411,26.012c6.359,-0 11.52,5.151 11.52,11.52c0,6.359 -5.161,11.52 -11.52,11.52c-6.368,-0 -11.52,-5.161 -11.52,-11.52c0,-6.369 5.152,-11.52 11.52,-11.52Z" style="fill:#141515;"/><path d="M212.411,26.74c5.963,-0 10.801,4.838 10.801,10.801c0,4.414 -2.645,8.211 -6.432,9.889l-0.885,-1.493c3.29,-1.364 5.594,-4.608 5.594,-8.396c-0,-5.014 -4.064,-9.087 -9.078,-9.087c-5.023,-0 -9.087,4.073 -9.087,9.087c0,3.788 2.313,7.032 5.594,8.396l-0.885,1.493c-3.787,-1.678 -6.432,-5.475 -6.432,-9.889c-0,-5.963 4.838,-10.801 10.81,-10.801Z" style="fill:#fbca08;"/><path d="M221.765,32.14c0.922,1.585 1.447,3.438 1.447,5.401c0,4.414 -2.645,8.211 -6.432,9.889l-0.885,-1.493c3.29,-1.364 5.594,-4.608 5.594,-8.396c-0,-1.65 -0.442,-3.207 -1.207,-4.544l1.483,-0.857Z" style="fill:#b72325;"/><path d="M204.541,32.997c-0.775,1.337 -1.217,2.894 -1.217,4.544c0,3.788 2.313,7.032 5.594,8.396l-0.885,1.493c-3.787,-1.678 -6.432,-5.475 -6.432,-9.889c-0,-1.963 0.525,-3.816 1.447,-5.401l1.493,0.857Z" style="fill:#00ff68;"/></g><g><path d="M22.421,41.118l-6.797,-2.296l-6.8,-2.304l0.19,-0.499l0.199,-0.503l6.606,2.795l6.602,2.807Z" style="fill:#fff;"/><path d="M15.259,36.521c0.558,1.245 0.002,2.707 -1.251,3.268c-1.245,0.559 -2.715,0.006 -3.273,-1.239c-0.562,-1.253 0.003,-2.718 1.248,-3.276c1.253,-0.562 2.715,-0.005 3.276,1.247Z" style="fill:#40494d;"/><path d="M13.821,37.166c0.2,0.446 -0.004,0.982 -0.458,1.185c-0.454,0.204 -0.982,-0.004 -1.182,-0.45c-0.203,-0.454 -0.007,-0.986 0.447,-1.189c0.454,-0.204 0.99,0 1.193,0.454Z" style="fill:#fff;"/></g><g><path d="M59.701,41.118l-6.797,-2.296l-6.8,-2.304l0.19,-0.499l0.199,-0.503l6.606,2.795l6.602,2.807Z" style="fill:#fff;"/><path d="M52.539,36.521c0.558,1.245 0.002,2.707 -1.251,3.268c-1.245,0.559 -2.715,0.006 -3.273,-1.239c-0.562,-1.253 0.003,-2.718 1.248,-3.276c1.253,-0.562 2.715,-0.005 3.276,1.247Z" style="fill:#40494d;"/><path d="M51.101,37.166c0.2,0.446 -0.004,0.982 -0.458,1.185c-0.454,0.204 -0.982,-0.004 -1.182,-0.45c-0.203,-0.454 -0.007,-0.986 0.447,-1.189c0.454,-0.204 0.99,0 1.193,0.454Z" style="fill:#fff;"/></g><g><path d="M98.221,41.118l-6.796,-2.296l-6.8,-2.304l0.19,-0.499l0.198,-0.503l6.607,2.795l6.601,2.807Z" style="fill:#fff;"/><path d="M91.06,36.521c0.558,1.245 0.001,2.707 -1.252,3.268c-1.245,0.559 -2.715,0.006 -3.273,-1.239c-0.561,-1.253 0.004,-2.718 1.248,-3.276c1.253,-0.562 2.715,-0.005 3.277,1.247Z" style="fill:#40494d;"/><path d="M89.622,37.166c0.2,0.446 -0.005,0.982 -0.459,1.185c-0.454,0.204 -0.981,-0.004 -1.181,-0.45c-0.204,-0.454 -0.008,-0.986 0.446,-1.189c0.454,-0.204 0.99,0 1.194,0.454Z" style="fill:#fff;"/></g><g><path d="M138.746,32.501l-6.077,3.811l-6.087,3.809l-0.266,-0.463l-0.264,-0.472l6.344,-3.349l6.35,-3.336Z" style="fill:#fff;"/><path d="M130.656,35.139c1.317,0.355 2.097,1.711 1.739,3.037c-0.355,1.317 -1.713,2.106 -3.03,1.75c-1.326,-0.357 -2.103,-1.722 -1.748,-3.039c0.357,-1.326 1.713,-2.105 3.039,-1.748Z" style="fill:#40494d;"/><path d="M130.246,36.661c0.471,0.127 0.757,0.624 0.627,1.105c-0.129,0.48 -0.624,0.757 -1.095,0.63c-0.481,-0.13 -0.769,-0.618 -0.64,-1.098c0.13,-0.481 0.627,-0.767 1.108,-0.637Z" style="fill:#fff;"/></g><g><path d="M179.116,44.468l-5.39,-4.734l-5.39,-4.742l0.367,-0.388l0.377,-0.388l5.023,5.121l5.013,5.131Z" style="fill:#fff;"/><path d="M174.274,37.47c0.037,1.364 -1.04,2.499 -2.412,2.535c-1.364,0.036 -2.508,-1.039 -2.544,-2.403c-0.037,-1.373 1.049,-2.508 2.412,-2.544c1.373,-0.037 2.508,1.04 2.544,2.412Z" style="fill:#40494d;"/><path d="M172.699,37.512c0.013,0.488 -0.382,0.904 -0.879,0.918c-0.498,0.013 -0.905,-0.382 -0.918,-0.87c-0.013,-0.497 0.372,-0.913 0.87,-0.927c0.498,-0.013 0.914,0.382 0.927,0.879Z" style="fill:#fff;"/></g><g><path d="M208.599,46.87l2.455,-6.741l2.464,-6.744l0.495,0.202l0.498,0.211l-2.95,6.538l-2.962,6.534Z" style="fill:#fff;"/><path d="M213.363,39.819c-1.258,0.528 -2.706,-0.063 -3.238,-1.329c-0.528,-1.257 0.059,-2.714 1.317,-3.242c1.265,-0.532 2.717,0.067 3.246,1.325c0.532,1.266 -0.059,2.714 -1.325,3.246Z" style="fill:#40494d;"/><path d="M212.752,38.366c-0.45,0.189 -0.981,-0.027 -1.174,-0.486c-0.193,-0.459 0.028,-0.981 0.478,-1.171c0.459,-0.193 0.986,0.016 1.179,0.474c0.193,0.459 -0.024,0.99 -0.483,1.183Z" style="fill:#fff;"/></g></svg>