<?xml version="1.0" encoding="UTF-8" standalone="no"?><!DOCTYPE svg PUBLIC "-//W3C//DTD SVG 1.1//EN" "http://www.w3.org/Graphics/SVG/1.1/DTD/svg11.dtd"><svg width="100%" height="100%" viewBox="0 0 231 58" version="1.1" xmlns="http://www.w3.org/2000/svg" xmlns:xlink="http://www.w3.org/1999/xlink" xml:space="preserve" xmlns:serif="http://www.serif.com/" style="fill-rule:evenodd;clip-rule:evenodd;stroke-linejoin:round;stroke-miterlimit:2;"><g transform="matrix(0.122985,0,0,0.122985,-2.02746,-0.562058)"><text x="49.352px" y="107px" style="font-family:'SFNewRepublic', 'SF New Republic';font-size:48.786px;fill:#fff;">Script</text><text x="36px" y="155.786px" style="font-family:'SFNewRepublic', 'SF New Republic';font-size:48.786px;fill:#fff;">Writing</text></g><g transform="matrix(0.122985,0,0,0.122985,32.9545,-0.562058)"><text x="86.871px" y="107px" style="font-family:'SFNewRepublic', 'SF New Republic';font-size:48.786px;fill:#fff;">Story</text><text x="36px" y="155.786px" style="font-family:'SFNewRepublic', 'SF New Republic';font-size:48.786px;fill:#fff;">Boarding</text></g><g transform="matrix(0.122985,0,0,0.122985,71.1483,-0.562058)"><text x="36px" y="107px" style="font-family:'SFNewRepublic', 'SF New Republic';font-size:48.786px;fill:#fff;">Graphics</text><text x="60.596px" y="155.786px" style="font-family:'SFNewRepublic', 'SF New Republic';font-size:48.786px;fill:#fff;">Design</text></g><g transform="matrix(0.122985,0,0,0.122985,112.131,-0.562058)"><text x="62.12px" y="107px" style="font-family:'SFNewRepublic', 'SF New Republic';font-size:48.786px;fill:#fff;">Motion</text><text x="36px" y="155.786px" style="font-family:'SFNewRepublic', 'SF New Republic';font-size:48.786px;fill:#fff;">Graphics</text></g><g transform="matrix(0.122985,0,0,0.122985,153.362,-0.562058)"><text x="73.698px" y="107px" style="font-family:'SFNewRepublic', 'SF New Republic';font-size:48.786px;fill:#fff;">Digital</text><text x="36px" y="155.786px" style="font-family:'SFNewRepublic', 'SF New Republic';font-size:48.786px;fill:#fff;">Animation</text></g><g transform="matrix(0.122985,0,0,0.122985,192.395,-0.562058)"><text x="36px" y="107px" style="font-family:'SFNewRepublic', 'SF New Republic';font-size:48.786px;fill:#fff;">Voice-Over</text><text x="45.779px" y="155.786px" style="font-family:'SFNewRepublic', 'SF New Republic';font-size:48.786px;fill:#fff;">Recording</text></g><g><path d="M13,26.012c6.359,-0 11.52,5.151 11.52,11.52c-0,6.359 -5.161,11.52 -11.52,11.52c-6.368,-0 -11.52,-5.161 -11.52,-11.52c0,-6.369 5.152,-11.52 11.52,-11.52Z" style="fill:#141515;"/><path d="M13,26.74c5.963,-0 10.801,4.838 10.801,10.801c0,4.414 -2.645,8.211 -6.433,9.889l-0.884,-1.493c3.29,-1.364 5.594,-4.608 5.594,-8.396c-0,-5.014 -4.065,-9.087 -9.078,-9.087c-5.023,-0 -9.087,4.073 -9.087,9.087c-0,3.788 2.313,7.032 5.594,8.396l-0.885,1.493c-3.787,-1.678 -6.432,-5.475 -6.432,-9.889c-0,-5.963 4.838,-10.801 10.81,-10.801Z" style="fill:#fbca08;"/><path d="M22.354,32.14c0.922,1.585 1.447,3.438 1.447,5.401c0,4.414 -2.645,8.211 -6.433,9.889l-0.884,-1.493c3.29,-1.364 5.594,-4.608 5.594,-8.396c-0,-1.65 -0.443,-3.207 -1.208,-4.544l1.484,-0.857Z" style="fill:#b72325;"/><path d="M5.13,32.997c-0.775,1.337 -1.217,2.894 -1.217,4.544c-0,3.788 2.313,7.032 5.594,8.396l-0.885,1.493c-3.787,-1.678 -6.432,-5.475 -6.432,-9.889c-0,-1.963 0.525,-3.816 1.447,-5.401l1.493,0.857Z" style="fill:#00ff68;"/></g><g><path d="M50.28,26.012c6.359,-0 11.52,5.151 11.52,11.52c-0,6.359 -5.161,11.52 -11.52,11.52c-6.368,-0 -11.52,-5.161 -11.52,-11.52c-0,-6.369 5.152,-11.52 11.52,-11.52Z" style="fill:#141515;"/><path d="M50.28,26.74c5.963,-0 10.801,4.838 10.801,10.801c0,4.414 -2.645,8.211 -6.433,9.889l-0.884,-1.493c3.29,-1.364 5.594,-4.608 5.594,-8.396c-0,-5.014 -4.065,-9.087 -9.078,-9.087c-5.023,-0 -9.087,4.073 -9.087,9.087c-0,3.788 2.313,7.032 5.594,8.396l-0.885,1.493c-3.787,-1.678 -6.432,-5.475 -6.432,-9.889c-0,-5.963 4.838,-10.801 10.81,-10.801Z" style="fill:#fbca08;"/><path d="M59.634,32.14c0.922,1.585 1.447,3.438 1.447,5.401c0,4.414 -2.645,8.211 -6.433,9.889l-0.884,-1.493c3.29,-1.364 5.594,-4.608 5.594,-8.396c-0,-1.65 -0.443,-3.207 -1.208,-4.544l1.484,-0.857Z" style="fill:#b72325;"/><path d="M42.409,32.997c-0.774,1.337 -1.216,2.894 -1.216,4.544c-0,3.788 2.313,7.032 5.594,8.396l-0.885,1.493c-3.787,-1.678 -6.432,-5.475 -6.432,-9.889c-0,-1.963 0.525,-3.816 1.446,-5.401l1.493,0.857Z" style="fill:#00ff68;"/></g><g><path d="M88.8,26.012c6.359,-0 11.52,5.151 11.52,11.52c0,6.359 -5.161,11.52 -11.52,11.52c-6.368,-0 -11.52,-5.161 -11.52,-11.52c0,-6.369 5.152,-11.52 11.52,-11.52Z" style="fill:#141515;"/><path d="M88.8,26.74c5.963,-0 10.801,4.838 10.801,10.801c0,4.414 -2.645,8.211 -6.432,9.889l-0.885,-1.493c3.29,-1.364 5.594,-4.608 5.594,-8.396c0,-5.014 -4.064,-9.087 -9.078,-9.087c-5.022,-0 -9.087,4.073 -9.087,9.087c0,3.788 2.314,7.032 5.594,8.396l-0.884,1.493c-3.788,-1.678 -6.433,-5.475 -6.433,-9.889c-0,-5.963 4.838,-10.801 10.81,-10.801Z" style="fill:#fbca08;"/><path d="M98.155,32.14c0.921,1.585 1.446,3.438 1.446,5.401c0,4.414 -2.645,8.211 -6.432,9.889l-0.885,-1.493c3.29,-1.364 5.594,-4.608 5.594,-8.396c0,-1.65 -0.442,-3.207 -1.207,-4.544l1.484,-0.857Z" style="fill:#b72325;"/><path d="M80.93,32.997c-0.774,1.337 -1.217,2.894 -1.217,4.544c0,3.788 2.314,7.032 5.594,8.396l-0.884,1.493c-3.788,-1.678 -6.433,-5.475 -6.433,-9.889c-0,-1.963 0.525,-3.816 1.447,-5.401l1.493,0.857Z" style="fill:#00ff68;"/></g><g><path d="M130.011,26.012c6.359,-0 11.52,5.151 11.52,11.52c-0,6.359 -5.161,11.52 -11.52,11.52c-6.369,-0 -11.52,-5.161 -11.52,-11.52c-0,-6.369 5.151,-11.52 11.52,-11.52Z" style="fill:#141515;"/><path d="M130.011,26.74c5.962,-0 10.801,4.838 10.801,10.801c-0,4.414 -2.645,8.211 -6.433,9.889l-0.885,-1.493c3.29,-1.364 5.594,-4.608 5.594,-8.396c0,-5.014 -4.064,-9.087 -9.077,-9.087c-5.023,-0 -9.087,4.073 -9.087,9.087c-0,3.788 2.313,7.032 5.594,8.396l-0.885,1.493c-3.788,-1.678 -6.433,-5.475 -6.433,-9.889c0,-5.963 4.839,-10.801 10.811,-10.801Z" style="fill:#fbca08;"/><path d="M139.365,32.14c0.921,1.585 1.447,3.438 1.447,5.401c-0,4.414 -2.645,8.211 -6.433,9.889l-0.885,-1.493c3.29,-1.364 5.594,-4.608 5.594,-8.396c0,-1.65 -0.442,-3.207 -1.207,-4.544l1.484,-0.857Z" style="fill:#b72325;"/><path d="M122.14,32.997c-0.774,1.337 -1.216,2.894 -1.216,4.544c-0,3.788 2.313,7.032 5.594,8.396l-0.885,1.493c-3.788,-1.678 -6.433,-5.475 -6.433,-9.889c0,-1.963 0.526,-3.816 1.447,-5.401l1.493,0.857Z" style="fill:#00ff68;"/></g><g><path d="M171.801,26.012c6.359,-0 11.52,5.151 11.52,11.52c-0,6.359 -5.161,11.52 -11.52,11.52c-6.369,-0 -11.52,-5.161 -11.52,-11.52c-0,-6.369 5.151,-11.52 11.52,-11.52Z" style="fill:#141515;"/><path d="M171.801,26.74c5.962,-0 10.801,4.838 10.801,10.801c-0,4.414 -2.645,8.211 -6.433,9.889l-0.885,-1.493c3.29,-1.364 5.594,-4.608 5.594,-8.396c0,-5.014 -4.064,-9.087 -9.077,-9.087c-5.023,-0 -9.087,4.073 -9.087,9.087c-0,3.788 2.313,7.032 5.594,8.396l-0.885,1.493c-3.788,-1.678 -6.433,-5.475 -6.433,-9.889c0,-5.963 4.839,-10.801 10.811,-10.801Z" style="fill:#fbca08;"/><path d="M181.155,32.14c0.921,1.585 1.447,3.438 1.447,5.401c-0,4.414 -2.645,8.211 -6.433,9.889l-0.885,-1.493c3.29,-1.364 5.594,-4.608 5.594,-8.396c0,-1.65 -0.442,-3.207 -1.207,-4.544l1.484,-0.857Z" style="fill:#b72325;"/><path d="M163.93,32.997c-0.774,1.337 -1.216,2.894 -1.216,4.544c-0,3.788 2.313,7.032 5.594,8.396l-0.885,1.493c-3.788,-1.678 -6.433,-5.475 -6.433,-9.889c0,-1.963 0.526,-3.816 1.447,-5.401l1.493,0.857Z" style="fill:#00ff68;"/></g><g><path d="M212.411,26.012c6.359,-0 11.52,5.151 11.52,11.52c0,6.359 -5.161,11.52 -11.52,11.52c-6.368,-0 -11.52,-5.161 -11.52,-11.52c0,-6.369 5.152,-11.52 11.52,-11.52Z" style="fill:#141515;"/><path d="M212.411,26.74c5.963,-0 10.801,4.838 10.801,10.801c0,4.414 -2.645,8.211 -6.432,9.889l-0.885,-1.493c3.29,-1.364 5.594,-4.608 5.594,-8.396c-0,-5.014 -4.064,-9.087 -9.078,-9.087c-5.023,-0 -9.087,4.073 -9.087,9.087c0,3.788 2.313,7.032 5.594,8.396l-0.885,1.493c-3.787,-1.678 -6.432,-5.475 -6.432,-9.889c-0,-5.963 4.838,-10.801 10.81,-10.801Z" style="fill:#fbca08;"/><path d="M221.765,32.14c0.922,1.585 1.447,3.438 1.447,5.401c0,4.414 -2.645,8.211 -6.432,9.889l-0.885,-1.493c3.29,-1.364 5.594,-4.608 5.594,-8.396c-0,-1.65 -0.442,-3.207 -1.207,-4.544l1.483,-0.857Z" style="fill:#b72325;"/><path d="M204.541,32.997c-0.775,1.337 -1.217,2.894 -1.217,4.544c0,3.788 2.313,7.032 5.594,8.396l-0.885,1.493c-3.787,-1.678 -6.432,-5.475 -6.432,-9.889c-0,-1.963 0.525,-3.816 1.447,-5.401l1.493,0.857Z" style="fill:#00ff68;"/></g><g><path d="M19.157,45.515l-4.595,-5.509l-4.593,-5.518l0.423,-0.327l0.432,-0.325l4.172,5.836l4.161,5.843Z" style="fill:#fff;"/><path d="M15.453,37.854c-0.174,1.353 -1.413,2.308 -2.775,2.132c-1.352,-0.175 -2.317,-1.415 -2.142,-2.767c0.176,-1.362 1.424,-2.316 2.776,-2.141c1.362,0.175 2.317,1.414 2.141,2.776Z" style="fill:#40494d;"/><path d="M13.891,37.652c-0.063,0.484 -0.517,0.834 -1.011,0.771c-0.493,-0.064 -0.834,-0.517 -0.772,-1.001c0.064,-0.494 0.509,-0.845 1.002,-0.782c0.494,0.064 0.844,0.518 0.781,1.012Z" style="fill:#fff;"/></g><g><path d="M59.701,41.118l-6.797,-2.296l-6.8,-2.304l0.19,-0.499l0.199,-0.503l6.606,2.795l6.602,2.807Z" style="fill:#fff;"/><path d="M52.539,36.521c0.558,1.245 0.002,2.707 -1.251,3.268c-1.245,0.559 -2.715,0.006 -3.273,-1.239c-0.562,-1.253 0.003,-2.718 1.248,-3.276c1.253,-0.562 2.715,-0.005 3.276,1.247Z" style="fill:#40494d;"/><path d="M51.101,37.166c0.2,0.446 -0.004,0.982 -0.458,1.185c-0.454,0.204 -0.982,-0.004 -1.182,-0.45c-0.203,-0.454 -0.007,-0.986 0.447,-1.189c0.454,-0.204 0.99,0 1.193,0.454Z" style="fill:#fff;"/></g><g><path d="M92.871,46.756l-3.145,-6.447l-3.142,-6.456l0.489,-0.216l0.497,-0.212l2.657,6.663l2.644,6.668Z" style="fill:#fff;"/><path d="M91.106,38.432c-0.493,1.272 -1.924,1.903 -3.204,1.407c-1.272,-0.493 -1.913,-1.927 -1.42,-3.199c0.496,-1.28 1.936,-1.909 3.208,-1.416c1.28,0.496 1.912,1.927 1.416,3.208Z" style="fill:#40494d;"/><path d="M89.636,37.862c-0.176,0.456 -0.701,0.687 -1.165,0.507c-0.464,-0.179 -0.687,-0.701 -0.511,-1.156c0.18,-0.464 0.696,-0.699 1.16,-0.519c0.464,0.18 0.696,0.704 0.516,1.168Z" style="fill:#fff;"/></g><g><path d="M139.594,40.657l-6.9,-1.964l-6.903,-1.972l0.165,-0.508l0.174,-0.512l6.734,2.472l6.73,2.484Z" style="fill:#fff;"/><path d="M132.218,36.413c0.618,1.216 0.133,2.703 -1.092,3.325c-1.216,0.617 -2.711,0.136 -3.328,-1.08c-0.622,-1.224 -0.129,-2.715 1.087,-3.333c1.225,-0.621 2.712,-0.136 3.333,1.088Z" style="fill:#40494d;"/><path d="M130.813,37.127c0.222,0.435 0.044,0.98 -0.4,1.206c-0.444,0.225 -0.981,0.043 -1.202,-0.393c-0.225,-0.443 -0.056,-0.984 0.388,-1.21c0.444,-0.225 0.989,-0.047 1.214,0.397Z" style="fill:#fff;"/></g><g><path d="M177.825,45.615l-4.503,-5.584l-4.502,-5.593l0.428,-0.319l0.438,-0.318l4.075,5.903l4.064,5.911Z" style="fill:#fff;"/><path d="M174.248,37.894c-0.196,1.35 -1.45,2.284 -2.809,2.086c-1.35,-0.197 -2.294,-1.452 -2.097,-2.802c0.198,-1.358 1.461,-2.292 2.811,-2.095c1.359,0.198 2.294,1.452 2.095,2.811Z" style="fill:#40494d;"/><path d="M172.689,37.666c-0.071,0.484 -0.53,0.826 -1.023,0.755c-0.492,-0.072 -0.826,-0.531 -0.755,-1.014c0.071,-0.492 0.522,-0.836 1.015,-0.765c0.492,0.072 0.835,0.532 0.763,1.024Z" style="fill:#fff;"/></g><g><path d="M221.079,32.385l-6.026,3.892l-6.035,3.889l-0.273,-0.46l-0.27,-0.468l6.299,-3.432l6.305,-3.421Z" style="fill:#fff;"/><path d="M213.025,35.131c1.321,0.337 2.119,1.683 1.779,3.013c-0.338,1.322 -1.685,2.128 -3.007,1.791c-1.33,-0.34 -2.126,-1.694 -1.788,-3.016c0.34,-1.33 1.685,-2.128 3.016,-1.788Z" style="fill:#40494d;"/><path d="M212.635,36.658c0.473,0.121 0.765,0.614 0.642,1.096c-0.123,0.482 -0.614,0.766 -1.087,0.645c-0.482,-0.123 -0.777,-0.608 -0.654,-1.09c0.123,-0.482 0.616,-0.775 1.099,-0.651Z" style="fill:#fff;"/></g></svg>