<?xml version="1.0" encoding="UTF-8" standalone="no"?><!DOCTYPE svg PUBLIC "-//W3C//DTD SVG 1.1//EN" "http://www.w3.org/Graphics/SVG/1.1/DTD/svg11.dtd"><svg width="100%" height="100%" viewBox="0 0 231 58" version="1.1" xmlns="http://www.w3.org/2000/svg" xmlns:xlink="http://www.w3.org/1999/xlink" xml:space="preserve" xmlns:serif="http://www.serif.com/" style="fill-rule:evenodd;clip-rule:evenodd;stroke-linejoin:round;stroke-miterlimit:2;"><g transform="matrix(0.122985,0,0,0.122985,-2.02746,-0.562058)"><text x="49.352px" y="107px" style="font-family:'SFNewRepublic', 'SF New Republic';font-size:48.786px;fill:#fff;">Script</text><text x="36px" y="155.786px" style="font-family:'SFNewRepublic', 'SF New Republic';font-size:48.786px;fill:#fff;">Writing</text></g><g transform="matrix(0.122985,0,0,0.122985,32.9545,-0.562058)"><text x="86.871px" y="107px" style="font-family:'SFNewRepublic', 'SF New Republic';font-size:48.786px;fill:#fff;">Story</text><text x="36px" y="155.786px" style="font-family:'SFNewRepublic', 'SF New Republic';font-size:48.786px;fill:#fff;">Boarding</text></g><g transform="matrix(0.122985,0,0,0.122985,71.1483,-0.562058)"><text x="36px" y="107px" style="font-family:'SFNewRepublic', 'SF New Republic';font-size:48.786px;fill:#fff;">Graphics</text><text x="60.596px" y="155.786px" style="font-family:'SFNewRepublic', 'SF New Republic';font-size:48.786px;fill:#fff;">Design</text></g><g transform="matrix(0.122985,0,0,0.122985,112.131,-0.562058)"><text x="62.12px" y="107px" style="font-family:'SFNewRepublic', 'SF New Republic';font-size:48.786px;fill:#fff;">Motion</text><text x="36px" y="155.786px" style="font-family:'SFNewRepublic', 'SF New Republic';font-size:48.786px;fill:#fff;">Graphics</text></g><g transform="matrix(0.122985,0,0,0.122985,153.362,-0.562058)"><text x="73.698px" y="107px" style="font-family:'SFNewRepublic', 'SF New Republic';font-size:48.786px;fill:#fff;">Digital</text><text x="36px" y="155.786px" style="font-family:'SFNewRepublic', 'SF New Republic';font-size:48.786px;fill:#fff;">Animation</text></g><g transform="matrix(0.122985,0,0,0.122985,192.395,-0.562058)"><text x="36px" y="107px" style="font-family:'SFNewRepublic', 'SF New Republic';font-size:48.786px;fill:#fff;">Voice-Over</text><text x="45.779px" y="155.786px" style="font-family:'SFNewRepublic', 'SF New Republic';font-size:48.786px;fill:#fff;">Recording</text></g><g><path d="M13,26.012c6.359,-0 11.52,5.151 11.52,11.52c-0,6.359 -5.161,11.52 -11.52,11.52c-6.368,-0 -11.52,-5.161 -11.52,-11.52c0,-6.369 5.152,-11.52 11.52,-11.52Z" style="fill:#141515;"/><path d="M13,26.74c5.963,-0 10.801,4.838 10.801,10.801c0,4.414 -2.645,8.211 -6.433,9.889l-0.884,-1.493c3.29,-1.364 5.594,-4.608 5.594,-8.396c-0,-5.014 -4.065,-9.087 -9.078,-9.087c-5.023,-0 -9.087,4.073 -9.087,9.087c-0,3.788 2.313,7.032 5.594,8.396l-0.885,1.493c-3.787,-1.678 -6.432,-5.475 -6.432,-9.889c-0,-5.963 4.838,-10.801 10.81,-10.801Z" style="fill:#fbca08;"/><path d="M22.354,32.14c0.922,1.585 1.447,3.438 1.447,5.401c0,4.414 -2.645,8.211 -6.433,9.889l-0.884,-1.493c3.29,-1.364 5.594,-4.608 5.594,-8.396c-0,-1.65 -0.443,-3.207 -1.208,-4.544l1.484,-0.857Z" style="fill:#b72325;"/><path d="M5.13,32.997c-0.775,1.337 -1.217,2.894 -1.217,4.544c-0,3.788 2.313,7.032 5.594,8.396l-0.885,1.493c-3.787,-1.678 -6.432,-5.475 -6.432,-9.889c-0,-1.963 0.525,-3.816 1.447,-5.401l1.493,0.857Z" style="fill:#00ff68;"/></g><g><path d="M50.28,26.012c6.359,-0 11.52,5.151 11.52,11.52c-0,6.359 -5.161,11.52 -11.52,11.52c-6.368,-0 -11.52,-5.161 -11.52,-11.52c-0,-6.369 5.152,-11.52 11.52,-11.52Z" style="fill:#141515;"/><path d="M50.28,26.74c5.963,-0 10.801,4.838 10.801,10.801c0,4.414 -2.645,8.211 -6.433,9.889l-0.884,-1.493c3.29,-1.364 5.594,-4.608 5.594,-8.396c-0,-5.014 -4.065,-9.087 -9.078,-9.087c-5.023,-0 -9.087,4.073 -9.087,9.087c-0,3.788 2.313,7.032 5.594,8.396l-0.885,1.493c-3.787,-1.678 -6.432,-5.475 -6.432,-9.889c-0,-5.963 4.838,-10.801 10.81,-10.801Z" style="fill:#fbca08;"/><path d="M59.634,32.14c0.922,1.585 1.447,3.438 1.447,5.401c0,4.414 -2.645,8.211 -6.433,9.889l-0.884,-1.493c3.29,-1.364 5.594,-4.608 5.594,-8.396c-0,-1.65 -0.443,-3.207 -1.208,-4.544l1.484,-0.857Z" style="fill:#b72325;"/><path d="M42.409,32.997c-0.774,1.337 -1.216,2.894 -1.216,4.544c-0,3.788 2.313,7.032 5.594,8.396l-0.885,1.493c-3.787,-1.678 -6.432,-5.475 -6.432,-9.889c-0,-1.963 0.525,-3.816 1.446,-5.401l1.493,0.857Z" style="fill:#00ff68;"/></g><g><path d="M88.8,26.012c6.359,-0 11.52,5.151 11.52,11.52c0,6.359 -5.161,11.52 -11.52,11.52c-6.368,-0 -11.52,-5.161 -11.52,-11.52c0,-6.369 5.152,-11.52 11.52,-11.52Z" style="fill:#141515;"/><path d="M88.8,26.74c5.963,-0 10.801,4.838 10.801,10.801c0,4.414 -2.645,8.211 -6.432,9.889l-0.885,-1.493c3.29,-1.364 5.594,-4.608 5.594,-8.396c0,-5.014 -4.064,-9.087 -9.078,-9.087c-5.022,-0 -9.087,4.073 -9.087,9.087c0,3.788 2.314,7.032 5.594,8.396l-0.884,1.493c-3.788,-1.678 -6.433,-5.475 -6.433,-9.889c-0,-5.963 4.838,-10.801 10.81,-10.801Z" style="fill:#fbca08;"/><path d="M98.155,32.14c0.921,1.585 1.446,3.438 1.446,5.401c0,4.414 -2.645,8.211 -6.432,9.889l-0.885,-1.493c3.29,-1.364 5.594,-4.608 5.594,-8.396c0,-1.65 -0.442,-3.207 -1.207,-4.544l1.484,-0.857Z" style="fill:#b72325;"/><path d="M80.93,32.997c-0.774,1.337 -1.217,2.894 -1.217,4.544c0,3.788 2.314,7.032 5.594,8.396l-0.884,1.493c-3.788,-1.678 -6.433,-5.475 -6.433,-9.889c-0,-1.963 0.525,-3.816 1.447,-5.401l1.493,0.857Z" style="fill:#00ff68;"/></g><g><path d="M130.011,26.012c6.359,-0 11.52,5.151 11.52,11.52c-0,6.359 -5.161,11.52 -11.52,11.52c-6.369,-0 -11.52,-5.161 -11.52,-11.52c-0,-6.369 5.151,-11.52 11.52,-11.52Z" style="fill:#141515;"/><path d="M130.011,26.74c5.962,-0 10.801,4.838 10.801,10.801c-0,4.414 -2.645,8.211 -6.433,9.889l-0.885,-1.493c3.29,-1.364 5.594,-4.608 5.594,-8.396c0,-5.014 -4.064,-9.087 -9.077,-9.087c-5.023,-0 -9.087,4.073 -9.087,9.087c-0,3.788 2.313,7.032 5.594,8.396l-0.885,1.493c-3.788,-1.678 -6.433,-5.475 -6.433,-9.889c0,-5.963 4.839,-10.801 10.811,-10.801Z" style="fill:#fbca08;"/><path d="M139.365,32.14c0.921,1.585 1.447,3.438 1.447,5.401c-0,4.414 -2.645,8.211 -6.433,9.889l-0.885,-1.493c3.29,-1.364 5.594,-4.608 5.594,-8.396c0,-1.65 -0.442,-3.207 -1.207,-4.544l1.484,-0.857Z" style="fill:#b72325;"/><path d="M122.14,32.997c-0.774,1.337 -1.216,2.894 -1.216,4.544c-0,3.788 2.313,7.032 5.594,8.396l-0.885,1.493c-3.788,-1.678 -6.433,-5.475 -6.433,-9.889c0,-1.963 0.526,-3.816 1.447,-5.401l1.493,0.857Z" style="fill:#00ff68;"/></g><g><path d="M171.801,26.012c6.359,-0 11.52,5.151 11.52,11.52c-0,6.359 -5.161,11.52 -11.52,11.52c-6.369,-0 -11.52,-5.161 -11.52,-11.52c-0,-6.369 5.151,-11.52 11.52,-11.52Z" style="fill:#141515;"/><path d="M171.801,26.74c5.962,-0 10.801,4.838 10.801,10.801c-0,4.414 -2.645,8.211 -6.433,9.889l-0.885,-1.493c3.29,-1.364 5.594,-4.608 5.594,-8.396c0,-5.014 -4.064,-9.087 -9.077,-9.087c-5.023,-0 -9.087,4.073 -9.087,9.087c-0,3.788 2.313,7.032 5.594,8.396l-0.885,1.493c-3.788,-1.678 -6.433,-5.475 -6.433,-9.889c0,-5.963 4.839,-10.801 10.811,-10.801Z" style="fill:#fbca08;"/><path d="M181.155,32.14c0.921,1.585 1.447,3.438 1.447,5.401c-0,4.414 -2.645,8.211 -6.433,9.889l-0.885,-1.493c3.29,-1.364 5.594,-4.608 5.594,-8.396c0,-1.65 -0.442,-3.207 -1.207,-4.544l1.484,-0.857Z" style="fill:#b72325;"/><path d="M163.93,32.997c-0.774,1.337 -1.216,2.894 -1.216,4.544c-0,3.788 2.313,7.032 5.594,8.396l-0.885,1.493c-3.788,-1.678 -6.433,-5.475 -6.433,-9.889c0,-1.963 0.526,-3.816 1.447,-5.401l1.493,0.857Z" style="fill:#00ff68;"/></g><g><path d="M212.411,26.012c6.359,-0 11.52,5.151 11.52,11.52c0,6.359 -5.161,11.52 -11.52,11.52c-6.368,-0 -11.52,-5.161 -11.52,-11.52c0,-6.369 5.152,-11.52 11.52,-11.52Z" style="fill:#141515;"/><path d="M212.411,26.74c5.963,-0 10.801,4.838 10.801,10.801c0,4.414 -2.645,8.211 -6.432,9.889l-0.885,-1.493c3.29,-1.364 5.594,-4.608 5.594,-8.396c-0,-5.014 -4.064,-9.087 -9.078,-9.087c-5.023,-0 -9.087,4.073 -9.087,9.087c0,3.788 2.313,7.032 5.594,8.396l-0.885,1.493c-3.787,-1.678 -6.432,-5.475 -6.432,-9.889c-0,-5.963 4.838,-10.801 10.81,-10.801Z" style="fill:#fbca08;"/><path d="M221.765,32.14c0.922,1.585 1.447,3.438 1.447,5.401c0,4.414 -2.645,8.211 -6.432,9.889l-0.885,-1.493c3.29,-1.364 5.594,-4.608 5.594,-8.396c-0,-1.65 -0.442,-3.207 -1.207,-4.544l1.483,-0.857Z" style="fill:#b72325;"/><path d="M204.541,32.997c-0.775,1.337 -1.217,2.894 -1.217,4.544c0,3.788 2.313,7.032 5.594,8.396l-0.885,1.493c-3.787,-1.678 -6.432,-5.475 -6.432,-9.889c-0,-1.963 0.525,-3.816 1.447,-5.401l1.493,0.857Z" style="fill:#00ff68;"/></g><g><path d="M22.036,41.999l-6.546,-2.932l-6.55,-2.941l0.237,-0.479l0.245,-0.482l6.31,3.411l6.304,3.423Z" style="fill:#fff;"/><path d="M15.345,36.742c0.437,1.292 -0.256,2.694 -1.557,3.134c-1.292,0.437 -2.703,-0.254 -3.14,-1.546c-0.44,-1.301 0.263,-2.705 1.555,-3.142c1.3,-0.44 2.702,0.253 3.142,1.554Z" style="fill:#40494d;"/><path d="M13.852,37.247c0.157,0.462 -0.097,0.976 -0.569,1.136c-0.471,0.159 -0.977,-0.098 -1.133,-0.561c-0.159,-0.471 0.086,-0.982 0.557,-1.142c0.472,-0.159 0.986,0.095 1.145,0.567Z" style="fill:#fff;"/></g><g><path d="M59.003,32.479l-6.068,3.827l-6.077,3.823l-0.267,-0.462l-0.266,-0.472l6.336,-3.363l6.342,-3.353Z" style="fill:#fff;"/><path d="M50.919,35.138c1.318,0.352 2.101,1.705 1.747,3.032c-0.352,1.318 -1.708,2.11 -3.026,1.758c-1.327,-0.354 -2.107,-1.717 -1.755,-3.035c0.354,-1.327 1.708,-2.11 3.034,-1.755Z" style="fill:#40494d;"/><path d="M50.513,36.66c0.472,0.126 0.759,0.623 0.63,1.103c-0.128,0.481 -0.622,0.759 -1.094,0.633c-0.481,-0.128 -0.77,-0.615 -0.642,-1.096c0.129,-0.481 0.625,-0.768 1.106,-0.64Z" style="fill:#fff;"/></g><g><path d="M98.205,41.161l-6.786,-2.327l-6.79,-2.335l0.193,-0.498l0.201,-0.503l6.593,2.826l6.589,2.837Z" style="fill:#fff;"/><path d="M91.064,36.532c0.553,1.247 -0.011,2.706 -1.266,3.262c-1.247,0.552 -2.715,-0.007 -3.267,-1.254c-0.556,-1.256 0.015,-2.719 1.263,-3.271c1.255,-0.556 2.714,0.007 3.27,1.263Z" style="fill:#40494d;"/><path d="M89.623,37.17c0.198,0.447 -0.008,0.982 -0.464,1.183c-0.455,0.202 -0.981,-0.009 -1.179,-0.455c-0.201,-0.455 -0.003,-0.986 0.452,-1.188c0.455,-0.202 0.99,0.005 1.191,0.46Z" style="fill:#fff;"/></g><g><path d="M139.141,41.803l-6.608,-2.79l-6.612,-2.799l0.226,-0.484l0.236,-0.488l6.382,3.275l6.376,3.286Z" style="fill:#fff;"/><path d="M132.338,36.691c0.465,1.282 -0.198,2.699 -1.489,3.167c-1.282,0.465 -2.707,-0.195 -3.172,-1.477c-0.468,-1.291 0.203,-2.711 1.486,-3.176c1.291,-0.468 2.707,0.195 3.175,1.486Z" style="fill:#40494d;"/><path d="M130.857,37.228c0.166,0.459 -0.077,0.979 -0.545,1.148c-0.468,0.17 -0.978,-0.076 -1.145,-0.536c-0.17,-0.467 0.065,-0.984 0.533,-1.153c0.468,-0.17 0.987,0.073 1.157,0.541Z" style="fill:#fff;"/></g><g><path d="M180.51,32.456l-6.058,3.842l-6.066,3.84l-0.269,-0.461l-0.266,-0.471l6.326,-3.381l6.333,-3.369Z" style="fill:#fff;"/><path d="M172.434,35.136c1.318,0.348 2.105,1.7 1.754,3.028c-0.348,1.318 -1.702,2.114 -3.021,1.766c-1.327,-0.351 -2.112,-1.712 -1.763,-3.03c0.35,-1.328 1.702,-2.115 3.03,-1.764Z" style="fill:#40494d;"/><path d="M172.031,36.659c0.472,0.125 0.761,0.621 0.634,1.102c-0.128,0.481 -0.621,0.761 -1.093,0.636c-0.481,-0.127 -0.772,-0.614 -0.645,-1.095c0.127,-0.481 0.623,-0.77 1.104,-0.643Z" style="fill:#fff;"/></g><g><path d="M221.654,41.555l-6.682,-2.611l-6.685,-2.62l0.214,-0.49l0.222,-0.493l6.468,3.101l6.463,3.113Z" style="fill:#fff;"/><path d="M214.715,36.629c0.499,1.269 -0.125,2.703 -1.403,3.205c-1.269,0.5 -2.712,-0.121 -3.211,-1.391c-0.502,-1.278 0.131,-2.715 1.4,-3.214c1.278,-0.503 2.712,0.122 3.214,1.4Z" style="fill:#40494d;"/><path d="M213.249,37.205c0.178,0.455 -0.051,0.981 -0.514,1.163c-0.463,0.182 -0.98,-0.05 -1.159,-0.505c-0.182,-0.463 0.038,-0.985 0.502,-1.168c0.463,-0.182 0.989,0.047 1.171,0.51Z" style="fill:#fff;"/></g></svg>